<svg width="24" height="24" viewBox="0 0 24 24" fill="none" xmlns="http://www.w3.org/2000/svg">
<path d="M3.00015 6.42209L6.42121 3.00104L5.00015 1.57999L1.5791 5.00104L3.00015 6.42209ZM22.4212 5.00104L19.0002 1.57999L17.5791 3.00104L21.0002 6.42209L22.4212 5.00104ZM12.0002 19.001C7.98261 19.001 5.00015 16.0186 5.00015 12.001C5.00015 7.9835 7.98261 5.00104 12.0002 5.00104C16.0177 5.00104 19.0002 7.9835 19.0002 12.001C19.0002 16.0186 16.0177 19.001 12.0002 19.001ZM12.0002 21.001C17.0002 21.001 21.0002 17.001 21.0002 12.001C21.0002 7.00104 17.0002 3.00104 12.0002 3.00104C7.00015 3.00104 3.00015 7.00104 3.00015 12.001C3.00015 17.001 7.00015 21.001 12.0002 21.001ZM11.0002 7.00104V12.4221L15.0002 16.4221L16.4212 15.001L13.0002 11.58V7.00104H11.0002Z" fill="#333333"/>
</svg>
