<svg width="24" height="24" viewBox="0 0 24 24" fill="none" xmlns="http://www.w3.org/2000/svg">
<path d="M3.00015 6.42206L6.42121 3.00101L5.00015 1.57996L1.5791 5.00101L3.00015 6.42206ZM22.4212 5.00101L19.0002 1.57996L17.5791 3.00101L21.0002 6.42206L22.4212 5.00101ZM12.0002 19.001C7.98261 19.001 5.00015 16.0186 5.00015 12.001C5.00015 7.98346 7.98261 5.00101 12.0002 5.00101C16.0177 5.00101 19.0002 7.98346 19.0002 12.001C19.0002 16.0186 16.0177 19.001 12.0002 19.001ZM12.0002 21.001C17.0002 21.001 21.0002 17.001 21.0002 12.001C21.0002 7.00101 17.0002 3.00101 12.0002 3.00101C7.00015 3.00101 3.00015 7.00101 3.00015 12.001C3.00015 17.001 7.00015 21.001 12.0002 21.001ZM16.0002 11.001H13.0002V8.00101H11.0002V13.001H16.0002V11.001ZM8.00015 13.001H11.0002V16.001H13.0002V11.001H8.00015V13.001Z" fill="#333333"/>
</svg>
