<svg width="24" height="24" viewBox="0 0 24 24" fill="none" xmlns="http://www.w3.org/2000/svg">
<path d="M3.42114 11.9825C3.36266 12.0409 3.33342 12.0468 3.33342 12C3.33342 11.9532 3.36266 11.9591 3.42114 12.0175L9.45623 18.0526C9.42114 18.0175 9.38605 18 9.35097 18H19.9825C20.041 18 20.0703 18.0117 20.0703 18.0351C20.0703 18.0585 20.0586 18.0702 20.0352 18.0702C20.0118 18.0702 20.0001 18.0409 20.0001 17.9825V6.01754C20.0001 5.95906 20.0118 5.92982 20.0352 5.92982C20.0586 5.92982 20.0703 5.94152 20.0703 5.96491C20.0703 5.9883 20.041 6 19.9825 6H9.35097C9.38605 6 9.42114 5.98246 9.45623 5.94737L3.42114 11.9825ZM8.05272 4.54386C8.22816 4.36842 8.42699 4.23392 8.64921 4.14035C8.87143 4.04678 9.10535 4 9.35097 4H19.9825C20.544 4 21.0176 4.19883 21.4036 4.59649C21.8013 4.98246 22.0001 5.45614 22.0001 6.01754V17.9825C22.0001 18.5439 21.8013 19.0234 21.4036 19.4211C21.0176 19.807 20.544 20 19.9825 20H9.35097C9.10535 20 8.87143 19.9532 8.64921 19.8596C8.42699 19.7661 8.22816 19.6316 8.05272 19.4561L2.01763 13.4211C1.61997 13.0234 1.42114 12.5497 1.42114 12C1.42114 11.4503 1.61997 10.9766 2.01763 10.5789L8.05272 4.54386ZM18.4211 9L11.0001 16.4211L9.57904 15L17.0001 7.57895L18.4211 9ZM17.0001 16.4211L9.57904 9L11.0001 7.57895L18.4211 15L17.0001 16.4211Z" fill="#333333"/>
</svg>
