<svg width="24" height="24" viewBox="0 0 24 24" fill="none" xmlns="http://www.w3.org/2000/svg">
<path d="M22.7895 7.59652C22.9298 8.84798 23 10.0351 23 11.1579V12.8246C23 13.9591 22.9298 15.1462 22.7895 16.386C22.7193 16.8187 22.6082 17.2398 22.4561 17.6491C22.3041 18.0468 22.1228 18.3568 21.9123 18.579C21.5848 18.9182 21.2573 19.1462 20.9298 19.2632C20.6023 19.3684 20.2456 19.4445 19.8596 19.4913L19.7018 19.5088C17.7602 19.6375 15.193 19.7135 12 19.7369C8.12865 19.7018 5.63743 19.6258 4.52632 19.5088L4.22807 19.4737C3.78363 19.4152 3.39181 19.3334 3.05263 19.2281C2.71345 19.1111 2.39181 18.8948 2.08772 18.579C1.87719 18.3568 1.69591 18.0468 1.54386 17.6491C1.39181 17.2398 1.2807 16.8187 1.21053 16.386C1.07018 15.1462 1 13.9591 1 12.8246V11.1579C1 10.0351 1.07602 8.84798 1.22807 7.59652C1.29825 7.16377 1.40351 6.74856 1.54386 6.3509C1.69591 5.95324 1.87719 5.6433 2.08772 5.42108C2.4269 5.05851 2.77193 4.81874 3.12281 4.70178C3.47368 4.58482 3.83626 4.51465 4.21053 4.49125H4.29825L12 4.26318C15.193 4.27488 17.7602 4.3509 19.7018 4.49125H19.7895C20.1637 4.51465 20.5263 4.58482 20.8772 4.70178C21.2281 4.81874 21.5731 5.05851 21.9123 5.42108C22.1228 5.6433 22.3041 5.95324 22.4561 6.3509C22.6082 6.74856 22.7193 7.16377 22.7895 7.59652ZM15.6667 11.772L9.7193 8.66669V14.8597L15.6667 11.772Z" fill="#333333"/>
</svg>
