<svg width="24" height="24" viewBox="0 0 24 24" fill="none" xmlns="http://www.w3.org/2000/svg">
<path d="M4.43848 5.12281C4.43848 4.37427 4.61976 3.68421 4.98234 3.05263C5.35661 2.42105 5.85953 1.92398 6.49111 1.5614C7.12269 1.18713 7.81275 1 8.56128 1H11.3157H11.9999H12.6841H15.4385C16.187 1 16.8771 1.18713 17.5087 1.5614C18.1402 1.92398 18.6373 2.42105 18.9999 3.05263C19.3741 3.68421 19.5613 4.37427 19.5613 5.12281C19.5613 5.82456 19.3917 6.47953 19.0525 7.08772C18.725 7.69591 18.2806 8.18713 17.7192 8.5614C18.2806 8.93567 18.725 9.4269 19.0525 10.0351C19.3917 10.6433 19.5613 11.2982 19.5613 12C19.5613 12.7485 19.3741 13.4386 18.9999 14.0702C18.6373 14.7018 18.1402 15.2047 17.5087 15.5789C16.8771 15.9415 16.187 16.1228 15.4385 16.1228C14.9239 16.1228 14.4268 16.0292 13.9472 15.8421C13.4794 15.655 13.0584 15.3977 12.6841 15.0702V15.4386V16.1228V18.8772C12.6841 19.6257 12.497 20.3158 12.1227 20.9474C11.7601 21.5789 11.263 22.0819 10.6315 22.4561C9.99988 22.8187 9.30982 23 8.56128 23C7.81275 23 7.12269 22.8187 6.49111 22.4561C5.85953 22.0819 5.35661 21.5789 4.98234 20.9474C4.61976 20.3158 4.43848 19.6257 4.43848 18.8772C4.43848 18.1754 4.60222 17.5205 4.92971 16.9123C5.26889 16.3041 5.71918 15.8129 6.28058 15.4386C5.71918 15.0643 5.26889 14.5731 4.92971 13.9649C4.60222 13.3567 4.43848 12.7018 4.43848 12C4.43848 11.2982 4.60222 10.6433 4.92971 10.0351C5.26889 9.4269 5.71918 8.93567 6.28058 8.5614C5.71918 8.18713 5.26889 7.69591 4.92971 7.08772C4.60222 6.47953 4.43848 5.82456 4.43848 5.12281ZM11.3157 12V9.24562H8.56128C8.07006 9.24562 7.60807 9.36842 7.17532 9.61403C6.75427 9.85965 6.42093 10.193 6.17532 10.614C5.92971 11.0351 5.8069 11.4971 5.8069 12C5.8069 12.5029 5.92971 12.9649 6.17532 13.386C6.42093 13.807 6.75427 14.1404 7.17532 14.386C7.60807 14.6316 8.07006 14.7544 8.56128 14.7544H11.3157V12ZM8.56128 16.1228C8.07006 16.1228 7.60807 16.2456 7.17532 16.4912C6.75427 16.7368 6.42093 17.0702 6.17532 17.4912C5.92971 17.9123 5.8069 18.3743 5.8069 18.8772C5.8069 19.3684 5.92971 19.8246 6.17532 20.2456C6.43263 20.6667 6.77181 21.0058 7.19286 21.2632C7.61392 21.5088 8.07006 21.6316 8.56128 21.6316C9.06421 21.6316 9.5262 21.5088 9.94725 21.2632C10.3683 21.0175 10.7016 20.6842 10.9472 20.2632C11.1929 19.8304 11.3157 19.3684 11.3157 18.8772V16.1228H8.56128ZM11.3157 2.36842H8.56128C8.07006 2.36842 7.61392 2.49708 7.19286 2.75438C6.77181 3 6.43263 3.33333 6.17532 3.75439C5.92971 4.17544 5.8069 4.63158 5.8069 5.12281C5.8069 5.62573 5.92971 6.08772 6.17532 6.50877C6.42093 6.92982 6.75427 7.26316 7.17532 7.50877C7.60807 7.75439 8.07006 7.87719 8.56128 7.87719H11.3157V2.36842ZM15.4385 7.87719C15.9414 7.87719 16.4034 7.75439 16.8244 7.50877C17.2455 7.26316 17.5788 6.92982 17.8244 6.50877C18.0701 6.08772 18.1929 5.62573 18.1929 5.12281C18.1929 4.63158 18.0701 4.17544 17.8244 3.75439C17.5788 3.32164 17.2455 2.98246 16.8244 2.73684C16.4034 2.49123 15.9414 2.36842 15.4385 2.36842H12.6841V7.87719H15.4385ZM12.6841 12C12.6841 12.5029 12.8069 12.9649 13.0525 13.386C13.2981 13.807 13.6315 14.1404 14.0525 14.386C14.4853 14.6316 14.9472 14.7544 15.4385 14.7544C15.9414 14.7544 16.4034 14.6316 16.8244 14.386C17.2455 14.1404 17.5788 13.807 17.8244 13.386C18.0701 12.9649 18.1929 12.5029 18.1929 12C18.1929 11.4971 18.0701 11.0351 17.8244 10.614C17.5788 10.193 17.2455 9.85965 16.8244 9.61403C16.4034 9.36842 15.9414 9.24562 15.4385 9.24562C14.9472 9.24562 14.4853 9.36842 14.0525 9.61403C13.6315 9.85965 13.2981 10.193 13.0525 10.614C12.8069 11.0351 12.6841 11.4971 12.6841 12Z" fill="#333333"/>
</svg>
