<svg width="24" height="24" viewBox="0 0 24 24" fill="none" xmlns="http://www.w3.org/2000/svg">
<path d="M12 2C13.8012 2 15.4678 2.45029 17 3.35088C18.5322 4.23977 19.7485 5.45029 20.6491 6.98246C21.5497 8.51462 22 10.1871 22 12C22 13.8129 21.5497 15.4854 20.6491 17.0175C19.7485 18.5497 18.5322 19.7661 17 20.6667C15.4678 21.5556 13.8012 22 12 22C10.1871 22 8.51462 21.5556 6.98246 20.6667C5.45029 19.7661 4.23392 18.5497 3.33333 17.0175C2.44444 15.4854 2 13.8129 2 12C2 10.1871 2.44444 8.51462 3.33333 6.98246C4.23392 5.45029 5.45029 4.23977 6.98246 3.35088C8.51462 2.45029 10.1871 2 12 2ZM18.5965 6.61404C18.2807 7.02339 17.7368 7.54971 16.9649 8.19298C16.2047 8.83626 15.1637 9.4269 13.8421 9.96491C14.0643 10.4211 14.2515 10.8363 14.4035 11.2105L14.5965 11.6491C15.7427 11.5088 16.8363 11.4854 17.8772 11.5789C18.9298 11.6725 19.7953 11.7836 20.4737 11.9123L20.5439 11.9298C20.5322 10.9357 20.3567 9.9883 20.0175 9.08772C19.6784 8.17544 19.2047 7.35088 18.5965 6.61404ZM12 3.47368C11.2749 3.47368 10.6082 3.54971 10 3.70176C10.0468 3.74854 10.0936 3.81871 10.1404 3.91228C11.3918 5.67836 12.4035 7.27485 13.1754 8.70175C14.462 8.22222 15.4678 7.67836 16.193 7.07018C16.9181 6.46199 17.4094 5.97661 17.6667 5.61404C16.8947 4.93567 16.0234 4.40936 15.0526 4.03509C14.0819 3.66082 13.0643 3.47368 12 3.47368ZM8.36842 4.2807C7.16374 4.84211 6.14035 5.64912 5.29825 6.70176C4.46784 7.75439 3.91228 8.93567 3.63158 10.2456H3.66667C4.50877 10.2456 5.61988 10.1813 7 10.0526C8.38012 9.92398 9.88889 9.64327 11.5263 9.21053C10.9181 8.1345 10.2982 7.12281 9.66667 6.17544C9.04678 5.22807 8.61404 4.59649 8.36842 4.2807ZM3.45614 12.0175C3.45614 13.0936 3.64327 14.1228 4.01754 15.1053C4.40351 16.076 4.94737 16.9474 5.64912 17.7193C5.87135 17.3333 6.25146 16.807 6.78947 16.1404C7.32749 15.462 8.09942 14.7251 9.10526 13.9298C10.1111 13.1228 11.269 12.5088 12.5789 12.0877L12.9298 11.9825C12.5439 11.1871 12.3099 10.7076 12.2281 10.5439C10.4854 11.0585 8.8421 11.3918 7.29825 11.5439C5.75439 11.6842 4.48538 11.7544 3.49123 11.7544H3.45614V12.0175ZM12 20.5439C13.2047 20.5439 14.3158 20.3158 15.3333 19.8596C15.2164 19.1579 15.0117 18.2398 14.7193 17.1053C14.4386 15.9708 14.0409 14.731 13.5263 13.386L13.4561 13.4035C12.0292 13.9064 10.8246 14.538 9.84211 15.2982C8.87135 16.0468 8.1579 16.7251 7.70175 17.3333C7.24561 17.9298 6.92982 18.4035 6.75439 18.7544C7.50292 19.3275 8.32164 19.7719 9.21053 20.0877C10.0994 20.3918 11.0292 20.5439 12 20.5439ZM16.7544 19.0877C17.7251 18.4327 18.5322 17.6082 19.1754 16.614C19.8187 15.6199 20.2339 14.538 20.4211 13.3684C19.9883 13.2164 19.2749 13.076 18.2807 12.9474C17.2982 12.807 16.2398 12.8246 15.1053 13C15.5731 14.3099 15.9415 15.5029 16.2105 16.5789C16.4795 17.655 16.6608 18.4912 16.7544 19.0877Z" fill="#333333"/>
</svg>
