<svg width="24" height="24" viewBox="0 0 24 24" fill="none" xmlns="http://www.w3.org/2000/svg">
<path d="M12.0352 18.0175C13.0527 18.0175 13.9182 17.8596 14.6317 17.5439C15.3568 17.2281 15.9007 16.7953 16.2633 16.2456C16.6258 15.6842 16.8071 15.0526 16.8071 14.3509C16.8071 13.5789 16.5732 12.9006 16.1054 12.3158C15.6492 11.7193 14.8714 11.2982 13.772 11.0526L11.5791 10.5614C11.041 10.4444 10.6083 10.2982 10.2808 10.1228C9.96501 9.93567 9.80712 9.66667 9.80712 9.31579C9.80712 8.89474 9.96501 8.5614 10.2808 8.31579C10.6083 8.07018 11.0703 7.94737 11.6668 7.94737C12.2983 7.94737 12.7779 8.04094 13.1054 8.22807C13.4329 8.41521 13.7486 8.67836 14.0527 9.01754C14.2516 9.23977 14.4212 9.40351 14.5615 9.50877C14.7136 9.60234 14.9007 9.64912 15.1229 9.64912C15.4504 9.64912 15.7252 9.5614 15.9475 9.38597C16.1814 9.21053 16.2983 8.96491 16.2983 8.64912C16.2983 8.15789 16.0703 7.7076 15.6141 7.29825C15.1697 6.88889 14.5966 6.56725 13.8948 6.33333C13.2048 6.09942 12.5147 5.98246 11.8247 5.98246C11.0293 5.98246 10.2867 6.09942 9.59659 6.33333C8.91823 6.56725 8.36268 6.94737 7.92993 7.47368C7.49718 7.9883 7.2808 8.64912 7.2808 9.45614C7.2808 10.193 7.47379 10.8363 7.85975 11.386C8.24572 11.924 8.98256 12.3333 10.0703 12.614L13.0352 13.3684C13.4445 13.462 13.7369 13.6199 13.9124 13.8421C14.0995 14.0643 14.1931 14.3041 14.1931 14.5614C14.1931 14.8304 14.1054 15.0877 13.9299 15.3333C13.7545 15.5673 13.503 15.7602 13.1755 15.9123C12.8481 16.0643 12.4679 16.1404 12.0352 16.1404C11.5674 16.1404 11.1755 16.076 10.8598 15.9474C10.544 15.8187 10.2925 15.6725 10.1054 15.5088C9.92993 15.3333 9.74279 15.1053 9.54396 14.8246C9.32174 14.5322 9.12876 14.3216 8.96502 14.193C8.81297 14.0643 8.60244 14 8.33344 14C8.02934 14 7.76034 14.0994 7.52642 14.2982C7.3042 14.5205 7.19308 14.7836 7.19308 15.0877C7.19308 15.5322 7.37437 15.9825 7.73695 16.4386C8.09952 16.883 8.64338 17.2573 9.36852 17.5614C10.1054 17.8655 10.9943 18.0175 12.0352 18.0175ZM21.2106 13.6316C21.7019 14.4971 21.9475 15.4269 21.9475 16.4211C21.9475 17.4152 21.696 18.345 21.1931 19.2105C20.7019 20.0643 20.0235 20.7427 19.158 21.2456C18.3042 21.7368 17.3802 21.9883 16.3861 22C15.3919 22 14.4738 21.7544 13.6317 21.2632C12.1229 21.5322 10.6375 21.4386 9.17554 20.9825C7.71355 20.5146 6.4387 19.7368 5.35098 18.6491C4.27496 17.5614 3.50887 16.2866 3.05273 14.8246C2.59659 13.3626 2.50887 11.8772 2.78958 10.3684C2.29835 9.50292 2.05273 8.5731 2.05273 7.57895C2.05273 6.5848 2.3042 5.66082 2.80712 4.80702C3.29835 3.94152 3.97086 3.26316 4.82466 2.77193C5.69016 2.26901 6.61999 2.0117 7.61414 2C8.63168 2 9.54981 2.24561 10.3685 2.73684C11.7369 2.49123 13.0878 2.54971 14.4212 2.91228C15.7662 3.27485 16.9709 3.90059 18.0352 4.78947C19.0995 5.67836 19.9182 6.75439 20.4913 8.01754C21.0761 9.26901 21.3685 10.5906 21.3685 11.9825C21.3685 12.5322 21.3159 13.0819 21.2106 13.6316Z" fill="#333333"/>
</svg>
