<svg width="24" height="24" viewBox="0 0 24 24" fill="none" xmlns="http://www.w3.org/2000/svg">
<path d="M16.0175 2C16.0175 2.83041 16.2163 3.60234 16.6139 4.31579C17.0116 5.02924 17.5555 5.60234 18.2455 6.03509C18.9473 6.46784 19.7134 6.69591 20.5438 6.7193V10.1404C19.7368 10.1287 18.9531 9.99415 18.1929 9.73684C17.4327 9.47953 16.7251 9.11111 16.0701 8.63158V15.6316C16.0701 16.7778 15.7894 17.8421 15.228 18.8246C14.6666 19.7953 13.9005 20.5673 12.9297 21.1404C11.9707 21.7134 10.918 22 9.77184 22C8.62565 22 7.56717 21.7193 6.59641 21.1579C5.63734 20.5848 4.87126 19.8129 4.29816 18.8421C3.73676 17.8596 3.45605 16.7895 3.45605 15.6316C3.45605 14.4854 3.73091 13.4269 4.28062 12.4561C4.84202 11.4854 5.59641 10.7134 6.54377 10.1404C7.49114 9.55556 8.52623 9.25731 9.64904 9.24562V12.6667C9.14611 12.6784 8.67828 12.8246 8.24553 13.1053C7.81278 13.3743 7.46775 13.731 7.21044 14.1754C6.95313 14.6199 6.82448 15.1053 6.82448 15.6316C6.82448 16.1579 6.95313 16.6491 7.21044 17.1053C7.47945 17.5614 7.83617 17.924 8.28062 18.193C8.72506 18.4503 9.21044 18.5789 9.73676 18.5789C10.2631 18.5789 10.7485 18.4503 11.1929 18.193C11.6373 17.924 11.9882 17.5614 12.2455 17.1053C12.5145 16.6491 12.649 16.1579 12.649 15.6316V2H16.0175Z" fill="#333333"/>
</svg>
