<svg width="24" height="24" viewBox="0 0 24 24" fill="none" xmlns="http://www.w3.org/2000/svg">
<path d="M12.5088 17C12.5088 16.1813 12.7076 15.4269 13.1053 14.7368C13.5146 14.0468 14.0585 13.5029 14.7368 13.1053C15.4269 12.6959 16.1813 12.4912 17 12.4912C17.8187 12.4912 18.5731 12.6959 19.2632 13.1053C19.9532 13.5029 20.4971 14.0526 20.8947 14.7544C21.3041 15.4444 21.5088 16.193 21.5088 17C21.5088 17.807 21.3041 18.5556 20.8947 19.2456C20.4971 19.9357 19.9474 20.4854 19.2456 20.8947C18.5556 21.2924 17.807 21.4912 17 21.4912C16.1813 21.4912 15.4269 21.2924 14.7368 20.8947C14.0585 20.4854 13.5146 19.9415 13.1053 19.2632C12.7076 18.5731 12.5088 17.8187 12.5088 17ZM14.5088 17C14.5088 17.4912 14.6082 17.9298 14.807 18.3158C15.0175 18.6901 15.3099 18.9825 15.6842 19.193C16.0702 19.3918 16.5088 19.4912 17 19.4912C17.5029 19.4912 17.9415 19.3918 18.3158 19.193C18.7018 18.9825 18.9942 18.6901 19.193 18.3158C19.4035 17.9298 19.5088 17.4912 19.5088 17C19.5088 16.4971 19.4035 16.0585 19.193 15.6842C18.9942 15.2982 18.7018 15.0058 18.3158 14.807C17.9415 14.5965 17.5029 14.4912 17 14.4912C16.5088 14.4912 16.0702 14.5965 15.6842 14.807C15.3099 15.0058 15.0175 15.2982 14.807 15.6842C14.6082 16.0585 14.5088 16.4971 14.5088 17ZM11 13V21H3V13H11ZM5 19H9V15H5V19ZM18.0702 11.4912H5.92982L12 1L18.0702 11.4912ZM9.40351 9.49123H14.5965L12 5L9.40351 9.49123Z" fill="#333333"/>
</svg>
