<svg width="24" height="24" viewBox="0 0 24 24" fill="none" xmlns="http://www.w3.org/2000/svg">
<path d="M6 7V20C6 20.0702 5.98246 20.1053 5.94737 20.1053C5.92398 20.0936 5.90643 20.076 5.89474 20.0526C5.89474 20.0175 5.92982 20 6 20H18C18.0702 20 18.0994 20.0175 18.0877 20.0526C18.0877 20.076 18.0702 20.0936 18.0351 20.1053C18.0117 20.1053 18 20.0702 18 20V7H6ZM20 20C20 20.3626 19.9123 20.7018 19.7368 21.0175C19.5614 21.3216 19.3158 21.5614 19 21.7368C18.6959 21.9123 18.3626 22 18 22H6C5.63743 22 5.29825 21.9123 4.98246 21.7368C4.67836 21.5614 4.4386 21.3216 4.26316 21.0175C4.08772 20.7018 4 20.3626 4 20V5H20V20ZM2 5H6V7H2V5ZM22 7H18V5H22V7ZM16 4H8V2H16V4ZM9 8.57895L16.4211 16L15 17.4211L7.57895 10L9 8.57895ZM16.4211 10L9 17.4211L7.57895 16L15 8.57895L16.4211 10Z" fill="#333333"/>
</svg>
