<svg width="24" height="24" viewBox="0 0 24 24" fill="none" xmlns="http://www.w3.org/2000/svg">
<path d="M2.96491 5.87247C2.36842 6.2058 2 6.85493 2 7.52159V19.9777C2 21.1181 2.87719 21.9953 4.01754 21.9953H19.9825C21.1228 21.9953 22 21.1181 22 19.9777V7.52159C22 6.85493 21.6316 6.2058 21.0351 5.87247L12.8947 1.3637C12.3333 1.06545 11.6667 1.06545 11.1053 1.3637L2.96491 5.87247ZM3.94737 7.62686L12.0526 3.11808C12.1053 3.10054 11.8947 3.10054 11.9474 3.11808L20.0526 7.62686C20.1053 7.6444 20 7.45142 20 7.52159V19.9777C20 19.9953 20 19.9953 19.9825 19.9953H4.01754C4 19.9953 4 19.9953 4 19.9777V7.52159C4 7.45142 3.89474 7.6444 3.94737 7.62686ZM2.38596 7.78475L10.807 14.3286C11.5088 14.89 12.4912 14.89 13.193 14.3286L21.614 7.78475L20.386 6.2058L11.9649 12.7497C11.8772 12.8198 12.1228 12.8198 12.0351 12.7497L3.61404 6.2058L2.38596 7.78475Z" fill="#333333"/>
</svg>
