<svg width="24" height="24" viewBox="0 0 24 24" fill="none" xmlns="http://www.w3.org/2000/svg">
<path d="M17.2985 8.29826L6.49149 19.1053L4.36868 19.6316L4.89499 17.5088L15.702 6.70177L14.2985 5.29826L3.10552 16.4912L1.63184 22.3684L7.50903 20.8947L18.702 9.70177L17.2985 8.29826ZM18.702 9.70177L20.9827 7.42106C21.7897 6.63159 21.7897 5.36843 20.9827 4.57896L19.4213 3.01756C18.6318 2.21054 17.3687 2.21054 16.5792 3.01756L14.2985 5.29826L15.702 6.70177L17.9827 4.42106C18.0003 4.42106 18.0003 4.42106 18.0178 4.42106L19.5792 5.98247C19.5792 6.00001 19.5792 6.00001 19.5792 6.01756L17.2985 8.29826L18.702 9.70177ZM18.702 8.29826L15.702 5.29826L14.2985 6.70177L17.2985 9.70177L18.702 8.29826Z" fill="#333333"/>
</svg>
