<svg width="24" height="24" viewBox="0 0 24 24" fill="none" xmlns="http://www.w3.org/2000/svg">
<path d="M2.99991 1.57886L3.01745 1.5964L5.68412 4.26307L7.07009 5.64903L10.6139 9.17535L14.8245 13.3859L18.3508 16.9297L19.7368 18.3157L22.421 20.9999L20.9999 22.421L18.3157 19.7368C17.4385 20.4619 16.4619 21.0233 15.3859 21.421C14.3099 21.8069 13.1812 21.9999 11.9999 21.9999C10.1987 21.9999 8.52623 21.5555 6.98237 20.6666C5.4502 19.766 4.23383 18.5496 3.33324 17.0175C2.44435 15.4736 1.99991 13.8011 1.99991 11.9999C1.99991 10.8186 2.19289 9.68997 2.57886 8.61395C2.97652 7.53792 3.53792 6.56131 4.26307 5.68412L1.57886 2.99991L2.99991 1.57886ZM3.99991 11.9999C3.99991 13.4853 4.35079 14.842 5.05254 16.0701C5.7543 17.2865 6.71336 18.2455 7.92973 18.9473C9.1578 19.649 10.5145 19.9999 11.9999 19.9999C12.9356 19.9999 13.8245 19.8596 14.6666 19.5789C15.5087 19.2865 16.2631 18.8771 16.9297 18.3508L13.4034 14.8069L7.08763 16.9122L9.19289 10.5964L5.64903 7.07009C5.12272 7.73675 4.71336 8.49114 4.42096 9.33324C4.14026 10.1753 3.99991 11.0642 3.99991 11.9999ZM7.42096 3.17535C8.11102 2.80108 8.84202 2.51453 9.61395 2.3157C10.3859 2.10517 11.1812 1.99991 11.9999 1.99991C13.8128 1.99991 15.4853 2.4502 17.0175 3.35079C18.5496 4.23968 19.7601 5.4502 20.649 6.98237C21.5496 8.51453 21.9999 10.187 21.9999 11.9999C21.9999 12.8186 21.8946 13.6139 21.6841 14.3859C21.4853 15.1578 21.1987 15.8888 20.8245 16.5789L19.3157 15.0525C19.5262 14.5964 19.69 14.111 19.8069 13.5964C19.9356 13.0818 19.9999 12.5496 19.9999 11.9999C19.9999 10.5028 19.649 9.14611 18.9473 7.92973C18.2572 6.70166 17.2982 5.7426 16.0701 5.05254C14.8537 4.35079 13.497 3.99991 11.9999 3.99991C11.4502 3.99991 10.918 4.06424 10.4034 4.19289C9.8888 4.30985 9.40342 4.47359 8.94728 4.68412L7.42096 3.17535ZM16.9122 7.08763L15.5262 11.2631L12.7368 8.47359L16.9122 7.08763Z" fill="#333333"/>
</svg>
