<svg width="24" height="24" viewBox="0 0 24 24" fill="none" xmlns="http://www.w3.org/2000/svg">
<path d="M21 9V5C21 3.87719 20.1228 3 19 3H15V5H19V9H21ZM5 9V5H9V3H5C3.87719 3 3 3.87719 3 5V9H5ZM19 15V19H15V21H19C20.1228 21 21 20.1228 21 19V15H19ZM3 15V19C3 20.1228 3.87719 21 5 21H9V19H5V15H3ZM16 12V9H14V12H16ZM13 14V9H11V14H13ZM10 12V9H8V12H10ZM8.47368 15.5263C9.40351 16.4737 10.6842 17 12 17C13.3158 17 14.5965 16.4737 15.5263 15.5263L16.2456 14.8246L14.8246 13.4035L14.1228 14.1228C13.5088 14.7368 12.8596 15 12 15C11.1404 15 10.4912 14.7368 9.87719 14.1228L9.17544 13.4035L7.75439 14.8246L8.47368 15.5263Z" fill="#333333"/>
</svg>
