<svg width="24" height="24" viewBox="0 0 24 24" fill="none" xmlns="http://www.w3.org/2000/svg">
<path d="M9 8.49123C9 7.01754 10.1579 6 12 6C13.3158 6 14.3333 6.5614 15.2281 7.63158L15.8596 8.40351L17.4035 7.14035L16.7719 6.36842C15.5789 4.92982 13.8772 4 12 4C9.2807 4 7 5.96491 7 8.49123V9.49123H9V8.49123ZM20 11H4V13H20V11ZM7.22807 17.6316C8.42105 19.0702 10.1228 20 12 20C14.7193 20 17 18.0351 17 15.4912V14.4912H15V15.4912C15 16.9825 13.8421 18 12 18C10.6842 18 9.66667 17.4386 8.77193 16.3684L8.14035 15.5965L6.59649 16.8596L7.22807 17.6316Z" fill="#333333"/>
</svg>
