<svg width="24" height="24" viewBox="0 0 24 24" fill="none" xmlns="http://www.w3.org/2000/svg">
<path d="M19 19.0001C19.0702 19.0001 19.0994 19.0176 19.0877 19.0527C19.0877 19.0761 19.0702 19.0937 19.0351 19.1054C19.0117 19.1054 19 19.0703 19 19.0001V10.7194C19 10.6141 18.9825 10.5206 18.9474 10.4387C18.9123 10.3451 18.8596 10.2632 18.7895 10.1931L12 3.4036C11.9415 3.34512 11.9415 3.31588 12 3.31588C12.0585 3.31588 12.0585 3.34512 12 3.4036L5.21053 10.1931C5.14035 10.2632 5.08772 10.3451 5.05263 10.4387C5.01754 10.5206 5 10.6141 5 10.7194V19.0001C5 19.0703 4.98246 19.1054 4.94737 19.1054C4.92398 19.0937 4.90643 19.0761 4.89474 19.0527C4.89474 19.0176 4.92982 19.0001 5 19.0001H19ZM5 21.0001C4.63743 21.0001 4.29825 20.9124 3.98246 20.7369C3.67836 20.5615 3.4386 20.3217 3.26316 20.0176C3.08772 19.7018 3 19.3627 3 19.0001V10.7194C3 10.3802 3.07602 10.0352 3.22807 9.6843C3.38012 9.32173 3.5731 9.02348 3.80702 8.78956L10.5965 2.00009C10.8538 1.74278 11.152 1.57319 11.4912 1.49132C11.8304 1.39775 12.1696 1.39775 12.5088 1.49132C12.8596 1.57319 13.1579 1.74278 13.4035 2.00009L20.193 8.78956C20.4269 9.02348 20.6199 9.32173 20.7719 9.6843C20.924 10.0352 21 10.3802 21 10.7194V19.0001C21 19.3627 20.9123 19.7018 20.7368 20.0176C20.5614 20.3217 20.3158 20.5615 20 20.7369C19.6959 20.9124 19.3626 21.0001 19 21.0001H5Z" fill="#333333"/>
</svg>
