<svg width="24" height="24" viewBox="0 0 24 24" fill="none" xmlns="http://www.w3.org/2000/svg">
<path d="M21 18.9825C21 19.5439 20.8012 20.0234 20.4035 20.4211C20.0175 20.807 19.5439 21 18.9825 21H5.01754C4.45614 21 3.97661 20.807 3.57895 20.4211C3.19298 20.0234 3 19.5439 3 18.9825V7.77193L4.85965 4.03509C5.03509 3.7193 5.27485 3.46784 5.57895 3.2807C5.88304 3.09357 6.21053 3 6.5614 3H17.4386C17.8012 3 18.1345 3.09357 18.4386 3.2807C18.7427 3.46784 18.9766 3.7193 19.1404 4.03509L21 7.77193V18.9825ZM17.3509 4.94737C17.3509 4.93567 17.3567 4.92982 17.3684 4.92982C17.4386 4.97661 17.462 5 17.4386 5H6.5614C6.53801 5 6.5614 4.97661 6.63158 4.92982C6.64327 4.92982 6.64912 4.93567 6.64912 4.94737L5 8.22807V18.9825C5 19.0409 4.9883 19.0702 4.96491 19.0702C4.94152 19.0702 4.92982 19.0585 4.92982 19.0351C4.92982 19.0117 4.95906 19 5.01754 19H18.9825C19.0409 19 19.0702 19.0117 19.0702 19.0351C19.0702 19.0585 19.0585 19.0702 19.0351 19.0702C19.0117 19.0702 19 19.0409 19 18.9825V8.22807L17.3509 4.94737ZM20 9H4V7H20V9Z" fill="#333333"/>
</svg>
