<svg width="24" height="24" viewBox="0 0 24 24" fill="none" xmlns="http://www.w3.org/2000/svg">
<path d="M3.00003 1.57886L3.01758 1.5964L5.85968 4.43851L7.2281 5.78938L17.1579 15.7368L18.5614 17.1403L22.4211 20.9999L21 22.421L17.1579 18.5789L12 23.7368L5.64915 17.3508C4.81875 16.5321 4.16962 15.573 3.70179 14.4736C3.23395 13.3742 3.00003 12.2163 3.00003 10.9999C3.00003 10.0876 3.12869 9.20459 3.386 8.35079C3.655 7.48529 4.04097 6.68997 4.54389 5.96482L1.57898 2.99991L3.00003 1.57886ZM5.00003 10.9999C5.00003 11.9824 5.17547 12.8888 5.52635 13.7192C5.87722 14.5379 6.386 15.2806 7.05266 15.9473L12 20.8946L15.7369 17.1578L5.96494 7.36833C5.64915 7.90634 5.40939 8.47944 5.24565 9.08763C5.0819 9.69582 5.00003 10.3332 5.00003 10.9999ZM7.5088 3.26307C8.17547 2.85371 8.88892 2.54377 9.64916 2.33324C10.4094 2.11102 11.193 1.99991 12 1.99991C13.6375 1.99991 15.1462 2.40342 16.5263 3.21044C17.9065 4.00576 18.9942 5.09348 19.7895 6.47359C20.5965 7.85371 21 9.36248 21 10.9999C21 11.8069 20.8889 12.5906 20.6667 13.3508C20.4562 14.111 20.1404 14.8186 19.7193 15.4736L18.2281 13.9648C18.4737 13.5438 18.6609 13.0876 18.7895 12.5964C18.9299 12.0935 19 11.5613 19 10.9999C19 9.67827 18.6959 8.48529 18.0878 7.42096C17.4796 6.35664 16.6433 5.52038 15.579 4.91219C14.5147 4.304 13.3217 3.99991 12 3.99991C11.4503 3.99991 10.924 4.06424 10.4211 4.19289C9.91816 4.32155 9.45032 4.50868 9.01758 4.7543L7.5088 3.26307Z" fill="#333333"/>
</svg>
