<svg width="24" height="24" viewBox="0 0 24 24" fill="none" xmlns="http://www.w3.org/2000/svg">
<path d="M15 3H19C19.3626 3 19.6959 3.09357 20 3.2807C20.3041 3.45614 20.5439 3.69591 20.7193 4C20.9064 4.30409 21 4.63743 21 5V19C21 19.3509 20.9064 19.6842 20.7193 20C20.5439 20.3041 20.3041 20.5497 20 20.7368C19.6959 20.9123 19.3626 21 19 21H15V19H19C19.0585 19 19.0819 19.0117 19.0702 19.0351C19.0702 19.0585 19.0585 19.076 19.0351 19.0877C19.0117 19.0877 19 19.0585 19 19V5C19 4.94152 19.0117 4.91813 19.0351 4.92982C19.0585 4.92982 19.0702 4.94152 19.0702 4.96491C19.0819 4.9883 19.0585 5 19 5H15V3ZM10.5789 16L16 10.5789L17.4211 12L12 17.4211L10.5789 16ZM16 13.4211L10.5789 8L12 6.57895L17.4211 12L16 13.4211ZM16 13H3V11H16V13Z" fill="#333333"/>
</svg>
