<svg width="24" height="24" viewBox="0 0 24 24" fill="none" xmlns="http://www.w3.org/2000/svg">
<path d="M15 18.9473L20.1579 17.228C20.1813 17.2163 20.1579 17.2572 20.0877 17.3508C20.0292 17.4443 20 17.4736 20 17.4385V5.31569C20 4.47358 20.2047 3.99405 20.614 3.87709C21.0234 3.76013 21.2281 3.91803 21.2281 4.35077C21.2398 4.77183 20.848 5.11101 20.0526 5.36832L15 7.05253L9 5.05253L3.84211 6.77183C3.81871 6.78352 3.83626 6.74259 3.89474 6.64902C3.96491 6.55545 4 6.52621 4 6.5613V18.6841C4 19.5145 3.79532 19.994 3.38596 20.1227C2.9883 20.2397 2.78363 20.0876 2.77193 19.6666C2.76023 19.2338 3.15205 18.8888 3.94737 18.6315L9 16.9473L15 18.9473ZM4.57895 20.5262C4.15789 20.6666 3.74269 20.6783 3.33333 20.5613C2.93567 20.4326 2.61404 20.1987 2.36842 19.8595C2.12281 19.5204 2 19.1286 2 18.6841V6.5613C2 6.17534 2.10526 5.83031 2.31579 5.52621C2.53801 5.22212 2.83626 5.00574 3.21053 4.87709L9 2.94727L15 4.94727L19.4211 3.47358C19.8538 3.33323 20.269 3.32738 20.6667 3.45604C21.0643 3.573 21.386 3.80107 21.6316 4.14025C21.8772 4.47943 22 4.87124 22 5.31569V17.4385C22 17.8128 21.8889 18.1578 21.6667 18.4736C21.4561 18.7777 21.1637 18.994 20.7895 19.1227L15 21.0525L9 19.0525L4.57895 20.5262ZM10 3.9999V17.9999H8V3.9999H10ZM16 5.9999V19.9999H14V5.9999H16Z" fill="#333333"/>
</svg>
