<svg width="24" height="24" viewBox="0 0 24 24" fill="none" xmlns="http://www.w3.org/2000/svg">
<path d="M9 7C9 5.21053 10.2105 4 12 4C13.7895 4 15 5.21053 15 7C15 8.78947 13.7895 10 12 10C10.2105 10 9 8.78947 9 7ZM7 7C7 9.77193 9.22807 12 12 12C14.7719 12 17 9.77193 17 7C17 4.22807 14.7719 2 12 2C9.22807 2 7 4.22807 7 7ZM4 18C4 16.4386 7.24561 15 12 15C16.7544 15 20 16.4386 20 18V20H4V18ZM2 18V20C2 21.1053 2.89474 22 4 22H20C21.1228 22 22 21.1228 22 20V18C22 14.9649 17.3158 13 12 13C6.68421 13 2 14.9649 2 18Z" fill="#333333"/>
</svg>
