<svg width="24" height="24" viewBox="0 0 24 24" fill="none" xmlns="http://www.w3.org/2000/svg">
<path d="M5 16.2632C5.5848 15.9591 6.15205 15.9181 6.70175 16.1404C7.26316 16.3509 7.64912 16.7368 7.85965 17.2982C8.08187 17.848 8.04094 18.4152 7.73684 19H5V16.2632ZM5 14V12H6C6.80702 12 7.5731 12.152 8.29825 12.4561C9.03509 12.7485 9.68421 13.1813 10.2456 13.7544C10.8187 14.3158 11.2515 14.9649 11.5439 15.7018C11.848 16.4269 12 17.193 12 18V19H10V18C10 17.4503 9.90058 16.9415 9.70175 16.4737C9.52632 16.0175 9.23977 15.5789 8.8421 15.1579C8.42105 14.7602 7.98246 14.4737 7.52632 14.2982C7.05848 14.0994 6.54971 14 6 14H5ZM5 10V8H6C7.34503 8 8.61988 8.25146 9.82456 8.75438C11.0526 9.25731 12.1345 9.98246 13.0702 10.9298C14.0175 11.8655 14.7427 12.9474 15.2456 14.1754C15.7485 15.3801 16 16.655 16 18V19H14V18C14 16.9123 13.8012 15.8947 13.4035 14.9474C13.0058 14 12.4269 13.1287 11.6667 12.3333C10.8713 11.5731 10 10.9942 9.05263 10.5965C8.10526 10.1988 7.08772 10 6 10H5ZM5 6V4H6C7.87135 4 9.66082 4.35088 11.3684 5.05263C13.0994 5.80117 14.6082 6.81871 15.8947 8.10526C17.1813 9.39181 18.1988 10.9006 18.9474 12.6316C19.6491 14.3392 20 16.1287 20 18V19H18V18C18 16.386 17.7018 14.8538 17.1053 13.4035C16.4503 11.8947 15.5789 10.5965 14.4912 9.50877C13.4035 8.42105 12.1053 7.54971 10.5965 6.89474C9.1462 6.29824 7.61404 6 6 6H5Z" fill="#333333"/>
</svg>
