<svg width="24" height="24" viewBox="0 0 24 24" fill="none" xmlns="http://www.w3.org/2000/svg">
<path d="M14 12V9H16V12H14ZM8 12V9H10V12H8ZM7.75439 14.8246L9.17544 13.4035L9.87719 14.1228C10.193 14.4269 10.5146 14.6491 10.8421 14.7895C11.1813 14.9298 11.5673 15 12 15C12.4327 15 12.8187 14.9298 13.1579 14.7895C13.4971 14.6491 13.8187 14.4269 14.1228 14.1228L14.8246 13.4035L16.2456 14.8246L15.5263 15.5263C15.0585 15.9942 14.5146 16.3567 13.8947 16.614C13.2866 16.8713 12.655 17 12 17C11.345 17 10.7076 16.8713 10.0877 16.614C9.47953 16.3567 8.94152 15.9942 8.47368 15.5263L7.75439 14.8246ZM12 20C13.4971 20 14.8538 19.6491 16.0702 18.9474C17.2982 18.2456 18.2573 17.2865 18.9474 16.0702C19.6491 14.8421 20 13.4854 20 12C20 10.5029 19.6491 9.1462 18.9474 7.92982C18.2573 6.70175 17.2982 5.74269 16.0702 5.05263C14.8538 4.35088 13.4971 4 12 4C10.5146 4 9.15789 4.35088 7.92982 5.05263C6.71345 5.74269 5.75439 6.70175 5.05263 7.92982C4.35088 9.1462 4 10.5029 4 12C4 13.4854 4.35088 14.8421 5.05263 16.0702C5.75439 17.2865 6.71345 18.2456 7.92982 18.9474C9.15789 19.6491 10.5146 20 12 20ZM12 22C10.1988 22 8.52632 21.5556 6.98246 20.6667C5.45029 19.7661 4.23392 18.5497 3.33333 17.0175C2.44444 15.4737 2 13.8012 2 12C2 10.1871 2.44444 8.51462 3.33333 6.98246C4.23392 5.45029 5.45029 4.23977 6.98246 3.35088C8.52632 2.45029 10.1988 2 12 2C13.8129 2 15.4854 2.45029 17.0175 3.35088C18.5497 4.23977 19.7602 5.45614 20.6491 7C21.5497 8.53216 22 10.1988 22 12C22 13.8012 21.5497 15.4737 20.6491 17.0175C19.7602 18.5497 18.5439 19.7661 17 20.6667C15.4678 21.5556 13.8012 22 12 22Z" fill="#333333"/>
</svg>
