<svg width="24" height="24" viewBox="0 0 24 24" fill="none" xmlns="http://www.w3.org/2000/svg">
<path d="M13.6841 6.22807C14.7017 6.5614 15.3859 6.94737 16.1402 7.64912L18.3157 6.96491L19.5262 9.03509L17.8595 10.5789C18.0525 11.5439 18.0525 12.4561 17.8595 13.4211L19.5262 14.9649L18.3157 17.0351L16.1402 16.3509C15.3859 17.0526 14.7017 17.4386 13.6841 17.7719L13.1929 20H10.8069L10.3157 17.7719C9.29814 17.4386 8.61393 17.0526 7.85955 16.3509L5.68411 17.0351L4.47358 14.9649L6.14025 13.4211C5.94727 12.4561 5.94727 11.5439 6.14025 10.5789L4.47358 9.03509L5.68411 6.96491L7.85955 7.64912C8.61393 6.94737 9.29814 6.5614 10.3157 6.22807L10.8069 4H13.1929L13.6841 6.22807ZM15.4034 4.75439L14.8069 2H9.19288L8.59639 4.75439C8.19288 4.94737 7.80691 5.17544 7.43849 5.42105L4.73674 4.57895L1.94727 9.42105L4.03498 11.3509C3.9999 11.7719 3.9999 12.2281 4.03498 12.6491L1.94727 14.5789L4.73674 19.4211L7.43849 18.5789C7.80691 18.8246 8.19288 19.0526 8.59639 19.2456L9.19288 22H14.8069L15.4034 19.2456C15.8069 19.0526 16.1929 18.8246 16.5613 18.5789L19.2631 19.4211L22.0525 14.5789L19.9648 12.6491C19.9999 12.2281 19.9999 11.7719 19.9648 11.3509L22.0525 9.42105L19.2631 4.57895L16.5613 5.42105C16.1929 5.17544 15.8069 4.94737 15.4034 4.75439ZM7.9999 12C7.9999 14.2105 9.78937 16 11.9999 16C14.2104 16 15.9999 14.2105 15.9999 12C15.9999 9.78947 14.2104 8 11.9999 8C9.78937 8 7.9999 9.78947 7.9999 12ZM9.9999 12C9.9999 10.7719 10.7718 10 11.9999 10C13.228 10 13.9999 10.7719 13.9999 12C13.9999 13.2281 13.228 14 11.9999 14C10.7718 14 9.9999 13.2281 9.9999 12Z" fill="#333333"/>
</svg>
