<svg width="24" height="24" viewBox="0 0 24 24" fill="none" xmlns="http://www.w3.org/2000/svg">
<path d="M21 22.4211L16.9474 18.351L13.4211 21.8773C13.0234 22.2749 12.5497 22.4738 12 22.4738C11.4503 22.4738 10.9766 22.2749 10.5789 21.8773L6.35088 17.6492C5.57895 16.8773 4.99415 16.0059 4.59649 15.0352C4.19883 14.0527 4 13.041 4 12.0001V5.42113L1.57895 3.00007L3 1.57902L22.4211 21.0001L21 22.4211ZM6 12.0001C6 12.8188 6.14035 13.579 6.42105 14.2808C6.71345 14.9825 7.1579 15.6375 7.75439 16.2457L12.2982 20.7895C12.0994 20.8714 11.9006 20.8714 11.7018 20.7895L15.5439 16.9474L6 7.42113V12.0001ZM12 0.912354L20 4.33341V12.0001C20 12.5264 19.9415 13.0469 19.8246 13.5615C19.7193 14.0761 19.5497 14.579 19.3158 15.0702L17.6667 13.4036C17.8889 13.0176 18 12.5498 18 12.0001V5.66674L12 3.08779L8.75439 4.50885L7.22807 2.98253L12 0.912354Z" fill="#333333"/>
</svg>
