<svg width="24" height="24" viewBox="0 0 24 24" fill="none" xmlns="http://www.w3.org/2000/svg">
<path d="M10 7.57902L15.4211 13.0001L14 14.4211L8.57895 9.00007L10 7.57902ZM15.4211 9.00007L10 14.4211L8.57895 13.0001L14 7.57902L15.4211 9.00007ZM16.2456 16.2457C16.8421 15.6375 17.2807 14.9825 17.5614 14.2808C17.8538 13.579 18 12.8188 18 12.0001V5.66674L12 3.08779L6 5.70183V12.0001C6 12.8188 6.14035 13.579 6.42105 14.2808C6.71345 14.9825 7.1579 15.6375 7.75439 16.2457L11.9825 20.4738C12.0409 20.5322 12.0468 20.5615 12 20.5615C11.9532 20.5615 11.9591 20.5322 12.0175 20.4738L16.2456 16.2457ZM13.4211 21.8773C13.0234 22.2749 12.5497 22.4738 12 22.4738C11.4503 22.4738 10.9766 22.2749 10.5789 21.8773L6.35088 17.6492C5.57895 16.889 4.99415 16.0176 4.59649 15.0352C4.19883 14.0527 4 13.041 4 12.0001V4.38604L12 0.912354L20 4.33341V12.0001C20 13.041 19.8012 14.0527 19.4035 15.0352C19.0058 16.0176 18.4211 16.889 17.6491 17.6492L13.4211 21.8773Z" fill="#333333"/>
</svg>
