<svg width="24" height="24" viewBox="0 0 24 24" fill="none" xmlns="http://www.w3.org/2000/svg">
<path d="M12.0003 4C16.5441 4 20.0003 7.45614 20.0003 12C20.0003 16.5439 16.5441 20 12.0003 20C10.4038 20 9.03534 19.5789 7.75464 18.7895L4.36868 19.6316L5.21078 16.2456C4.42131 14.9649 4.00026 13.5965 4.00026 12C4.00026 7.45614 7.4564 4 12.0003 4ZM12.0003 2C6.47394 2 2.00026 6.47368 2.00026 12C2.00026 13.614 2.40377 15.1754 3.07043 16.5263L1.63184 22.3684L7.47394 20.9298C8.82482 21.5965 10.3862 22 12.0003 22C17.5266 22 22.0003 17.5263 22.0003 12C22.0003 6.47368 17.5266 2 12.0003 2ZM6.66692 10.6667V13.3333H9.33359V10.6667H6.66692ZM10.6669 10.6667V13.3333H13.3336V10.6667H10.6669ZM14.6669 10.6667V13.3333H17.3336V10.6667H14.6669Z" fill="#333333"/>
</svg>
