<svg width="24" height="24" viewBox="0 0 24 24" fill="none" xmlns="http://www.w3.org/2000/svg">
<path d="M21 9V13C21 13.3509 20.9064 13.6842 20.7193 14C20.5439 14.3041 20.3041 14.5497 20 14.7368C19.6959 14.9123 19.3626 15 19 15H5C4.64912 15 4.31579 14.9123 4 14.7368C3.69591 14.5497 3.45029 14.3041 3.26316 14C3.08772 13.6842 3 13.3509 3 13V9H5V13C5 13.0585 4.9883 13.0877 4.96491 13.0877C4.94152 13.076 4.92398 13.0585 4.91228 13.0351C4.91228 13.0117 4.94152 13 5 13H19C19.0585 13 19.0819 13.0117 19.0702 13.0351C19.0702 13.0585 19.0585 13.076 19.0351 13.0877C19.0117 13.0877 19 13.0585 19 13V9H21Z" fill="#333333"/>
</svg>
