<svg width="24" height="24" viewBox="0 0 24 24" fill="none" xmlns="http://www.w3.org/2000/svg">
<path d="M15 11H21V4.99997H19V8.99997H15V11ZM5 19V15H9V13H3V19H5ZM3.2807 14.7017L6.22807 17.7544C7.70175 19.2456 9.75439 20.1403 12 20.1403C15.7018 20.1403 18.8421 17.6491 19.8246 14.2807L20.1053 13.3158L18.1754 12.7544L17.8947 13.7193C17.1228 16.3859 14.8947 18.1403 12 18.1403C10.2281 18.1403 8.80702 17.5263 7.66667 16.3508L4.7193 13.2982L3.2807 14.7017ZM20.7193 9.29822L17.7719 6.24558C16.2807 4.7719 14.2632 3.85962 12 3.85962C8.29825 3.85962 5.15789 6.35085 4.17544 9.71927L3.89474 10.6842L5.82456 11.2456L6.10526 10.2807C6.87719 7.614 9.10526 5.85962 12 5.85962C13.7719 5.85962 15.1754 6.4912 16.3333 7.64909L19.2807 10.7017L20.7193 9.29822Z" fill="#333333"/>
</svg>
