<svg width="24" height="24" viewBox="0 0 24 24" fill="none" xmlns="http://www.w3.org/2000/svg">
<path d="M3.00003 1.57898L3.01758 1.59652L6.82459 5.40354L8.28073 6.85968L9.98249 8.56144L15.4386 14.0176L17.4386 16.0176L18.8071 17.386L22.4211 21L21 22.4211L17.1755 18.5965C16.4035 19.041 15.579 19.386 14.7018 19.6316C13.8246 19.8772 12.924 20 12 20C10.4328 20 8.9474 19.6609 7.54389 18.9825C6.14038 18.2924 4.9474 17.3392 3.96494 16.1228C2.99418 14.9065 2.32752 13.5322 1.96494 12C2.22225 10.9474 2.62576 9.9591 3.17547 9.03512C3.72518 8.11114 4.39769 7.30413 5.19301 6.61407L1.57898 3.00003L3.00003 1.57898ZM4.03512 12C4.386 13.2047 4.94155 14.2632 5.70179 15.1755C6.47372 16.0761 7.39769 16.772 8.47372 17.2632C9.56144 17.7544 10.7369 18 12 18C13.3685 18 14.6082 17.7135 15.7193 17.1404L14.0176 15.4386C13.5147 15.731 12.9649 15.9065 12.3685 15.9649C11.7837 16.0234 11.2106 15.9532 10.6492 15.7544C10.0994 15.5556 9.60822 15.2456 9.17547 14.8246C8.75442 14.3918 8.44448 13.9006 8.24565 13.3509C8.04682 12.7895 7.97664 12.2164 8.03512 11.6316C8.0936 11.0351 8.26904 10.4854 8.56144 9.98249L6.56144 7.98249C5.97664 8.49711 5.46787 9.09945 5.03512 9.78951C4.60237 10.4679 4.26904 11.2047 4.03512 12ZM8.80705 4.56144C9.83629 4.18717 10.9006 4.00003 12 4.00003C13.579 4.00003 15.0644 4.33921 16.4562 5.01758C17.8597 5.69594 19.0468 6.64331 20.0176 7.85968C21 9.07606 21.6725 10.4562 22.0351 12C21.8597 12.7252 21.6082 13.4152 21.2807 14.0702C20.9649 14.7135 20.5848 15.3217 20.1404 15.8948L18.7018 14.4562C18.9825 14.0936 19.2281 13.7076 19.4386 13.2983C19.6609 12.8772 19.8363 12.4445 19.9649 12C19.6141 10.7954 19.0527 9.74272 18.2807 8.84214C17.5205 7.92986 16.5965 7.2281 15.5088 6.73687C14.4328 6.24565 13.2632 6.00003 12 6.00003C11.4269 6.00003 10.9357 6.0936 10.5263 6.28073L8.80705 4.56144ZM12.4562 8.21056C12.8772 8.19886 13.2983 8.27489 13.7193 8.43863C14.1404 8.60237 14.5088 8.84799 14.8246 9.17547C15.1521 9.49126 15.3977 9.85968 15.5614 10.2807C15.7252 10.7018 15.8012 11.1228 15.7895 11.5439L12.4562 8.21056Z" fill="#333333"/>
</svg>
