<svg width="24" height="24" viewBox="0 0 24 24" fill="none" xmlns="http://www.w3.org/2000/svg">
<path d="M8 12C8 11.2749 8.18129 10.6082 8.54386 10C8.90643 9.38012 9.39181 8.89474 10 8.54386C10.6199 8.18129 11.2865 8 12 8C12.7251 8 13.3918 8.18129 14 8.54386C14.6199 8.89474 15.1053 9.38012 15.4561 10C15.8187 10.6082 16 11.2749 16 12C16 12.7134 15.8187 13.3801 15.4561 14C15.1053 14.6082 14.6199 15.0936 14 15.4561C13.3918 15.8187 12.7251 16 12 16C11.2865 16 10.6199 15.8187 10 15.4561C9.39181 15.0936 8.90643 14.6082 8.54386 14C8.18129 13.3801 8 12.7134 8 12ZM10 12C10 12.3977 10.0819 12.7485 10.2456 13.0526C10.4094 13.3567 10.6433 13.5906 10.9474 13.7544C11.2515 13.9181 11.6023 14 12 14C12.4094 14 12.7661 13.9181 13.0702 13.7544C13.3743 13.5906 13.6023 13.3567 13.7544 13.0526C13.9181 12.7485 14 12.3977 14 12C14 11.5906 13.9181 11.2339 13.7544 10.9298C13.6023 10.6257 13.3743 10.3977 13.0702 10.2456C12.7661 10.0819 12.4094 10 12 10C11.6023 10 11.2515 10.0819 10.9474 10.2456C10.6433 10.3977 10.4094 10.6257 10.2456 10.9298C10.0819 11.2339 10 11.5906 10 12ZM18.2807 6.15789C19.193 6.85965 19.9708 7.70175 20.614 8.68421C21.2573 9.66667 21.7193 10.7251 22 11.8596V12.1404C21.7193 13.2749 21.2573 14.3333 20.614 15.3158C19.9708 16.2866 19.193 17.1287 18.2807 17.8421C17.3918 18.5439 16.4035 19.0819 15.3158 19.4561C14.2398 19.8187 13.1345 20 12 20C10.8655 20 9.75439 19.8187 8.66667 19.4561C7.59064 19.0819 6.60819 18.5439 5.7193 17.8421C4.80702 17.1287 4.02924 16.2866 3.38596 15.3158C2.74269 14.3333 2.2807 13.2749 2 12.1404V11.8596C2.2807 10.7251 2.74269 9.66667 3.38596 8.68421C4.02924 7.70175 4.80702 6.85965 5.7193 6.15789C6.60819 5.45614 7.59064 4.92398 8.66667 4.5614C9.75439 4.18713 10.8655 4 12 4C13.1345 4 14.2398 4.18713 15.3158 4.5614C16.4035 4.92398 17.3918 5.45614 18.2807 6.15789ZM17.0526 7.73684C16.3158 7.15205 15.5263 6.7193 14.6842 6.4386C13.8421 6.1462 12.9474 6 12 6C11.0526 6 10.1579 6.1462 9.31579 6.4386C8.48538 6.7193 7.69591 7.15205 6.94737 7.73684C6.23392 8.27485 5.63158 8.90058 5.14035 9.61404C4.64912 10.3275 4.26901 11.117 4 11.9825V11.8947C4.25731 12.7719 4.63158 13.5789 5.12281 14.3158C5.61404 15.0409 6.22222 15.6901 6.94737 16.2632C7.69591 16.848 8.48538 17.2865 9.31579 17.5789C10.1579 17.8596 11.0526 18 12 18C12.9474 18 13.8421 17.8596 14.6842 17.5789C15.5263 17.2865 16.3158 16.848 17.0526 16.2632C17.7661 15.7135 18.3684 15.0819 18.8596 14.3684C19.3509 13.655 19.731 12.8713 20 12.0175V12.1053C19.7544 11.2164 19.386 10.4094 18.8947 9.68421C18.4035 8.94737 17.7895 8.29825 17.0526 7.73684Z" fill="#333333"/>
</svg>
