<svg width="24" height="24" viewBox="0 0 24 24" fill="none" xmlns="http://www.w3.org/2000/svg">
<path d="M1.42105 0L1.4386 0.0175438L5.24561 3.82456L6.70175 5.2807L8.40351 6.98246L13.8596 12.4386L15.8596 14.4386L17.2281 15.807L20.8421 19.4211L19.4211 20.8421L15.5965 17.0175C14.8246 17.462 14 17.807 13.1228 18.0526C12.2456 18.2982 11.345 18.4211 10.4211 18.4211C8.8538 18.4211 7.36842 18.0819 5.96491 17.4035C4.5614 16.7135 3.36842 15.7602 2.38596 14.5439C1.4152 13.3275 0.748538 11.9532 0.385965 10.4211C0.643275 9.36842 1.04678 8.38012 1.59649 7.45614C2.1462 6.53216 2.81871 5.72515 3.61404 5.03509L0 1.42105L1.42105 0ZM2.45614 10.4211C2.80702 11.6257 3.36257 12.6842 4.12281 13.5965C4.89474 14.4971 5.81871 15.193 6.89474 15.6842C7.98246 16.1754 9.1579 16.4211 10.4211 16.4211C11.7895 16.4211 13.0292 16.1345 14.1404 15.5614L12.4386 13.8596C11.9357 14.152 11.386 14.3275 10.7895 14.386C10.2047 14.4444 9.63158 14.3743 9.07018 14.1754C8.52047 13.9766 8.02924 13.6667 7.59649 13.2456C7.17544 12.8129 6.8655 12.3216 6.66667 11.7719C6.46784 11.2105 6.39766 10.6374 6.45614 10.0526C6.51462 9.45614 6.69006 8.90643 6.98246 8.40351L4.98246 6.40351C4.39766 6.91813 3.88889 7.52047 3.45614 8.21053C3.02339 8.88889 2.69006 9.62573 2.45614 10.4211ZM7.22807 2.98246C8.25731 2.60819 9.32164 2.42105 10.4211 2.42105C12 2.42105 13.4854 2.76023 14.8772 3.4386C16.2807 4.11696 17.4678 5.06433 18.4386 6.2807C19.4211 7.49708 20.0936 8.87719 20.4561 10.4211C20.2807 11.1462 20.0292 11.8363 19.7018 12.4912C19.386 13.1345 19.0058 13.7427 18.5614 14.3158L17.1228 12.8772C17.4035 12.5146 17.6491 12.1287 17.8596 11.7193C18.0819 11.2982 18.2573 10.8655 18.386 10.4211C18.0351 9.21637 17.4737 8.16374 16.7018 7.26316C15.9415 6.35088 15.0175 5.64912 13.9298 5.1579C12.8538 4.66667 11.6842 4.42105 10.4211 4.42105C9.84795 4.42105 9.35673 4.51462 8.94737 4.70176L7.22807 2.98246ZM10.8772 6.63158C11.2982 6.61988 11.7193 6.69591 12.1404 6.85965C12.5614 7.02339 12.9298 7.26901 13.2456 7.59649C13.5731 7.91228 13.8187 8.2807 13.9825 8.70175C14.1462 9.12281 14.2222 9.54386 14.2105 9.96491L10.8772 6.63158Z" fill="#333333"/>
</svg>
