<svg width="24" height="24" viewBox="0 0 24 24" fill="none" xmlns="http://www.w3.org/2000/svg">
<path d="M2 5C2 5.54386 2.45614 6 3 6C3.2807 6 3.52632 5.89474 3.70175 5.70175L5.70175 3.70176C5.89474 3.52632 6 3.2807 6 3C6 2.45614 5.54386 2 5 2C4.7193 2 4.47368 2.10526 4.29825 2.29825L2.29825 4.29825C2.10526 4.47368 2 4.7193 2 5ZM3 12C3 17 7 21 12 21C17 21 21 17 21 12C21 7 17 3 12 3C7 3 3 7 3 12ZM11 12V8C11 7.45614 11.4561 7 12 7C12.5439 7 13 7.45614 13 8V11.5789L15.7018 14.2982C15.8947 14.4737 16 14.7193 16 15C16 15.5439 15.5439 16 15 16C14.7193 16 14.4737 15.8947 14.2982 15.7018L11.2982 12.7018C11.1053 12.5263 11 12.2807 11 12ZM18 3C18 3.2807 18.1053 3.52632 18.2982 3.70176L20.2982 5.70175C20.4737 5.89474 20.7193 6 21 6C21.5439 6 22 5.54386 22 5C22 4.7193 21.8947 4.47368 21.7018 4.29825L19.7018 2.29825C19.5263 2.10526 19.2807 2 19 2C18.4561 2 18 2.45614 18 3Z" fill="#333333"/>
</svg>
