<svg width="24" height="24" viewBox="0 0 24 24" fill="none" xmlns="http://www.w3.org/2000/svg">
<path d="M4 13H20C20.5439 13 21 12.5439 21 12C21 11.4561 20.5439 11 20 11H4C3.45614 11 3 11.4561 3 12C3 12.5439 3.45614 13 4 13ZM20.7018 11.2982L13.7018 4.29824C13.5263 4.10526 13.2807 4 13 4C12.4561 4 12 4.45614 12 5C12 5.2807 12.1053 5.52632 12.2982 5.70175L19.2982 12.7018C19.4737 12.8947 19.7193 13 20 13C20.5439 13 21 12.5439 21 12C21 11.7193 20.8947 11.4737 20.7018 11.2982ZM13.7018 19.7018L20.7018 12.7018C20.8947 12.5263 21 12.2807 21 12C21 11.4561 20.5439 11 20 11C19.7193 11 19.4737 11.1053 19.2982 11.2982L12.2982 18.2982C12.1053 18.4737 12 18.7193 12 19C12 19.5439 12.4561 20 13 20C13.2807 20 13.5263 19.8947 13.7018 19.7018Z" fill="#333333"/>
</svg>
