<svg width="24" height="24" viewBox="0 0 24 24" fill="none" xmlns="http://www.w3.org/2000/svg">
<path d="M13 20V4C13 3.45614 12.5439 3 12 3C11.4561 3 11 3.45614 11 4V20C11 20.5439 11.4561 21 12 21C12.5439 21 13 20.5439 13 20ZM12.7018 19.2982L5.70175 12.2982C5.52632 12.1053 5.2807 12 5 12C4.45614 12 4 12.4561 4 13C4 13.2807 4.10526 13.5263 4.29825 13.7018L11.2982 20.7018C11.4737 20.8947 11.7193 21 12 21C12.5439 21 13 20.5439 13 20C13 19.7193 12.8947 19.4737 12.7018 19.2982ZM18.2982 12.2982L11.2982 19.2982C11.1053 19.4737 11 19.7193 11 20C11 20.5439 11.4561 21 12 21C12.2807 21 12.5263 20.8947 12.7018 20.7018L19.7018 13.7018C19.8947 13.5263 20 13.2807 20 13C20 12.4561 19.5439 12 19 12C18.7193 12 18.4737 12.1053 18.2982 12.2982Z" fill="#333333"/>
</svg>
