<svg width="24" height="24" viewBox="0 0 24 24" fill="none" xmlns="http://www.w3.org/2000/svg">
<path d="M6 21V6C6 4.73684 6.73684 4 8 4H16C17.2632 4 18 4.73684 18 6V21C18 21.5439 18.4561 22 19 22C19.5439 22 20 21.5439 20 21V6C20 3.75439 18.2456 2 16 2H8C5.75439 2 4 3.75439 4 6V21C4 21.5439 4.45614 22 5 22C5.54386 22 6 21.5439 6 21ZM19.4912 20.1404L12 15.8421L4.50877 20.1404C4.21053 20.2982 4 20.6316 4 21C4 21.5439 4.45614 22 5 22C5.17544 22 5.35088 21.9474 5.49123 21.8596L12 18.1579L18.5088 21.8596C18.6491 21.9474 18.8246 22 19 22C19.5439 22 20 21.5439 20 21C20 20.6316 19.7895 20.2982 19.4912 20.1404ZM5 6V21L12 17L19 21V6C19 4.31579 17.6842 3 16 3H8C6.31579 3 5 4.31579 5 6Z" fill="#333333"/>
</svg>
