<svg width="24" height="24" viewBox="0 0 24 24" fill="none" xmlns="http://www.w3.org/2000/svg">
<path d="M2 12C2 17.5263 6.47368 22 12 22C17.5263 22 22 17.5263 22 12C22 6.47368 17.5263 2 12 2C6.47368 2 2 6.47368 2 12ZM8 15C8 14.7193 8.10526 14.4737 8.29825 14.2982L10.5789 12L8.29825 9.70176C8.10526 9.52632 8 9.2807 8 9C8 8.45614 8.45614 8 9 8C9.2807 8 9.52632 8.10526 9.70175 8.29825L12 10.5789L14.2982 8.29825C14.4737 8.10526 14.7193 8 15 8C15.5439 8 16 8.45614 16 9C16 9.2807 15.8947 9.52632 15.7018 9.70176L13.4211 12L15.7018 14.2982C15.8947 14.4737 16 14.7193 16 15C16 15.5439 15.5439 16 15 16C14.7193 16 14.4737 15.8947 14.2982 15.7018L12 13.4211L9.70175 15.7018C9.52632 15.8947 9.2807 16 9 16C8.45614 16 8 15.5439 8 15Z" fill="#333333"/>
</svg>
