<svg width="24" height="24" viewBox="0 0 24 24" fill="none" xmlns="http://www.w3.org/2000/svg">
<path d="M2 12C2 17.5263 6.47368 22 12 22C17.5263 22 22 17.5263 22 12C22 6.47368 17.5263 2 12 2C6.47368 2 2 6.47368 2 12ZM6.50877 12C6.50877 11.4561 6.96491 11 7.50877 11C7.78947 11 8.03509 11.1053 8.21053 11.2982L10.5088 13.5789L15.807 8.29825C15.9825 8.10526 16.2281 8 16.5088 8C17.0526 8 17.5088 8.45614 17.5088 9C17.5088 9.2807 17.4035 9.52632 17.2105 9.70176L11.2105 15.7018C11.0351 15.8947 10.7895 16 10.5088 16C10.2281 16 9.98246 15.8947 9.80702 15.7018L6.80702 12.7018C6.61403 12.5263 6.50877 12.2807 6.50877 12Z" fill="#333333"/>
</svg>
