<svg width="24" height="24" viewBox="0 0 24 24" fill="none" xmlns="http://www.w3.org/2000/svg">
<path d="M4.29825 5.70175L18.2982 19.7018C18.4737 19.8947 18.7193 20 19 20C19.5439 20 20 19.5439 20 19C20 18.7193 19.8947 18.4737 19.7018 18.2982L5.70175 4.29824C5.52632 4.10526 5.2807 4 5 4C4.45614 4 4 4.45614 4 5C4 5.2807 4.10526 5.52632 4.29825 5.70175ZM18.2982 4.29824L4.29825 18.2982C4.10526 18.4737 4 18.7193 4 19C4 19.5439 4.45614 20 5 20C5.2807 20 5.52632 19.8947 5.70175 19.7018L19.7018 5.70175C19.8947 5.52632 20 5.2807 20 5C20 4.45614 19.5439 4 19 4C18.7193 4 18.4737 4.10526 18.2982 4.29824Z" fill="#333333"/>
</svg>
