<svg width="24" height="24" viewBox="0 0 24 24" fill="none" xmlns="http://www.w3.org/2000/svg">
<path d="M11.6667 2H8C5.80702 2 4 3.80702 4 6V18C4 20.193 5.80702 22 8 22H16C18.193 22 20 20.193 20 18V10.3333C20 9.5614 19.4386 9 18.6667 9H13V3.33333C13 2.5614 12.4386 2 11.6667 2ZM18 10V12C18 12.5439 18.4561 13 19 13C19.5439 13 20 12.5439 20 12V10C20 9.45614 19.5439 9 19 9C18.4561 9 18 9.45614 18 10ZM10 4H12C12.5439 4 13 3.54386 13 3C13 2.45614 12.5439 2 12 2H10C9.45614 2 9 2.45614 9 3C9 3.54386 9.45614 4 10 4ZM11.2982 3.70176L18.2982 10.7018C18.4737 10.8947 18.7193 11 19 11C19.5439 11 20 10.5439 20 10C20 9.7193 19.8947 9.47368 19.7018 9.29825L12.7018 2.29825C12.5263 2.10526 12.2807 2 12 2C11.4561 2 11 2.45614 11 3C11 3.2807 11.1053 3.52632 11.2982 3.70176Z" fill="#333333"/>
</svg>
