<svg width="24" height="24" viewBox="0 0 24 24" fill="none" xmlns="http://www.w3.org/2000/svg">
<path d="M16 11H8C7.45614 11 7 11.4561 7 12C7 12.5439 7.45614 13 8 13H16C16.5439 13 17 12.5439 17 12C17 11.4561 16.5439 11 16 11ZM12 15H8C7.45614 15 7 15.4561 7 16C7 16.5439 7.45614 17 8 17H12C12.5439 17 13 16.5439 13 16C13 15.4561 12.5439 15 12 15ZM17 3H7C4.75439 3 3 4.75439 3 7V9H21V7C21 4.75439 19.2456 3 17 3ZM5 9H19V17C19 18.2632 18.2632 19 17 19H7C5.73684 19 5 18.2632 5 17V9ZM3 7V17C3 19.2456 4.75439 21 7 21H17C19.2456 21 21 19.2456 21 17V7H3ZM6 2V4C6 4.54386 6.45614 5 7 5C7.54386 5 8 4.54386 8 4V2C8 1.45614 7.54386 1 7 1C6.45614 1 6 1.45614 6 2ZM18 4V2C18 1.45614 17.5439 1 17 1C16.4561 1 16 1.45614 16 2V4C16 4.54386 16.4561 5 17 5C17.5439 5 18 4.54386 18 4Z" fill="#333333"/>
</svg>
