<svg width="24" height="24" viewBox="0 0 24 24" fill="none" xmlns="http://www.w3.org/2000/svg">
<path d="M11.5789 7H18C19.2281 7 20 7.77193 20 9V16C20 17.2281 19.2281 18 18 18H6C4.77193 18 4 17.2281 4 16V7C4 5.77193 4.77193 5 6 5H9.57895L11.5789 7ZM9.29825 4.70175L11.2982 6.70175C11.4737 6.89474 11.7193 7 12 7C12.5439 7 13 6.54386 13 6C13 5.7193 12.8947 5.47368 12.7018 5.29825L10.7018 3.29825C10.5263 3.10526 10.2807 3 10 3C9.45614 3 9 3.45614 9 4C9 4.2807 9.10526 4.52632 9.29825 4.70175ZM12 7H18C19.2281 7 20 7.77193 20 9V16C20 17.2281 19.2281 18 18 18H6C4.77193 18 4 17.2281 4 16V7C4 5.77193 4.77193 5 6 5H10C10.5439 5 11 4.54386 11 4C11 3.45614 10.5439 3 10 3H6C3.78947 3 2 4.78947 2 7V16C2 18.2105 3.78947 20 6 20H18C20.2105 20 22 18.2105 22 16V9C22 6.78947 20.2105 5 18 5H12C11.4561 5 11 5.45614 11 6C11 6.54386 11.4561 7 12 7Z" fill="#333333"/>
</svg>
