<svg width="24" height="24" viewBox="0 0 24 24" fill="none" xmlns="http://www.w3.org/2000/svg">
<path d="M2 12C2 17.5263 6.47368 22 12 22C17.5263 22 22 17.5263 22 12C22 6.47368 17.5263 2 12 2C6.47368 2 2 6.47368 2 12ZM8.50877 9.49123C8.50877 7.57895 10.0526 6 12 6C13.9474 6 15.5088 7.5614 15.5088 9.49123C15.5263 11.7018 13 12.0877 13 13.3333C13 13.8772 12.5439 14.3333 12 14.3333C11.4561 14.3333 11 13.8772 11 13.3333C11 11.1228 13.5263 10.6842 13.5088 9.49123C13.5088 8.54386 12.9649 8 12 8C11.0351 8 10.5088 8.52632 10.5088 9.49123C10.5088 10.0351 10.0526 10.4912 9.50877 10.4912C8.96491 10.4912 8.50877 10.0351 8.50877 9.49123ZM10.6667 16.6667C10.6667 15.9298 11.2632 15.3333 12 15.3333C12.7368 15.3333 13.3333 15.9298 13.3333 16.6667C13.3333 17.4035 12.7368 18 12 18C11.2632 18 10.6667 17.4035 10.6667 16.6667Z" fill="#333333"/>
</svg>
