<svg width="24" height="24" viewBox="0 0 24 24" fill="none" xmlns="http://www.w3.org/2000/svg">
<path d="M14 14.0031V21.0031H17C19.2105 21.0031 21 19.2137 21 17.0031V11.2488C21 10.1786 20.5789 9.16104 19.8246 8.4242L14.8246 3.4242C13.2632 1.84525 10.7368 1.84525 9.17544 3.4242L4.17544 8.4242C3.42105 9.16104 3 10.1786 3 11.2488V17.0031C3 19.2137 4.78947 21.0031 7 21.0031H10V14.0031C10 12.7575 10.7544 12.0031 12 12.0031C13.2456 12.0031 14 12.7575 14 14.0031ZM15 19.0031H9V21.0031H15V19.0031Z" fill="#333333"/>
</svg>
