<svg width="24" height="24" viewBox="0 0 24 24" fill="none" xmlns="http://www.w3.org/2000/svg">
<path d="M2 12C2 17.5263 6.47368 22 12 22C17.5263 22 22 17.5263 22 12C22 6.47368 17.5263 2 12 2C6.47368 2 2 6.47368 2 12ZM10.6667 8.33333C10.6667 7.59649 11.2632 7 12 7C12.7368 7 13.3333 7.59649 13.3333 8.33333C13.3333 9.07018 12.7368 9.66667 12 9.66667C11.2632 9.66667 10.6667 9.07018 10.6667 8.33333ZM11 16V11.6667C11 11.1228 11.4561 10.6667 12 10.6667C12.5439 10.6667 13 11.1228 13 11.6667V16C13 16.5439 12.5439 17 12 17C11.4561 17 11 16.5439 11 16Z" fill="#333333"/>
</svg>
