<svg width="24" height="24" viewBox="0 0 24 24" fill="none" xmlns="http://www.w3.org/2000/svg">
<path d="M6.70175 12.7018L11.7018 7.70175C11.8947 7.52632 12 7.2807 12 7C12 6.45614 11.5439 6 11 6C10.7193 6 10.4737 6.10526 10.2982 6.29825L5.29825 11.2982C5.10526 11.4737 5 11.7193 5 12C5 12.5439 5.45614 13 6 13C6.2807 13 6.52632 12.8947 6.70175 12.7018ZM12.7018 12.7018L17.7018 7.70175C17.8947 7.52632 18 7.2807 18 7C18 6.45614 17.5439 6 17 6C16.7193 6 16.4737 6.10526 16.2982 6.29825L11.2982 11.2982C11.1053 11.4737 11 11.7193 11 12C11 12.5439 11.4561 13 12 13C12.2807 13 12.5263 12.8947 12.7018 12.7018ZM17.7018 16.2982L12.7018 11.2982C12.5263 11.1053 12.2807 11 12 11C11.4561 11 11 11.4561 11 12C11 12.2807 11.1053 12.5263 11.2982 12.7018L16.2982 17.7018C16.4737 17.8947 16.7193 18 17 18C17.5439 18 18 17.5439 18 17C18 16.7193 17.8947 16.4737 17.7018 16.2982ZM11.7018 16.2982L6.70175 11.2982C6.52632 11.1053 6.2807 11 6 11C5.45614 11 5 11.4561 5 12C5 12.2807 5.10526 12.5263 5.29825 12.7018L10.2982 17.7018C10.4737 17.8947 10.7193 18 11 18C11.5439 18 12 17.5439 12 17C12 16.7193 11.8947 16.4737 11.7018 16.2982Z" fill="#333333"/>
</svg>
