<svg width="24" height="24" viewBox="0 0 24 24" fill="none" xmlns="http://www.w3.org/2000/svg">
<path d="M9.70175 12.7018L14.7018 7.70175C14.8947 7.52632 15 7.2807 15 7C15 6.45614 14.5439 6 14 6C13.7193 6 13.4737 6.10526 13.2982 6.29825L8.29825 11.2982C8.10526 11.4737 8 11.7193 8 12C8 12.5439 8.45614 13 9 13C9.2807 13 9.52632 12.8947 9.70175 12.7018ZM14.7018 16.2982L9.70175 11.2982C9.52632 11.1053 9.2807 11 9 11C8.45614 11 8 11.4561 8 12C8 12.2807 8.10526 12.5263 8.29825 12.7018L13.2982 17.7018C13.4737 17.8947 13.7193 18 14 18C14.5439 18 15 17.5439 15 17C15 16.7193 14.8947 16.4737 14.7018 16.2982Z" fill="#333333"/>
</svg>
