<svg width="24" height="24" viewBox="0 0 24 24" fill="none" xmlns="http://www.w3.org/2000/svg">
<path d="M2 15.9474C2 18.2807 3.7193 20 6.05263 20H17.9474C20.2807 20 22 18.2807 22 15.9474V8.05263C22 7.26316 21.807 6.52631 21.4386 5.92982L14.3509 11.4386C12.9474 12.5439 11.0526 12.5439 9.64912 11.4386L2.5614 5.92982C2.19298 6.52631 2 7.26316 2 8.05263V15.9474ZM4 4.50877L10.8772 9.85965C11.6667 10.4737 12.3333 10.4737 13.1228 9.85965L20 4.50877C19.4035 4.19298 18.7018 4 17.9474 4H6.05263C5.29825 4 4.59649 4.19298 4 4.50877Z" fill="#333333"/>
</svg>
