<svg width="24" height="24" viewBox="0 0 24 24" fill="none" xmlns="http://www.w3.org/2000/svg">
<path d="M2 12C2 17.5263 6.47368 22 12 22C17.5263 22 22 17.5263 22 12C22 6.47368 17.5263 2 12 2C6.47368 2 2 6.47368 2 12ZM11 12V7C11 6.45614 11.4561 6 12 6C12.5439 6 13 6.45614 13 7V11.5789L16.3684 14.9649C16.5614 15.1404 16.6667 15.386 16.6667 15.6667C16.6667 16.2105 16.2105 16.6667 15.6667 16.6667C15.386 16.6667 15.1404 16.5614 14.9649 16.3684L11.2982 12.7018C11.1053 12.5263 11 12.2807 11 12Z" fill="#333333"/>
</svg>
