<svg width="24" height="24" viewBox="0 0 24 24" fill="none" xmlns="http://www.w3.org/2000/svg">
<path d="M6 9C4.33333 9 3 10.3333 3 12C3 13.6667 4.33333 15 6 15C7.66667 15 9 13.6667 9 12C9 10.3333 7.66667 9 6 9ZM17 3C15.3333 3 14 4.33333 14 6C14 7.66667 15.3333 9 17 9C18.6667 9 20 7.66667 20 6C20 4.33333 18.6667 3 17 3ZM17 15C15.3333 15 14 16.3333 14 18C14 19.6667 15.3333 21 17 21C18.6667 21 20 19.6667 20 18C20 16.3333 18.6667 15 17 15ZM15.7193 16.1579L8.22807 12.0877L7.2807 13.8421L14.7719 17.9123L15.7193 16.1579ZM8.22807 11.9123L15.7193 7.84211L14.7719 6.08772L7.2807 10.1579L8.22807 11.9123Z" fill="#333333"/>
</svg>
