<svg width="24" height="24" viewBox="0 0 24 24" fill="none" xmlns="http://www.w3.org/2000/svg">
<path d="M10.4213 3.421L8.49144 7.33328C8.38618 7.54381 8.38617 7.54381 8.14056 7.5789L3.8774 8.19293C2.45635 8.38591 1.8774 10.1578 2.89495 11.1929L6.00021 14.228C6.17565 14.4035 6.17565 14.4035 6.14056 14.6491L5.40372 18.8947C5.1581 20.3333 6.70196 21.4561 7.96512 20.7543L11.7897 18.7368C12.0002 18.6315 12.0002 18.6315 12.2107 18.7368L16.0353 20.7543C17.2985 21.4561 18.8423 20.3333 18.5967 18.8947L17.8599 14.6491C17.8248 14.3859 17.8248 14.3859 18.0002 14.228L21.1055 11.1929C22.123 10.1578 21.5441 8.38591 20.123 8.19293L15.8599 7.5789C15.6142 7.54381 15.6142 7.54381 15.509 7.33328L13.5792 3.421C12.9125 2.15784 11.0879 2.15784 10.4213 3.421Z" fill="#333333"/>
</svg>
