<svg width="24" height="24" viewBox="0 0 24 24" fill="none" xmlns="http://www.w3.org/2000/svg">
<path d="M14.9961 20L16.9961 15V4H7.75049C6.20663 4 4.78557 5.19298 4.50487 6.70175L3.59259 11.7544C3.25926 13.5789 4.45224 15 6.29435 15H11.9961V17C11.9961 18.6842 13.3119 20 14.9961 20L16.9961 15V4H7.75049C6.20663 4 4.78557 5.19298 4.50487 6.70175L3.59259 11.7544C3.25926 13.5789 4.45224 15 6.29435 15H11.9961V17C11.9961 18.6842 13.3119 20 14.9961 20ZM14.9961 19C13.7329 19 12.9961 18.2632 12.9961 17V14H6.29435C4.92592 14 4.32943 13.2982 4.57505 11.9298L5.48733 6.87719C5.69785 5.73684 6.57505 5 7.75049 5H15.9961V14.807L14.0663 19.6316C14.0136 19.7368 13.9961 19.8772 13.9961 20C13.9961 20.5439 14.4522 21 14.9961 21C15.4172 21 15.7856 20.7368 15.9259 20.3684L17.9961 15.193V3H7.75049C5.7154 3 3.89084 4.54386 3.52242 6.52632L2.61013 11.5789C2.17154 14.0175 3.83821 16 6.29435 16H10.9961V17C10.9961 19.2456 12.7505 21 14.9961 21C15.54 21 15.9961 20.5439 15.9961 20C15.9961 19.4561 15.54 19 14.9961 19ZM17.9961 16C20.2417 16 21.9961 14.2456 21.9961 12V7C21.9961 4.75438 20.2417 3 17.9961 3H15.9961V16H17.9961ZM17.9961 14V5C19.2593 5 19.9961 5.73684 19.9961 7V12C19.9961 13.2632 19.2593 14 17.9961 14Z" fill="#333333"/>
</svg>
