<svg width="24" height="24" viewBox="0 0 24 24" fill="none" xmlns="http://www.w3.org/2000/svg">
<path d="M15.5638 19.1204L16.5814 17.0853L20.0024 17.5414V19.9625C18.441 19.8923 16.9849 19.594 15.5638 19.1204ZM12.8094 20.1555C15.5463 21.4537 18.7217 22.1379 22.0024 21.98V15.787L15.4235 14.9098L12.8094 20.1555ZM4.8796 8.4537C4.40592 7.03265 4.10767 5.55896 4.0375 3.99756H6.45855L6.91469 7.43616L4.8796 8.4537ZM3.84452 11.2081L9.09013 8.59405L8.21294 1.99756H2.01995C1.86206 5.27826 2.54627 8.47124 3.84452 11.2081ZM14.5638 18.7344C10.2831 16.9976 7.00241 13.7344 5.26557 9.4537C5.10767 9.10282 4.7568 8.83966 4.33574 8.83966C3.79188 8.83966 3.33574 9.2958 3.33574 9.83966C3.33574 9.98002 3.37083 10.1028 3.40592 10.2256C5.33574 14.9274 9.10767 18.6642 13.7919 20.594C13.9147 20.6291 14.0375 20.6642 14.1778 20.6642C14.7217 20.6642 15.1778 20.2081 15.1778 19.6642C15.1778 19.2432 14.9147 18.8923 14.5638 18.7344Z" fill="#333333"/>
</svg>
