<svg width="24" height="24" viewBox="0 0 24 24" fill="none" xmlns="http://www.w3.org/2000/svg">
<path d="M17.2985 8.29832L6.49149 19.1053L4.36868 19.6317L4.89499 17.5088L15.702 6.70183L14.2985 5.29832L3.10552 16.4913L1.63184 22.3685L7.50903 20.8948L18.702 9.70183L17.2985 8.29832ZM18.702 9.70183L20.9827 7.42113C21.7897 6.63165 21.7897 5.36849 20.9827 4.57902L19.4213 3.01762C18.6318 2.2106 17.3687 2.2106 16.5792 3.01762L14.2985 5.29832L15.702 6.70183L17.9827 4.42113C18.0003 4.42113 18.0003 4.42113 18.0178 4.42113L19.5792 5.98253C19.5792 6.00007 19.5792 6.00007 19.5792 6.01762L17.2985 8.29832L18.702 9.70183ZM18.702 8.29832L15.702 5.29832L14.2985 6.70183L17.2985 9.70183L18.702 8.29832Z" fill="#333333"/>
</svg>
