<svg width="24" height="24" viewBox="0 0 24 24" fill="none" xmlns="http://www.w3.org/2000/svg">
<path d="M12 4.52632C10.9474 3.57895 9.52632 3 8 3C4.68421 3 2 5.68421 2 9C2 15.386 7.2807 19.9298 12 22.1053C16.7193 19.9298 22 15.386 22 9C22 5.68421 19.3158 3 16 3C14.4737 3 13.0526 3.57895 12 4.52632ZM12 8.01754C12.8246 6.08772 14.0877 5 16 5C18.3333 5 20 6.66667 20 9C20 14.0351 16.1228 17.7544 12 19.8772C7.87719 17.7544 4 14.0351 4 9C4 6.66667 5.66667 5 8 5C9.91228 5 11.1754 6.08772 12 8.01754Z" fill="#333333"/>
</svg>
