<svg width="24" height="24" viewBox="0 0 24 24" fill="none" xmlns="http://www.w3.org/2000/svg">
<path d="M11 12C11 14.2632 10.5614 16.4035 9.70175 18.5088C9.45614 19.0877 9.17544 19.6667 8.87719 20.2456L8.40351 21.1404L10.1754 22.0702L10.6316 21.193C10.9649 20.5789 11.2807 19.9298 11.5614 19.2807C12.4912 16.9649 13 14.4912 13 12C13 11.4561 12.5439 11 12 11C11.4561 11 11 11.4561 11 12ZM13.9123 21.3684C14.0351 21.0702 14.193 20.7544 14.3333 20.4035C15.4211 17.7544 16 14.8772 16 12C16 9.78947 14.2105 8 12 8C9.78947 8 8 9.78947 8 12C8 13.8596 7.64912 15.614 6.92982 17.3509C6.70175 17.9123 6.4386 18.4561 6.12281 19L5.63158 19.8772L7.38596 20.8596L7.87719 19.9825C8.19298 19.4035 8.52632 18.7544 8.78947 18.1228C9.57895 16.1754 10 14.0877 10 12C10 10.7719 10.7719 10 12 10C13.2281 10 14 10.7719 14 12C14 14.6667 13.4912 17.2105 12.4737 19.6667C12.3684 19.9474 12.2456 20.2281 12.0877 20.5263L11.6667 21.4211L13.4737 22.2807L13.9123 21.3684ZM22 12C22 6.47368 17.5263 2 12 2C6.47368 2 2 6.47368 2 12V13H4V12C4 7.45614 7.45614 4 12 4C16.5439 4 20 7.45614 20 12V13H22V12ZM17.7018 19.9649C18.5614 17.4211 19 14.6842 19 12C19 8.12281 15.8772 5 12 5C8.12281 5 5 8.12281 5 12C5 13.4737 4.7193 14.8421 4.15789 16.2105C4.07018 16.4561 3.96491 16.6667 3.85965 16.8947L3.42105 17.7719L5.19298 18.6667L5.64912 17.7719C5.78947 17.5088 5.89474 17.2281 6.01754 16.9825C6.64912 15.4035 7 13.7018 7 12C7 9.10526 9.10526 7 12 7C14.8947 7 17 9.10526 17 12C17 14.5088 16.5965 16.9474 15.807 19.3333L15.4912 20.2807L17.386 20.9123L17.7018 19.9649Z" fill="#333333"/>
</svg>
