<svg width="24" height="24" viewBox="0 0 24 24" fill="none" xmlns="http://www.w3.org/2000/svg">
<path d="M15 13.0021C15 11.8793 14.1228 11.0021 13 11.0021H11C9.87719 11.0021 9 11.8793 9 13.0021V19.0021H5V10.7214C5 10.5109 5.07018 10.3355 5.21053 10.1951L12 3.40565C12.1053 3.31793 11.8947 3.31793 12 3.40565L18.7895 10.1951C18.9298 10.3355 19 10.5109 19 10.7214V19.0021H15V13.0021ZM13 13.0021V21.0021H19C20.1228 21.0021 21 20.1249 21 19.0021V10.7214C21 10.0548 20.6667 9.24775 20.193 8.79161L13.4035 2.00214C12.6316 1.21267 11.3684 1.21267 10.5965 2.00214L3.80702 8.79161C3.33333 9.24775 3 10.0548 3 10.7214V19.0021C3 20.1249 3.87719 21.0021 5 21.0021H11V13.0021H13ZM15 19.0021H9V21.0021H15V19.0021Z" fill="#333333"/>
</svg>
