<svg width="24" height="24" viewBox="0 0 24 24" fill="none" xmlns="http://www.w3.org/2000/svg">
<path d="M8.52632 10.4912C9.63158 10.4912 10.5088 9.61404 10.5088 8.47368C10.5088 7.36842 9.63158 6.49123 8.52632 6.49123C7.38596 6.49123 6.50877 7.36842 6.50877 8.47368C6.50877 9.61404 7.38596 10.4912 8.52632 10.4912ZM20.7018 15.2982L15 9.57895L10 14.5789L7 11.5789L3.29825 15.2982C3.10526 15.4737 3 15.7193 3 16C3 16.5439 3.45614 17 4 17C4.2807 17 4.52632 16.8947 4.70175 16.7018L7 14.4211L10 17.4211L15 12.4211L19.2982 16.7018C19.4737 16.8947 19.7193 17 20 17C20.5439 17 21 16.5439 21 16C21 15.7193 20.8947 15.4737 20.7018 15.2982ZM5 5H19V19H5V5ZM3 5V19C3 20.1228 3.87719 21 5 21H19C20.1228 21 21 20.1228 21 19V5C21 3.87719 20.1228 3 19 3H5C3.87719 3 3 3.87719 3 5Z" fill="#333333"/>
</svg>
