<svg width="24" height="24" viewBox="0 0 24 24" fill="none" xmlns="http://www.w3.org/2000/svg">
<path d="M7 12C7 17.3158 8.96491 22 12 22C15.0351 22 17 17.3158 17 12C17 6.68421 15.0351 2 12 2C8.96491 2 7 6.68421 7 12ZM9 12C9 7.24561 10.4386 4 12 4C13.5614 4 15 7.24561 15 12C15 16.7544 13.5614 20 12 20C10.4386 20 9 16.7544 9 12ZM3.92982 10H20.0702C20.614 10 21.0702 9.54386 21.0702 9C21.0702 8.45614 20.614 8 20.0702 8H3.92982C3.38596 8 2.92982 8.45614 2.92982 9C2.92982 9.54386 3.38596 10 3.92982 10ZM3.92982 16H20.0702C20.614 16 21.0702 15.5439 21.0702 15C21.0702 14.4561 20.614 14 20.0702 14H3.92982C3.38596 14 2.92982 14.4561 2.92982 15C2.92982 15.5439 3.38596 16 3.92982 16ZM12 20C7.45614 20 4 16.5439 4 12C4 7.45614 7.45614 4 12 4C16.5439 4 20 7.45614 20 12C20 16.5439 16.5439 20 12 20ZM12 22C17.5263 22 22 17.5263 22 12C22 6.47368 17.5263 2 12 2C6.47368 2 2 6.47368 2 12C2 17.5263 6.47368 22 12 22Z" fill="#333333"/>
</svg>
