<svg width="24" height="24" viewBox="0 0 24 24" fill="none" xmlns="http://www.w3.org/2000/svg">
<path d="M18 15.4211L20.0526 13.3509C21.2982 12.1228 22 10.4211 22 8.64912C22 4.96491 19.0351 2 15.3509 2C13.5789 2 11.8772 2.70175 10.6491 3.94737L8.57895 6L10 7.42105L12.0526 5.35088C12.9649 4.4386 14.0351 4 15.3509 4C18.0526 4 20 5.94737 20 8.64912C20 9.96491 19.5614 11.0351 18.6491 11.9474L16.5789 14L18 15.4211ZM14 16.5789L11.9474 18.6491C11.0351 19.5614 9.96491 20 8.64912 20C5.94737 20 4 18.0526 4 15.3509C4 14.0351 4.4386 12.9649 5.35088 12.0526L7.42105 10L6 8.57895L3.94737 10.6491C2.70175 11.8772 2 13.5789 2 15.3509C2 19.0351 4.96491 22 8.64912 22C10.4211 22 12.1228 21.2982 13.3509 20.0526L15.4211 18L14 16.5789ZM9 16.4211L16.4211 9L15 7.57895L7.57895 15L9 16.4211Z" fill="#333333"/>
</svg>
