<svg width="24" height="24" viewBox="0 0 24 24" fill="none" xmlns="http://www.w3.org/2000/svg">
<path d="M5 20V10H19V20H5ZM5 22H19C20.1053 22 21 21.1053 21 20V10C21 8.89474 20.1053 8 19 8H5C3.89474 8 3 8.89474 3 10V20C3 21.1053 3.89474 22 5 22ZM12 13C10.8947 13 10 13.8947 10 15C10 16.1053 10.8947 17 12 17C13.1053 17 14 16.1053 14 15C14 13.8947 13.1053 13 12 13ZM10 9V6C10 4.77193 10.7719 4 12 4C13.2281 4 14 4.77193 14 6V9H16V6C16 3.78947 14.2105 2 12 2C9.78947 2 8 3.78947 8 6V9H10Z" fill="#333333"/>
</svg>
