<svg width="24" height="24" viewBox="0 0 24 24" fill="none" xmlns="http://www.w3.org/2000/svg">
<path d="M5 19.9997V9.99973H19V19.9997H5ZM5 21.9997H19C20.1053 21.9997 21 21.105 21 19.9997V9.99973C21 8.89447 20.1053 7.99973 19 7.99973H5C3.89474 7.99973 3 8.89447 3 9.99973V19.9997C3 21.105 3.89474 21.9997 5 21.9997ZM12 12.9997C10.8947 12.9997 10 13.8945 10 14.9997C10 16.105 10.8947 16.9997 12 16.9997C13.1053 16.9997 14 16.105 14 14.9997C14 13.8945 13.1053 12.9997 12 12.9997ZM16 9.99973V5.99973C16 5.21026 15.7544 4.42078 15.3158 3.77166C14.8772 3.14008 14.2632 2.61376 13.5263 2.29797C12.807 1.99973 11.9825 1.92955 11.2281 2.06991C10.4386 2.2278 9.73684 2.61376 9.17544 3.17517L8.45614 3.87692L9.87719 5.29797L10.5789 4.57868C10.8947 4.26289 11.1579 4.12254 11.614 4.03482C12.0526 3.9471 12.3509 3.98219 12.7544 4.15762C13.1754 4.31552 13.4035 4.5085 13.6667 4.89447C13.9123 5.26289 14 5.54359 14 5.99973V9.99973H16Z" fill="#333333"/>
</svg>
