<svg width="24" height="24" viewBox="0 0 24 24" fill="none" xmlns="http://www.w3.org/2000/svg">
<path d="M4 6.01754C4 6 4 6 4.01754 6H19.9825C20 6 20 6 20 6.01754V17.9825C20 18 20 18 19.9825 18H4.01754C4 18 4 18 4 17.9825V6.01754ZM2 6.01754V17.9825C2 19.1228 2.87719 20 4.01754 20H19.9825C21.1228 20 22 19.1228 22 17.9825V6.01754C22 4.87719 21.1228 4 19.9825 4H4.01754C2.87719 4 2 4.87719 2 6.01754ZM20.0526 4.47368L11.9649 10.7544C11.8772 10.8246 12.1228 10.8246 12.0351 10.7544L3.94737 4.47368L2.7193 6.05263L10.807 12.3333C11.5088 12.8947 12.4912 12.8947 13.193 12.3333L21.2807 6.05263L20.0526 4.47368Z" fill="#333333"/>
</svg>
