<svg width="24" height="24" viewBox="0 0 24 24" fill="none" xmlns="http://www.w3.org/2000/svg">
<path d="M7 10C7 7.10526 9.10526 5 12 5C14.8947 5 17 7.10526 17 10V17H7V10ZM5 10V19H19V10C19 6.12281 15.8772 3 12 3C8.12281 3 5 6.12281 5 10ZM21 17H17V19H21V17ZM3 19H7V17H3V19ZM13.7544 20H10.2456C9.49123 21.4912 10.5789 23 12 23C13.4211 23 14.5088 21.4912 13.7544 20ZM10 4V5.26316C11.4561 5.03509 11.7193 5 12 5C12.2807 5 12.5439 5.03509 14 5.26316V4C14 2.89474 13.1053 2 12 2C10.8947 2 10 2.89474 10 4Z" fill="#333333"/>
</svg>
