<svg width="24" height="24" viewBox="0 0 24 24" fill="none" xmlns="http://www.w3.org/2000/svg">
<path d="M13 7C13 8.78947 11.7895 10 10 10C8.21053 10 7 8.78947 7 7C7 5.21053 8.21053 4 10 4C11.7895 4 13 5.21053 13 7ZM15 7C15 4.22807 12.7719 2 10 2C7.22807 2 5 4.22807 5 7C5 9.77193 7.22807 12 10 12C12.7719 12 15 9.77193 15 7ZM18 7V15H20V7H18ZM15 12H23V10H15V12ZM3 18C3 16.4035 5.80702 15 10 15C14.193 15 17 16.4035 17 18V20H3V18ZM1 18V20C1 21.1053 1.89474 22 3 22H17C18.1053 22 19 21.1053 19 20V18C19 15.0175 14.8246 13 10 13C5.17544 13 1 15.0175 1 18Z" fill="#333333"/>
</svg>
