<svg width="24" height="24" viewBox="0 0 24 24" fill="none" xmlns="http://www.w3.org/2000/svg">
<path d="M4 6H8.42105L10.4211 4H13.5789L15.5789 6H20V18H4V6ZM2 6V18C2 19.1053 2.89474 20 4 20H20C21.1053 20 22 19.1053 22 18V6C22 4.89474 21.1053 4 20 4H16.4211L14.4211 2H9.57895L7.57895 4H4C2.89474 4 2 4.89474 2 6ZM12 9C13.7895 9 15 10.2105 15 12C15 13.7895 13.7895 15 12 15C10.2105 15 9 13.7895 9 12C9 10.2105 10.2105 9 12 9ZM12 7C9.22807 7 7 9.22807 7 12C7 14.7719 9.22807 17 12 17C14.7719 17 17 14.7719 17 12C17 9.22807 14.7719 7 12 7Z" fill="#333333"/>
</svg>
