<svg width="24" height="24" viewBox="0 0 24 24" fill="none" xmlns="http://www.w3.org/2000/svg">
<path d="M12 4C16.5439 4 20 7.45614 20 12C20 13.5965 19.5789 14.9649 18.7895 16.2456L19.6316 19.6316L16.2456 18.7895C14.9649 19.5789 13.5965 20 12 20C7.45614 20 4 16.5439 4 12C4 7.45614 7.45614 4 12 4ZM12 2C6.47368 2 2 6.47368 2 12C2 17.5263 6.47368 22 12 22C13.614 22 15.1754 21.5965 16.5263 20.9298L22.3684 22.3684L20.9298 16.5263C21.5965 15.1754 22 13.614 22 12C22 6.47368 17.5263 2 12 2ZM6.66667 10.6667V13.3333H9.33333V10.6667H6.66667ZM10.6667 10.6667V13.3333H13.3333V10.6667H10.6667ZM14.6667 10.6667V13.3333H17.3333V10.6667H14.6667Z" fill="#333333"/>
</svg>
