<svg width="24" height="24" viewBox="0 0 24 24" fill="none" xmlns="http://www.w3.org/2000/svg">
<path d="M11 5V10H19.8947C20.0526 10 19.8421 9.77193 19.8246 9.91228L18.1754 18.9298C18.1579 19 18.1579 19 18.0877 19H8V9.19298L9.68421 5H11ZM11 3H8.31579L6 8.80702V21H18.0877C19.0877 21 19.9649 20.2632 20.1404 19.2807L21.7895 10.2632C22 9.03509 21.1228 8 19.8947 8H13V5C13 3.87719 12.1228 3 11 3ZM4 8C2.87719 8 2 8.87719 2 10V19C2 20.1228 2.87719 21 4 21H8V8H4ZM4 10H6V19H4V10Z" fill="#333333"/>
</svg>
