<svg width="24" height="24" viewBox="0 0 24 24" fill="none" xmlns="http://www.w3.org/2000/svg">
<path d="M4 12C4 7.45614 7.45614 4 12 4C16.5439 4 20 7.45614 20 12C20 16.5439 16.5439 20 12 20C7.45614 20 4 16.5439 4 12ZM2 12C2 17.5263 6.47368 22 12 22C17.5263 22 22 17.5263 22 12C22 6.47368 17.5263 2 12 2C6.47368 2 2 6.47368 2 12ZM14 10C14 11.2281 13.2281 12 12 12C10.7719 12 10 11.2281 10 10C10 8.77193 10.7719 8 12 8C13.2281 8 14 8.77193 14 10ZM16 10C16 7.78947 14.2105 6 12 6C9.78947 6 8 7.78947 8 10C8 12.2105 9.78947 14 12 14C14.2105 14 16 12.2105 16 10ZM17.2281 18.0702C15.8246 19.2982 14.0526 20 12 20C9.94737 20 8.17544 19.2982 6.77193 18.0702C8.05263 17.4035 9.85965 17 12 17C14.1404 17 15.9474 17.4035 17.2281 18.0702ZM20.1404 17.807C18.7368 16.1228 15.5965 15 12 15C8.40351 15 5.26316 16.1228 3.85965 17.807C5.64912 20.3158 8.63158 22 12 22C15.3684 22 18.3509 20.3158 20.1404 17.807Z" fill="#333333"/>
</svg>
