<svg width="24" height="24" viewBox="0 0 24 24" fill="none" xmlns="http://www.w3.org/2000/svg">
<path d="M3 12C3 13.1053 3.89474 14 5 14C6.10526 14 7 13.1053 7 12C7 10.8947 6.10526 10 5 10C3.89474 10 3 10.8947 3 12ZM10 12C10 13.1053 10.8947 14 12 14C13.1053 14 14 13.1053 14 12C14 10.8947 13.1053 10 12 10C10.8947 10 10 10.8947 10 12ZM17 12C17 13.1053 17.8947 14 19 14C20.1053 14 21 13.1053 21 12C21 10.8947 20.1053 10 19 10C17.8947 10 17 10.8947 17 12ZM3 5C3 6.10526 3.89474 7 5 7C6.10526 7 7 6.10526 7 5C7 3.89474 6.10526 3 5 3C3.89474 3 3 3.89474 3 5ZM10 5C10 6.10526 10.8947 7 12 7C13.1053 7 14 6.10526 14 5C14 3.89474 13.1053 3 12 3C10.8947 3 10 3.89474 10 5ZM17 5C17 6.10526 17.8947 7 19 7C20.1053 7 21 6.10526 21 5C21 3.89474 20.1053 3 19 3C17.8947 3 17 3.89474 17 5ZM3 19C3 20.1053 3.89474 21 5 21C6.10526 21 7 20.1053 7 19C7 17.8947 6.10526 17 5 17C3.89474 17 3 17.8947 3 19ZM10 19C10 20.1053 10.8947 21 12 21C13.1053 21 14 20.1053 14 19C14 17.8947 13.1053 17 12 17C10.8947 17 10 17.8947 10 19ZM17 19C17 20.1053 17.8947 21 19 21C20.1053 21 21 20.1053 21 19C21 17.8947 20.1053 17 19 17C17.8947 17 17 17.8947 17 19Z" fill="#333333"/>
</svg>
