<svg width="24" height="24" viewBox="0 0 24 24" fill="none" xmlns="http://www.w3.org/2000/svg">
<path d="M13 20V4C13 3.45614 12.5439 3 12 3C11.4561 3 11 3.45614 11 4V20C11 20.5439 11.4561 21 12 21C12.5439 21 13 20.5439 13 20ZM11.2982 4.70175L18.2982 11.7018C18.4737 11.8947 18.7193 12 19 12C19.5439 12 20 11.5439 20 11C20 10.7193 19.8947 10.4737 19.7018 10.2982L12.7018 3.29825C12.5263 3.10526 12.2807 3 12 3C11.4561 3 11 3.45614 11 4C11 4.2807 11.1053 4.52632 11.2982 4.70175ZM5.70175 11.7018L12.7018 4.70175C12.8947 4.52632 13 4.2807 13 4C13 3.45614 12.5439 3 12 3C11.7193 3 11.4737 3.10526 11.2982 3.29825L4.29825 10.2982C4.10526 10.4737 4 10.7193 4 11C4 11.5439 4.45614 12 5 12C5.2807 12 5.52632 11.8947 5.70175 11.7018Z" fill="#333333"/>
</svg>
