<svg width="24" height="24" viewBox="0 0 24 24" fill="none" xmlns="http://www.w3.org/2000/svg">
<path d="M16 13H17C18.2632 13 19 13.7368 19 15V17C19 18.2632 18.2632 19 17 19H7C5.73684 19 5 18.2632 5 17V15C5 13.7368 5.73684 13 7 13H8C8.54386 13 9 12.5439 9 12C9 11.4561 8.54386 11 8 11H7C4.75439 11 3 12.7544 3 15V17C3 19.2456 4.75439 21 7 21H17C19.2456 21 21 19.2456 21 17V15C21 12.7544 19.2456 11 17 11H16C15.4561 11 15 11.4561 15 12C15 12.5439 15.4561 13 16 13ZM11.2982 3.29825L7.29825 7.29824C7.10526 7.47368 7 7.7193 7 8C7 8.54386 7.45614 9 8 9C8.2807 9 8.52632 8.89474 8.70175 8.70175L12.7018 4.70175C12.8947 4.52632 13 4.2807 13 4C13 3.45614 12.5439 3 12 3C11.7193 3 11.4737 3.10526 11.2982 3.29825ZM16.7018 7.29824L12.7018 3.29825C12.5263 3.10526 12.2807 3 12 3C11.4561 3 11 3.45614 11 4C11 4.2807 11.1053 4.52632 11.2982 4.70175L15.2982 8.70175C15.4737 8.89474 15.7193 9 16 9C16.5439 9 17 8.54386 17 8C17 7.7193 16.8947 7.47368 16.7018 7.29824ZM13 16V4C13 3.45614 12.5439 3 12 3C11.4561 3 11 3.45614 11 4V16C11 16.5439 11.4561 17 12 17C12.5439 17 13 16.5439 13 16Z" fill="#333333"/>
</svg>
