<svg width="24" height="24" viewBox="0 0 24 24" fill="none" xmlns="http://www.w3.org/2000/svg">
<path d="M12 20C7.45614 20 4 16.5439 4 12C4 7.45614 7.45614 4 12 4C16.5439 4 20 7.45614 20 12C20 16.5439 16.5439 20 12 20ZM12 22C17.5263 22 22 17.5263 22 12C22 6.47368 17.5263 2 12 2C6.47368 2 2 6.47368 2 12C2 17.5263 6.47368 22 12 22ZM8.29825 9.70176L14.2982 15.7018C14.4737 15.8947 14.7193 16 15 16C15.5439 16 16 15.5439 16 15C16 14.7193 15.8947 14.4737 15.7018 14.2982L9.70175 8.29825C9.52632 8.10526 9.2807 8 9 8C8.45614 8 8 8.45614 8 9C8 9.2807 8.10526 9.52632 8.29825 9.70176ZM14.2982 8.29825L8.29825 14.2982C8.10526 14.4737 8 14.7193 8 15C8 15.5439 8.45614 16 9 16C9.2807 16 9.52632 15.8947 9.70175 15.7018L15.7018 9.70176C15.8947 9.52632 16 9.2807 16 9C16 8.45614 15.5439 8 15 8C14.7193 8 14.4737 8.10526 14.2982 8.29825Z" fill="#333333"/>
</svg>
