<svg width="24" height="24" viewBox="0 0 24 24" fill="none" xmlns="http://www.w3.org/2000/svg">
<path d="M12 20C7.45614 20 4 16.5439 4 12C4 7.45614 7.45614 4 12 4C16.5439 4 20 7.45614 20 12C20 16.5439 16.5439 20 12 20ZM12 22C17.5263 22 22 17.5263 22 12C22 6.47368 17.5263 2 12 2C6.47368 2 2 6.47368 2 12C2 17.5263 6.47368 22 12 22ZM11 7V13.3333C11 13.8772 11.4561 14.3333 12 14.3333C12.5439 14.3333 13 13.8772 13 13.3333V7C13 6.45614 12.5439 6 12 6C11.4561 6 11 6.45614 11 7ZM12 18C12.7368 18 13.3333 17.4035 13.3333 16.6667C13.3333 15.9298 12.7368 15.3333 12 15.3333C11.2632 15.3333 10.6667 15.9298 10.6667 16.6667C10.6667 17.4035 11.2632 18 12 18Z" fill="#333333"/>
</svg>
