<svg width="24" height="24" viewBox="0 0 24 24" fill="none" xmlns="http://www.w3.org/2000/svg">
<path d="M12 20C7.45614 20 4 16.5439 4 12C4 7.45614 7.45614 4 12 4C16.5439 4 20 7.45614 20 12C20 16.5439 16.5439 20 12 20ZM12 22C17.5263 22 22 17.5263 22 12C22 6.47368 17.5263 2 12 2C6.47368 2 2 6.47368 2 12C2 17.5263 6.47368 22 12 22ZM9.70175 13.7018L12.7018 10.7018C12.8947 10.5263 13 10.2807 13 10C13 9.45614 12.5439 9 12 9C11.7193 9 11.4737 9.10526 11.2982 9.29825L8.29825 12.2982C8.10526 12.4737 8 12.7193 8 13C8 13.5439 8.45614 14 9 14C9.2807 14 9.52632 13.8947 9.70175 13.7018ZM11.2982 10.7018L14.2982 13.7018C14.4737 13.8947 14.7193 14 15 14C15.5439 14 16 13.5439 16 13C16 12.7193 15.8947 12.4737 15.7018 12.2982L12.7018 9.29825C12.5263 9.10526 12.2807 9 12 9C11.4561 9 11 9.45614 11 10C11 10.2807 11.1053 10.5263 11.2982 10.7018Z" fill="#333333"/>
</svg>
