<svg width="24" height="24" viewBox="0 0 24 24" fill="none" xmlns="http://www.w3.org/2000/svg">
<path d="M12 20C7.45614 20 4 16.5439 4 12C4 7.45614 7.45614 4 12 4C16.5439 4 20 7.45614 20 12C20 16.5439 16.5439 20 12 20ZM12 22C17.5263 22 22 17.5263 22 12C22 6.47368 17.5263 2 12 2C6.47368 2 2 6.47368 2 12C2 17.5263 6.47368 22 12 22ZM13 13.3333C13 12.0877 15.5263 11.7018 15.5088 9.49123C15.5088 7.5614 13.9474 6 12 6C10.0526 6 8.50877 7.57895 8.50877 9.49123C8.50877 10.0351 8.96491 10.4912 9.50877 10.4912C10.0526 10.4912 10.5088 10.0351 10.5088 9.49123C10.5088 8.52632 11.0351 8 12 8C12.9649 8 13.5088 8.54386 13.5088 9.49123C13.5263 10.6842 11 11.1228 11 13.3333C11 13.8772 11.4561 14.3333 12 14.3333C12.5439 14.3333 13 13.8772 13 13.3333ZM12 18C12.7368 18 13.3333 17.4035 13.3333 16.6667C13.3333 15.9298 12.7368 15.3333 12 15.3333C11.2632 15.3333 10.6667 15.9298 10.6667 16.6667C10.6667 17.4035 11.2632 18 12 18Z" fill="#333333"/>
</svg>
