<svg width="24" height="24" viewBox="0 0 24 24" fill="none" xmlns="http://www.w3.org/2000/svg">
<path d="M15 14.0031C15 12.3365 13.6667 11.0031 12 11.0031C10.3333 11.0031 9 12.3365 9 14.0031V19.0031H7C5.77193 19.0031 5 18.2312 5 17.0031V11.2488C5 10.6347 5.15789 10.2488 5.57895 9.82771L10.5789 4.82771C11.4737 3.95052 12.5263 3.95052 13.4211 4.82771L18.4211 9.82771C18.8421 10.2488 19 10.6347 19 11.2488V17.0031C19 18.2312 18.2281 19.0031 17 19.0031H15V14.0031ZM13 14.0031V21.0031H17C19.2105 21.0031 21 19.2137 21 17.0031V11.2488C21 10.1786 20.5789 9.16104 19.8246 8.4242L14.8246 3.4242C13.2632 1.84525 10.7368 1.84525 9.17544 3.4242L4.17544 8.4242C3.42105 9.16104 3 10.1786 3 11.2488V17.0031C3 19.2137 4.78947 21.0031 7 21.0031H11V14.0031C11 13.3189 11.3158 13.0031 12 13.0031C12.6842 13.0031 13 13.3189 13 14.0031ZM14 19.0031H10V21.0031H14V19.0031Z" fill="#333333"/>
</svg>
