<svg width="24" height="24" viewBox="0 0 24 24" fill="none" xmlns="http://www.w3.org/2000/svg">
<path d="M12 20C7.45614 20 4 16.5439 4 12C4 7.45614 7.45614 4 12 4C16.5439 4 20 7.45614 20 12C20 16.5439 16.5439 20 12 20ZM12 22C17.5263 22 22 17.5263 22 12C22 6.47368 17.5263 2 12 2C6.47368 2 2 6.47368 2 12C2 17.5263 6.47368 22 12 22ZM11 11.6667V16C11 16.5439 11.4561 17 12 17C12.5439 17 13 16.5439 13 16V11.6667C13 11.1228 12.5439 10.6667 12 10.6667C11.4561 10.6667 11 11.1228 11 11.6667ZM12 7C11.2632 7 10.6667 7.59649 10.6667 8.33333C10.6667 9.07018 11.2632 9.66667 12 9.66667C12.7368 9.66667 13.3333 9.07018 13.3333 8.33333C13.3333 7.59649 12.7368 7 12 7Z" fill="#333333"/>
</svg>
