<svg width="24" height="24" viewBox="0 0 24 24" fill="none" xmlns="http://www.w3.org/2000/svg">
<path d="M12.7018 17.2982L7.70175 12.2982C7.52632 12.1053 7.2807 12 7 12C6.45614 12 6 12.4561 6 13C6 13.2807 6.10526 13.5263 6.29825 13.7018L11.2982 18.7018C11.4737 18.8947 11.7193 19 12 19C12.5439 19 13 18.5439 13 18C13 17.7193 12.8947 17.4737 12.7018 17.2982ZM12.7018 11.2982L7.70175 6.29825C7.52632 6.10526 7.2807 6 7 6C6.45614 6 6 6.45614 6 7C6 7.2807 6.10526 7.52632 6.29825 7.70175L11.2982 12.7018C11.4737 12.8947 11.7193 13 12 13C12.5439 13 13 12.5439 13 12C13 11.7193 12.8947 11.4737 12.7018 11.2982ZM16.2982 6.29825L11.2982 11.2982C11.1053 11.4737 11 11.7193 11 12C11 12.5439 11.4561 13 12 13C12.2807 13 12.5263 12.8947 12.7018 12.7018L17.7018 7.70175C17.8947 7.52632 18 7.2807 18 7C18 6.45614 17.5439 6 17 6C16.7193 6 16.4737 6.10526 16.2982 6.29825ZM16.2982 12.2982L11.2982 17.2982C11.1053 17.4737 11 17.7193 11 18C11 18.5439 11.4561 19 12 19C12.2807 19 12.5263 18.8947 12.7018 18.7018L17.7018 13.7018C17.8947 13.5263 18 13.2807 18 13C18 12.4561 17.5439 12 17 12C16.7193 12 16.4737 12.1053 16.2982 12.2982Z" fill="#333333"/>
</svg>
