<svg width="24" height="24" viewBox="0 0 24 24" fill="none" xmlns="http://www.w3.org/2000/svg">
<path d="M18.7018 11.2982L13.7018 6.29825C13.5263 6.10526 13.2807 6 13 6C12.4561 6 12 6.45614 12 7C12 7.2807 12.1053 7.52632 12.2982 7.70175L17.2982 12.7018C17.4737 12.8947 17.7193 13 18 13C18.5439 13 19 12.5439 19 12C19 11.7193 18.8947 11.4737 18.7018 11.2982ZM12.7018 11.2982L7.70175 6.29825C7.52632 6.10526 7.2807 6 7 6C6.45614 6 6 6.45614 6 7C6 7.2807 6.10526 7.52632 6.29825 7.70175L11.2982 12.7018C11.4737 12.8947 11.7193 13 12 13C12.5439 13 13 12.5439 13 12C13 11.7193 12.8947 11.4737 12.7018 11.2982ZM7.70175 17.7018L12.7018 12.7018C12.8947 12.5263 13 12.2807 13 12C13 11.4561 12.5439 11 12 11C11.7193 11 11.4737 11.1053 11.2982 11.2982L6.29825 16.2982C6.10526 16.4737 6 16.7193 6 17C6 17.5439 6.45614 18 7 18C7.2807 18 7.52632 17.8947 7.70175 17.7018ZM13.7018 17.7018L18.7018 12.7018C18.8947 12.5263 19 12.2807 19 12C19 11.4561 18.5439 11 18 11C17.7193 11 17.4737 11.1053 17.2982 11.2982L12.2982 16.2982C12.1053 16.4737 12 16.7193 12 17C12 17.5439 12.4561 18 13 18C13.2807 18 13.5263 17.8947 13.7018 17.7018Z" fill="#333333"/>
</svg>
