<svg width="24" height="24" viewBox="0 0 24 24" fill="none" xmlns="http://www.w3.org/2000/svg">
<path d="M7 19.9997C5.73684 19.9997 5 19.2629 5 17.9997V11.9997C5 10.7366 5.73684 9.99973 7 9.99973H17C18.2632 9.99973 19 10.7366 19 11.9997V17.9997C19 19.2629 18.2632 19.9997 17 19.9997H7ZM7 21.9997H17C19.2456 21.9997 21 20.2453 21 17.9997V11.9997C21 9.75412 19.2456 7.99973 17 7.99973H7C4.75439 7.99973 3 9.75412 3 11.9997V17.9997C3 20.2453 4.75439 21.9997 7 21.9997ZM12 12.9997C10.8947 12.9997 10 13.8945 10 14.9997C10 16.105 10.8947 16.9997 12 16.9997C13.1053 16.9997 14 16.105 14 14.9997C14 13.8945 13.1053 12.9997 12 12.9997ZM16 8.99973V5.99973C16 5.21026 15.7544 4.42078 15.3158 3.77166C14.8772 3.14008 14.2632 2.61376 13.5263 2.29797C12.807 1.99973 11.9825 1.92955 11.2281 2.06991C10.4386 2.2278 9.73684 2.61376 9.17544 3.17517C8.98246 3.35061 8.87719 3.59622 8.87719 3.87692C8.87719 4.42078 9.33333 4.87692 9.87719 4.87692C10.1579 4.87692 10.4035 4.77166 10.5789 4.57868C10.8947 4.26289 11.1579 4.12254 11.614 4.03482C12.0526 3.9471 12.3509 3.98219 12.7544 4.15762C13.1754 4.31552 13.4035 4.5085 13.6667 4.89447C13.9123 5.26289 14 5.54359 14 5.99973V8.99973C14 9.54359 14.4561 9.99973 15 9.99973C15.5439 9.99973 16 9.54359 16 8.99973Z" fill="#333333"/>
</svg>
