<svg width="24" height="24" viewBox="0 0 24 24" fill="none" xmlns="http://www.w3.org/2000/svg">
<path d="M4 8.05263C4 6.70175 4.70175 6 6.05263 6H17.9474C19.2982 6 20 6.70175 20 8.05263V15.9474C20 17.2982 19.2982 18 17.9474 18H6.05263C4.70175 18 4 17.2982 4 15.9474V8.05263ZM2 8.05263V15.9474C2 18.2807 3.7193 20 6.05263 20H17.9474C20.2807 20 22 18.2807 22 15.9474V8.05263C22 5.7193 20.2807 4 17.9474 4H6.05263C3.7193 4 2 5.7193 2 8.05263ZM19.2807 5.07017L13.1228 9.85965C12.3333 10.4737 11.6667 10.4737 10.8772 9.85965L4.7193 5.07017C4.54386 4.92982 4.33333 4.85965 4.10526 4.85965C3.5614 4.85965 3.10526 5.31579 3.10526 5.85965C3.10526 6.17544 3.26316 6.47368 3.49123 6.64912L9.64912 11.4386C11.0526 12.5439 12.9474 12.5439 14.3509 11.4386L20.5088 6.64912C20.7368 6.47368 20.8947 6.17544 20.8947 5.85965C20.8947 5.31579 20.4386 4.85965 19.8947 4.85965C19.6667 4.85965 19.4561 4.92982 19.2807 5.07017Z" fill="#333333"/>
</svg>
