<svg width="24" height="24" viewBox="0 0 24 24" fill="none" xmlns="http://www.w3.org/2000/svg">
<path d="M12 20C7.45614 20 4 16.5439 4 12C4 7.45614 7.45614 4 12 4C16.5439 4 20 7.45614 20 12C20 16.5439 16.5439 20 12 20ZM12 22C17.5263 22 22 17.5263 22 12C22 6.47368 17.5263 2 12 2C6.47368 2 2 6.47368 2 12C2 17.5263 6.47368 22 12 22ZM11 15V9C11 8.45614 10.5439 8 10 8C9.45614 8 9 8.45614 9 9V15C9 15.5439 9.45614 16 10 16C10.5439 16 11 15.5439 11 15ZM15 15V9C15 8.45614 14.5439 8 14 8C13.4561 8 13 8.45614 13 9V15C13 15.5439 13.4561 16 14 16C14.5439 16 15 15.5439 15 15Z" fill="#333333"/>
</svg>
