<svg width="24" height="24" viewBox="0 0 24 24" fill="none" xmlns="http://www.w3.org/2000/svg">
<path d="M16 18H9C6.66667 18 5 16.3333 5 14C5 11.6667 6.66667 10 9 10H20C20.5614 10 21 9.5614 21 9C21 8.4386 20.5614 8 20 8H9C5.68421 8 3 10.6842 3 14C3 17.3158 5.68421 20 9 20H16C16.5614 20 17 19.5614 17 19C17 18.4386 16.5614 18 16 18ZM15.2982 5.70175L19.2982 9.70175C19.4737 9.89474 19.7193 10 20 10C20.5614 10 21 9.5614 21 9C21 8.7193 20.8947 8.47368 20.7018 8.29824L16.7018 4.29825C16.5263 4.10526 16.2807 4 16 4C15.4386 4 15 4.4386 15 5C15 5.2807 15.1053 5.52632 15.2982 5.70175ZM19.2982 8.29824L15.2982 12.2982C15.1053 12.4737 15 12.7193 15 13C15 13.5614 15.4386 14 16 14C16.2807 14 16.5263 13.8947 16.7018 13.7018L20.7018 9.70175C20.8947 9.52632 21 9.2807 21 9C21 8.4386 20.5614 8 20 8C19.7193 8 19.4737 8.10526 19.2982 8.29824Z" fill="#333333"/>
</svg>
