<svg width="24" height="24" viewBox="0 0 24 24" fill="none" xmlns="http://www.w3.org/2000/svg">
<path d="M6 6C6 3.78947 4.21053 2 2 2C1.45614 2 1 2.45614 1 3C1 3.54386 1.45614 4 2 4C3.22807 4 4 4.77193 4 6C4 6.54386 4.45614 7 5 7C5.54386 7 6 6.54386 6 6ZM17.4035 7C18.807 7 19.614 7.98246 19.3684 9.36842L18.4737 14.3684C18.2807 15.4211 17.5789 16 16.4912 16H8C6.77193 16 6 15.2281 6 14V7H17.4035ZM17.4035 5H4V14C4 16.2105 5.78947 18 8 18H16.4912C18.4211 18 20.0877 16.614 20.4386 14.7193L21.3333 9.7193C21.7719 7.26316 19.9123 5 17.4035 5ZM17 19C15.8947 19 15 19.8947 15 21C15 22.1053 15.8947 23 17 23C18.1053 23 19 22.1053 19 21C19 19.8947 18.1053 19 17 19ZM7 19C5.89474 19 5 19.8947 5 21C5 22.1053 5.89474 23 7 23C8.10526 23 9 22.1053 9 21C9 19.8947 8.10526 19 7 19Z" fill="#333333"/>
</svg>
