<svg width="24" height="24" viewBox="0 0 24 24" fill="none" xmlns="http://www.w3.org/2000/svg">
<path d="M21 9.99997V5.99997C21 5.45611 20.5439 4.99997 20 4.99997C19.4561 4.99997 19 5.45611 19 5.99997V9.99997C19 10.5438 19.4561 11 20 11C20.5439 11 21 10.5438 21 9.99997ZM4 15H8C8.54386 15 9 14.5438 9 14C9 13.4561 8.54386 13 8 13H4C3.45614 13 3 13.4561 3 14C3 14.5438 3.45614 15 4 15ZM3.2807 14.7017L6.22807 17.7544C7.70175 19.2456 9.75439 20.1403 12 20.1403C15.7018 20.1403 18.8421 17.6491 19.8246 14.2807C19.8421 14.193 19.8596 14.1052 19.8596 14C19.8596 13.4561 19.4035 13 18.8596 13C18.4035 13 18.0175 13.2982 17.8947 13.7193C17.1228 16.3859 14.8947 18.1403 12 18.1403C10.2281 18.1403 8.80702 17.5263 7.66667 16.3508L4.7193 13.2982C4.54386 13.1228 4.2807 13 4 13C3.45614 13 3 13.4561 3 14C3 14.2631 3.10526 14.5087 3.2807 14.7017ZM20.7193 9.29822L17.7719 6.24558C16.2807 4.7719 14.2632 3.85962 12 3.85962C8.29825 3.85962 5.15789 6.35085 4.17544 9.71927C4.15789 9.80699 4.14035 9.89471 4.14035 9.99997C4.14035 10.5438 4.59649 11 5.14035 11C5.59649 11 5.98246 10.7017 6.10526 10.2807C6.87719 7.614 9.10526 5.85962 12 5.85962C13.7719 5.85962 15.1754 6.4912 16.3333 7.64909L19.2807 10.7017C19.4561 10.8772 19.7193 11 20 11C20.5439 11 21 10.5438 21 9.99997C21 9.73681 20.8947 9.4912 20.7193 9.29822ZM5 18V14C5 13.4561 4.54386 13 4 13C3.45614 13 3 13.4561 3 14V18C3 18.5438 3.45614 19 4 19C4.54386 19 5 18.5438 5 18ZM16 11H20C20.5439 11 21 10.5438 21 9.99997C21 9.45611 20.5439 8.99997 20 8.99997H16C15.4561 8.99997 15 9.45611 15 9.99997C15 10.5438 15.4561 11 16 11Z" fill="#333333"/>
</svg>
