<svg width="24" height="24" viewBox="0 0 24 24" fill="none" xmlns="http://www.w3.org/2000/svg">
<path d="M11.9961 14H6.29435C4.92592 14 4.32943 13.2982 4.57505 11.9298L5.48733 6.87719C5.69785 5.73684 6.57505 5 7.75049 5H15.9961V14.807L14.0663 19.6316C14.0136 19.7368 13.9961 19.8772 13.9961 20C13.9961 20.5439 14.4522 21 14.9961 21C15.4172 21 15.7856 20.7368 15.9259 20.3684L17.9961 15.193V3H7.75049C5.7154 3 3.89084 4.54386 3.52242 6.52632L2.61013 11.5789C2.17154 14.0175 3.83821 16 6.29435 16H11.9961C12.54 16 12.9961 15.5439 12.9961 15C12.9961 14.4561 12.54 14 11.9961 14ZM17.9961 16C20.2417 16 21.9961 14.2456 21.9961 12V7C21.9961 4.75438 20.2417 3 17.9961 3H15.9961V16H17.9961ZM17.9961 14V5C19.2593 5 19.9961 5.73684 19.9961 7V12C19.9961 13.2632 19.2593 14 17.9961 14ZM14.9961 19C13.7329 19 12.9961 18.2632 12.9961 17V15C12.9961 14.4561 12.54 14 11.9961 14C11.4522 14 10.9961 14.4561 10.9961 15V17C10.9961 19.2456 12.7505 21 14.9961 21C15.54 21 15.9961 20.5439 15.9961 20C15.9961 19.4561 15.54 19 14.9961 19Z" fill="#333333"/>
</svg>
