<svg width="24" height="24" viewBox="0 0 24 24" fill="none" xmlns="http://www.w3.org/2000/svg">
<path d="M12 20C7.98246 20 5 17.0175 5 13C5 8.98246 7.98246 6 12 6C16.0175 6 19 8.98246 19 13C19 17.0175 16.0175 20 12 20ZM12 22C17 22 21 18 21 13C21 8 17 4 12 4C7 4 3 8 3 13C3 18 7 22 12 22ZM15 1H9C8.45614 1 8 1.45614 8 2C8 2.54386 8.45614 3 9 3H15C15.5439 3 16 2.54386 16 2C16 1.45614 15.5439 1 15 1ZM11 9V13C11 13.5439 11.4561 14 12 14C12.5439 14 13 13.5439 13 13V9C13 8.45614 12.5439 8 12 8C11.4561 8 11 8.45614 11 9Z" fill="#333333"/>
</svg>
