<svg width="24" height="24" viewBox="0 0 24 24" fill="none" xmlns="http://www.w3.org/2000/svg">
<path d="M8 20H15C18.3158 20 21 17.3158 21 14C21 10.6842 18.3158 8 15 8H4C3.4386 8 3 8.4386 3 9C3 9.5614 3.4386 10 4 10H15C17.3333 10 19 11.6667 19 14C19 16.3333 17.3333 18 15 18H8C7.4386 18 7 18.4386 7 19C7 19.5614 7.4386 20 8 20ZM7.29825 4.29825L3.29825 8.29824C3.10526 8.47368 3 8.7193 3 9C3 9.5614 3.4386 10 4 10C4.2807 10 4.52632 9.89474 4.70175 9.70175L8.70175 5.70175C8.89474 5.52632 9 5.2807 9 5C9 4.4386 8.5614 4 8 4C7.7193 4 7.47368 4.10526 7.29825 4.29825ZM3.29825 9.70175L7.29825 13.7018C7.47368 13.8947 7.7193 14 8 14C8.5614 14 9 13.5614 9 13C9 12.7193 8.89474 12.4737 8.70175 12.2982L4.70175 8.29824C4.52632 8.10526 4.2807 8 4 8C3.4386 8 3 8.4386 3 9C3 9.2807 3.10526 9.52632 3.29825 9.70175Z" fill="#333333"/>
</svg>
