<svg width="24" height="24" viewBox="0 0 24 24" fill="none" xmlns="http://www.w3.org/2000/svg">
<path d="M3 11C3 9.36257 3.40351 7.8538 4.21053 6.47368C5.01754 5.09357 6.10526 4.00585 7.47368 3.21053C8.8538 2.40351 10.3626 2 12 2C13.6374 2 15.1462 2.40351 16.5263 3.21053C17.9064 4.00585 18.9942 5.09357 19.7895 6.47368C20.5965 7.8538 21 9.36257 21 11C21 12.2164 20.7661 13.3743 20.2982 14.4737C19.8304 15.5731 19.1813 16.538 18.3509 17.3684L14.8772 20.8421C14.3509 21.3918 13.7368 21.7602 13.0351 21.9474C12.345 22.1345 11.655 22.1345 10.9649 21.9474C10.2865 21.7602 9.67836 21.3918 9.14035 20.8421L5.64912 17.3509C4.81871 16.5322 4.16959 15.5789 3.70175 14.4912C3.23392 13.3918 3 12.2281 3 11ZM8 11C8 11.269 8.09942 11.5029 8.29825 11.7018C8.49708 11.9006 8.73099 12 9 12H11V14C11 14.269 11.0994 14.5029 11.2982 14.7018C11.4971 14.9006 11.731 15 12 15C12.2807 15 12.5146 14.9006 12.7018 14.7018C12.9006 14.5029 13 14.269 13 14V12H15C15.2807 12 15.5146 11.9006 15.7018 11.7018C15.9006 11.5029 16 11.269 16 11C16 10.7193 15.9006 10.4854 15.7018 10.2982C15.5146 10.0994 15.2807 10 15 10H13V8C13 7.7193 12.9006 7.48538 12.7018 7.29825C12.5146 7.09942 12.2807 7 12 7C11.731 7 11.4971 7.09942 11.2982 7.29825C11.0994 7.48538 11 7.7193 11 8V10H9C8.73099 10 8.49708 10.0994 8.29825 10.2982C8.09942 10.4854 8 10.7193 8 11Z" fill="#333333"/>
</svg>
