<svg width="24" height="24" viewBox="0 0 24 24" fill="none" xmlns="http://www.w3.org/2000/svg">
<path d="M5 6C5 5.7193 5.09942 5.48538 5.29825 5.29825C5.49708 5.09942 5.73099 5 6 5C6.2807 5 6.51462 5.09942 6.70175 5.29825C6.90058 5.48538 7 5.7193 7 6V16C7 16.269 6.90058 16.5029 6.70175 16.7018C6.51462 16.9006 6.2807 17 6 17C5.73099 17 5.49708 16.9006 5.29825 16.7018C5.09942 16.5029 5 16.269 5 16V6ZM16 5C16.2807 5 16.5146 5.09942 16.7018 5.29825C16.9006 5.48538 17 5.7193 17 6C17 6.26901 16.9006 6.50292 16.7018 6.70176C16.5146 6.90059 16.2807 7 16 7H6C5.73099 7 5.49708 6.90059 5.29825 6.70176C5.09942 6.50292 5 6.26901 5 6C5 5.7193 5.09942 5.48538 5.29825 5.29825C5.49708 5.09942 5.73099 5 6 5H16ZM18.7018 17.2982C18.9006 17.4737 19 17.7076 19 18C19 18.269 18.9006 18.5029 18.7018 18.7018C18.5146 18.9006 18.2807 19 18 19C17.7193 19 17.4854 18.9006 17.2982 18.7018L5.29825 6.70176C5.09942 6.51462 5 6.2807 5 6C5 5.7193 5.09942 5.48538 5.29825 5.29825C5.49708 5.09942 5.73099 5 6 5C6.2924 5 6.52632 5.09942 6.70175 5.29825L18.7018 17.2982Z" fill="#333333"/>
</svg>
