<svg width="24" height="24" viewBox="0 0 24 24" fill="none" xmlns="http://www.w3.org/2000/svg">
<path d="M19 11C19.2807 11 19.5146 11.0994 19.7018 11.2982C19.9006 11.4854 20 11.7193 20 12C20 12.269 19.9006 12.5029 19.7018 12.7018C19.5146 12.9006 19.2807 13 19 13H5C4.73099 13 4.49708 12.9006 4.29825 12.7018C4.09942 12.5029 4 12.269 4 12C4 11.7193 4.09942 11.4854 4.29825 11.2982C4.49708 11.0994 4.73099 11 5 11H19ZM8.70175 19.7018C8.52632 19.9006 8.2924 20 8 20C7.73099 20 7.49708 19.9006 7.29825 19.7018C7.09941 19.5029 7 19.269 7 19C7 18.7076 7.09941 18.4737 7.29825 18.2982L11.2982 14.2982C11.4854 14.0994 11.7193 14 12 14C12.2807 14 12.5146 14.0994 12.7018 14.2982C12.9006 14.4854 13 14.7193 13 15C13 15.2807 12.9006 15.5146 12.7018 15.7018L8.70175 19.7018ZM16.7018 18.2982C16.9006 18.4737 17 18.7076 17 19C17 19.269 16.9006 19.5029 16.7018 19.7018C16.5146 19.9006 16.2807 20 16 20C15.7193 20 15.4854 19.9006 15.2982 19.7018L11.2982 15.7018C11.0994 15.5146 11 15.2807 11 15C11 14.7193 11.0994 14.4854 11.2982 14.2982C11.4971 14.0994 11.731 14 12 14C12.2924 14 12.5263 14.0994 12.7018 14.2982L16.7018 18.2982ZM13 22C13 22.269 12.9006 22.5029 12.7018 22.7018C12.5146 22.9006 12.2807 23 12 23C11.731 23 11.4971 22.9006 11.2982 22.7018C11.0994 22.5029 11 22.269 11 22V15C11 14.7193 11.0994 14.4854 11.2982 14.2982C11.4971 14.0994 11.731 14 12 14C12.2807 14 12.5146 14.0994 12.7018 14.2982C12.9006 14.4854 13 14.7193 13 15V22ZM7.29825 5.70175C7.09941 5.51462 7 5.2807 7 5C7 4.7193 7.09941 4.48538 7.29825 4.29824C7.49708 4.09941 7.73099 4 8 4C8.2924 4 8.52632 4.09941 8.70175 4.29824L12.7018 8.29824C12.9006 8.47368 13 8.7076 13 9C13 9.26901 12.9006 9.50292 12.7018 9.70175C12.5146 9.90058 12.2807 10 12 10C11.7193 10 11.4854 9.90058 11.2982 9.70175L7.29825 5.70175ZM12.7018 9.70175C12.5263 9.90058 12.2924 10 12 10C11.731 10 11.4971 9.90058 11.2982 9.70175C11.0994 9.50292 11 9.26901 11 9C11 8.7076 11.0994 8.47368 11.2982 8.29824L15.2982 4.29824C15.4854 4.09941 15.7193 4 16 4C16.2807 4 16.5146 4.09941 16.7018 4.29824C16.9006 4.48538 17 4.7193 17 5C17 5.2807 16.9006 5.51462 16.7018 5.70175L12.7018 9.70175ZM13 9C13 9.26901 12.9006 9.50292 12.7018 9.70175C12.5146 9.90058 12.2807 10 12 10C11.731 10 11.4971 9.90058 11.2982 9.70175C11.0994 9.50292 11 9.26901 11 9V2C11 1.7193 11.0994 1.48538 11.2982 1.29824C11.4971 1.09941 11.731 1 12 1C12.2807 1 12.5146 1.09941 12.7018 1.29824C12.9006 1.48538 13 1.7193 13 2V9Z" fill="#333333"/>
</svg>
