<svg width="24" height="24" viewBox="0 0 24 24" fill="none" xmlns="http://www.w3.org/2000/svg">
<path d="M7.29825 15.7018C7.09941 15.5146 7 15.2807 7 15C7 14.7193 7.09941 14.4854 7.29825 14.2982C7.49708 14.0994 7.73099 14 8 14C8.2924 14 8.52632 14.0994 8.70175 14.2982L12.7018 18.2982C12.9006 18.4737 13 18.7076 13 19C13 19.269 12.9006 19.5029 12.7018 19.7018C12.5146 19.9006 12.2807 20 12 20C11.7193 20 11.4854 19.9006 11.2982 19.7018L7.29825 15.7018ZM12.7018 19.7018C12.5263 19.9006 12.2924 20 12 20C11.731 20 11.4971 19.9006 11.2982 19.7018C11.0994 19.5029 11 19.269 11 19C11 18.7076 11.0994 18.4737 11.2982 18.2982L15.2982 14.2982C15.4854 14.0994 15.7193 14 16 14C16.2807 14 16.5146 14.0994 16.7018 14.2982C16.9006 14.4854 17 14.7193 17 15C17 15.2807 16.9006 15.5146 16.7018 15.7018L12.7018 19.7018ZM13 19C13 19.269 12.9006 19.5029 12.7018 19.7018C12.5146 19.9006 12.2807 20 12 20C11.731 20 11.4971 19.9006 11.2982 19.7018C11.0994 19.5029 11 19.269 11 19V5C11 4.7193 11.0994 4.48538 11.2982 4.29824C11.4971 4.09941 11.731 4 12 4C12.2807 4 12.5146 4.09941 12.7018 4.29824C12.9006 4.48538 13 4.7193 13 5V19Z" fill="#333333"/>
</svg>
