<svg width="24" height="24" viewBox="0 0 24 24" fill="none" xmlns="http://www.w3.org/2000/svg">
<path d="M19 3C19.2807 3 19.5146 3.09942 19.7018 3.29825C19.9006 3.48538 20 3.7193 20 4C20 4.26901 19.9006 4.50292 19.7018 4.70175C19.5146 4.90058 19.2807 5 19 5H5C4.73099 5 4.49708 4.90058 4.29825 4.70175C4.09942 4.50292 4 4.26901 4 4C4 3.7193 4.09942 3.48538 4.29825 3.29825C4.49708 3.09942 4.73099 3 5 3H19ZM11.2982 7.29824C11.4854 7.09942 11.7193 7 12 7C12.2807 7 12.5146 7.09942 12.7018 7.29824C12.9006 7.48538 13 7.7193 13 8C13 8.2807 12.9006 8.51462 12.7018 8.70175L8.70175 12.7018C8.52632 12.9006 8.2924 13 8 13C7.73099 13 7.49708 12.9006 7.29825 12.7018C7.09941 12.5029 7 12.269 7 12C7 11.7076 7.09941 11.4737 7.29825 11.2982L11.2982 7.29824ZM16.7018 11.2982C16.9006 11.4737 17 11.7076 17 12C17 12.269 16.9006 12.5029 16.7018 12.7018C16.5146 12.9006 16.2807 13 16 13C15.7193 13 15.4854 12.9006 15.2982 12.7018L11.2982 8.70175C11.0994 8.51462 11 8.2807 11 8C11 7.7193 11.0994 7.48538 11.2982 7.29824C11.4971 7.09942 11.731 7 12 7C12.2924 7 12.5263 7.09942 12.7018 7.29824L16.7018 11.2982ZM13 20C13 20.269 12.9006 20.5029 12.7018 20.7018C12.5146 20.9006 12.2807 21 12 21C11.731 21 11.4971 20.9006 11.2982 20.7018C11.0994 20.5029 11 20.269 11 20V8C11 7.7193 11.0994 7.48538 11.2982 7.29824C11.4971 7.09942 11.731 7 12 7C12.2807 7 12.5146 7.09942 12.7018 7.29824C12.9006 7.48538 13 7.7193 13 8V20Z" fill="#333333"/>
</svg>
