<svg width="24" height="24" viewBox="0 0 24 24" fill="none" xmlns="http://www.w3.org/2000/svg">
<path d="M19 19C19.2807 19 19.5146 19.0994 19.7018 19.2982C19.9006 19.4854 20 19.7193 20 20C20 20.269 19.9006 20.5029 19.7018 20.7018C19.5146 20.9006 19.2807 21 19 21H5C4.73099 21 4.49708 20.9006 4.29825 20.7018C4.09942 20.5029 4 20.269 4 20C4 19.7193 4.09942 19.4854 4.29825 19.2982C4.49708 19.0994 4.73099 19 5 19H19ZM7.29825 12.7018C7.09941 12.5146 7 12.2807 7 12C7 11.7193 7.09941 11.4854 7.29825 11.2982C7.49708 11.0994 7.73099 11 8 11C8.2924 11 8.52632 11.0994 8.70175 11.2982L12.7018 15.2982C12.9006 15.4737 13 15.7076 13 16C13 16.269 12.9006 16.5029 12.7018 16.7018C12.5146 16.9006 12.2807 17 12 17C11.7193 17 11.4854 16.9006 11.2982 16.7018L7.29825 12.7018ZM12.7018 16.7018C12.5263 16.9006 12.2924 17 12 17C11.731 17 11.4971 16.9006 11.2982 16.7018C11.0994 16.5029 11 16.269 11 16C11 15.7076 11.0994 15.4737 11.2982 15.2982L15.2982 11.2982C15.4854 11.0994 15.7193 11 16 11C16.2807 11 16.5146 11.0994 16.7018 11.2982C16.9006 11.4854 17 11.7193 17 12C17 12.2807 16.9006 12.5146 16.7018 12.7018L12.7018 16.7018ZM13 16C13 16.269 12.9006 16.5029 12.7018 16.7018C12.5146 16.9006 12.2807 17 12 17C11.731 17 11.4971 16.9006 11.2982 16.7018C11.0994 16.5029 11 16.269 11 16V4C11 3.7193 11.0994 3.48538 11.2982 3.29825C11.4971 3.09942 11.731 3 12 3C12.2807 3 12.5146 3.09942 12.7018 3.29825C12.9006 3.48538 13 3.7193 13 4V16Z" fill="#333333"/>
</svg>
