<svg width="24" height="24" viewBox="0 0 24 24" fill="none" xmlns="http://www.w3.org/2000/svg">
<path d="M3.45613 14.8596C2.92982 14.3333 2.57309 13.7251 2.38596 13.0351C2.19882 12.345 2.19882 11.655 2.38596 10.9649C2.57309 10.2632 2.92982 9.65497 3.45613 9.14035L7.56139 5.03509C7.87718 4.7076 8.269 4.45614 8.73683 4.2807C9.20467 4.09357 9.63742 4 10.0351 4H17.9474C18.6959 4 19.3801 4.18129 20 4.54386C20.6199 4.89474 21.1053 5.38012 21.4561 6C21.8187 6.61988 22 7.30409 22 8.05263V15.9474C22 16.6842 21.8187 17.3626 21.4561 17.9825C21.1053 18.6023 20.6199 19.0936 20 19.4561C19.3801 19.8187 18.6959 20 17.9474 20H10.0351C9.63742 20 9.20467 19.9123 8.73683 19.7368C8.269 19.5497 7.87718 19.2924 7.56139 18.9649L3.45613 14.8596ZM9.99999 15C9.99999 15.269 10.0994 15.5029 10.2982 15.7018C10.4971 15.9006 10.731 16 11 16C11.2924 16 11.5263 15.9006 11.7017 15.7018L14 13.4211L16.2982 15.7018C16.4854 15.9006 16.7193 16 17 16C17.2807 16 17.5146 15.9006 17.7017 15.7018C17.9006 15.5029 18 15.269 18 15C18 14.7076 17.9006 14.4737 17.7017 14.2982L15.421 12L17.7017 9.70175C17.9006 9.51462 18 9.2807 18 9C18 8.7193 17.9006 8.48538 17.7017 8.29824C17.5146 8.09941 17.2807 8 17 8C16.7193 8 16.4854 8.09941 16.2982 8.29824L14 10.5789L11.7017 8.29824C11.5263 8.09941 11.2924 8 11 8C10.731 8 10.4971 8.09941 10.2982 8.29824C10.0994 8.48538 9.99999 8.7193 9.99999 9C9.99999 9.2807 10.0994 9.51462 10.2982 9.70175L12.5789 12L10.2982 14.2982C10.0994 14.4737 9.99999 14.7076 9.99999 15Z" fill="#333333"/>
</svg>
