<svg width="24" height="24" viewBox="0 0 24 24" fill="none" xmlns="http://www.w3.org/2000/svg">
<path d="M11 4.2455C11 3.92971 11.1053 3.66656 11.3158 3.45603C11.538 3.2455 11.7953 3.14024 12.0877 3.14024C12.3918 3.12854 12.655 3.23966 12.8772 3.47357L16.6491 7.2455C16.8713 7.45603 16.9825 7.70749 16.9825 7.99989C16.9825 8.29229 16.8713 8.54375 16.6491 8.75427L11 14.4034V4.2455ZM15.2456 7.35077C15.3041 7.28059 15.345 7.37416 15.3684 7.63147C15.3918 7.87708 15.3918 8.1227 15.3684 8.36831C15.345 8.61392 15.3041 8.70749 15.2456 8.64901L11.4737 4.87708C11.4152 4.8186 11.5146 4.71919 11.7719 4.57884C12.0292 4.42679 12.2982 4.30983 12.5789 4.22796C12.8596 4.14609 13 4.15194 13 4.2455V9.57884L15.2456 7.35077ZM13 19.7543C13 19.8478 12.8596 19.8537 12.5789 19.7718C12.2982 19.6899 12.0292 19.5788 11.7719 19.4385C11.5146 19.2864 11.4152 19.1812 11.4737 19.1227L15.2456 15.3508C15.3041 15.2806 15.345 15.3742 15.3684 15.6315C15.3918 15.8771 15.3918 16.1227 15.3684 16.3683C15.345 16.6139 15.3041 16.7075 15.2456 16.649L13 14.4034V19.7543ZM16.6491 15.2455C16.8713 15.456 16.9825 15.7075 16.9825 15.9999C16.9825 16.2923 16.8713 16.5437 16.6491 16.7543L12.8772 20.5262C12.655 20.7484 12.3918 20.8595 12.0877 20.8595C11.7953 20.8595 11.538 20.7543 11.3158 20.5437C11.1053 20.3332 11 20.0701 11 19.7543V9.57884L16.6491 15.2455ZM8.70175 16.7016C8.52632 16.9005 8.2924 16.9999 8 16.9999C7.73099 16.9999 7.49708 16.9005 7.29825 16.7016C7.09941 16.5028 7 16.2689 7 15.9999C7 15.7075 7.09941 15.4736 7.29825 15.2981L10.5789 11.9999L7.29825 8.70164C7.09941 8.51451 7 8.28059 7 7.99989C7 7.71919 7.09941 7.48527 7.29825 7.29813C7.49708 7.0993 7.73099 6.99989 8 6.99989C8.2924 6.99989 8.52632 7.0993 8.70175 7.29813L13.4211 11.9999L8.70175 16.7016Z" fill="#333333"/>
</svg>
