<svg width="24" height="24" viewBox="0 0 24 24" fill="none" xmlns="http://www.w3.org/2000/svg">
<path d="M6.10526 5.91216L4.66667 4.77181C4.59649 4.68994 4.5848 4.61392 4.63158 4.54374C4.67836 4.46187 4.78947 4.41509 4.96491 4.40339L14.9649 3.66655C15.269 3.63146 15.5556 3.65485 15.8246 3.73672C16.117 3.8069 16.3684 3.9414 16.5789 4.14023L18.2982 5.38584C18.3567 5.40924 18.4035 5.46187 18.4386 5.54374C18.4737 5.61392 18.4386 5.649 18.3333 5.649L8 6.26304H7.87719C7.35088 6.29813 6.9883 6.29813 6.78947 6.26304C6.60234 6.22795 6.37427 6.10514 6.10526 5.89462V5.91216ZM6.7193 8.31567C6.7193 8.07006 6.76608 7.88877 6.85965 7.77181C6.95322 7.65485 7.10526 7.59052 7.31579 7.57883L19.1754 6.89462C19.5614 6.84783 19.7544 7.0759 19.7544 7.57883V18.4209C19.7544 18.7016 19.7076 18.9239 19.614 19.0876C19.5205 19.2396 19.3275 19.3215 19.0351 19.3332L7.66667 19.9823C7.33918 20.0057 7.09942 19.9589 6.94737 19.842C6.79532 19.725 6.7193 19.5203 6.7193 19.2279V8.31567ZM17.9298 8.89462L15.4211 9.05251C15.3392 9.05251 15.2515 9.07006 15.1579 9.10514L14.9474 9.28058C14.8889 9.35076 14.8538 9.42678 14.8421 9.50865C14.807 9.59052 14.8012 9.67824 14.8246 9.77181L15.7719 9.89462V14.9472L12.0526 9.22795L9.35088 9.42093C9.24561 9.42093 9.15205 9.44432 9.07018 9.49111C9.0117 9.5262 8.93567 9.59052 8.8421 9.68409C8.79532 9.75427 8.75439 9.84783 8.7193 9.96479C8.69591 10.0701 8.70175 10.1695 8.73684 10.263L9.64912 10.3332V17.5262L8.98246 17.7192C8.8655 17.7543 8.78363 17.842 8.73684 17.9823C8.70175 18.111 8.70175 18.2163 8.73684 18.2981L11.2456 18.1578C11.5497 18.1578 11.7719 18.0934 11.9123 17.9648C12.0643 17.8361 12.1462 17.6841 12.1579 17.5087L11.0351 17.2455V11.7894L14.614 17.4209C14.8596 17.725 15.0468 17.9239 15.1754 18.0174C15.3041 18.111 15.5088 18.1578 15.7895 18.1578C16.152 18.1578 16.5731 18.0233 17.0526 17.7543V9.70163L17.5965 9.59637C17.7485 9.58468 17.848 9.5145 17.8947 9.38585C17.9532 9.24549 17.9649 9.0876 17.9298 8.91216V8.89462ZM4.12281 3.40339C3.73684 3.43848 3.45029 3.57298 3.26316 3.8069C3.08772 4.04082 3 4.33321 3 4.68409V16.1051C3 16.3625 3.04678 16.6081 3.14035 16.842C3.23392 17.0759 3.39181 17.3449 3.61404 17.649L6.07018 20.842C6.26901 21.0876 6.47368 21.2513 6.68421 21.3332C6.89474 21.4151 7.19883 21.4443 7.59649 21.4209L19.6842 20.6841C20.1754 20.649 20.5146 20.5203 20.7018 20.2981C20.9006 20.0759 21 19.7543 21 19.3332V6.49111C21 6.30397 20.9591 6.16362 20.8772 6.07006C20.807 5.96479 20.6433 5.81859 20.386 5.63146L20.2632 5.54374L16.9474 3.19286C16.538 2.90046 16.1871 2.72503 15.8947 2.66655C15.614 2.59637 15.1579 2.59052 14.5263 2.649L4.12281 3.40339Z" fill="#333333"/>
</svg>
