<svg width="24" height="24" viewBox="0 0 24 24" fill="none" xmlns="http://www.w3.org/2000/svg">
<path d="M22 12C22 13.6374 21.6316 15.1637 20.8947 16.5789C20.1579 17.9942 19.1462 19.1696 17.8596 20.1053C16.5731 21.0409 15.1404 21.6316 13.5614 21.8772V14.8947H15.8947L16.3333 12H13.5614V10.1228C13.5614 9.67836 13.6901 9.30994 13.9474 9.01754C14.2047 8.71345 14.6199 8.5614 15.193 8.5614H16.4561V6.10526C15.6608 5.97661 14.9123 5.91228 14.2105 5.91228C13.0526 5.91228 12.1345 6.25146 11.4561 6.92982C10.7778 7.60819 10.4386 8.5614 10.4386 9.78947V12H7.89474V14.8947H10.4386V21.8772C8.85965 21.6316 7.4269 21.0409 6.14035 20.1053C4.8538 19.1696 3.84211 17.9942 3.10526 16.5789C2.36842 15.1637 2 13.6374 2 12C2 10.1871 2.44444 8.51462 3.33333 6.98246C4.23392 5.45029 5.45029 4.23977 6.98246 3.35088C8.51462 2.45029 10.1871 2 12 2C13.8129 2 15.4854 2.45029 17.0175 3.35088C18.5497 4.23977 19.7602 5.45029 20.6491 6.98246C21.5497 8.51462 22 10.1871 22 12Z" fill="#333333"/>
</svg>
