<svg width="24" height="24" viewBox="0 0 24 24" fill="none" xmlns="http://www.w3.org/2000/svg">
<path d="M19.6667 3C20.0409 3 20.3567 3.12865 20.614 3.38596C20.8713 3.63158 21 3.93567 21 4.29824V19.7018C21 20.0643 20.8713 20.3743 20.614 20.6316C20.3567 20.8772 20.0409 21 19.6667 21H4.33333C3.95906 21 3.64327 20.8772 3.38596 20.6316C3.12865 20.3743 3 20.0643 3 19.7018V4.29824C3 3.93567 3.12865 3.63158 3.38596 3.38596C3.64327 3.12865 3.95906 3 4.33333 3H19.6667ZM8.33333 9.75439H5.66667V18.3333H8.33333V9.75439ZM7 8.57895C7.43275 8.57895 7.79532 8.4269 8.08772 8.12281C8.39181 7.81871 8.54386 7.45614 8.54386 7.03509C8.54386 6.60234 8.39181 6.23392 8.08772 5.92982C7.79532 5.62573 7.43275 5.47368 7 5.47368C6.56725 5.47368 6.19883 5.62573 5.89474 5.92982C5.60234 6.23392 5.45614 6.60234 5.45614 7.03509C5.45614 7.45614 5.60234 7.81871 5.89474 8.12281C6.19883 8.4269 6.56725 8.57895 7 8.57895ZM18.3333 13.6316C18.3333 12.7661 18.2456 12.0409 18.0702 11.4561C17.9064 10.8596 17.5906 10.3918 17.1228 10.0526C16.655 9.70175 15.9942 9.52632 15.1404 9.52632C14.5439 9.52632 14.0234 9.66667 13.5789 9.94737C13.1345 10.2164 12.8129 10.538 12.614 10.9123H12.5789V9.75439H10.0175V18.3333H12.6842V14.0877C12.6842 13.4094 12.7895 12.8713 13 12.4737C13.2222 12.076 13.6491 11.8772 14.2807 11.8772C14.7018 11.8772 15.0117 11.9942 15.2105 12.2281C15.4211 12.4503 15.5497 12.7135 15.5965 13.0175C15.6433 13.3216 15.6667 13.7018 15.6667 14.1579V18.3333H18.3333V13.6316Z" fill="#333333"/>
</svg>
