<svg width="24" height="24" viewBox="0 0 24 24" fill="none" xmlns="http://www.w3.org/2000/svg">
<path d="M18.6842 4.59644C17.7719 3.75434 16.7368 3.11106 15.5789 2.66662C14.4327 2.21048 13.2398 1.98825 12 1.99995C10.7485 1.99995 9.54386 2.22802 8.38597 2.68416C7.22807 3.12861 6.19298 3.76603 5.2807 4.59644C4.36842 5.42685 3.63158 6.39761 3.07018 7.50872C2.35673 8.92393 2 10.421 2 12C2 13.5789 2.35673 15.076 3.07018 16.4912C3.63158 17.614 4.36842 18.5906 5.2807 19.421C6.19298 20.2514 7.22807 20.8888 8.38597 21.3333C9.54386 21.7777 10.7485 22 12 22C13.3333 22 14.5614 21.7953 15.6842 21.3859C16.807 20.9649 17.7895 20.3625 18.6316 19.5789C19.5789 18.7017 20.3099 17.6374 20.8246 16.3859C21.3392 15.1228 21.5965 13.7368 21.5965 12.228C21.5965 11.538 21.5439 10.8596 21.4386 10.1929H12V14.0526H17.4035C17.2865 14.6725 17.0526 15.2456 16.7018 15.7719C16.3626 16.2982 15.9298 16.7368 15.4035 17.0877C14.4795 17.7192 13.345 18.035 12 18.035C11.1462 18.035 10.3392 17.8596 9.57895 17.5087C8.81871 17.1461 8.1579 16.6549 7.59649 16.035C7.04678 15.4035 6.64327 14.6959 6.38596 13.9122C6.17544 13.2923 6.07018 12.6549 6.07018 12C6.07018 11.345 6.17544 10.7076 6.38596 10.0877C6.64327 9.30404 7.04678 8.60229 7.59649 7.98241C8.1579 7.35083 8.81871 6.8596 9.57895 6.50872C10.3392 6.14615 11.1462 5.96486 12 5.96486C12.7135 5.95317 13.4035 6.07597 14.0702 6.33328C14.7368 6.59059 15.3275 6.96486 15.8421 7.45609L18.6842 4.59644Z" fill="#333333"/>
</svg>
