<svg width="24" height="24" viewBox="0 0 24 24" fill="none" xmlns="http://www.w3.org/2000/svg">
<path d="M4.66663 4.66667C4.66663 4 4.83037 3.38596 5.15785 2.82456C5.48534 2.26316 5.92978 1.81871 6.49119 1.49123C7.05259 1.16374 7.66663 1 8.33329 1H15.6666C16.3333 1 16.9473 1.16374 17.5087 1.49123C18.0701 1.81871 18.5146 2.26316 18.8421 2.82456C19.1696 3.38596 19.3333 4 19.3333 4.66667C19.3333 5.33333 19.1696 5.94737 18.8421 6.50877C18.5146 7.07018 18.0701 7.51462 17.5087 7.8421C16.9473 8.16959 16.3333 8.33333 15.6666 8.33333C16.3333 8.33333 16.9473 8.49707 17.5087 8.82456C18.0701 9.15205 18.5146 9.59649 18.8421 10.1579C19.1696 10.7193 19.3333 11.3333 19.3333 12C19.3333 12.6667 19.1696 13.2807 18.8421 13.8421C18.5146 14.4035 18.0701 14.848 17.5087 15.1754C16.9473 15.5029 16.3333 15.6667 15.6666 15.6667C15 15.6667 14.3859 15.5029 13.8245 15.1754C13.2631 14.848 12.8187 14.4035 12.4912 13.8421C12.1637 13.2807 12 12.6667 12 12V19.3333C12 20 11.8362 20.614 11.5087 21.1754C11.1812 21.7368 10.7368 22.1813 10.1754 22.5088C9.61399 22.8363 8.99996 23 8.33329 23C7.66663 23 7.05259 22.8363 6.49119 22.5088C5.92978 22.1813 5.48534 21.7368 5.15785 21.1754C4.83037 20.614 4.66663 20 4.66663 19.3333C4.66663 18.6667 4.83037 18.0526 5.15785 17.4912C5.48534 16.9298 5.92978 16.4854 6.49119 16.1579C7.05259 15.8304 7.66663 15.6667 8.33329 15.6667C7.66663 15.6667 7.05259 15.5029 6.49119 15.1754C5.92978 14.848 5.48534 14.4035 5.15785 13.8421C4.83037 13.2807 4.66663 12.6667 4.66663 12C4.66663 11.3333 4.83037 10.7193 5.15785 10.1579C5.48534 9.59649 5.92978 9.15205 6.49119 8.82456C7.05259 8.49707 7.66663 8.33333 8.33329 8.33333C7.66663 8.33333 7.05259 8.16959 6.49119 7.8421C5.92978 7.51462 5.48534 7.07018 5.15785 6.50877C4.83037 5.94737 4.66663 5.33333 4.66663 4.66667ZM12 8.33333V12C12 11.3333 12.1637 10.7193 12.4912 10.1579C12.8187 9.59649 13.2631 9.15205 13.8245 8.82456C14.3859 8.49707 15 8.33333 15.6666 8.33333H12Z" fill="#333333"/>
</svg>
