<svg width="24" height="24" viewBox="0 0 24 24" fill="none" xmlns="http://www.w3.org/2000/svg">
<path d="M12 3C13.5205 3 14.7602 3.01754 15.7193 3.05263C16.5848 3.09941 17.3158 3.23977 17.9123 3.47368C18.5088 3.7076 19.0351 4.05263 19.4912 4.50877C19.9474 4.96491 20.2924 5.49708 20.5263 6.10526C20.7719 6.73684 20.9123 7.46784 20.9474 8.29825C20.9825 9.25731 21 10.4912 21 12C21 13.5088 20.9825 14.7485 20.9474 15.7193C20.9123 16.5497 20.7719 17.2749 20.5263 17.8947C20.2924 18.5029 19.9474 19.0351 19.4912 19.4912C19.0351 19.9474 18.5029 20.2924 17.8947 20.5263C17.2749 20.7719 16.5497 20.9123 15.7193 20.9474C14.7602 20.9825 13.5205 21 12 21C10.4795 21 9.24561 20.9825 8.29825 20.9474C7.46784 20.9123 6.73684 20.7719 6.10526 20.5263C5.53216 20.3041 5 19.9591 4.50877 19.4912C4.05263 19.0351 3.7076 18.5029 3.47368 17.8947C3.22807 17.2749 3.08772 16.5497 3.05263 15.7193C3.01754 14.7485 3 13.5088 3 12C3 10.4795 3.01754 9.23977 3.05263 8.2807C3.08772 7.46199 3.22807 6.73684 3.47368 6.10526C3.69591 5.53216 4.04094 5 4.50877 4.50877C5 4.04094 5.53216 3.69591 6.10526 3.47368C6.73684 3.22807 7.46784 3.08772 8.29825 3.05263C9.26901 3.01754 10.5029 3 12 3ZM16.807 8.2807C17.1111 8.2807 17.3684 8.17544 17.5789 7.96491C17.7895 7.74269 17.8947 7.48538 17.8947 7.19298C17.8947 6.90058 17.7895 6.64912 17.5789 6.4386C17.3684 6.22807 17.1111 6.12281 16.807 6.12281C16.5146 6.12281 16.2632 6.22807 16.0526 6.4386C15.8421 6.64912 15.7368 6.90058 15.7368 7.19298C15.7368 7.49708 15.8421 7.75439 16.0526 7.96491C16.2632 8.17544 16.5146 8.2807 16.807 8.2807ZM12 7.38597C11.1696 7.38597 10.3977 7.59649 9.68421 8.01754C8.98246 8.4269 8.42105 8.9883 8 9.70175C7.59064 10.4035 7.38596 11.1696 7.38596 12C7.38596 12.8421 7.59064 13.6199 8 14.3333C8.42105 15.0351 8.98246 15.5965 9.68421 16.0175C10.3977 16.4269 11.1696 16.6316 12 16.6316C12.8421 16.6316 13.614 16.4269 14.3158 16.0175C15.0292 15.5965 15.5906 15.0351 16 14.3333C16.4211 13.6199 16.6316 12.8421 16.6316 12C16.6316 11.1696 16.4211 10.4035 16 9.70175C15.5906 8.9883 15.0292 8.4269 14.3158 8.01754C13.614 7.59649 12.8421 7.38597 12 7.38597ZM12 15C12.5497 15 13.0526 14.8655 13.5088 14.5965C13.9649 14.3275 14.3275 13.9649 14.5965 13.5088C14.8655 13.0526 15 12.5497 15 12C15 11.462 14.8655 10.9649 14.5965 10.5088C14.3275 10.0409 13.9649 9.67251 13.5088 9.40351C13.0526 9.1345 12.5497 9 12 9C11.462 9 10.9591 9.1345 10.4912 9.40351C10.0351 9.67251 9.67251 10.0409 9.40351 10.5088C9.1345 10.9649 9 11.462 9 12C9 12.5497 9.1345 13.0526 9.40351 13.5088C9.67251 13.9649 10.0351 14.3275 10.4912 14.5965C10.9591 14.8655 11.462 15 12 15Z" fill="#333333"/>
</svg>
