<svg width="24" height="24" viewBox="0 0 24 24" fill="none" xmlns="http://www.w3.org/2000/svg">
<path d="M13.4035 12C13.4035 10.8655 13.1228 9.81869 12.5614 8.85962C12.0117 7.90056 11.2632 7.14033 10.3158 6.57892C9.36842 6.01752 8.33333 5.73682 7.21053 5.73682C6.08772 5.73682 5.04678 6.01752 4.08772 6.57892C3.14035 7.14033 2.38596 7.90056 1.82456 8.85962C1.27485 9.81869 1 10.8655 1 12C1 13.1345 1.27485 14.1813 1.82456 15.1403C2.38596 16.0994 3.14035 16.8596 4.08772 17.421C5.04678 17.9824 6.08772 18.2631 7.21053 18.2631C8.33333 18.2631 9.36842 17.9824 10.3158 17.421C11.2632 16.8596 12.0117 16.0994 12.5614 15.1403C13.1228 14.1813 13.4035 13.1345 13.4035 12ZM20.2105 12C20.2105 10.924 20.0702 9.93565 19.7895 9.03506C19.5088 8.13448 19.1287 7.42103 18.6491 6.89471C18.1813 6.3684 17.6667 6.10524 17.1053 6.10524C16.5439 6.10524 16.0234 6.3684 15.5439 6.89471C15.076 7.42103 14.7018 8.14033 14.4211 9.05261C14.152 9.95319 14.0175 10.9356 14.0175 12C14.0175 13.0643 14.152 14.0468 14.4211 14.9473C14.7018 15.8479 15.076 16.5672 15.5439 17.1052C16.0234 17.6316 16.5439 17.8947 17.1053 17.8947C17.6667 17.8947 18.1813 17.6316 18.6491 17.1052C19.1287 16.5672 19.5088 15.8479 19.7895 14.9473C20.0702 14.0468 20.2105 13.0643 20.2105 12ZM21.9123 17.2807C21.7135 17.2807 21.5263 17.0468 21.3509 16.5789C21.1871 16.0994 21.0585 15.4561 20.9649 14.6491C20.8713 13.8421 20.8246 12.959 20.8246 12C20.8246 11.0409 20.8713 10.1579 20.9649 9.35085C21.0585 8.54384 21.1871 7.90641 21.3509 7.43857C21.5263 6.95904 21.7135 6.71927 21.9123 6.71927C22.1111 6.71927 22.2924 6.95904 22.4561 7.43857C22.6199 7.90641 22.7485 8.54384 22.8421 9.35085C22.9474 10.1579 23 11.0409 23 12C23 12.959 22.9474 13.8421 22.8421 14.6491C22.7485 15.4561 22.6199 16.0994 22.4561 16.5789C22.2924 17.0468 22.1111 17.2807 21.9123 17.2807Z" fill="#333333"/>
</svg>
