<svg width="24" height="24" viewBox="0 0 24 24" fill="none" xmlns="http://www.w3.org/2000/svg">
<path d="M12.0351 18.0175C13.0526 18.0175 13.9181 17.8596 14.6316 17.5439C15.3567 17.2281 15.9006 16.7953 16.2631 16.2456C16.6257 15.6842 16.807 15.0526 16.807 14.3509C16.807 13.5789 16.5731 12.9006 16.1052 12.3158C15.6491 11.7193 14.8713 11.2982 13.7719 11.0526L11.5789 10.5614C11.0409 10.4444 10.6082 10.2982 10.2807 10.1228C9.96489 9.93567 9.807 9.66667 9.807 9.31579C9.807 8.89474 9.96489 8.5614 10.2807 8.31579C10.6082 8.07018 11.0702 7.94737 11.6666 7.94737C12.2982 7.94737 12.7778 8.04094 13.1052 8.22807C13.4327 8.41521 13.7485 8.67836 14.0526 9.01754C14.2514 9.23977 14.421 9.40351 14.5614 9.50877C14.7134 9.60234 14.9006 9.64912 15.1228 9.64912C15.4503 9.64912 15.7251 9.5614 15.9473 9.38597C16.1813 9.21053 16.2982 8.96491 16.2982 8.64912C16.2982 8.15789 16.0702 7.7076 15.614 7.29825C15.1696 6.88889 14.5965 6.56725 13.8947 6.33333C13.2047 6.09942 12.5146 5.98246 11.8245 5.98246C11.0292 5.98246 10.2865 6.09942 9.59647 6.33333C8.91811 6.56725 8.36255 6.94737 7.9298 7.47368C7.49706 7.9883 7.28068 8.64912 7.28068 9.45614C7.28068 10.193 7.47366 10.8363 7.85963 11.386C8.24559 11.924 8.98244 12.3333 10.0702 12.614L13.0351 13.3684C13.4444 13.462 13.7368 13.6199 13.9123 13.8421C14.0994 14.0643 14.193 14.3041 14.193 14.5614C14.193 14.8304 14.1052 15.0877 13.9298 15.3333C13.7544 15.5673 13.5029 15.7602 13.1754 15.9123C12.8479 16.0643 12.4678 16.1404 12.0351 16.1404C11.5672 16.1404 11.1754 16.076 10.8596 15.9474C10.5438 15.8187 10.2924 15.6725 10.1052 15.5088C9.92981 15.3333 9.74267 15.1053 9.54384 14.8246C9.32162 14.5322 9.12864 14.3216 8.96489 14.193C8.81285 14.0643 8.60232 14 8.33331 14C8.02922 14 7.76021 14.0994 7.5263 14.2982C7.30407 14.5205 7.19296 14.7836 7.19296 15.0877C7.19296 15.5322 7.37425 15.9825 7.73682 16.4386C8.0994 16.883 8.64326 17.2573 9.3684 17.5614C10.1052 17.8655 10.9941 18.0175 12.0351 18.0175ZM21.2105 13.6316C21.7017 14.4971 21.9473 15.4269 21.9473 16.4211C21.9473 17.4152 21.6959 18.345 21.193 19.2105C20.7017 20.0643 20.0234 20.7427 19.1579 21.2456C18.3041 21.7368 17.3801 21.9883 16.3859 22C15.3918 22 14.4737 21.7544 13.6316 21.2632C12.1228 21.5322 10.6374 21.4386 9.17542 20.9825C7.71343 20.5146 6.43858 19.7368 5.35086 18.6491C4.27483 17.5614 3.50875 16.2866 3.05261 14.8246C2.59647 13.3626 2.50875 11.8772 2.78945 10.3684C2.29823 9.50292 2.05261 8.5731 2.05261 7.57895C2.05261 6.5848 2.30407 5.66082 2.807 4.80702C3.29823 3.94152 3.97074 3.26316 4.82454 2.77193C5.69004 2.26901 6.61986 2.0117 7.61402 2C8.63156 2 9.54969 2.24561 10.3684 2.73684C11.7368 2.49123 13.0877 2.54971 14.421 2.91228C15.7661 3.27485 16.9707 3.90059 18.0351 4.78947C19.0994 5.67836 19.9181 6.75439 20.4912 8.01754C21.076 9.26901 21.3684 10.5906 21.3684 11.9825C21.3684 12.5322 21.3158 13.0819 21.2105 13.6316Z" fill="#333333"/>
</svg>
