<svg width="24" height="24" viewBox="0 0 24 24" fill="none" xmlns="http://www.w3.org/2000/svg">
<path d="M16.0176 2C16.0176 2.83041 16.2164 3.60234 16.6141 4.31579C17.0117 5.02924 17.5556 5.60234 18.2457 6.03509C18.9474 6.46784 19.7135 6.69591 20.5439 6.7193V10.1404C19.7369 10.1287 18.9533 9.99415 18.193 9.73684C17.4328 9.47953 16.7252 9.11111 16.0702 8.63158V15.6316C16.0702 16.7778 15.7895 17.8421 15.2281 18.8246C14.6667 19.7953 13.9006 20.5673 12.9299 21.1404C11.9708 21.7134 10.9182 22 9.77197 22C8.62577 22 7.56729 21.7193 6.59653 21.1579C5.63746 20.5848 4.87138 19.8129 4.29828 18.8421C3.73688 17.8596 3.45618 16.7895 3.45618 15.6316C3.45618 14.4854 3.73103 13.4269 4.28074 12.4561C4.84214 11.4854 5.59653 10.7134 6.5439 10.1404C7.49126 9.55556 8.52635 9.25731 9.64916 9.24562V12.6667C9.14624 12.6784 8.6784 12.8246 8.24565 13.1053C7.8129 13.3743 7.46787 13.731 7.21056 14.1754C6.95325 14.6199 6.8246 15.1053 6.8246 15.6316C6.8246 16.1579 6.95325 16.6491 7.21056 17.1053C7.47957 17.5614 7.83629 17.924 8.28074 18.193C8.72518 18.4503 9.21056 18.5789 9.73688 18.5789C10.2632 18.5789 10.7486 18.4503 11.193 18.193C11.6375 17.924 11.9883 17.5614 12.2457 17.1053C12.5147 16.6491 12.6492 16.1579 12.6492 15.6316V2H16.0176Z" fill="#333333"/>
</svg>
