<svg width="24" height="24" viewBox="0 0 24 24" fill="none" xmlns="http://www.w3.org/2000/svg">
<path d="M21.8421 16.2982C21.924 16.5088 21.9357 16.731 21.8772 16.9649C21.8187 17.1871 21.6959 17.3977 21.5088 17.5965C21.4152 17.7135 21.2398 17.8538 20.9825 18.0175C20.5965 18.2281 20.1754 18.3977 19.7193 18.5263C19.614 18.5497 19.538 18.5789 19.4912 18.614C19.4327 18.6725 19.386 18.7544 19.3509 18.8596C19.3041 18.9766 19.2573 19.0702 19.2105 19.1404C19.1404 19.3041 19.0058 19.462 18.807 19.614C18.6316 19.731 18.4386 19.807 18.2281 19.8421C18.0292 19.8772 17.7719 19.9006 17.4561 19.9123H17.4386C17.1345 19.924 16.8655 19.9474 16.6316 19.9825C16.4094 20.0058 16.1813 20.0585 15.9474 20.1404C15.7368 20.2222 15.4854 20.3509 15.193 20.5263C14.6901 20.8421 14.1988 21.0936 13.7193 21.2807C13.2515 21.4561 12.6725 21.5439 11.9825 21.5439C11.3158 21.5439 10.7485 21.462 10.2807 21.2982C9.82456 21.1228 9.35672 20.8889 8.87719 20.5965L8.80702 20.5614C8.51462 20.3626 8.25731 20.2222 8.03509 20.1404C7.80117 20.0585 7.56725 20.0058 7.33333 19.9825C7.11111 19.9474 6.84795 19.924 6.54386 19.9123H6.52632C6.21053 19.9006 5.94737 19.8772 5.73684 19.8421C5.53801 19.807 5.35088 19.731 5.17544 19.614C4.9883 19.4503 4.8655 19.3158 4.80702 19.2105C4.73684 19.117 4.67836 19 4.63158 18.8596C4.5848 18.7427 4.53801 18.6608 4.49123 18.614C4.44444 18.5906 4.38596 18.5673 4.31579 18.5439L4.24561 18.5088C3.77778 18.3801 3.36257 18.2164 3 18.0175C2.74269 17.8538 2.5731 17.7251 2.49123 17.6316C2.30409 17.4211 2.18129 17.1988 2.12281 16.9649C2.06433 16.731 2.07602 16.5088 2.15789 16.2982C2.23977 16.0877 2.35088 15.924 2.49123 15.807C2.63158 15.6901 2.83041 15.5614 3.08772 15.4211L3.33333 15.2982C4.23392 14.807 4.93567 14.1988 5.4386 13.4737C5.55556 13.3216 5.67836 13.1111 5.80702 12.8421C5.84211 12.7134 5.84211 12.6199 5.80702 12.5614C5.76023 12.4795 5.50292 12.2924 5.03509 12L4.80702 11.8421C4.39766 11.5614 4.11696 11.2749 3.96491 10.9825C3.73099 10.5263 3.7076 10.0468 3.89474 9.54386C4.0117 9.21637 4.22222 8.95322 4.52632 8.75439C4.83041 8.55555 5.16959 8.45614 5.54386 8.45614C5.57895 8.45614 5.73684 8.47368 6.01754 8.50877L6.14035 8.54386C6.14035 8.08772 6.15789 7.61404 6.19298 7.12281C6.25146 6.37427 6.39766 5.75439 6.63158 5.26316C6.8655 4.77193 7.16374 4.31579 7.52632 3.89474C7.88889 3.48538 8.33918 3.11696 8.87719 2.78947C9.83626 2.26316 10.8772 2 12 2C13.1228 2 14.1637 2.26316 15.1228 2.78947C15.6608 3.11696 16.1111 3.48538 16.4737 3.89474C16.8363 4.32749 17.1345 4.78947 17.3684 5.2807C17.6023 5.76023 17.7485 6.37427 17.807 7.12281C17.8421 7.66082 17.8538 8.1345 17.8421 8.54386L17.9825 8.50877C18.2632 8.47368 18.4211 8.45614 18.4561 8.45614C18.8304 8.45614 19.1696 8.55555 19.4737 8.75439C19.7778 8.95322 19.9883 9.21637 20.1053 9.54386C20.2924 10.0585 20.2573 10.538 20 10.9825C19.883 11.2749 19.614 11.5614 19.193 11.8421L18.8596 12.0702C18.4269 12.3392 18.2047 12.5029 18.193 12.5614C18.1579 12.6199 18.1579 12.7076 18.193 12.8246C18.2749 13.0234 18.3977 13.2398 18.5614 13.4737C19.0409 14.2105 19.7602 14.8304 20.7193 15.3333L21 15.4737L21.1404 15.5614C21.3158 15.6433 21.4561 15.7427 21.5614 15.8596C21.6784 15.9766 21.7719 16.1228 21.8421 16.2982Z" fill="#333333"/>
</svg>
