<svg width="24" height="24" viewBox="0 0 24 24" fill="none" xmlns="http://www.w3.org/2000/svg">
<path d="M12 2C13.8129 2 15.4854 2.45029 17.0175 3.35088C18.5497 4.23977 19.7602 5.45029 20.6491 6.98246C21.5497 8.51462 22 10.1871 22 12C22 13.8129 21.5497 15.4854 20.6491 17.0175C19.7602 18.5497 18.5497 19.7661 17.0175 20.6667C15.4854 21.5556 13.8129 22 12 22C10.1871 22 8.51462 21.5556 6.98246 20.6667C5.45029 19.7661 4.23392 18.5497 3.33333 17.0175C2.44444 15.4854 2 13.8129 2 12C2 10.1871 2.44444 8.51462 3.33333 6.98246C4.23392 5.45029 5.45029 4.23977 6.98246 3.35088C8.51462 2.45029 10.1871 2 12 2ZM16.8772 16.4211C16.9942 16.2105 17.0175 15.9883 16.9474 15.7544C16.8889 15.5205 16.7544 15.345 16.5439 15.2281C15.0702 14.4094 13.4971 13.9123 11.8246 13.7368C10.117 13.5731 8.47368 13.7485 6.89474 14.2632C6.66082 14.3333 6.48538 14.4795 6.36842 14.7018C6.26316 14.9123 6.24561 15.1287 6.31579 15.3509C6.39766 15.5731 6.54386 15.7427 6.75439 15.8596C6.96491 15.9649 7.18713 15.9825 7.42105 15.9123C8.77778 15.4795 10.1871 15.3333 11.6491 15.4737C13.0643 15.614 14.4152 16.0409 15.7018 16.7544C15.8304 16.8246 15.9708 16.8596 16.1228 16.8596C16.2749 16.8596 16.4152 16.8246 16.5439 16.7544C16.6842 16.6725 16.7953 16.5614 16.8772 16.4211ZM18.0702 13.386C18.1871 13.1637 18.2105 12.9415 18.1404 12.7193C18.0702 12.4854 17.924 12.3158 17.7018 12.2105C15.9708 11.2982 14.117 10.7427 12.1404 10.5439C10.1637 10.345 8.22807 10.5205 6.33333 11.0702C6.09942 11.1287 5.92398 11.269 5.80702 11.4912C5.69006 11.7018 5.66667 11.9181 5.73684 12.1404C5.80702 12.3626 5.94152 12.5322 6.14035 12.6491C6.35088 12.7661 6.5731 12.7953 6.80702 12.7368C8.46784 12.2573 10.1871 12.1053 11.9649 12.2807C13.731 12.4561 15.3743 12.9474 16.8947 13.7544C17.0468 13.8129 17.1813 13.8421 17.2982 13.8421C17.462 13.8421 17.614 13.8012 17.7544 13.7193C17.8947 13.6374 18 13.5263 18.0702 13.386ZM18.5088 10.8596C18.6725 10.8596 18.8246 10.8187 18.9649 10.7368C19.1053 10.6433 19.2105 10.5205 19.2807 10.3684C19.3977 10.1579 19.4152 9.94152 19.3333 9.7193C19.2632 9.48538 19.117 9.31579 18.8947 9.21053C16.9181 8.20468 14.7778 7.58479 12.4737 7.35088C10.193 7.11696 7.96491 7.2924 5.78947 7.87719C5.55556 7.93567 5.38012 8.07018 5.26316 8.2807C5.1462 8.49123 5.11696 8.71345 5.17544 8.94737C5.23392 9.18129 5.36842 9.35673 5.57895 9.47368C5.78947 9.59064 6.0117 9.61988 6.24561 9.5614C8.19883 9.03509 10.2164 8.87134 12.2982 9.07018C14.3216 9.2807 16.2632 9.84211 18.1228 10.7544C18.2515 10.8246 18.3801 10.8596 18.5088 10.8596Z" fill="#333333"/>
</svg>
