<svg width="24" height="24" viewBox="0 0 24 24" fill="none" xmlns="http://www.w3.org/2000/svg">
<path d="M17 12.4911C17.8187 12.4911 18.5731 12.6958 19.2632 13.1052C19.9532 13.5028 20.4971 14.0525 20.8947 14.7543C21.3041 15.4443 21.5088 16.1929 21.5088 16.9999C21.5088 17.8069 21.3041 18.5554 20.8947 19.2455C20.4971 19.9356 19.9474 20.4853 19.2456 20.8946C18.5556 21.2923 17.807 21.4911 17 21.4911C16.1813 21.4911 15.4269 21.2923 14.7368 20.8946C14.0585 20.4853 13.5146 19.9414 13.1053 19.263C12.7076 18.573 12.5088 17.8186 12.5088 16.9999C12.5088 16.1812 12.7076 15.4268 13.1053 14.7367C13.5146 14.0467 14.0585 13.5028 14.7368 13.1052C15.4269 12.6958 16.1813 12.4911 17 12.4911ZM8.98246 12.9999C9.54386 12.9999 10.0175 13.1987 10.4035 13.5964C10.8012 13.9823 11 14.456 11 15.0174V18.9823C11 19.5437 10.8012 20.0233 10.4035 20.4209C10.0175 20.8069 9.54386 20.9999 8.98246 20.9999H5.01754C4.45614 20.9999 3.97661 20.8069 3.57895 20.4209C3.19298 20.0233 3 19.5437 3 18.9823V15.0174C3 14.456 3.19298 13.9823 3.57895 13.5964C3.97661 13.1987 4.45614 12.9999 5.01754 12.9999H8.98246ZM16.1053 8.10515C16.4094 8.60808 16.5146 9.12854 16.4211 9.66656C16.3275 10.1929 16.076 10.6315 15.6667 10.9823C15.2573 11.3215 14.7602 11.4911 14.1754 11.4911H9.82456C9.23977 11.4911 8.74269 11.3215 8.33333 10.9823C7.92398 10.6315 7.67251 10.1929 7.57895 9.66656C7.48538 9.12854 7.59064 8.60808 7.89474 8.10515L10.0526 4.35077C10.3567 3.84784 10.7544 3.50866 11.2456 3.33322C11.7485 3.14609 12.2456 3.14609 12.7368 3.33322C13.2398 3.50866 13.6433 3.84784 13.9474 4.35077L16.1053 8.10515Z" fill="#333333"/>
</svg>
