<svg width="24" height="24" viewBox="0 0 24 24" fill="none" xmlns="http://www.w3.org/2000/svg">
<path d="M3 11C3 9.36257 3.40351 7.8538 4.21053 6.47368C5.01754 5.09357 6.10526 4.00585 7.47368 3.21053C8.8538 2.40351 10.3626 2 12 2C13.6374 2 15.1462 2.40351 16.5263 3.21053C17.9064 4.00585 18.9942 5.09357 19.7895 6.47368C20.5965 7.8538 21 9.36257 21 11C21 12.2164 20.7661 13.3743 20.2982 14.4737C19.8304 15.5731 19.1813 16.538 18.3509 17.3684L14.8772 20.8421C14.3509 21.3918 13.7368 21.7602 13.0351 21.9474C12.345 22.1345 11.655 22.1345 10.9649 21.9474C10.2865 21.7602 9.67836 21.3918 9.14035 20.8421L5.64912 17.3509C4.81871 16.5088 4.16959 15.5439 3.70175 14.4561C3.23392 13.3684 3 12.2164 3 11ZM8 11C8 11.2807 8.09942 11.5146 8.29825 11.7018L10.193 13.5965C10.4152 13.807 10.6842 13.9123 11 13.9123C11.3275 13.9123 11.5965 13.807 11.807 13.5965L15.7193 9.70176C15.9181 9.52632 16.0175 9.2924 16.0175 9C16.0175 8.7193 15.9181 8.48538 15.7193 8.29825C15.5322 8.09942 15.2982 8 15.0175 8C14.7368 8 14.5029 8.09942 14.3158 8.29825L11 11.5965L9.70175 10.2982C9.52632 10.0994 9.2924 10 9 10C8.73099 10 8.49708 10.0994 8.29825 10.2982C8.09942 10.4854 8 10.7193 8 11Z" fill="#333333"/>
</svg>
