<svg width="24" height="24" viewBox="0 0 24 24" fill="none" xmlns="http://www.w3.org/2000/svg">
<path d="M3 17C3 19.2456 4.75439 21 7 21H17C19.2456 21 21 19.2456 21 17V7C21 4.75439 19.2456 3 17 3H7C4.75439 3 3 4.75439 3 7V17ZM6.50877 12C6.50877 11.4561 6.96491 11 7.50877 11C7.78947 11 8.03509 11.1053 8.21053 11.2982L10.5088 13.5789L15.807 8.29825C15.9825 8.10526 16.2281 8 16.5088 8C17.0526 8 17.5088 8.45614 17.5088 9C17.5088 9.2807 17.4035 9.52632 17.2105 9.70175L11.2105 15.7018C11.0351 15.8947 10.7895 16 10.5088 16C10.2281 16 9.98246 15.8947 9.80702 15.7018L6.80702 12.7018C6.61403 12.5263 6.50877 12.2807 6.50877 12Z" fill="#333333"/>
</svg>
