<svg width="24" height="24" viewBox="0 0 24 24" fill="none" xmlns="http://www.w3.org/2000/svg">
<path d="M17 3H7C4.75439 3 3 4.75439 3 7V9H21V7C21 4.75439 19.2456 3 17 3ZM5 9H19V17C19 18.2632 18.2632 19 17 19H7C5.73684 19 5 18.2632 5 17V9ZM3 7V17C3 19.2456 4.75439 21 7 21H17C19.2456 21 21 19.2456 21 17V7H3ZM6 2V4C6 4.54386 6.45614 5 7 5C7.54386 5 8 4.54386 8 4V2C8 1.45614 7.54386 1 7 1C6.45614 1 6 1.45614 6 2ZM18 4V2C18 1.45614 17.5439 1 17 1C16.4561 1 16 1.45614 16 2V4C16 4.54386 16.4561 5 17 5C17.5439 5 18 4.54386 18 4ZM8 14.6667C7.26316 14.6667 6.66667 15.2632 6.66667 16C6.66667 16.7368 7.26316 17.3333 8 17.3333C8.73684 17.3333 9.33333 16.7368 9.33333 16C9.33333 15.2632 8.73684 14.6667 8 14.6667ZM12 14.6667C11.2632 14.6667 10.6667 15.2632 10.6667 16C10.6667 16.7368 11.2632 17.3333 12 17.3333C12.7368 17.3333 13.3333 16.7368 13.3333 16C13.3333 15.2632 12.7368 14.6667 12 14.6667ZM16 14.6667C15.2632 14.6667 14.6667 15.2632 14.6667 16C14.6667 16.7368 15.2632 17.3333 16 17.3333C16.7368 17.3333 17.3333 16.7368 17.3333 16C17.3333 15.2632 16.7368 14.6667 16 14.6667ZM8 10.6667C7.26316 10.6667 6.66667 11.2632 6.66667 12C6.66667 12.7368 7.26316 13.3333 8 13.3333C8.73684 13.3333 9.33333 12.7368 9.33333 12C9.33333 11.2632 8.73684 10.6667 8 10.6667ZM12 10.6667C11.2632 10.6667 10.6667 11.2632 10.6667 12C10.6667 12.7368 11.2632 13.3333 12 13.3333C12.7368 13.3333 13.3333 12.7368 13.3333 12C13.3333 11.2632 12.7368 10.6667 12 10.6667ZM16 10.6667C15.2632 10.6667 14.6667 11.2632 14.6667 12C14.6667 12.7368 15.2632 13.3333 16 13.3333C16.7368 13.3333 17.3333 12.7368 17.3333 12C17.3333 11.2632 16.7368 10.6667 16 10.6667Z" fill="#333333"/>
</svg>
