<svg width="24" height="24" viewBox="0 0 24 24" fill="none" xmlns="http://www.w3.org/2000/svg">
<path d="M2 6C2 6.54386 2.45614 7 3 7H4V18C4 20.2456 5.75439 22 8 22H16C18.2456 22 20 20.2456 20 18V7H21C21.5439 7 22 6.54386 22 6C22 5.45614 21.5439 5 21 5H20H19H5H4H3C2.45614 5 2 5.45614 2 6ZM8 3C8 3.54386 8.45614 4 9 4H15C15.5439 4 16 3.54386 16 3C16 2.45614 15.5439 2 15 2H9C8.45614 2 8 2.45614 8 3ZM9 17V10C9 9.45614 9.45614 9 10 9C10.5439 9 11 9.45614 11 10V17C11 17.5439 10.5439 18 10 18C9.45614 18 9 17.5439 9 17ZM13 17V10C13 9.45614 13.4561 9 14 9C14.5439 9 15 9.45614 15 10V17C15 17.5439 14.5439 18 14 18C13.4561 18 13 17.5439 13 17Z" fill="#333333"/>
</svg>
