<svg width="24" height="24" viewBox="0 0 24 24" fill="none" xmlns="http://www.w3.org/2000/svg">
<path d="M2 6C2 5.7193 2.09942 5.48538 2.29825 5.29825C2.49708 5.09942 2.73099 5 3 5H4H5H19H20H21C21.2807 5 21.5146 5.09942 21.7018 5.29825C21.9006 5.48538 22 5.7193 22 6C22 6.26901 21.9006 6.50292 21.7018 6.70176C21.5146 6.90059 21.2807 7 21 7H20V18C20 18.7251 19.8246 19.3977 19.4737 20.0175C19.1228 20.6257 18.6374 21.1111 18.0175 21.4737C17.4094 21.8246 16.7368 22 16 22H8C7.27485 22 6.60234 21.8246 5.98246 21.4737C5.37427 21.1111 4.88889 20.6257 4.52632 20.0175C4.17544 19.3977 4 18.7251 4 18V7H3C2.73099 7 2.49708 6.90059 2.29825 6.70176C2.09942 6.50292 2 6.26901 2 6ZM8 16C8 16.269 8.09942 16.5029 8.29825 16.7018C8.49708 16.9006 8.73099 17 9 17C9.2924 17 9.52632 16.9006 9.70175 16.7018L12 14.4211L14.2982 16.7018C14.4854 16.9006 14.7193 17 15 17C15.2807 17 15.5146 16.9006 15.7018 16.7018C15.9006 16.5029 16 16.269 16 16C16 15.7076 15.9006 15.4737 15.7018 15.2982L13.4211 13L15.7018 10.7018C15.9006 10.5146 16 10.2807 16 10C16 9.7193 15.9006 9.48538 15.7018 9.29825C15.5146 9.09942 15.2807 9 15 9C14.7193 9 14.4854 9.09942 14.2982 9.29825L12 11.5789L9.70175 9.29825C9.52632 9.09942 9.2924 9 9 9C8.73099 9 8.49708 9.09942 8.29825 9.29825C8.09942 9.48538 8 9.7193 8 10C8 10.2807 8.09942 10.5146 8.29825 10.7018L10.5789 13L8.29825 15.2982C8.09942 15.4737 8 15.7076 8 16ZM8 3C8 2.7193 8.09942 2.48538 8.29825 2.29825C8.49708 2.09942 8.73099 2 9 2H15C15.2807 2 15.5146 2.09942 15.7018 2.29825C15.9006 2.48538 16 2.7193 16 3C16 3.26901 15.9006 3.50292 15.7018 3.70176C15.5146 3.90059 15.2807 4 15 4H9C8.73099 4 8.49708 3.90059 8.29825 3.70176C8.09942 3.50292 8 3.26901 8 3Z" fill="#333333"/>
</svg>
