<svg width="24" height="24" viewBox="0 0 24 24" fill="none" xmlns="http://www.w3.org/2000/svg">
<path d="M3.87719 5.36685C2.70175 6.01597 2 7.20895 2 8.55983V17.9458C2 20.2791 3.7193 21.9984 6.05263 21.9984H17.9474C20.2807 21.9984 22 20.2791 22 17.9458V8.55983C22 7.20895 21.2982 6.01597 20.1228 5.36685L13.7719 1.84053C12.6667 1.2265 11.3333 1.2265 10.2281 1.84053L3.87719 5.36685ZM4.85965 7.12123L11.2105 3.59492C11.7895 3.26158 12.2105 3.26158 12.7895 3.59492L19.1404 7.12123C19.7719 7.45457 20 7.85808 20 8.55983V17.9458C20 19.2967 19.2982 19.9984 17.9474 19.9984H6.05263C4.70175 19.9984 4 19.2967 4 17.9458V8.55983C4 7.85808 4.22807 7.45457 4.85965 7.12123ZM2.80702 8.12123L9.64912 13.437C11.0526 14.5423 12.9474 14.5423 14.3509 13.437L21.193 8.12123C21.4211 7.94579 21.5789 7.64755 21.5789 7.33176C21.5789 6.7879 21.1228 6.33176 20.5789 6.33176C20.3509 6.33176 20.1404 6.40193 19.9649 6.54228L13.1228 11.8581C12.3333 12.4721 11.6667 12.4721 10.8772 11.8581L4.03509 6.54228C3.85965 6.40193 3.64912 6.33176 3.42105 6.33176C2.87719 6.33176 2.42105 6.7879 2.42105 7.33176C2.42105 7.64755 2.57895 7.94579 2.80702 8.12123ZM20.8772 7.08615L13.7368 12.63C12.6667 13.4546 11.3333 13.4546 10.2632 12.63L3.12281 7.08615C3.03509 7.2265 3 7.36685 3 7.52474V17.9984C3 19.7002 4.29825 20.9984 6 20.9984H18C19.7018 20.9984 21 19.7002 21 17.9984V7.52474C21 7.36685 20.9474 7.20895 20.8772 7.08615Z" fill="#333333"/>
</svg>
