<svg width="24" height="24" viewBox="0 0 24 24" fill="none" xmlns="http://www.w3.org/2000/svg">
<path d="M3.89474 5.36845C2.78947 5.96494 2 7.33336 2 8.56143V18C2 20.2456 3.75439 22 6 22H18C20.2456 22 22 20.2456 22 18V8.56143C22 7.33336 21.2105 5.96494 20.1053 5.36845L13.7719 1.84213C12.7544 1.28073 11.2456 1.28073 10.2281 1.84213L3.89474 5.36845ZM4.84211 7.12284L11.2105 3.59652C11.7018 3.31582 12.2982 3.31582 12.7895 3.59652L19.1579 7.12284C19.6842 7.40354 20 7.9474 20 8.56143V18C20 19.2632 19.2632 20 18 20H6C4.73684 20 4 19.2632 4 18V8.56143C4 7.9474 4.31579 7.40354 4.84211 7.12284ZM22 18V9.31582C22 8.36845 21.0351 7.82459 20.2281 8.29827L12.7895 12.4211C12.2982 12.7018 11.7018 12.7018 11.2105 12.4211L3.77193 8.29827C2.96491 7.82459 2 8.36845 2 9.31582V18C2 20.2456 3.75439 22 6 22H18C20.2456 22 22 20.2456 22 18Z" fill="#333333"/>
</svg>
