<svg width="24" height="24" viewBox="0 0 24 24" fill="none" xmlns="http://www.w3.org/2000/svg">
<path d="M6.50879 12C6.50879 11.6374 6.59651 11.3041 6.77195 11C6.95908 10.6959 7.2047 10.4561 7.50879 10.2807C7.82458 10.0936 8.15791 10 8.50879 10C8.87136 10 9.2047 10.0936 9.50879 10.2807C9.81288 10.4561 10.0526 10.6959 10.2281 11C10.4152 11.3041 10.5088 11.6374 10.5088 12C10.5088 12.3509 10.4152 12.6842 10.2281 13C10.0526 13.3041 9.81288 13.5497 9.50879 13.7368C9.2047 13.9123 8.87136 14 8.50879 14C8.15791 14 7.82458 13.9123 7.50879 13.7368C7.2047 13.5497 6.95908 13.3041 6.77195 13C6.59651 12.6842 6.50879 12.3509 6.50879 12ZM13.5088 12C13.5088 11.6374 13.5965 11.3041 13.7719 11C13.9591 10.6959 14.2047 10.4561 14.5088 10.2807C14.8246 10.0936 15.1579 10 15.5088 10C15.8714 10 16.2047 10.0936 16.5088 10.2807C16.8129 10.4561 17.0526 10.6959 17.2281 11C17.4152 11.3041 17.5088 11.6374 17.5088 12C17.5088 12.3509 17.4152 12.6842 17.2281 13C17.0526 13.3041 16.8129 13.5497 16.5088 13.7368C16.2047 13.9123 15.8714 14 15.5088 14C15.1579 14 14.8246 13.9123 14.5088 13.7368C14.2047 13.5497 13.9591 13.3041 13.7719 13C13.5965 12.6842 13.5088 12.3509 13.5088 12ZM6.50879 5C6.50879 4.63743 6.59651 4.30409 6.77195 4C6.95908 3.69591 7.2047 3.45614 7.50879 3.2807C7.82458 3.09357 8.15791 3 8.50879 3C8.87136 3 9.2047 3.09357 9.50879 3.2807C9.81288 3.45614 10.0526 3.69591 10.2281 4C10.4152 4.30409 10.5088 4.63743 10.5088 5C10.5088 5.35088 10.4152 5.68421 10.2281 6C10.0526 6.30409 9.81288 6.54971 9.50879 6.73684C9.2047 6.91228 8.87136 7 8.50879 7C8.15791 7 7.82458 6.91228 7.50879 6.73684C7.2047 6.54971 6.95908 6.30409 6.77195 6C6.59651 5.68421 6.50879 5.35088 6.50879 5ZM13.5088 5C13.5088 4.63743 13.5965 4.30409 13.7719 4C13.9591 3.69591 14.2047 3.45614 14.5088 3.2807C14.8246 3.09357 15.1579 3 15.5088 3C15.8714 3 16.2047 3.09357 16.5088 3.2807C16.8129 3.45614 17.0526 3.69591 17.2281 4C17.4152 4.30409 17.5088 4.63743 17.5088 5C17.5088 5.35088 17.4152 5.68421 17.2281 6C17.0526 6.30409 16.8129 6.54971 16.5088 6.73684C16.2047 6.91228 15.8714 7 15.5088 7C15.1579 7 14.8246 6.91228 14.5088 6.73684C14.2047 6.54971 13.9591 6.30409 13.7719 6C13.5965 5.68421 13.5088 5.35088 13.5088 5ZM6.50879 19C6.50879 18.6374 6.59651 18.3041 6.77195 18C6.95908 17.6959 7.2047 17.4561 7.50879 17.2807C7.82458 17.0936 8.15791 17 8.50879 17C8.87136 17 9.2047 17.0936 9.50879 17.2807C9.81288 17.4561 10.0526 17.6959 10.2281 18C10.4152 18.3041 10.5088 18.6374 10.5088 19C10.5088 19.3509 10.4152 19.6842 10.2281 20C10.0526 20.3041 9.81288 20.5497 9.50879 20.7368C9.2047 20.9123 8.87136 21 8.50879 21C8.15791 21 7.82458 20.9123 7.50879 20.7368C7.2047 20.5497 6.95908 20.3041 6.77195 20C6.59651 19.6842 6.50879 19.3509 6.50879 19ZM13.5088 19C13.5088 18.6374 13.5965 18.3041 13.7719 18C13.9591 17.6959 14.2047 17.4561 14.5088 17.2807C14.8246 17.0936 15.1579 17 15.5088 17C15.8714 17 16.2047 17.0936 16.5088 17.2807C16.8129 17.4561 17.0526 17.6959 17.2281 18C17.4152 18.3041 17.5088 18.6374 17.5088 19C17.5088 19.3509 17.4152 19.6842 17.2281 20C17.0526 20.3041 16.8129 20.5497 16.5088 20.7368C16.2047 20.9123 15.8714 21 15.5088 21C15.1579 21 14.8246 20.9123 14.5088 20.7368C14.2047 20.5497 13.9591 20.3041 13.7719 20C13.5965 19.6842 13.5088 19.3509 13.5088 19Z" fill="#333333"/>
</svg>
