<svg width="24" height="24" viewBox="0 0 24 24" fill="none" xmlns="http://www.w3.org/2000/svg">
<path d="M12.0176 17.4912C11.6667 17.4912 11.3334 17.4035 11.0176 17.2281C10.7135 17.0409 10.4679 16.7953 10.2807 16.4912C10.1053 16.1754 10.0176 15.8421 10.0176 15.4912C10.0176 15.1286 10.1053 14.7953 10.2807 14.4912C10.4679 14.1871 10.7135 13.9474 11.0176 13.7719C11.3334 13.5848 11.6667 13.4912 12.0176 13.4912C12.3802 13.4912 12.7135 13.5848 13.0176 13.7719C13.3217 13.9474 13.5614 14.1871 13.7369 14.4912C13.924 14.7953 14.0176 15.1286 14.0176 15.4912C14.0176 15.8421 13.924 16.1754 13.7369 16.4912C13.5614 16.7953 13.3217 17.0409 13.0176 17.2281C12.7135 17.4035 12.3802 17.4912 12.0176 17.4912ZM12.0176 10.4912C11.6667 10.4912 11.3334 10.4035 11.0176 10.2281C10.7135 10.0409 10.4679 9.7953 10.2807 9.49121C10.1053 9.17542 10.0176 8.84209 10.0176 8.49121C10.0176 8.12864 10.1053 7.7953 10.2807 7.49121C10.4679 7.18712 10.7135 6.94735 11.0176 6.77191C11.3334 6.58478 11.6667 6.49121 12.0176 6.49121C12.3802 6.49121 12.7135 6.58478 13.0176 6.77191C13.3217 6.94735 13.5614 7.18712 13.7369 7.49121C13.924 7.7953 14.0176 8.12864 14.0176 8.49121C14.0176 8.84209 13.924 9.17542 13.7369 9.49121C13.5614 9.7953 13.3217 10.0409 13.0176 10.2281C12.7135 10.4035 12.3802 10.4912 12.0176 10.4912ZM5.01758 17.4912C4.6667 17.4912 4.33337 17.4035 4.01758 17.2281C3.71348 17.0409 3.46787 16.7953 3.28074 16.4912C3.1053 16.1754 3.01758 15.8421 3.01758 15.4912C3.01758 15.1286 3.1053 14.7953 3.28074 14.4912C3.46787 14.1871 3.71348 13.9474 4.01758 13.7719C4.33337 13.5848 4.6667 13.4912 5.01758 13.4912C5.38015 13.4912 5.71348 13.5848 6.01758 13.7719C6.32167 13.9474 6.56144 14.1871 6.73688 14.4912C6.92401 14.7953 7.01758 15.1286 7.01758 15.4912C7.01758 15.8421 6.92401 16.1754 6.73688 16.4912C6.56144 16.7953 6.32167 17.0409 6.01758 17.2281C5.71348 17.4035 5.38015 17.4912 5.01758 17.4912ZM5.01758 10.4912C4.6667 10.4912 4.33337 10.4035 4.01758 10.2281C3.71348 10.0409 3.46787 9.7953 3.28074 9.49121C3.1053 9.17542 3.01758 8.84209 3.01758 8.49121C3.01758 8.12864 3.1053 7.7953 3.28074 7.49121C3.46787 7.18712 3.71348 6.94735 4.01758 6.77191C4.33337 6.58478 4.6667 6.49121 5.01758 6.49121C5.38015 6.49121 5.71348 6.58478 6.01758 6.77191C6.32167 6.94735 6.56144 7.18712 6.73688 7.49121C6.92401 7.7953 7.01758 8.12864 7.01758 8.49121C7.01758 8.84209 6.92401 9.17542 6.73688 9.49121C6.56144 9.7953 6.32167 10.0409 6.01758 10.2281C5.71348 10.4035 5.38015 10.4912 5.01758 10.4912ZM19.0176 17.4912C18.6667 17.4912 18.3334 17.4035 18.0176 17.2281C17.7135 17.0409 17.4679 16.7953 17.2807 16.4912C17.1053 16.1754 17.0176 15.8421 17.0176 15.4912C17.0176 15.1286 17.1053 14.7953 17.2807 14.4912C17.4679 14.1871 17.7135 13.9474 18.0176 13.7719C18.3334 13.5848 18.6667 13.4912 19.0176 13.4912C19.3802 13.4912 19.7135 13.5848 20.0176 13.7719C20.3217 13.9474 20.5614 14.1871 20.7369 14.4912C20.924 14.7953 21.0176 15.1286 21.0176 15.4912C21.0176 15.8421 20.924 16.1754 20.7369 16.4912C20.5614 16.7953 20.3217 17.0409 20.0176 17.2281C19.7135 17.4035 19.3802 17.4912 19.0176 17.4912ZM19.0176 10.4912C18.6667 10.4912 18.3334 10.4035 18.0176 10.2281C17.7135 10.0409 17.4679 9.7953 17.2807 9.49121C17.1053 9.17542 17.0176 8.84209 17.0176 8.49121C17.0176 8.12864 17.1053 7.7953 17.2807 7.49121C17.4679 7.18712 17.7135 6.94735 18.0176 6.77191C18.3334 6.58478 18.6667 6.49121 19.0176 6.49121C19.3802 6.49121 19.7135 6.58478 20.0176 6.77191C20.3217 6.94735 20.5614 7.18712 20.7369 7.49121C20.924 7.7953 21.0176 8.12864 21.0176 8.49121C21.0176 8.84209 20.924 9.17542 20.7369 9.49121C20.5614 9.7953 20.3217 10.0409 20.0176 10.2281C19.7135 10.4035 19.3802 10.4912 19.0176 10.4912Z" fill="#333333"/>
</svg>
