<svg width="24" height="24" viewBox="0 0 24 24" fill="none" xmlns="http://www.w3.org/2000/svg">
<path d="M2 12C2 17.5263 6.47368 22 12 22C17.5263 22 22 17.5263 22 12C22 6.47368 17.5263 2 12 2C6.47368 2 2 6.47368 2 12ZM10.6667 16.6667C10.6667 15.9298 11.2632 15.3333 12 15.3333C12.7368 15.3333 13.3333 15.9298 13.3333 16.6667C13.3333 17.4035 12.7368 18 12 18C11.2632 18 10.6667 17.4035 10.6667 16.6667ZM11 13.3333V7C11 6.45614 11.4561 6 12 6C12.5439 6 13 6.45614 13 7V13.3333C13 13.8772 12.5439 14.3333 12 14.3333C11.4561 14.3333 11 13.8772 11 13.3333Z" fill="#333333"/>
</svg>
