<svg width="24" height="24" viewBox="0 0 24 24" fill="none" xmlns="http://www.w3.org/2000/svg">
<path d="M17 3H7C4.75439 3 3 4.75439 3 7V9H21V7C21 4.75439 19.2456 3 17 3ZM5 9H19V17C19 18.2632 18.2632 19 17 19H7C5.73684 19 5 18.2632 5 17V9ZM3 7V17C3 19.2456 4.75439 21 7 21H17C19.2456 21 21 19.2456 21 17V7H3ZM6 2V4C6 4.54386 6.45614 5 7 5C7.54386 5 8 4.54386 8 4V2C8 1.45614 7.54386 1 7 1C6.45614 1 6 1.45614 6 2ZM18 4V2C18 1.45614 17.5439 1 17 1C16.4561 1 16 1.45614 16 2V4C16 4.54386 16.4561 5 17 5C17.5439 5 18 4.54386 18 4ZM11.7368 15.2982L9.73684 13.2982C9.5614 13.1053 9.31579 13 9.03509 13C8.49123 13 8.03509 13.4561 8.03509 14C8.03509 14.2807 8.14035 14.5263 8.33333 14.7018L10.3333 16.7018C10.5088 16.8947 10.7544 17 11.0351 17C11.5789 17 12.0351 16.5439 12.0351 16C12.0351 15.7193 11.9298 15.4737 11.7368 15.2982ZM14.3333 11.2982L10.3333 15.2982C10.1404 15.4737 10.0351 15.7193 10.0351 16C10.0351 16.5439 10.4912 17 11.0351 17C11.3158 17 11.5614 16.8947 11.7368 16.7018L15.7368 12.7018C15.9298 12.5263 16.0351 12.2807 16.0351 12C16.0351 11.4561 15.5789 11 15.0351 11C14.7544 11 14.5088 11.1053 14.3333 11.2982Z" fill="#333333"/>
</svg>
