<svg width="24" height="24" viewBox="0 0 24 24" fill="none" xmlns="http://www.w3.org/2000/svg">
<path d="M2.6665 12C2.6665 17.1403 6.85949 21.3333 11.9998 21.3333C17.1402 21.3333 21.3332 17.1403 21.3332 12C21.3332 6.85961 17.1402 2.66663 11.9998 2.66663C6.85949 2.66663 2.6665 6.85961 2.6665 12ZM7.99984 12.9824C7.99984 12.7017 8.1051 12.4561 8.29808 12.2807L11.2981 9.28066C11.4735 9.08768 11.7191 8.98242 11.9998 8.98242C12.0174 8.98242 12.0174 8.98242 12.0174 8.98242C12.2981 8.98242 12.5437 9.08768 12.7191 9.28066L15.7191 12.2807C15.9121 12.4561 16.0174 12.7017 16.0174 12.9824C16.0174 13.5263 15.5612 13.9824 15.0174 13.9824C14.7367 13.9824 14.4911 13.8772 14.3156 13.6842L11.9998 11.3859L9.70159 13.6842C9.52615 13.8772 9.28054 13.9824 8.99984 13.9824C8.45598 13.9824 7.99984 13.5263 7.99984 12.9824Z" fill="#333333"/>
</svg>
