<svg width="24" height="24" viewBox="0 0 24 24" fill="none" xmlns="http://www.w3.org/2000/svg">
<path d="M2 12C2 17.5263 6.47368 22 12 22C17.5263 22 22 17.5263 22 12C22 6.47368 17.5263 2 12 2C6.47368 2 2 6.47368 2 12ZM8 12.9825C8 12.7018 8.10526 12.4561 8.29825 12.2807L11.193 9.38597C11.6316 8.92983 12.3684 8.92983 12.807 9.38597L15.7018 12.2807C15.8947 12.4561 16 12.7018 16 12.9825C16 13.5263 15.5439 13.9825 15 13.9825C14.7193 13.9825 14.4737 13.8772 14.2982 13.6842L12 11.4035L9.70175 13.6842C9.52632 13.8772 9.2807 13.9825 9 13.9825C8.45614 13.9825 8 13.5263 8 12.9825Z" fill="#333333"/>
</svg>
