<svg width="24" height="24" viewBox="0 0 24 24" fill="none" xmlns="http://www.w3.org/2000/svg">
<path d="M2 12C2 17.5263 6.47368 22 12 22C17.5263 22 22 17.5263 22 12C22 6.47368 17.5263 2 12 2C6.47368 2 2 6.47368 2 12ZM8 11C8 10.4561 8.45614 10 9 10C9.2807 10 9.52632 10.1053 9.70175 10.2982L12 12.5789L14.2982 10.2982C14.4737 10.1053 14.7193 10 15 10C15.5439 10 16 10.4561 16 11C16 11.2807 15.8947 11.5263 15.7018 11.7018L12.7018 14.7018C12.5263 14.8947 12.2807 15 12 15C11.7193 15 11.4737 14.8947 11.2982 14.7018L8.29825 11.7018C8.10526 11.5263 8 11.2807 8 11Z" fill="#333333"/>
</svg>
