<svg width="24" height="24" viewBox="0 0 24 24" fill="none" xmlns="http://www.w3.org/2000/svg">
<path d="M2 12C2 10.4678 2.32749 9.02924 2.98246 7.68421C3.63743 6.33918 4.53216 5.19883 5.66667 4.26316L10.5965 9.17544L9.54386 9.54386L7.84211 14.6842C7.74854 14.9883 7.76023 15.2749 7.87719 15.5439C8.00585 15.8129 8.20468 16.0058 8.47368 16.1228C8.74269 16.2398 9.02924 16.2515 9.33333 16.1579L14.4561 14.4561L14.8246 13.4035L19.7368 18.3333C18.8012 19.4678 17.6608 20.3626 16.3158 21.0175C14.9708 21.6725 13.5322 22 12 22C10.1988 22 8.52632 21.5556 6.98246 20.6667C5.45029 19.7661 4.23392 18.5497 3.33333 17.0175C2.44444 15.4737 2 13.8012 2 12ZM7.42105 3.17544C8.11111 2.80117 8.8421 2.51462 9.61403 2.31579C10.386 2.10526 11.1813 2 12 2C13.8129 2 15.4854 2.45029 17.0175 3.35088C18.5497 4.23977 19.7602 5.45029 20.6491 6.98246C21.5497 8.51462 22 10.1871 22 12C22 12.8187 21.8947 13.614 21.6842 14.386C21.4854 15.1579 21.1988 15.8889 20.8246 16.5789L15.5263 11.2632L16.1579 9.31579C16.2632 9.0117 16.2515 8.72515 16.1228 8.45614C16.0058 8.18713 15.807 7.99415 15.5263 7.87719C15.2573 7.74854 14.9708 7.73684 14.6667 7.84211L12.7368 8.47368L7.42105 3.17544ZM21.7018 20.2982C21.9006 20.4737 22 20.7076 22 21C22 21.269 21.9006 21.5029 21.7018 21.7018C21.5146 21.9006 21.2807 22 21 22C20.7193 22 20.4854 21.9006 20.2982 21.7018L2.29825 3.70176C2.09942 3.51462 2 3.2807 2 3C2 2.7193 2.09942 2.48538 2.29825 2.29825C2.49708 2.09942 2.73099 2 3 2C3.2924 2 3.52632 2.09942 3.70175 2.29825L21.7018 20.2982Z" fill="#333333"/>
</svg>
