<svg width="24" height="24" viewBox="0 0 24 24" fill="none" xmlns="http://www.w3.org/2000/svg">
<path d="M19.8421 3C20.2866 3 20.6433 3.1462 20.9123 3.4386C21.193 3.7193 21.3334 4.06433 21.3334 4.47368C21.3334 4.87134 21.1813 5.22222 20.8772 5.52632L14.5088 11.9123V19.6667C14.5088 20.0409 14.3801 20.3567 14.1228 20.614C13.8655 20.8713 13.5497 21 13.1755 21H10.8421C10.4679 21 10.1521 20.8713 9.89476 20.614C9.63745 20.3567 9.50879 20.0409 9.50879 19.6667V11.9123L3.12283 5.52632C2.81873 5.22222 2.66669 4.87134 2.66669 4.47368C2.66669 4.06433 2.80704 3.7193 3.08774 3.4386C3.36844 3.1462 3.72517 3 4.15791 3H19.8421Z" fill="#333333"/>
</svg>
