<svg width="24" height="24" viewBox="0 0 24 24" fill="none" xmlns="http://www.w3.org/2000/svg">
<path d="M7 21C6.28655 21 5.61988 20.8187 5 20.4561C4.39181 20.0935 3.90643 19.6082 3.54386 19C3.18129 18.3801 3 17.7134 3 17V11.2456C3 10.7076 3.09942 10.1988 3.29825 9.71927C3.50877 9.22804 3.80117 8.7953 4.17544 8.42103L9.17544 3.42103C9.69006 2.89471 10.2865 2.54383 10.9649 2.36839C11.655 2.19296 12.345 2.19296 13.0351 2.36839C13.7251 2.54383 14.3216 2.89471 14.8246 3.42103L19.8246 8.42103C20.1988 8.7953 20.4854 9.22804 20.6842 9.71927C20.8947 10.1988 21 10.7076 21 11.2456V17C21 17.7134 20.8187 18.3801 20.4561 19C20.1053 19.6082 19.6199 20.0935 19 20.4561C18.3918 20.8187 17.7251 21 17 21H7Z" fill="#333333"/>
</svg>
