<svg width="24" height="24" viewBox="0 0 24 24" fill="none" xmlns="http://www.w3.org/2000/svg">
<path d="M3 17C3 19.2456 4.75439 21 7 21H17C19.2456 21 21 19.2456 21 17V16.9649V15.2456V8.01754C21 5.91228 19.386 3 17 3H7C4.75439 3 3 4.75439 3 7V17ZM5 17V16.4211L7 14.4211L9.05263 16.4561C9.57895 17 10.4211 17 10.9474 16.4561L15 12.4211L19 16.4035V17C19 18.2632 18.2632 19 17 19H7C5.73684 19 5 18.2632 5 17ZM6.50877 8.47368C6.50877 7.36842 7.38596 6.49123 8.52632 6.49123C9.63158 6.49123 10.5088 7.36842 10.5088 8.47368C10.5088 9.61404 9.63158 10.4912 8.52632 10.4912C7.38596 10.4912 6.50877 9.61404 6.50877 8.47368Z" fill="#333333"/>
</svg>
