<svg width="24" height="24" viewBox="0 0 24 24" fill="none" xmlns="http://www.w3.org/2000/svg">
<path d="M19.8596 7C20.1754 7 20.4444 7.11111 20.6667 7.33333C20.8889 7.55555 21 7.82456 21 8.14035V16.9474C21 17.7076 20.8246 18.3977 20.4737 19.0175C20.1345 19.6374 19.655 20.1228 19.0351 20.4737C18.4152 20.8246 17.7193 21 16.9474 21H7.05263C6.2924 21 5.60234 20.8246 4.98246 20.4737C4.36257 20.1228 3.87719 19.6374 3.52632 19.0175C3.17544 18.3977 3 17.7076 3 16.9474V8.14035C3 7.82456 3.11111 7.55555 3.33333 7.33333C3.56725 7.11111 3.83626 7 4.14035 7H19.8596ZM20.8947 7.54386C20.9649 7.68421 21 7.83626 21 8C21 8.26901 20.9006 8.50292 20.7018 8.70175C20.5146 8.90058 20.2807 9 20 9C19.8129 9 19.6374 8.94737 19.4737 8.84211C19.3099 8.73684 19.1871 8.60234 19.1053 8.4386L17.8421 5.92982C17.6784 5.59064 17.4795 5.35088 17.2456 5.21053C17.0234 5.07018 16.7193 5 16.3333 5H7.66667C7.2807 5 6.97076 5.07018 6.73684 5.21053C6.51462 5.35088 6.32164 5.59064 6.1579 5.92982L4.89474 8.4386C4.81287 8.60234 4.69006 8.73684 4.52632 8.84211C4.36257 8.94737 4.18713 9 4 9C3.73099 9 3.49708 8.90058 3.29825 8.70175C3.09942 8.50292 3 8.26901 3 8C3 7.83626 3.03509 7.68421 3.10526 7.54386L4.36842 5.03509C4.69591 4.40351 5.15205 3.90643 5.73684 3.54386C6.32164 3.18129 6.96491 3 7.66667 3H16.3333C17.0468 3 17.6959 3.18129 18.2807 3.54386C18.8655 3.90643 19.3158 4.40351 19.6316 5.03509L20.8947 7.54386Z" fill="#333333"/>
</svg>
