<svg width="24" height="24" viewBox="0 0 24 24" fill="none" xmlns="http://www.w3.org/2000/svg">
<path d="M11.2982 6.70176L16.2982 11.7018C16.4737 11.8947 16.7193 12 17 12C17.5439 12 18 11.5439 18 11C18 10.7193 17.8947 10.4737 17.7018 10.2982L12.7018 5.29825C12.5263 5.10526 12.2807 5 12 5C11.4561 5 11 5.45614 11 6C11 6.2807 11.1053 6.52632 11.2982 6.70176ZM11.2982 12.7018L16.2982 17.7018C16.4737 17.8947 16.7193 18 17 18C17.5439 18 18 17.5439 18 17C18 16.7193 17.8947 16.4737 17.7018 16.2982L12.7018 11.2982C12.5263 11.1053 12.2807 11 12 11C11.4561 11 11 11.4561 11 12C11 12.2807 11.1053 12.5263 11.2982 12.7018ZM7.70175 17.7018L12.7018 12.7018C12.8947 12.5263 13 12.2807 13 12C13 11.4561 12.5439 11 12 11C11.7193 11 11.4737 11.1053 11.2982 11.2982L6.29825 16.2982C6.10526 16.4737 6 16.7193 6 17C6 17.5439 6.45614 18 7 18C7.2807 18 7.52632 17.8947 7.70175 17.7018ZM7.70175 11.7018L12.7018 6.70176C12.8947 6.52632 13 6.2807 13 6C13 5.45614 12.5439 5 12 5C11.7193 5 11.4737 5.10526 11.2982 5.29825L6.29825 10.2982C6.10526 10.4737 6 10.7193 6 11C6 11.5439 6.45614 12 7 12C7.2807 12 7.52632 11.8947 7.70175 11.7018Z" fill="#333333"/>
</svg>
