<svg width="24" height="24" viewBox="0 0 24 24" fill="none" xmlns="http://www.w3.org/2000/svg">
<path d="M4 14C3.73099 14 3.49708 13.9006 3.29825 13.7018C3.09942 13.5029 3 13.269 3 13C3 12.7193 3.09942 12.4854 3.29825 12.2982C3.49708 12.0994 3.73099 12 4 12H17C17.4094 12 17.7661 11.9181 18.0702 11.7544C18.3743 11.5906 18.6023 11.3567 18.7544 11.0526C18.9181 10.7485 19 10.3977 19 10V6C19 5.7193 19.0994 5.48538 19.2982 5.29825C19.4971 5.09942 19.731 5 20 5C20.2807 5 20.5146 5.09942 20.7018 5.29825C20.9006 5.48538 21 5.7193 21 6V10C21 10.7134 20.8187 11.3801 20.4561 12C20.1053 12.6082 19.6199 13.0936 19 13.4561C18.3918 13.8187 17.7251 14 17 14H4ZM8.29825 7.29825C8.48538 7.09942 8.7193 7 9 7C9.2807 7 9.51462 7.09942 9.70175 7.29825C9.90058 7.48538 10 7.7193 10 8C10 8.2807 9.90058 8.51462 9.70175 8.70175L4.80702 13.5965C4.76023 13.6433 4.72515 13.5556 4.70175 13.3333C4.69006 13.1111 4.69591 12.8889 4.7193 12.6667C4.74269 12.4444 4.77193 12.3567 4.80702 12.4035L9.70175 17.2982C9.90058 17.4737 10 17.7076 10 18C10 18.269 9.90058 18.5029 9.70175 18.7018C9.51462 18.9006 9.2807 19 9 19C8.7193 19 8.48538 18.9006 8.29825 18.7018L3.40351 13.807C3.18129 13.5848 3.07018 13.3158 3.07018 13C3.07018 12.6842 3.18129 12.4152 3.40351 12.193L8.29825 7.29825Z" fill="#333333"/>
</svg>
