<svg width="24" height="24" viewBox="0 0 24 24" fill="none" xmlns="http://www.w3.org/2000/svg">
<path d="M20 18C20.2807 18 20.5146 18.0994 20.7018 18.2982C20.9006 18.4854 21 18.7193 21 19C21 19.269 20.9006 19.5029 20.7018 19.7018C20.5146 19.9006 20.2807 20 20 20H16.807C16.0585 20 15.3743 19.8012 14.7544 19.4035C14.1462 18.9942 13.6959 18.4444 13.4035 17.7544L8.78947 7.03509C8.62573 6.66082 8.42105 6.39766 8.17544 6.24561C7.92982 6.08187 7.60234 6 7.19298 6H4C3.73099 6 3.49708 5.90058 3.29825 5.70175C3.09942 5.50292 3 5.269 3 5C3 4.7193 3.09942 4.48538 3.29825 4.29824C3.49708 4.09941 3.73099 4 4 4H7.19298C7.95322 4 8.63743 4.19883 9.24561 4.59649C9.8655 4.99415 10.3216 5.54971 10.614 6.26316L15.2281 16.9474C15.3918 17.3216 15.5906 17.5906 15.8246 17.7544C16.0702 17.9181 16.3977 18 16.807 18H20ZM20 4C20.2807 4 20.5146 4.09941 20.7018 4.29824C20.9006 4.48538 21 4.7193 21 5C21 5.269 20.9006 5.50292 20.7018 5.70175C20.5146 5.90058 20.2807 6 20 6H15C14.731 6 14.4971 5.90058 14.2982 5.70175C14.0994 5.50292 14 5.269 14 5C14 4.7193 14.0994 4.48538 14.2982 4.29824C14.4971 4.09941 14.731 4 15 4H20Z" fill="#333333"/>
</svg>
