<svg width="24" height="24" viewBox="0 0 24 24" fill="none" xmlns="http://www.w3.org/2000/svg">
<path d="M10.7018 17.7018L15.7018 12.7018C15.8947 12.5263 16 12.2807 16 12C16 11.4561 15.5439 11 15 11C14.7193 11 14.4737 11.1053 14.2982 11.2982L9.29825 16.2982C9.10526 16.4737 9 16.7193 9 17C9 17.5439 9.45614 18 10 18C10.2807 18 10.5263 17.8947 10.7018 17.7018ZM15.7018 11.2982L10.7018 6.29825C10.5263 6.10526 10.2807 6 10 6C9.45614 6 9 6.45614 9 7C9 7.2807 9.10526 7.52632 9.29825 7.70175L14.2982 12.7018C14.4737 12.8947 14.7193 13 15 13C15.5439 13 16 12.5439 16 12C16 11.7193 15.8947 11.4737 15.7018 11.2982Z" fill="#333333"/>
</svg>
