<svg width="24" height="24" viewBox="0 0 24 24" fill="none" xmlns="http://www.w3.org/2000/svg">
<path d="M18.7018 14.7018L20.0526 13.3509C21.2982 12.1228 22 10.4211 22 8.64912C22 4.96491 19.0351 2 15.3509 2C13.5789 2 11.8772 2.70175 10.6491 3.94737L9.29825 5.29825C9.10526 5.47368 9 5.7193 9 6C9 6.54386 9.45614 7 10 7C10.2807 7 10.5263 6.89474 10.7018 6.70176L12.0526 5.35088C12.9649 4.4386 14.0351 4 15.3509 4C18.0526 4 20 5.94737 20 8.64912C20 9.96491 19.5614 11.0351 18.6491 11.9474L17.2982 13.2982C17.1053 13.4737 17 13.7193 17 14C17 14.5439 17.4561 15 18 15C18.2807 15 18.5263 14.8947 18.7018 14.7018ZM13.2982 17.2982L11.9474 18.6491C11.0351 19.5614 9.96491 20 8.64912 20C5.94737 20 4 18.0526 4 15.3509C4 14.0351 4.4386 12.9649 5.35088 12.0526L6.70175 10.7018C6.89474 10.5263 7 10.2807 7 10C7 9.45614 6.54386 9 6 9C5.7193 9 5.47368 9.10526 5.29825 9.29825L3.94737 10.6491C2.70175 11.8772 2 13.5789 2 15.3509C2 19.0351 4.96491 22 8.64912 22C10.4211 22 12.1228 21.2982 13.3509 20.0526L14.7018 18.7018C14.8947 18.5263 15 18.2807 15 18C15 17.4561 14.5439 17 14 17C13.7193 17 13.4737 17.1053 13.2982 17.2982ZM9.70175 15.7018L15.7018 9.70176C15.8947 9.52632 16 9.2807 16 9C16 8.45614 15.5439 8 15 8C14.7193 8 14.4737 8.10526 14.2982 8.29825L8.29825 14.2982C8.10526 14.4737 8 14.7193 8 15C8 15.5439 8.45614 16 9 16C9.2807 16 9.52632 15.8947 9.70175 15.7018Z" fill="#333333"/>
</svg>
