<svg width="24" height="24" viewBox="0 0 24 24" fill="none" xmlns="http://www.w3.org/2000/svg">
<path d="M2 3C2 2.7193 2.09942 2.48538 2.29825 2.29825C2.49708 2.09942 2.73099 2 3 2C3.2924 2 3.52632 2.09942 3.70175 2.29825L5.8421 4.4386L18.5614 17.1579L21.7018 20.2982C21.9006 20.4737 22 20.7076 22 21C22 21.269 21.9006 21.5029 21.7018 21.7018C21.5146 21.9006 21.2807 22 21 22C20.7193 22 20.4854 21.9006 20.2982 21.7018L17.1579 18.5614L14.8772 20.8421C14.3509 21.3801 13.7368 21.7485 13.0351 21.9474C12.345 22.1345 11.655 22.1345 10.9649 21.9474C10.2865 21.7485 9.67836 21.3801 9.14035 20.8421L5.64912 17.3509C4.81871 16.5322 4.16959 15.5731 3.70175 14.4737C3.23392 13.3743 3 12.2164 3 11C3 10.076 3.1345 9.18714 3.40351 8.33333C3.67251 7.46784 4.05848 6.67836 4.5614 5.96491L2.29825 3.70176C2.09942 3.51462 2 3.2807 2 3ZM7.50877 3.26316C8.17544 2.8538 8.88889 2.54386 9.64912 2.33333C10.4094 2.11111 11.193 2 12 2C13.6374 2 15.1462 2.40351 16.5263 3.21053C17.9064 4.00585 18.9942 5.09357 19.7895 6.47368C20.5965 7.8538 21 9.36257 21 11C21 11.807 20.8889 12.5906 20.6667 13.3509C20.4561 14.1111 20.1404 14.8187 19.7193 15.4737L7.50877 3.26316Z" fill="#333333"/>
</svg>
