<svg width="24" height="24" viewBox="0 0 24 24" fill="none" xmlns="http://www.w3.org/2000/svg">
<path d="M6 18H16V8C16 5.78947 14.2105 4 12 4H6C3.78947 4 2 5.78947 2 8V14C2 16.2105 3.78947 18 6 18ZM17.1754 9C17.5088 9 17.6491 9.05263 17.8772 9.2807L19.7193 11.1228C19.9474 11.3509 20 11.4912 20 11.8246V14C20 15.2281 19.2281 16 18 16H16V9H17.1754ZM17.1754 7H14V18H18C20.2105 18 22 16.2105 22 14V11.8246C22 11.0351 21.6842 10.2632 21.1228 9.7193L19.2807 7.87719C18.7368 7.31579 17.9649 7 17.1754 7ZM4 17V18C4 19.6667 5.33333 21 7 21C8.66667 21 10 19.6667 10 18V17C10 16.4561 9.54386 16 9 16C8.45614 16 8 16.4561 8 17V18C8 18.6842 7.68421 19 7 19C6.31579 19 6 18.6842 6 18V17C6 16.4561 5.54386 16 5 16C4.45614 16 4 16.4561 4 17ZM14 17V18C14 19.6667 15.3333 21 17 21C18.6667 21 20 19.6667 20 18V17C20 16.4561 19.5439 16 19 16C18.4561 16 18 16.4561 18 17V18C18 18.6842 17.6842 19 17 19C16.3158 19 16 18.6842 16 18V17C16 16.4561 15.5439 16 15 16C14.4561 16 14 16.4561 14 17Z" fill="#333333"/>
</svg>
