<svg width="24" height="24" viewBox="0 0 24 24" fill="none" xmlns="http://www.w3.org/2000/svg">
<path d="M16 5C15.731 5 15.4971 4.90058 15.2982 4.70175C15.0994 4.50292 15 4.26901 15 4C15 3.7193 15.0994 3.48538 15.2982 3.29825C15.4971 3.09942 15.731 3 16 3H17C17.7251 3 18.3918 3.18129 19 3.54386C19.6199 3.89474 20.1053 4.38012 20.4561 5C20.8187 5.60819 21 6.27485 21 7V17C21 17.7135 20.8187 18.3801 20.4561 19C20.1053 19.6082 19.6199 20.0936 19 20.4561C18.3918 20.8187 17.7251 21 17 21H16C15.731 21 15.4971 20.9006 15.2982 20.7018C15.0994 20.5029 15 20.269 15 20C15 19.7193 15.0994 19.4854 15.2982 19.2982C15.4971 19.0994 15.731 19 16 19H17C17.4094 19 17.7661 18.9181 18.0702 18.7544C18.3743 18.5906 18.6023 18.3567 18.7544 18.0526C18.9181 17.7485 19 17.3977 19 17V7C19 6.59064 18.9181 6.23392 18.7544 5.92982C18.6023 5.62573 18.3743 5.39766 18.0702 5.24561C17.7661 5.08187 17.4094 5 17 5H16ZM12.7018 16.7018C12.5263 16.9006 12.2924 17 12 17C11.731 17 11.4971 16.9006 11.2982 16.7018C11.0994 16.5029 11 16.269 11 16C11 15.7076 11.0994 15.4737 11.2982 15.2982L15.193 11.4035C15.2515 11.345 15.2924 11.4327 15.3158 11.6667C15.3392 11.8889 15.3392 12.117 15.3158 12.3509C15.2924 12.5731 15.2515 12.655 15.193 12.5965L11.2982 8.70175C11.0994 8.51462 11 8.2807 11 8C11 7.7193 11.0994 7.48538 11.2982 7.29824C11.4971 7.09942 11.731 7 12 7C12.2924 7 12.5263 7.09942 12.7018 7.29824L16.5965 11.193C16.8187 11.4035 16.9298 11.6725 16.9298 12C16.9298 12.3158 16.8187 12.5848 16.5965 12.807L12.7018 16.7018ZM16 11C16.2807 11 16.5146 11.0994 16.7018 11.2982C16.9006 11.4854 17 11.7193 17 12C17 12.269 16.9006 12.5029 16.7018 12.7018C16.5146 12.9006 16.2807 13 16 13H4C3.73099 13 3.49708 12.9006 3.29825 12.7018C3.09942 12.5029 3 12.269 3 12C3 11.7193 3.09942 11.4854 3.29825 11.2982C3.49708 11.0994 3.73099 11 4 11H16Z" fill="#333333"/>
</svg>
