<svg width="24" height="24" viewBox="0 0 24 24" fill="none" xmlns="http://www.w3.org/2000/svg">
<path d="M4 8C4 6.73684 4.73684 6 6 6H18C19.2632 6 20 6.73684 20 8V16C20 17.2632 19.2632 18 18 18H6C4.73684 18 4 17.2632 4 16V8ZM2 8V16C2 18.2456 3.75439 20 6 20H18C20.2456 20 22 18.2456 22 16V8C22 5.75438 20.2456 4 18 4H6C3.75439 4 2 5.75438 2 8ZM22 16V8.31579C22 7.36842 21.0351 6.82456 20.2281 7.29824L12.7895 11.4211C12.2982 11.7018 11.7018 11.7018 11.2105 11.4211L3.77193 7.29824C2.96491 6.82456 2 7.36842 2 8.31579V16C2 18.2456 3.75439 20 6 20H18C20.2456 20 22 18.2456 22 16Z" fill="#333333"/>
</svg>
