<svg width="24" height="24" viewBox="0 0 24 24" fill="none" xmlns="http://www.w3.org/2000/svg">
<path d="M10 17.9298C10 18.1871 9.91813 18.421 9.75439 18.6316C9.60234 18.8304 9.39181 18.9591 9.12281 19.0175C9.05263 19.0409 8.85965 19.0994 8.54386 19.193L7.84211 19.4386C6.84795 19.7778 5.90058 19.8129 5 19.5439C4.09942 19.2632 3.37427 18.7368 2.82456 17.9649C2.27485 17.193 2 16.2865 2 15.2456V8.01754C2 7.18713 2.23392 6.44444 2.70175 5.78947C3.16959 5.1345 3.80117 4.67836 4.59649 4.42105L7.96491 3.29824L8.59649 3.15789C8.83041 3.11111 9.05263 3.12865 9.26316 3.21052C9.48538 3.29239 9.66082 3.43274 9.78947 3.63157C9.92982 3.81871 10 4.03508 10 4.2807V17.9298ZM14 6.07017C14 5.81286 14.076 5.58479 14.2281 5.38596C14.3918 5.17543 14.6082 5.03508 14.8772 4.96491C14.9474 4.95321 15.1404 4.90058 15.4561 4.80701L16.1579 4.5614C17.152 4.21052 18.0994 4.17543 19 4.45614C19.9006 4.73684 20.6257 5.26315 21.1754 6.03508C21.7251 6.80701 22 7.71344 22 8.75438V15.9825C22 16.8129 21.7661 17.5556 21.2982 18.2105C20.8304 18.8655 20.1988 19.3216 19.4035 19.5789L16.0526 20.7017L15.4211 20.8421C15.1754 20.8889 14.9415 20.8713 14.7193 20.7895C14.5088 20.6959 14.3333 20.5556 14.193 20.3684C14.0643 20.1813 14 19.9649 14 19.7193V6.07017ZM14.5439 18.7895C14.731 18.8479 14.883 18.8772 15 18.8772C15.1287 18.8772 15.2807 18.8479 15.4561 18.7895L18.7719 17.6842C19.2047 17.5439 19.5146 17.3392 19.7018 17.0702C19.9006 16.8012 20 16.4386 20 15.9825V8.75438C20 8.08771 19.8655 7.54386 19.5965 7.1228C19.3275 6.70175 18.9532 6.43274 18.4737 6.31579C17.9942 6.19883 17.4386 6.24561 16.807 6.45614L16.0702 6.70175C15.3567 6.94736 14.6433 6.94736 13.9298 6.70175L9.45614 5.21052C9.2807 5.14035 9.12865 5.10526 9 5.10526C8.88304 5.10526 8.73099 5.14035 8.54386 5.21052L5.22807 6.31579C4.79532 6.45614 4.47953 6.66081 4.2807 6.92982C4.09357 7.19883 4 7.5614 4 8.01754V15.2456C4 15.9123 4.12865 16.4561 4.38596 16.8772C4.65497 17.2982 5.02924 17.5672 5.50877 17.6842C5.9883 17.8012 6.54386 17.7544 7.17544 17.5439L7.89474 17.2982C8.63158 17.0409 9.35672 17.0409 10.0702 17.2982L14.5439 18.7895ZM9.4386 19.193C9.26316 19.1228 9.11696 19.0877 9 19.0877C8.88304 19.0877 8.73684 19.1228 8.5614 19.193L7.84211 19.4386C6.84795 19.7778 5.90058 19.8129 5 19.5439C4.09942 19.2632 3.37427 18.7368 2.82456 17.9649C2.27485 17.193 2 16.2865 2 15.2456V8.01754C2 7.18713 2.23392 6.44444 2.70175 5.78947C3.16959 5.1345 3.80117 4.67836 4.59649 4.42105L7.91228 3.31579C8.63743 3.05848 9.36257 3.05848 10.0877 3.31579L14.5614 4.80701C14.7485 4.86549 14.8947 4.89473 15 4.89473C15.117 4.89473 15.2632 4.86549 15.4386 4.80701L16.1754 4.5614C17.1696 4.22222 18.117 4.19298 19.0175 4.47368C19.9181 4.75438 20.6374 5.2807 21.1754 6.05263C21.7251 6.81286 22 7.71344 22 8.75438V15.9825C22 16.8129 21.7661 17.5556 21.2982 18.2105C20.8304 18.8655 20.1988 19.3216 19.4035 19.5789L16.0877 20.6842C15.3626 20.9298 14.6374 20.9298 13.9123 20.6842L9.4386 19.193Z" fill="#333333"/>
</svg>
