<svg width="24" height="24" viewBox="0 0 24 24" fill="none" xmlns="http://www.w3.org/2000/svg">
<path d="M6.40347 19.9297C5.86546 20.0701 5.36838 20.0116 4.91224 19.7543C4.4561 19.497 4.14031 19.1227 3.96487 18.6315C3.78944 18.1285 3.82452 17.6256 4.07014 17.1227L10.1929 4.45603C10.4269 3.9648 10.7836 3.63146 11.2631 3.45602C11.7427 3.26889 12.228 3.26889 12.7193 3.45602C13.2105 3.63146 13.5731 3.9648 13.807 4.45603L19.9122 17.456C20.1462 17.9706 20.1696 18.4794 19.9824 18.9823C19.7953 19.4853 19.4619 19.8595 18.9824 20.1051C18.5146 20.3508 18.0117 20.3858 17.4736 20.2104L11.9649 18.3858L6.40347 19.9297Z" fill="#333333"/>
</svg>
