<svg width="24" height="24" viewBox="0 0 24 24" fill="none" xmlns="http://www.w3.org/2000/svg">
<path d="M2 3C2 2.7193 2.09942 2.48538 2.29825 2.29825C2.49708 2.09942 2.73099 2 3 2C3.2924 2 3.52632 2.09942 3.70175 2.29825L8.26316 6.84211L17.1579 15.7368L21.7018 20.2982C21.9006 20.4737 22 20.7076 22 21C22 21.269 21.9006 21.5029 21.7018 21.7018C21.5146 21.9006 21.2807 22 21 22C20.7193 22 20.4854 21.9006 20.2982 21.7018L16.4386 17.8421L15.7193 20.0175C15.5322 20.5673 15.193 20.9591 14.7018 21.193C14.2105 21.4152 13.7076 21.4503 13.193 21.2982C12.6784 21.1345 12.2865 20.7953 12.0175 20.2807L9.26316 14.7368L3.7193 11.9825C3.20468 11.7135 2.8655 11.3216 2.70175 10.807C2.54971 10.2924 2.5848 9.78947 2.80702 9.29825C3.04094 8.80702 3.43275 8.46784 3.98246 8.2807L6.1579 7.5614L2.29825 3.70176C2.09942 3.51462 2 3.2807 2 3ZM17.7895 3.68421C18.2924 3.50877 18.7719 3.53216 19.2281 3.75439C19.6959 3.96491 20.0351 4.30409 20.2456 4.77193C20.4678 5.23977 20.4912 5.72515 20.3158 6.22807L17.8596 13.5965L10.4035 6.14035L17.7895 3.68421Z" fill="#333333"/>
</svg>
