<svg width="24" height="24" viewBox="0 0 24 24" fill="none" xmlns="http://www.w3.org/2000/svg">
<path d="M3.71933 11.9825C3.20471 11.7135 2.86553 11.3216 2.70178 10.807C2.54974 10.2924 2.58483 9.78948 2.80705 9.29825C3.04097 8.80702 3.43278 8.46784 3.98249 8.28071L17.7895 3.68421C18.2924 3.50878 18.772 3.53217 19.2281 3.75439C19.6959 3.96492 20.0351 4.3041 20.2456 4.77193C20.4679 5.22807 20.4913 5.70761 20.3158 6.21053L15.7193 20.0175C15.5322 20.5673 15.193 20.9591 14.7018 21.193C14.2106 21.4152 13.7076 21.4503 13.193 21.2983C12.6784 21.1345 12.2866 20.7953 12.0176 20.2807L9.26319 14.7368L3.71933 11.9825Z" fill="#333333"/>
</svg>
