<svg width="24" height="24" viewBox="0 0 24 24" fill="none" xmlns="http://www.w3.org/2000/svg">
<path d="M19 15V17C19 18.2632 18.2632 19 17 19H7C5.73684 19 5 18.2632 5 17V7C5 5.73684 5.73684 5 7 5H9C9.54386 5 10 4.54386 10 4C10 3.45614 9.54386 3 9 3H7C4.75439 3 3 4.75439 3 7V17C3 19.2456 4.75439 21 7 21H17C19.2456 21 21 19.2456 21 17V15C21 14.4561 20.5439 14 20 14C19.4561 14 19 14.4561 19 15ZM21 10V4C21 3.45614 20.5439 3 20 3C19.4561 3 19 3.45614 19 4V10C19 10.5439 19.4561 11 20 11C20.5439 11 21 10.5439 21 10ZM10.7018 14.7018L20.7018 4.70175C20.8947 4.52632 21 4.2807 21 4C21 3.45614 20.5439 3 20 3C19.7193 3 19.4737 3.10526 19.2982 3.29825L9.29825 13.2982C9.10526 13.4737 9 13.7193 9 14C9 14.5439 9.45614 15 10 15C10.2807 15 10.5263 14.8947 10.7018 14.7018ZM20 3H14C13.4561 3 13 3.45614 13 4C13 4.54386 13.4561 5 14 5H20C20.5439 5 21 4.54386 21 4C21 3.45614 20.5439 3 20 3Z" fill="#333333"/>
</svg>
