<svg width="24" height="24" viewBox="0 0 24 24" fill="none" xmlns="http://www.w3.org/2000/svg">
<path d="M15 7C15 4.22807 12.7719 2 10 2C7.22807 2 5 4.22807 5 7C5 9.77193 7.22807 12 10 12C12.7719 12 15 9.77193 15 7ZM10 13C5.17544 13 1 15.0175 1 18C1 20.2105 2.78947 22 5 22H15C17.2105 22 19 20.2105 19 18C19 15.0175 14.8246 13 10 13ZM18 8V14C18 14.5439 18.4561 15 19 15C19.5439 15 20 14.5439 20 14V8C20 7.45614 19.5439 7 19 7C18.4561 7 18 7.45614 18 8ZM16 12H22C22.5439 12 23 11.5439 23 11C23 10.4561 22.5439 10 22 10H16C15.4561 10 15 10.4561 15 11C15 11.5439 15.4561 12 16 12Z" fill="#333333"/>
</svg>
