<svg width="24" height="24" viewBox="0 0 24 24" fill="none" xmlns="http://www.w3.org/2000/svg">
<path d="M2 16C2 18.2105 3.78947 20 6 20H18C20.2105 20 22 18.2105 22 16V8C22 5.78947 20.2105 4 18 4H16.4211L14.7018 2.29825C14.5263 2.10526 14.2807 2 14 2H10C9.7193 2 9.47369 2.10526 9.29825 2.29825L7.57895 4H6C3.78947 4 2 5.78947 2 8V16ZM7 12C7 9.22807 9.22807 7 12 7C14.7719 7 17 9.22807 17 12C17 14.7719 14.7719 17 12 17C9.22807 17 7 14.7719 7 12ZM9 12C9 13.7895 10.2105 15 12 15C13.7895 15 15 13.7895 15 12C15 10.2105 13.7895 9 12 9C10.2105 9 9 10.2105 9 12Z" fill="#333333"/>
</svg>
