<svg width="24" height="24" viewBox="0 0 24 24" fill="none" xmlns="http://www.w3.org/2000/svg">
<path d="M5 8C5 8.26901 4.90058 8.50292 4.70175 8.70175C4.51462 8.90058 4.2807 9 4 9C3.73099 9 3.49708 8.90058 3.29825 8.70175C3.09942 8.50292 3 8.26901 3 8V7C3 6.27485 3.18129 5.60819 3.54386 5C3.90643 4.38012 4.39181 3.89474 5 3.54386C5.61988 3.18129 6.28655 3 7 3H17C17.7251 3 18.3918 3.18129 19 3.54386C19.6199 3.89474 20.1053 4.38012 20.4561 5C20.8187 5.60819 21 6.27485 21 7V8C21 8.26901 20.9006 8.50292 20.7018 8.70175C20.5146 8.90058 20.2807 9 20 9C19.731 9 19.4971 8.90058 19.2982 8.70175C19.0994 8.50292 19 8.26901 19 8V7C19 6.59064 18.9181 6.23392 18.7544 5.92982C18.6023 5.62573 18.3743 5.39766 18.0702 5.24561C17.7661 5.08187 17.4094 5 17 5H7C6.60234 5 6.25146 5.08187 5.94737 5.24561C5.64328 5.39766 5.40936 5.62573 5.24561 5.92982C5.08187 6.23392 5 6.59064 5 7V8ZM16.7018 11.2982C16.9006 11.4737 17 11.7076 17 12C17 12.269 16.9006 12.5029 16.7018 12.7018C16.5146 12.9006 16.2807 13 16 13C15.7193 13 15.4854 12.9006 15.2982 12.7018L11.4035 8.80702C11.345 8.74854 11.4269 8.7076 11.6491 8.68421C11.883 8.66082 12.1111 8.66082 12.3333 8.68421C12.5673 8.7076 12.655 8.74854 12.5965 8.80702L8.70175 12.7018C8.52632 12.9006 8.2924 13 8 13C7.73099 13 7.49708 12.9006 7.29825 12.7018C7.09941 12.5029 7 12.269 7 12C7 11.7076 7.09941 11.4737 7.29825 11.2982L11.193 7.40351C11.4152 7.18129 11.6842 7.07018 12 7.07018C12.3275 7.07018 12.5965 7.18129 12.807 7.40351L16.7018 11.2982ZM13 20C13 20.269 12.9006 20.5029 12.7018 20.7018C12.5146 20.9006 12.2807 21 12 21C11.731 21 11.4971 20.9006 11.2982 20.7018C11.0994 20.5029 11 20.269 11 20V8C11 7.7193 11.0994 7.48538 11.2982 7.29824C11.4971 7.09942 11.731 7 12 7C12.2807 7 12.5146 7.09942 12.7018 7.29824C12.9006 7.48538 13 7.7193 13 8V20Z" fill="#333333"/>
</svg>
