<svg width="24" height="24" viewBox="0 0 24 24" fill="none" xmlns="http://www.w3.org/2000/svg">
<path d="M3.0879 7.42105C2.40369 8.63158 2.63176 10.0526 3.64931 11L3.78966 11.1404C4.01773 11.3509 4.01773 11.386 4.00018 11.7193C4.00018 11.8947 4.00018 12.0877 4.00018 12.2632C4.01773 12.614 4.00018 12.6667 3.78966 12.8772L3.45632 13.1754C2.61422 13.9649 2.3686 15.3158 3.10545 16.5789L3.56159 17.4035C4.26334 18.6316 5.64931 19.1404 6.9651 18.7193L7.14053 18.6842C7.40369 18.5965 7.47387 18.614 7.77211 18.7895C7.91246 18.8947 8.07036 18.9825 8.22825 19.0526C8.54404 19.2281 8.59667 19.2982 8.66685 19.5789L8.75457 19.9825C9.01773 21.0877 10.0528 22 11.544 22H12.4563C13.8423 22 15.0177 21.1053 15.316 19.7018L15.3511 19.5439C15.4037 19.2807 15.4563 19.2281 15.7721 19.0526C15.9125 18.9825 16.1054 18.8772 16.2458 18.7895C16.544 18.614 16.6142 18.5965 16.8774 18.6842L17.2984 18.807C18.3861 19.1404 19.6844 18.6842 20.4212 17.4035L20.9125 16.5789C21.5967 15.3684 21.3686 13.9474 20.3511 13L20.2107 12.8596C19.9826 12.6491 19.9826 12.614 20.0002 12.2807C20.0002 12.1053 20.0002 11.9123 20.0002 11.7368C19.9826 11.386 20.0002 11.3333 20.2107 11.1228L20.544 10.8246C21.3861 10.0351 21.6318 8.68421 20.8949 7.42105L20.4388 6.59649C19.737 5.36842 18.3511 4.85965 17.0353 5.2807L16.8598 5.31579C16.6142 5.40351 16.5265 5.38596 16.2283 5.21053C16.0704 5.10526 15.9125 5.01754 15.8072 4.94737C15.4563 4.75439 15.4037 4.7193 15.3511 4.45614L15.2633 4.01754C15.0177 2.89474 13.9476 2 12.4563 2H11.544C10.1581 2 8.98264 2.89474 8.68439 4.29825L8.64931 4.47368C8.59667 4.70175 8.54404 4.77193 8.21071 4.94737C8.10545 5.01754 7.91246 5.12281 7.77211 5.21053C7.49141 5.38596 7.40369 5.40351 7.14053 5.33333L6.73703 5.19298C5.61422 4.84211 4.31597 5.31579 3.57913 6.59649L3.0879 7.42105ZM9.00018 12C9.00018 10.3333 10.3335 9 12.0002 9C13.6669 9 15.0002 10.3333 15.0002 12C15.0002 13.6667 13.6669 15 12.0002 15C10.3335 15 9.00018 13.6667 9.00018 12Z" fill="#333333"/>
</svg>
