<svg width="24" height="24" viewBox="0 0 24 24" fill="none" xmlns="http://www.w3.org/2000/svg">
<path d="M3.08766 7.42105C2.40345 8.63158 2.63152 10.0526 3.64906 11L3.78941 11.1404C4.01748 11.3509 4.01748 11.386 3.99994 11.7193C3.99994 11.8947 3.99994 12.0877 3.99994 12.2632C4.01748 12.614 3.99994 12.6667 3.78941 12.8772L3.45608 13.1754C2.61397 13.9649 2.36836 15.3158 3.1052 16.5789L3.56134 17.4035C4.2631 18.6316 5.64906 19.1404 6.96485 18.7193L7.14029 18.6842C7.40345 18.5965 7.47362 18.614 7.77187 18.7895C7.91222 18.8947 8.07012 18.9825 8.22801 19.0526C8.5438 19.2281 8.59643 19.2982 8.66661 19.5789L8.75433 19.9825C9.01748 21.0877 10.0526 22 11.5438 22H12.4561C13.842 22 15.0175 21.1053 15.3157 19.7018L15.3508 19.5439C15.4034 19.2807 15.4561 19.2281 15.7719 19.0526C15.9122 18.9825 16.1052 18.8772 16.2456 18.7895C16.5438 18.614 16.614 18.5965 16.8771 18.6842L17.2982 18.807C18.3859 19.1404 19.6842 18.6842 20.421 17.4035L20.9122 16.5789C21.5964 15.3684 21.3684 13.9474 20.3508 13L20.2105 12.8596C19.9824 12.6491 19.9824 12.614 19.9999 12.2807C19.9999 12.1053 19.9999 11.9123 19.9999 11.7368C19.9824 11.386 19.9999 11.3333 20.2105 11.1228L20.5438 10.8246C21.3859 10.0351 21.6315 8.68421 20.8947 7.42105L20.4385 6.59649C19.7368 5.36842 18.3508 4.85965 17.035 5.2807L16.8596 5.31579C16.614 5.40351 16.5263 5.38596 16.228 5.21053C16.0701 5.10526 15.9122 5.01754 15.807 4.94737C15.4561 4.75439 15.4034 4.7193 15.3508 4.45614L15.2631 4.01754C15.0175 2.89474 13.9473 2 12.4561 2H11.5438C10.1578 2 8.9824 2.89474 8.68415 4.29825L8.64906 4.47368C8.59643 4.70175 8.5438 4.77193 8.21047 4.94737C8.1052 5.01754 7.91222 5.12281 7.77187 5.21053C7.49117 5.38596 7.40345 5.40351 7.14029 5.33333L6.73678 5.19298C5.61397 4.84211 4.31573 5.31579 3.57889 6.59649L3.08766 7.42105ZM8.99994 12C8.99994 10.3333 10.3333 9 11.9999 9C13.6666 9 14.9999 10.3333 14.9999 12C14.9999 13.6667 13.6666 15 11.9999 15C10.3333 15 8.99994 13.6667 8.99994 12Z" fill="#333333"/>
</svg>
