<svg width="24" height="24" viewBox="0 0 24 24" fill="none" xmlns="http://www.w3.org/2000/svg">
<path d="M4 5.64902C4 5.27475 4.09942 4.92972 4.29825 4.61393C4.50877 4.29814 4.78947 4.05837 5.14035 3.89463L11.2632 1.22796C11.5088 1.1227 11.7544 1.07007 12 1.07007C12.2573 1.07007 12.4971 1.1227 12.7193 1.22796L18.8596 3.85954C19.2222 4.01159 19.5029 4.24551 19.7018 4.5613C19.9006 4.86539 20 5.21042 20 5.59638V11.9999C20 13.0408 19.8012 14.0525 19.4035 15.035C19.0058 16.0174 18.4211 16.8888 17.6491 17.649L14.8596 20.4385C14.3333 20.9765 13.7251 21.3449 13.0351 21.5438C12.345 21.7309 11.655 21.7309 10.9649 21.5438C10.2865 21.3449 9.67836 20.9765 9.14035 20.4385L6.35088 17.649C5.57895 16.8888 4.99415 16.0174 4.59649 15.035C4.19883 14.0525 4 13.0408 4 11.9999V5.64902ZM8 10.9999C8 11.2689 8.09942 11.5028 8.29825 11.7016C8.49708 11.9005 8.73099 11.9999 9 11.9999H11V13.9999C11 14.2689 11.0994 14.5028 11.2982 14.7016C11.4971 14.9005 11.731 14.9999 12 14.9999C12.2807 14.9999 12.5146 14.9005 12.7018 14.7016C12.9006 14.5028 13 14.2689 13 13.9999V11.9999H15C15.2807 11.9999 15.5146 11.9005 15.7018 11.7016C15.9006 11.5028 16 11.2689 16 10.9999C16 10.7192 15.9006 10.4853 15.7018 10.2981C15.5146 10.0993 15.2807 9.99989 15 9.99989H13V7.99989C13 7.71919 12.9006 7.48527 12.7018 7.29814C12.5146 7.09931 12.2807 6.99989 12 6.99989C11.731 6.99989 11.4971 7.09931 11.2982 7.29814C11.0994 7.48527 11 7.71919 11 7.99989V9.99989H9C8.73099 9.99989 8.49708 10.0993 8.29825 10.2981C8.09942 10.4853 8 10.7192 8 10.9999Z" fill="#333333"/>
</svg>
