<svg width="24" height="24" viewBox="0 0 24 24" fill="none" xmlns="http://www.w3.org/2000/svg">
<path d="M4 5.64902C4 5.27475 4.09942 4.92972 4.29825 4.61393C4.50877 4.29814 4.78947 4.05837 5.14035 3.89463L11.2632 1.22796C11.5088 1.1227 11.7544 1.07007 12 1.07007C12.2573 1.07007 12.4971 1.1227 12.7193 1.22796L18.8596 3.85954C19.2222 4.01159 19.5029 4.24551 19.7018 4.5613C19.9006 4.86539 20 5.21042 20 5.59638V11.9999C20 13.0408 19.8012 14.0525 19.4035 15.035C19.0058 16.0174 18.4211 16.8888 17.6491 17.649L14.8596 20.4385C14.3333 20.9765 13.7251 21.3449 13.0351 21.5438C12.345 21.7309 11.655 21.7309 10.9649 21.5438C10.2865 21.3449 9.67836 20.9765 9.14035 20.4385L6.35088 17.649C5.57895 16.8888 4.99415 16.0174 4.59649 15.035C4.19883 14.0525 4 13.0408 4 11.9999V5.64902ZM8 10.9999C8 11.2806 8.09942 11.5145 8.29825 11.7016L10.193 13.5964C10.4152 13.8069 10.6842 13.9122 11 13.9122C11.3275 13.9122 11.5965 13.8069 11.807 13.5964L15.7193 9.70165C15.9181 9.51451 16.0175 9.28059 16.0175 8.99989C16.0175 8.71919 15.9181 8.48527 15.7193 8.29814C15.5322 8.09931 15.2982 7.99989 15.0175 7.99989C14.7368 7.99989 14.5029 8.09931 14.3158 8.29814L11 11.5964L9.70175 10.2981C9.52632 10.0993 9.2924 9.99989 9 9.99989C8.73099 9.99989 8.49708 10.0993 8.29825 10.2981C8.09942 10.4853 8 10.7192 8 10.9999Z" fill="#333333"/>
</svg>
