<svg width="24" height="24" viewBox="0 0 24 24" fill="none" xmlns="http://www.w3.org/2000/svg">
<path d="M4 5.64902C4 5.27475 4.09942 4.92972 4.29825 4.61393C4.50877 4.29814 4.78947 4.05837 5.14035 3.89463L11.2632 1.22796C11.5088 1.1227 11.7544 1.07007 12 1.07007C12.2573 1.07007 12.4971 1.1227 12.7193 1.22796L18.8596 3.85954C19.2222 4.01159 19.5029 4.24551 19.7018 4.5613C19.9006 4.86539 20 5.21042 20 5.59638V11.9999C20 13.0408 19.8012 14.0525 19.4035 15.035C19.0058 16.0174 18.4211 16.8888 17.6491 17.649L14.8596 20.4385C14.3333 20.9765 13.7251 21.3449 13.0351 21.5438C12.345 21.7309 11.655 21.7309 10.9649 21.5438C10.2865 21.3449 9.67836 20.9765 9.14035 20.4385L6.35088 17.649C5.57895 16.8888 4.99415 16.0174 4.59649 15.035C4.19883 14.0525 4 13.0408 4 11.9999V5.64902ZM10.6667 7.66656C10.6667 8.02913 10.7953 8.34492 11.0526 8.61393C11.3216 8.87124 11.6374 8.99989 12 8.99989C12.3626 8.99989 12.6725 8.87124 12.9298 8.61393C13.1988 8.34492 13.3333 8.02913 13.3333 7.66656C13.3333 7.30399 13.1988 6.99404 12.9298 6.73673C12.6725 6.46773 12.3626 6.33323 12 6.33323C11.6374 6.33323 11.3216 6.46773 11.0526 6.73673C10.7953 6.99404 10.6667 7.30399 10.6667 7.66656ZM11 14.9999C11 15.2689 11.0994 15.5028 11.2982 15.7016C11.4971 15.9005 11.731 15.9999 12 15.9999C12.2807 15.9999 12.5146 15.9005 12.7018 15.7016C12.9006 15.5028 13 15.2689 13 14.9999V10.9999C13 10.7192 12.9006 10.4853 12.7018 10.2981C12.5146 10.0993 12.2807 9.99989 12 9.99989C11.731 9.99989 11.4971 10.0993 11.2982 10.2981C11.0994 10.4853 11 10.7192 11 10.9999V14.9999Z" fill="#333333"/>
</svg>
