<svg width="24" height="24" viewBox="0 0 24 24" fill="none" xmlns="http://www.w3.org/2000/svg">
<path d="M4 5.64902C4 5.27475 4.09942 4.92972 4.29825 4.61393C4.50877 4.29814 4.78947 4.05837 5.14035 3.89463L11.2632 1.22796C11.5088 1.1227 11.7544 1.07007 12 1.07007C12.2573 1.07007 12.4971 1.1227 12.7193 1.22796L18.8596 3.85954C19.2222 4.01159 19.5029 4.24551 19.7018 4.5613C19.9006 4.86539 20 5.21042 20 5.59638V11.9999C20 13.0408 19.8012 14.0525 19.4035 15.035C19.0058 16.0174 18.4211 16.8888 17.6491 17.649L14.8596 20.4385C14.3333 20.9765 13.7251 21.3449 13.0351 21.5438C12.345 21.7309 11.655 21.7309 10.9649 21.5438C10.2865 21.3449 9.67836 20.9765 9.14035 20.4385L6.35088 17.649C5.57895 16.8888 4.99415 16.0174 4.59649 15.035C4.19883 14.0525 4 13.0408 4 11.9999V5.64902ZM9 12.9999C9 13.2689 9.09942 13.5028 9.29825 13.7016C9.49708 13.9005 9.73099 13.9999 10 13.9999C10.2924 13.9999 10.5263 13.9005 10.7018 13.7016L12 12.4209L13.2982 13.7016C13.4854 13.9005 13.7193 13.9999 14 13.9999C14.2807 13.9999 14.5146 13.9005 14.7018 13.7016C14.9006 13.5028 15 13.2689 15 12.9999C15 12.7075 14.9006 12.4736 14.7018 12.2981L13.4211 10.9999L14.7018 9.70165C14.9006 9.51451 15 9.28059 15 8.99989C15 8.71919 14.9006 8.48527 14.7018 8.29814C14.5146 8.09931 14.2807 7.99989 14 7.99989C13.7193 7.99989 13.4854 8.09931 13.2982 8.29814L12 9.57884L10.7018 8.29814C10.5263 8.09931 10.2924 7.99989 10 7.99989C9.73099 7.99989 9.49708 8.09931 9.29825 8.29814C9.09942 8.48527 9 8.71919 9 8.99989C9 9.28059 9.09942 9.51451 9.29825 9.70165L10.5789 10.9999L9.29825 12.2981C9.09942 12.4736 9 12.7075 9 12.9999Z" fill="#333333"/>
</svg>
