<svg width="24" height="24" viewBox="0 0 24 24" fill="none" xmlns="http://www.w3.org/2000/svg">
<path d="M3 5C3 4.7193 3.09942 4.48538 3.29825 4.29824C3.49708 4.09941 3.73099 4 4 4C4.2807 4 4.51462 4.09941 4.70175 4.29824C4.90058 4.48538 5 4.7193 5 5V19C5 19.269 4.90058 19.5029 4.70175 19.7018C4.51462 19.9006 4.2807 20 4 20C3.73099 20 3.49708 19.9006 3.29825 19.7018C3.09942 19.5029 3 19.269 3 19V5ZM15.7018 17.7018C15.5263 17.9006 15.2924 18 15 18C14.731 18 14.4971 17.9006 14.2982 17.7018C14.0994 17.5029 14 17.269 14 17C14 16.7076 14.0994 16.4737 14.2982 16.2982L19.193 11.4035C19.2515 11.345 19.2924 11.4327 19.3158 11.6667C19.3392 11.8889 19.3392 12.117 19.3158 12.3509C19.2924 12.5731 19.2515 12.655 19.193 12.5965L14.2982 7.70175C14.0994 7.51462 14 7.2807 14 7C14 6.7193 14.0994 6.48538 14.2982 6.29825C14.4971 6.09941 14.731 6 15 6C15.2924 6 15.5263 6.09941 15.7018 6.29825L20.5965 11.193C20.8187 11.4035 20.9298 11.6725 20.9298 12C20.9298 12.3158 20.8187 12.5848 20.5965 12.807L15.7018 17.7018ZM20 11C20.2807 11 20.5146 11.0994 20.7018 11.2982C20.9006 11.4854 21 11.7193 21 12C21 12.269 20.9006 12.5029 20.7018 12.7018C20.5146 12.9006 20.2807 13 20 13H8C7.73099 13 7.49708 12.9006 7.29825 12.7018C7.09941 12.5029 7 12.269 7 12C7 11.7193 7.09941 11.4854 7.29825 11.2982C7.49708 11.0994 7.73099 11 8 11H20Z" fill="#333333"/>
</svg>
