<svg width="24" height="24" viewBox="0 0 24 24" fill="none" xmlns="http://www.w3.org/2000/svg">
<path d="M10.4213 3.42106L8.49144 7.33334C8.38618 7.54387 8.38618 7.54387 8.14056 7.57896L3.8774 8.19299C2.45635 8.38597 1.8774 10.1579 2.89495 11.193L6.00021 14.2281C6.17565 14.4035 6.17565 14.4035 6.14056 14.6491L5.40372 18.8947C5.1581 20.3333 6.70196 21.4562 7.96512 20.7544L11.7897 18.7369C12.0002 18.6316 12.0002 18.6316 12.2107 18.7369L16.0353 20.7544C17.2985 21.4562 18.8423 20.3333 18.5967 18.8947L17.8599 14.6491C17.8248 14.386 17.8248 14.386 18.0002 14.2281L21.1055 11.193C22.123 10.1579 21.5441 8.38597 20.123 8.19299L15.8599 7.57896C15.6142 7.54387 15.6142 7.54387 15.509 7.33334L13.5792 3.42106C12.9125 2.1579 11.0879 2.1579 10.4213 3.42106Z" fill="#333333"/>
</svg>
