<svg width="24" height="24" viewBox="0 0 24 24" fill="none" xmlns="http://www.w3.org/2000/svg">
<path d="M16 11H19.8596C20.5088 11 21 10.5087 21 9.85962V5.99997C21 5.45611 20.5439 4.99997 20 4.99997C19.4561 4.99997 19 5.45611 19 5.99997V9.85962C19 10.0877 20.0877 8.99997 19.8596 8.99997H16C15.4561 8.99997 15 9.45611 15 9.99997C15 10.5438 15.4561 11 16 11ZM5 18V14.1403C5 13.9123 3.91228 15 4.14035 15H8C8.54386 15 9 14.5438 9 14C9 13.4561 8.54386 13 8 13H4.14035C3.49123 13 3 13.4912 3 14.1403V18C3 18.5438 3.45614 19 4 19C4.54386 19 5 18.5438 5 18ZM3.42105 14.8421L6.22807 17.7544C7.66667 19.2456 9.75439 20.1403 12 20.1403C15.2632 20.1403 18.1053 18.193 19.4035 15.421C19.4561 15.2982 19.4912 15.1579 19.4912 15C19.4912 14.4561 19.0351 14 18.4912 14C18.0877 14 17.7368 14.228 17.5789 14.5789C16.5614 16.7719 14.5439 18.1403 12 18.1403C10.2281 18.1403 8.78947 17.5263 7.66667 16.3508L4.85965 13.4386L3.42105 14.8421ZM20.5789 9.15786L17.7719 6.24558C16.3333 4.75436 14.2456 3.85962 12 3.85962C8.73684 3.85962 5.89474 5.80699 4.59649 8.57892C4.54386 8.70172 4.50877 8.84208 4.50877 8.99997C4.50877 9.54383 4.96491 9.99997 5.50877 9.99997C5.91228 9.99997 6.26316 9.7719 6.42105 9.42102C7.4386 7.22804 9.45614 5.85962 12 5.85962C13.7719 5.85962 15.2105 6.47365 16.3333 7.64909L19.1404 10.5614C19.3158 10.7368 19.5789 10.8596 19.8596 10.8596C20.4035 10.8596 20.8596 10.4035 20.8596 9.85962C20.8596 9.59646 20.7544 9.35085 20.5789 9.15786Z" fill="#333333"/>
</svg>
