<svg width="24" height="24" viewBox="0 0 24 24" fill="none" xmlns="http://www.w3.org/2000/svg">
<path d="M18.3509 17.9474C18.5965 18.193 18.7193 18.4795 18.7193 18.807C18.7193 19.1345 18.6023 19.4152 18.3684 19.6491C18.1462 19.883 17.8596 20 17.5088 20H5.14035C4.83626 20 4.56725 19.8889 4.33333 19.6667C4.11111 19.4327 4 19.1637 4 18.8596V6.49122C4 6.14035 4.11696 5.8538 4.35088 5.63158C4.58479 5.39766 4.8655 5.2807 5.19298 5.2807C5.52047 5.2807 5.80702 5.4035 6.05263 5.64912L8.66667 8.24561L13.5263 3.4035C13.7485 3.18128 14.0175 3.07017 14.3333 3.07017C14.6491 3.05848 14.9181 3.16959 15.1404 3.4035L20.5965 8.85965C20.8187 9.07017 20.9298 9.33918 20.9298 9.66666C20.9298 9.98245 20.8187 10.2515 20.5965 10.4737L15.7544 15.3333L18.3509 17.9474Z" fill="#333333"/>
</svg>
