<svg width="24" height="24" viewBox="0 0 24 24" fill="none" xmlns="http://www.w3.org/2000/svg">
<path d="M3.49123 13.3334C3.14035 13.3334 2.8538 13.2164 2.63158 12.9825C2.40936 12.7486 2.2924 12.4679 2.2807 12.1404C2.2807 11.8129 2.40351 11.5264 2.64912 11.2808L11.193 2.7369C11.4152 2.51468 11.6842 2.40356 12 2.40356C12.3275 2.40356 12.5965 2.51468 12.807 2.7369L21.3509 11.2808C21.5965 11.5264 21.7193 11.8129 21.7193 12.1404C21.7193 12.4679 21.6023 12.7486 21.3684 12.9825C21.1462 13.2164 20.8596 13.3334 20.5088 13.3334H16.1403C16.0585 13.3334 16.0936 13.2457 16.2456 13.0702C16.3977 12.8831 16.5614 12.7194 16.7368 12.579C16.9123 12.427 17 12.3919 17 12.4737V20.193C17 20.4971 16.8889 20.7661 16.6667 21.0001C16.4444 21.2223 16.1754 21.3334 15.8596 21.3334H8.14035C7.83626 21.3334 7.56725 21.2223 7.33333 21.0001C7.11111 20.7661 7 20.4971 7 20.193V12.4737C7 12.3919 7.08772 12.427 7.26316 12.579C7.45029 12.7194 7.61403 12.8831 7.75438 13.0702C7.90643 13.2457 7.94152 13.3334 7.85965 13.3334H3.49123Z" fill="#333333"/>
</svg>
