<svg width="24" height="24" viewBox="0 0 24 24" fill="none" xmlns="http://www.w3.org/2000/svg">
<path d="M2.64918 13.5263C2.40357 13.2807 2.28076 12.9941 2.28076 12.6666C2.29246 12.3391 2.40942 12.0584 2.63164 11.8245C2.85386 11.5906 3.14041 11.4736 3.49129 11.4736H7.85971C7.94158 11.4736 7.90649 11.5614 7.75445 11.7368C7.6141 11.9122 7.45035 12.076 7.26322 12.228C7.08778 12.3801 7.00006 12.4152 7.00006 12.3333V4.61398C7.00006 4.29819 7.11117 4.02919 7.33339 3.80697C7.56731 3.58474 7.83632 3.47363 8.14041 3.47363H15.8597C16.1755 3.47363 16.4445 3.58474 16.6667 3.80697C16.8889 4.02919 17.0001 4.29819 17.0001 4.61398V12.3333C17.0001 12.4152 16.9123 12.3801 16.7369 12.228C16.5615 12.076 16.3977 11.9122 16.2457 11.7368C16.0936 11.5614 16.0585 11.4736 16.1404 11.4736H20.5088C20.8597 11.4736 21.1463 11.5906 21.3685 11.8245C21.6024 12.0584 21.7194 12.3391 21.7194 12.6666C21.7194 12.9941 21.5966 13.2807 21.3509 13.5263L12.8071 22.0701C12.5849 22.2923 12.3158 22.4035 12.0001 22.4035C11.6843 22.4035 11.4153 22.2923 11.193 22.0701L2.64918 13.5263Z" fill="#333333"/>
</svg>
