<svg width="24" height="24" viewBox="0 0 24 24" fill="none" xmlns="http://www.w3.org/2000/svg">
<path d="M17.5088 4C17.8596 4 18.1462 4.11696 18.3684 4.35088C18.6023 4.58479 18.7193 4.8655 18.7193 5.19298C18.7193 5.52047 18.5965 5.80702 18.3509 6.05263L15.7544 8.66667L20.5965 13.5263C20.8187 13.7368 20.9298 14.0058 20.9298 14.3333C20.9298 14.6491 20.8187 14.9181 20.5965 15.1404L15.1404 20.5965C14.9181 20.8187 14.6491 20.9298 14.3333 20.9298C14.0175 20.9298 13.7485 20.8187 13.5263 20.5965L8.66667 15.7544L6.05263 18.3509C5.80702 18.5965 5.52047 18.7193 5.19298 18.7193C4.8655 18.7076 4.58479 18.5906 4.35088 18.3684C4.11696 18.1462 4 17.8596 4 17.5088V5.14035C4 4.82456 4.11111 4.55555 4.33333 4.33333C4.56725 4.11111 4.83626 4 5.14035 4H17.5088Z" fill="#333333"/>
</svg>
