<svg width="24" height="24" viewBox="0 0 24 24" fill="none" xmlns="http://www.w3.org/2000/svg">
<path d="M5.64914 6.05263C5.40352 5.80702 5.28072 5.52047 5.28072 5.19298C5.29241 4.8655 5.40937 4.58479 5.63159 4.35088C5.85382 4.11696 6.14037 4 6.49124 4H18.8597C19.1755 4 19.4445 4.11111 19.6667 4.33333C19.8889 4.55555 20 4.82456 20 5.14035V17.5088C20 17.8596 19.8831 18.1462 19.6491 18.3684C19.4152 18.5906 19.1345 18.7076 18.807 18.7193C18.4795 18.7193 18.193 18.5965 17.9474 18.3509L15.3333 15.7544L10.4737 20.5965C10.2515 20.8187 9.98247 20.9298 9.66668 20.9298C9.35089 20.9298 9.08189 20.8187 8.85966 20.5965L3.40352 15.1404C3.1813 14.9181 3.07019 14.6491 3.07019 14.3333C3.07019 14.0175 3.1813 13.7485 3.40352 13.5263L8.24563 8.66667L5.64914 6.05263Z" fill="#333333"/>
</svg>
