<svg width="24" height="24" viewBox="0 0 24 24" fill="none" xmlns="http://www.w3.org/2000/svg">
<path d="M6.49128 20C6.1404 20 5.85385 19.883 5.63163 19.6491C5.40941 19.4152 5.29245 19.1345 5.28075 18.807C5.28075 18.4795 5.40356 18.193 5.64917 17.9474L8.24566 15.3333L3.40356 10.4737C3.19303 10.2515 3.08777 9.98245 3.08777 9.66666C3.08777 9.33918 3.19303 9.07017 3.40356 8.85965L8.8597 3.4035C9.08192 3.18128 9.35093 3.07017 9.66672 3.07017C9.98251 3.05848 10.2515 3.16959 10.4737 3.4035L15.3334 8.24561L17.9474 5.64912C18.193 5.4035 18.4796 5.2807 18.8071 5.2807C19.1346 5.2807 19.4153 5.39766 19.6492 5.63158C19.8831 5.8538 20 6.14035 20 6.49122V18.8596C20 19.1637 19.8889 19.4327 19.6667 19.6667C19.4445 19.8889 19.1755 20 18.8597 20H6.49128Z" fill="#333333"/>
</svg>
