<svg width="24" height="24" viewBox="0 0 24 24" fill="none" xmlns="http://www.w3.org/2000/svg">
<path d="M11 3.49129C11 3.14041 11.117 2.85386 11.3509 2.63164C11.5848 2.39772 11.8655 2.28076 12.193 2.28076C12.5205 2.28076 12.807 2.40357 13.0526 2.64918L21.5965 11.193C21.8187 11.4036 21.9298 11.6726 21.9298 12.0001C21.9298 12.3158 21.8187 12.5849 21.5965 12.8071L13.0526 21.3509C12.807 21.5966 12.5205 21.7194 12.193 21.7194C11.8655 21.7077 11.5848 21.5907 11.3509 21.3685C11.117 21.1463 11 20.8597 11 20.5088V16.1404C11 16.0585 11.0877 16.0936 11.2632 16.2457C11.4503 16.386 11.614 16.5498 11.7544 16.7369C11.9064 16.9123 11.9415 17.0001 11.8596 17.0001H4.14035C3.83626 17.0001 3.56725 16.8889 3.33333 16.6667C3.11111 16.4328 3 16.1638 3 15.8597V8.14041C3 7.82462 3.11111 7.55561 3.33333 7.33339C3.56725 7.11117 3.83626 7.00006 4.14035 7.00006H11.8596C11.9415 7.00006 11.9064 7.08778 11.7544 7.26322C11.614 7.43866 11.4503 7.6024 11.2632 7.75445C11.0877 7.90649 11 7.94158 11 7.85971V3.49129Z" fill="#333333"/>
</svg>
