<svg width="12" height="24" viewBox="0 0 12 24" fill="none" xmlns="http://www.w3.org/2000/svg">
<path d="M5.29825 15.7018C5.09942 15.5146 5 15.2807 5 15C5 14.7193 5.09942 14.4854 5.29825 14.2982C5.49708 14.0994 5.73099 14 6 14C6.2924 14 6.52632 14.0994 6.70175 14.2982L9.70175 17.2982C9.90058 17.4737 10 17.7076 10 18C10 18.269 9.90058 18.5029 9.70175 18.7018C9.51462 18.9006 9.2807 19 9 19C8.7193 19 8.48538 18.9006 8.29825 18.7018L5.29825 15.7018ZM6.70175 8.29825C6.90058 8.47368 7 8.7076 7 9C7 9.26901 6.90058 9.50292 6.70175 9.70176C6.51462 9.90059 6.2807 10 6 10C5.7193 10 5.48538 9.90059 5.29825 9.70176L2.29825 6.70176C2.09942 6.51462 2 6.2807 2 6C2 5.7193 2.09942 5.48538 2.29825 5.29825C2.49708 5.09942 2.73099 5 3 5C3.2924 5 3.52632 5.09942 3.70175 5.29825L6.70175 8.29825ZM3.70175 18.7018C3.52632 18.9006 3.2924 19 3 19C2.73099 19 2.49708 18.9006 2.29825 18.7018C2.09942 18.5029 2 18.269 2 18C2 17.7076 2.09942 17.4737 2.29825 17.2982L5.29825 14.2982C5.48538 14.0994 5.7193 14 6 14C6.2807 14 6.51462 14.0994 6.70175 14.2982C6.90058 14.4854 7 14.7193 7 15C7 15.2807 6.90058 15.5146 6.70175 15.7018L3.70175 18.7018ZM8.29825 5.29825C8.48538 5.09942 8.7193 5 9 5C9.2807 5 9.51462 5.09942 9.70175 5.29825C9.90058 5.48538 10 5.7193 10 6C10 6.2807 9.90058 6.51462 9.70175 6.70176L6.70175 9.70176C6.52632 9.90059 6.2924 10 6 10C5.73099 10 5.49708 9.90059 5.29825 9.70176C5.09942 9.50292 5 9.26901 5 9C5 8.7076 5.09942 8.47368 5.29825 8.29825L8.29825 5.29825Z" fill="#333333"/>
</svg>
