<svg width="24" height="24" viewBox="0 0 24 24" fill="none" xmlns="http://www.w3.org/2000/svg">
<path d="M11.0016 7.99501V11.995C11.0016 12.5389 11.4577 12.995 12.0016 12.995C12.5455 12.995 13.0016 12.5389 13.0016 11.995V7.99501C13.0016 7.45115 12.5455 6.99501 12.0016 6.99501C11.4577 6.99501 11.0016 7.45115 11.0016 7.99501ZM11.2998 12.6968L14.2998 15.6968C14.4753 15.8897 14.7209 15.995 15.0016 15.995C15.5455 15.995 16.0016 15.5389 16.0016 14.995C16.0016 14.7143 15.8963 14.4687 15.7033 14.2933L12.7033 11.2933C12.5279 11.1003 12.2823 10.995 12.0016 10.995C11.4577 10.995 11.0016 11.4512 11.0016 11.995C11.0016 12.2757 11.1069 12.5213 11.2998 12.6968ZM21.0016 14.995V11.995C21.0016 10.0301 20.3525 8.08273 19.1419 6.50378C17.949 4.94238 16.2297 3.81957 14.3349 3.3108C12.4226 2.80203 10.3876 2.92484 8.54545 3.67922C6.73843 4.43361 5.19457 5.78448 4.21212 7.50378C3.21212 9.22308 2.82615 11.2231 3.07177 13.1704C3.33492 15.1354 4.24721 16.9599 5.65071 18.3459C7.03668 19.7494 8.86124 20.6617 10.8262 20.9248C12.7735 21.1705 14.7735 20.7845 16.4928 19.7845C16.7911 19.6266 17.0016 19.2933 17.0016 18.9248C17.0016 18.381 16.5455 17.9248 16.0016 17.9248C15.8262 17.9248 15.6507 17.9775 15.5104 18.0652C14.1244 18.8547 12.6683 19.1354 11.0718 18.9248C9.51036 18.7319 8.19457 18.0652 7.05422 16.9424C5.93142 15.802 5.26475 14.4862 5.07177 12.9248C4.86124 11.3283 5.14194 9.8722 5.93142 8.48624C6.73843 7.11782 7.8437 6.13536 9.31738 5.53887C10.7911 4.90729 12.2648 4.81957 13.8086 5.24063C15.3525 5.66168 16.5981 6.4687 17.563 7.73185C18.5279 8.99501 19.0016 10.3985 19.0016 11.995V14.995C19.0016 15.5389 19.4577 15.995 20.0016 15.995C20.5455 15.995 21.0016 15.5389 21.0016 14.995ZM20.7033 14.2933L18.7033 12.2933C18.5279 12.1003 18.2823 11.995 18.0016 11.995C17.4577 11.995 17.0016 12.4512 17.0016 12.995C17.0016 13.2757 17.1069 13.5213 17.2998 13.6968L19.2998 15.6968C19.4753 15.8897 19.7209 15.995 20.0016 15.995C20.5455 15.995 21.0016 15.5389 21.0016 14.995C21.0016 14.7143 20.8963 14.4687 20.7033 14.2933ZM21.2998 12.2933L19.2998 14.2933C19.1069 14.4687 19.0016 14.7143 19.0016 14.995C19.0016 15.5389 19.4577 15.995 20.0016 15.995C20.2823 15.995 20.5279 15.8897 20.7033 15.6968L22.7033 13.6968C22.8963 13.5213 23.0016 13.2757 23.0016 12.995C23.0016 12.4512 22.5455 11.995 22.0016 11.995C21.7209 11.995 21.4753 12.1003 21.2998 12.2933Z" fill="#333333"/>
</svg>
