<svg width="24" height="24" viewBox="0 0 24 24" fill="none" xmlns="http://www.w3.org/2000/svg">
<path d="M3 5.01754C3 4.45614 3.19298 3.98246 3.57895 3.59649C3.97661 3.19883 4.45614 3 5.01754 3H8.98246C9.54386 3 10.0175 3.19883 10.4035 3.59649C10.8012 3.98246 11 4.45614 11 5.01754V8.98246C11 9.54386 10.8012 10.0234 10.4035 10.4211C10.0175 10.807 9.54386 11 8.98246 11H5.01754C4.45614 11 3.97661 10.807 3.57895 10.4211C3.19298 10.0234 3 9.54386 3 8.98246V5.01754ZM13 5.01754C13 4.45614 13.193 3.98246 13.5789 3.59649C13.9766 3.19883 14.4561 3 15.0175 3H18.9825C19.5439 3 20.0175 3.19883 20.4035 3.59649C20.8012 3.98246 21 4.45614 21 5.01754V8.98246C21 9.54386 20.8012 10.0234 20.4035 10.4211C20.0175 10.807 19.5439 11 18.9825 11H15.0175C14.4561 11 13.9766 10.807 13.5789 10.4211C13.193 10.0234 13 9.54386 13 8.98246V5.01754ZM3 15.0175C3 14.4561 3.19298 13.9825 3.57895 13.5965C3.97661 13.1988 4.45614 13 5.01754 13H8.98246C9.54386 13 10.0175 13.1988 10.4035 13.5965C10.8012 13.9825 11 14.4561 11 15.0175V18.9825C11 19.5439 10.8012 20.0234 10.4035 20.4211C10.0175 20.807 9.54386 21 8.98246 21H5.01754C4.45614 21 3.97661 20.807 3.57895 20.4211C3.19298 20.0234 3 19.5439 3 18.9825V15.0175ZM13 15.0175C13 14.4561 13.193 13.9825 13.5789 13.5965C13.9766 13.1988 14.4561 13 15.0175 13H18.9825C19.5439 13 20.0175 13.1988 20.4035 13.5965C20.8012 13.9825 21 14.4561 21 15.0175V18.9825C21 19.5439 20.8012 20.0234 20.4035 20.4211C20.0175 20.807 19.5439 21 18.9825 21H15.0175C14.4561 21 13.9766 20.807 13.5789 20.4211C13.193 20.0234 13 19.5439 13 18.9825V15.0175Z" fill="#333333"/>
</svg>
