<svg width="24" height="24" viewBox="0 0 24 24" fill="none" xmlns="http://www.w3.org/2000/svg">
<path d="M5 16.9474C5 17.6257 5.16959 18.1404 5.50877 18.4912C5.85965 18.8304 6.37427 19 7.05263 19H16.9474C17.6257 19 18.1345 18.8304 18.4737 18.4912C18.8246 18.1404 19 17.6257 19 16.9474V7.05263C19 6.37427 18.8246 5.8655 18.4737 5.52632C18.1345 5.17544 17.6257 5 16.9474 5H7.05263C6.37427 5 5.85965 5.17544 5.50877 5.52632C5.16959 5.8655 5 6.37427 5 7.05263V16.9474ZM3 7.05263C3 6.2807 3.17544 5.5848 3.52632 4.96491C3.87719 4.34503 4.36257 3.8655 4.98246 3.52632C5.60234 3.17544 6.2924 3 7.05263 3H16.9474C17.7193 3 18.4152 3.17544 19.0351 3.52632C19.655 3.8655 20.1345 4.34503 20.4737 4.96491C20.8246 5.5848 21 6.2807 21 7.05263V16.9474C21 17.7076 20.8246 18.3977 20.4737 19.0175C20.1345 19.6374 19.655 20.1228 19.0351 20.4737C18.4152 20.8246 17.7193 21 16.9474 21H7.05263C6.2924 21 5.60234 20.8246 4.98246 20.4737C4.36257 20.1228 3.87719 19.6374 3.52632 19.0175C3.17544 18.3977 3 17.7076 3 16.9474V7.05263ZM4 8.33333H20V10.3333H4V8.33333ZM20 15.6667H4V13.6667H20V15.6667ZM13.6667 20V9.33333H15.6667V20H13.6667ZM8.33333 20V9.33333H10.3333V20H8.33333Z" fill="#333333"/>
</svg>
