<svg width="24" height="24" viewBox="0 0 24 24" fill="none" xmlns="http://www.w3.org/2000/svg">
<path d="M1.96497 12C2.29245 10.5848 2.87725 9.30994 3.71935 8.17544C4.57315 7.04094 5.60824 6.11696 6.82461 5.40351L9.98251 8.5614C9.69011 8.72515 9.42111 8.92982 9.17549 9.17544C8.67257 9.67836 8.32754 10.2749 8.1404 10.9649C7.95327 11.655 7.95327 12.345 8.1404 13.0351C8.32754 13.7135 8.67257 14.3099 9.17549 14.8246C9.69011 15.3275 10.2866 15.6725 10.965 15.8596C11.655 16.0468 12.3451 16.0468 13.0351 15.8596C13.7252 15.6725 14.3217 15.3275 14.8246 14.8246C15.0702 14.5789 15.2749 14.3099 15.4387 14.0175L18.8071 17.386C17.8831 18.2164 16.8363 18.8596 15.6667 19.3158C14.4971 19.7719 13.2749 20 12.0001 20C10.4328 20 8.94742 19.6608 7.54391 18.9825C6.1404 18.2924 4.94742 17.3392 3.96497 16.1228C2.99421 14.9064 2.32754 13.5322 1.96497 12ZM8.80707 4.5614C9.83631 4.18714 10.9006 4 12.0001 4C13.579 4 15.0644 4.33918 16.4562 5.01754C17.8597 5.69591 19.0468 6.64328 20.0176 7.85965C21.0001 9.07602 21.6726 10.4561 22.0351 12C21.8597 12.7251 21.6082 13.4152 21.2808 14.0702C20.965 14.7134 20.5848 15.3216 20.1404 15.8947L15.7895 11.5439C15.8012 11.1228 15.7252 10.7018 15.5615 10.2807C15.3977 9.85965 15.1521 9.49123 14.8246 9.17544C14.5088 8.84795 14.1404 8.60234 13.7194 8.4386C13.2983 8.27485 12.8772 8.19883 12.4562 8.21053L8.80707 4.5614ZM21.7018 20.2982C21.9006 20.4737 22.0001 20.7076 22.0001 21C22.0001 21.269 21.9006 21.5029 21.7018 21.7018C21.5147 21.9006 21.2808 22 21.0001 22C20.7194 22 20.4854 21.9006 20.2983 21.7018L2.2983 3.70176C2.09947 3.51462 2.00005 3.2807 2.00005 3C2.00005 2.7193 2.09947 2.48538 2.2983 2.29825C2.49713 2.09942 2.73105 2 3.00005 2C3.29245 2 3.52637 2.09942 3.70181 2.29825L21.7018 20.2982Z" fill="#333333"/>
</svg>
