<svg width="24" height="24" viewBox="0 0 24 24" fill="none" xmlns="http://www.w3.org/2000/svg">
<path d="M2 11.8596C2.2807 10.7251 2.74269 9.66667 3.38596 8.68421C4.02924 7.70175 4.80702 6.85965 5.7193 6.15789C6.60819 5.45614 7.59064 4.92398 8.66667 4.5614C9.75439 4.18713 10.8655 4 12 4C13.1345 4 14.2398 4.18713 15.3158 4.5614C16.4035 4.92398 17.3918 5.45614 18.2807 6.15789C19.193 6.85965 19.9708 7.70175 20.614 8.68421C21.2573 9.66667 21.7193 10.7251 22 11.8596V12.1404C21.7193 13.2749 21.2573 14.3333 20.614 15.3158C19.9708 16.2866 19.193 17.1287 18.2807 17.8421C17.3918 18.5439 16.4035 19.0819 15.3158 19.4561C14.2398 19.8187 13.1345 20 12 20C10.8655 20 9.75439 19.8187 8.66667 19.4561C7.59064 19.0819 6.60819 18.5439 5.7193 17.8421C4.80702 17.1287 4.02924 16.2866 3.38596 15.3158C2.74269 14.3333 2.2807 13.2749 2 12.1404V11.8596ZM8 12C8 12.7134 8.18129 13.3801 8.54386 14C8.90643 14.6082 9.39181 15.0936 10 15.4561C10.6082 15.8187 11.2749 16 12 16C12.7251 16 13.3918 15.8187 14 15.4561C14.6199 15.0936 15.1053 14.6082 15.4561 14C15.8187 13.3918 16 12.7251 16 12C16 11.2749 15.8187 10.6082 15.4561 10C15.1053 9.38012 14.6199 8.89474 14 8.54386C13.3918 8.18129 12.7251 8 12 8C11.2865 8 10.6199 8.18129 10 8.54386C9.39181 8.89474 8.90643 9.38012 8.54386 10C8.18129 10.6082 8 11.2749 8 12ZM10 12C10 11.5906 10.0819 11.2339 10.2456 10.9298C10.4094 10.6257 10.6433 10.3977 10.9474 10.2456C11.2515 10.0819 11.6023 10 12 10C12.4094 10 12.7661 10.0819 13.0702 10.2456C13.3743 10.3977 13.6023 10.6257 13.7544 10.9298C13.9181 11.2339 14 11.5906 14 12C14 12.3977 13.9181 12.7485 13.7544 13.0526C13.6023 13.3567 13.3743 13.5906 13.0702 13.7544C12.7661 13.9181 12.4094 14 12 14C11.6023 14 11.2515 13.9181 10.9474 13.7544C10.6433 13.5906 10.4094 13.3567 10.2456 13.0526C10.0819 12.7485 10 12.3977 10 12Z" fill="#333333"/>
</svg>
