<svg width="24" height="24" viewBox="0 0 24 24" fill="none" xmlns="http://www.w3.org/2000/svg">
<path d="M0 10C0.327485 8.58479 0.912281 7.30994 1.75439 6.17544C2.60819 5.04094 3.64327 4.11696 4.85965 3.40351L8.01754 6.5614C7.72515 6.72515 7.45614 6.92982 7.21053 7.17544C6.7076 7.67836 6.36257 8.27485 6.17544 8.96491C5.9883 9.65497 5.9883 10.345 6.17544 11.0351C6.36257 11.7135 6.7076 12.3099 7.21053 12.8246C7.72515 13.3275 8.32164 13.6725 9 13.8596C9.69006 14.0468 10.3801 14.0468 11.0702 13.8596C11.7602 13.6725 12.3567 13.3275 12.8596 12.8246C13.1053 12.5789 13.3099 12.3099 13.4737 12.0175L16.8421 15.386C15.9181 16.2164 14.8713 16.8596 13.7018 17.3158C12.5322 17.7719 11.3099 18 10.0351 18C8.46784 18 6.98246 17.6608 5.57895 16.9825C4.17544 16.2924 2.98246 15.3392 2 14.1228C1.02924 12.9064 0.362573 11.5322 0 10ZM6.8421 2.5614C7.87134 2.18714 8.93567 2 10.0351 2C11.614 2 13.0994 2.33918 14.4912 3.01754C15.8947 3.69591 17.0819 4.64328 18.0526 5.85965C19.0351 7.07602 19.7076 8.45614 20.0702 10C19.8947 10.7251 19.6433 11.4152 19.3158 12.0702C19 12.7134 18.6199 13.3216 18.1754 13.8947L13.8246 9.54386C13.8363 9.12281 13.7602 8.70175 13.5965 8.2807C13.4327 7.85965 13.1871 7.49123 12.8596 7.17544C12.5439 6.84795 12.1754 6.60234 11.7544 6.4386C11.3333 6.27485 10.9123 6.19883 10.4912 6.21053L6.8421 2.5614ZM19.7368 18.2982C19.9357 18.4737 20.0351 18.7076 20.0351 19C20.0351 19.269 19.9357 19.5029 19.7368 19.7018C19.5497 19.9006 19.3158 20 19.0351 20C18.7544 20 18.5205 19.9006 18.3333 19.7018L0.333333 1.70176C0.134503 1.51462 0.0350877 1.2807 0.0350877 1C0.0350877 0.719299 0.134503 0.485381 0.333333 0.298246C0.532164 0.0994153 0.766082 0 1.03509 0C1.32749 0 1.5614 0.0994153 1.73684 0.298246L19.7368 18.2982Z" fill="#333333"/>
</svg>
