<svg width="24" height="24" viewBox="0 0 24 24" fill="none" xmlns="http://www.w3.org/2000/svg">
<path d="M12 16C12.3626 16 12.6959 16.0936 13 16.2807C13.3041 16.4561 13.5438 16.6959 13.7193 17C13.9064 17.3041 14 17.6374 14 18C14 18.3509 13.9064 18.6842 13.7193 19C13.5438 19.3041 13.3041 19.5497 13 19.7368C12.6959 19.9123 12.3626 20 12 20C11.6491 20 11.3158 19.9123 11 19.7368C10.6959 19.5497 10.4503 19.3041 10.2631 19C10.0877 18.6842 9.99999 18.3509 9.99999 18C9.99999 17.6374 10.0877 17.3041 10.2631 17C10.4503 16.6959 10.6959 16.4561 11 16.2807C11.3158 16.0936 11.6491 16 12 16ZM9.14034 15.1754C8.95321 15.3626 8.72514 15.4561 8.45613 15.4561C8.18712 15.4561 7.95321 15.3567 7.75438 15.1579C7.55555 14.9591 7.45613 14.7251 7.45613 14.4561C7.45613 14.1637 7.56139 13.924 7.77192 13.7368C8.35671 13.1637 8.99999 12.7368 9.70174 12.4561C10.4386 12.152 11.2047 12 12 12C12.807 12 13.5731 12.152 14.2982 12.4561C15 12.7368 15.6433 13.1637 16.2281 13.7368C16.4386 13.924 16.5438 14.1637 16.5438 14.4561C16.5438 14.7251 16.4444 14.9591 16.2456 15.1579C16.0585 15.3567 15.8246 15.4561 15.5438 15.4561C15.2748 15.4561 15.0468 15.3626 14.8596 15.1754C14.462 14.8012 14.0175 14.5088 13.5263 14.2982C13.0585 14.0994 12.5497 14 12 14C11.4503 14 10.9415 14.0994 10.4737 14.2982C9.98245 14.5088 9.538 14.8012 9.14034 15.1754ZM6.33332 12.3509C6.1228 12.538 5.88888 12.6316 5.63157 12.6316C5.36256 12.6316 5.12864 12.5322 4.92981 12.3333C4.73098 12.1345 4.63157 11.9006 4.63157 11.6316C4.63157 11.3509 4.73098 11.1111 4.92981 10.9123C5.90057 9.97661 6.98245 9.25731 8.17543 8.75438C9.38011 8.25146 10.655 8 12 8C13.345 8 14.6199 8.25146 15.8246 8.75438C17.0175 9.25731 18.0994 9.97661 19.0702 10.9123C19.269 11.1111 19.3684 11.3509 19.3684 11.6316C19.3684 11.9006 19.269 12.1345 19.0702 12.3333C18.883 12.5322 18.6491 12.6316 18.3684 12.6316C18.1111 12.6316 17.8772 12.538 17.6667 12.3509C16.9181 11.6023 16.0468 11.0175 15.0526 10.5965C14.1053 10.1988 13.0877 10 12 10C10.924 10 9.90642 10.1988 8.94736 10.5965C7.9649 11.0175 7.09356 11.6023 6.33332 12.3509ZM3.50876 9.50877C3.33332 9.7076 3.0994 9.80702 2.80701 9.80702C2.538 9.80702 2.30408 9.7076 2.10525 9.50877C1.90642 9.30994 1.80701 9.07602 1.80701 8.80702C1.80701 8.51462 1.90642 8.2807 2.10525 8.10526C3.3918 6.81871 4.90057 5.80117 6.63157 5.05263C8.35087 4.35088 10.1403 4 12 4C13.8713 4 15.6608 4.35088 17.3684 5.05263C19.0994 5.80117 20.6082 6.81871 21.8947 8.10526C22.0936 8.2807 22.193 8.51462 22.193 8.80702C22.193 9.07602 22.0936 9.30994 21.8947 9.50877C21.7076 9.7076 21.4737 9.80702 21.193 9.80702C20.9123 9.80702 20.6784 9.7076 20.4912 9.50877C19.4035 8.42105 18.1053 7.54971 16.5965 6.89474C15.1462 6.29824 13.614 6 12 6C10.386 6 8.85379 6.29824 7.4035 6.89474C5.90642 7.54971 4.60818 8.42105 3.50876 9.50877Z" fill="#333333"/>
</svg>
