<svg width="24" height="24" viewBox="0 0 24 24" fill="none" xmlns="http://www.w3.org/2000/svg">
<path d="M11 17C7.54386 17 5 14.4561 5 11C5 7.54386 7.54386 5 11 5C14.4561 5 17 7.54386 17 11C17 14.4561 14.4561 17 11 17ZM11 19C15.4386 19 19 15.4386 19 11C19 6.5614 15.4386 3 11 3C6.5614 3 3 6.5614 3 11C3 15.4386 6.5614 19 11 19ZM20.7018 19.2982L16.7018 15.2982C16.5263 15.1053 16.2807 15 16 15C15.4561 15 15 15.4561 15 16C15 16.2807 15.1053 16.5263 15.2982 16.7018L19.2982 20.7018C19.4737 20.8947 19.7193 21 20 21C20.5439 21 21 20.5439 21 20C21 19.7193 20.8947 19.4737 20.7018 19.2982ZM14 10H12V8C12 7.45614 11.5439 7 11 7C10.4561 7 10 7.45614 10 8V12H14C14.5439 12 15 11.5439 15 11C15 10.4561 14.5439 10 14 10ZM8 12H10V14C10 14.5439 10.4561 15 11 15C11.5439 15 12 14.5439 12 14V10H8C7.45614 10 7 10.4561 7 11C7 11.5439 7.45614 12 8 12Z" fill="#333333"/>
</svg>
