<svg width="24" height="24" viewBox="0 0 24 24" fill="none" xmlns="http://www.w3.org/2000/svg">
<path d="M1.5791 5.00105L3.00015 6.42211L6.42121 3.00105L5.00015 1.58L1.5791 5.00105ZM3.00015 12.0011C3.00015 17.0011 7.00015 21.0011 12.0002 21.0011C17.0002 21.0011 21.0002 17.0011 21.0002 12.0011C21.0002 7.00106 17.0002 3.00105 12.0002 3.00105C7.00015 3.00105 3.00015 7.00106 3.00015 12.0011ZM7.5791 12.0011L9.00015 10.58L11.0002 12.58L15.0002 8.58L16.4212 10.0011L11.0002 15.4221L7.5791 12.0011ZM17.5791 3.00105L21.0002 6.42211L22.4212 5.00105L19.0002 1.58L17.5791 3.00105Z" fill="#333333"/>
</svg>
