<svg width="24" height="24" viewBox="0 0 24 24" fill="none" xmlns="http://www.w3.org/2000/svg">
<path d="M1.5791 5.00107L3.00015 6.42212L6.42121 3.00107L5.00015 1.58002L1.5791 5.00107ZM3.00015 12.0011C3.00015 17.0011 7.00015 21.0011 12.0002 21.0011C17.0002 21.0011 21.0002 17.0011 21.0002 12.0011C21.0002 7.00107 17.0002 3.00107 12.0002 3.00107C7.00015 3.00107 3.00015 7.00107 3.00015 12.0011ZM8.00015 13.0011V11.0011H11.0002V8.00107H13.0002V11.0011H16.0002V13.0011H13.0002V16.0011H11.0002V13.0011H8.00015ZM17.5791 3.00107L21.0002 6.42212L22.4212 5.00107L19.0002 1.58002L17.5791 3.00107Z" fill="#333333"/>
</svg>
