<svg width="24" height="24" viewBox="0 0 24 24" fill="none" xmlns="http://www.w3.org/2000/svg">
<path d="M15 13.001H19V19.001H5V13.001H9V11.001H5C3.87719 11.001 3 11.8782 3 13.001V19.001C3 20.1238 3.87719 21.001 5 21.001H19C20.1228 21.001 21 20.1238 21 19.001V13.001C21 11.8782 20.1228 11.001 19 11.001H15V13.001ZM12 2.57999L6.57895 8.00104L8 9.42209L13.4211 4.00104L12 2.57999ZM17.4211 8.00104L12 2.57999L10.5789 4.00104L16 9.42209L17.4211 8.00104ZM13 17.001V4.00104H11V17.001H13Z" fill="#333333"/>
</svg>
