<svg width="24" height="24" viewBox="0 0 24 24" fill="none" xmlns="http://www.w3.org/2000/svg">
<path d="M2.01763 13.4211C1.61997 13.0234 1.42114 12.5497 1.42114 12C1.42114 11.4503 1.61997 10.9766 2.01763 10.5789L8.05272 4.54386C8.22816 4.36842 8.42699 4.23392 8.64921 4.14035C8.87143 4.04678 9.10535 4 9.35097 4H19.9825C20.544 4 21.0176 4.19883 21.4036 4.59649C21.8013 4.98246 22.0001 5.45614 22.0001 6.01754V17.9825C22.0001 18.5439 21.8013 19.0234 21.4036 19.4211C21.0176 19.807 20.544 20 19.9825 20H9.35097C9.10535 20 8.87143 19.9532 8.64921 19.8596C8.42699 19.7661 8.22816 19.6316 8.05272 19.4561L2.01763 13.4211ZM11.0001 16.4211L14.0001 13.4211L17.0001 16.4211L18.4211 15L15.4211 12L18.4211 9L17.0001 7.57895L14.0001 10.5789L11.0001 7.57895L9.57904 9L12.579 12L9.57904 15L11.0001 16.4211Z" fill="#333333"/>
</svg>
