<svg width="24" height="24" viewBox="0 0 24 24" fill="none" xmlns="http://www.w3.org/2000/svg">
<path d="M2 11.7018C2 13.1287 2.27485 14.462 2.82456 15.7018C3.37427 16.9298 4.1462 17.9883 5.14035 18.8772C5.31579 19.0292 5.40351 19.2164 5.40351 19.4386L5.45614 21.2281C5.46784 21.5088 5.59064 21.7251 5.82456 21.8772C6.07018 22.0292 6.32164 22.0468 6.57895 21.9298L8.57895 21.0526C8.75439 20.9708 8.92982 20.9591 9.10526 21.0175C10.0643 21.2749 11.0292 21.4035 12 21.4035C13.8596 21.4035 15.5497 20.9825 17.0702 20.1404C18.5906 19.2982 19.7895 18.1404 20.6667 16.6667C21.5556 15.1813 22 13.5263 22 11.7018C22 9.87719 21.5556 8.22807 20.6667 6.75439C19.7895 5.26901 18.5906 4.10526 17.0702 3.26316C15.5497 2.42105 13.8596 2 12 2C10.1404 2 8.45029 2.42105 6.92982 3.26316C5.40936 4.10526 4.20468 5.26901 3.31579 6.75439C2.4386 8.22807 2 9.87719 2 11.7018ZM8.92982 9.87719C9.16374 9.50292 9.49708 9.2807 9.92982 9.21053C10.3626 9.12865 10.7544 9.21637 11.1053 9.47368L13.4386 11.2281C13.5439 11.3099 13.6608 11.3509 13.7895 11.3509C13.9298 11.3509 14.0526 11.3099 14.1579 11.2281L17.3158 8.82456C17.4444 8.7193 17.5789 8.69591 17.7193 8.75439C17.8713 8.80117 17.9766 8.89474 18.0351 9.03509C18.1053 9.17544 18.0936 9.31579 18 9.45614L15.0702 14.1228C14.8363 14.4971 14.5029 14.7251 14.0702 14.807C13.6374 14.8772 13.2456 14.7836 12.8947 14.5263L10.5614 12.7719C10.4561 12.6901 10.3333 12.6491 10.193 12.6491C10.0643 12.6491 9.94737 12.6901 9.84211 12.7719L6.68421 15.1754C6.55556 15.2807 6.4152 15.3099 6.26316 15.2632C6.12281 15.2047 6.01754 15.1053 5.94737 14.9649C5.88889 14.8246 5.90643 14.6842 6 14.5439L8.92982 9.87719Z" fill="#333333"/>
</svg>
