<svg width="24" height="24" viewBox="0 0 24 24" fill="none" xmlns="http://www.w3.org/2000/svg">
<path d="M11.9999 2C13.1812 2 14.3274 2.20468 15.4385 2.61404C16.5613 3.02339 17.573 3.60819 18.4736 4.36842C19.3742 5.12866 20.1169 6.02339 20.7017 7.05263C21.2981 8.08187 21.69 9.18129 21.8771 10.3509C22.0642 11.5205 22.0408 12.6842 21.8069 13.8421C21.5847 15 21.1695 16.0819 20.5613 17.0877C19.9414 18.0936 19.1695 18.9708 18.2455 19.7193C17.3215 20.4561 16.2923 21.0117 15.1578 21.386C14.9356 21.4211 14.766 21.386 14.649 21.2807C14.5321 21.1754 14.4736 21.0468 14.4736 20.8947L14.4911 18.1754C14.4911 17.7427 14.4268 17.3684 14.2981 17.0526C14.1695 16.7368 14.0057 16.4971 13.8069 16.3333C15.1753 16.1813 16.2806 15.7602 17.1227 15.0702C17.9648 14.3684 18.3859 13.152 18.3859 11.4211C18.3859 10.9298 18.2923 10.4561 18.1052 10C17.9297 9.53216 17.6783 9.11696 17.3508 8.75439C17.456 8.48538 17.5204 8.12865 17.5438 7.68421C17.5788 7.22807 17.4794 6.7076 17.2455 6.12281C16.9882 6.06433 16.6198 6.11696 16.1402 6.2807C15.6724 6.43275 15.1286 6.7193 14.5087 7.14035C12.8362 6.67251 11.1636 6.67251 9.49113 7.14035C8.87124 6.7193 8.32154 6.43275 7.842 6.2807C7.36247 6.11696 6.99405 6.06433 6.73674 6.12281C6.50282 6.7076 6.40341 7.22807 6.43849 7.68421C6.47358 8.14035 6.54376 8.49708 6.64902 8.75439C6.30984 9.11696 6.04668 9.53216 5.85955 10C5.68411 10.4561 5.60224 10.9298 5.61393 11.4211C5.61393 13.1404 6.02914 14.3509 6.85955 15.0526C7.70165 15.7544 8.80692 16.1813 10.1753 16.3333C9.83616 16.614 9.62563 17.0585 9.54376 17.6667C9.07592 17.8772 8.56715 17.9591 8.01744 17.9123C7.47943 17.8655 7.01744 17.5088 6.63148 16.8421C6.46773 16.5731 6.25136 16.345 5.98235 16.1579C5.71335 15.9591 5.4151 15.848 5.08762 15.8246C4.83031 15.8246 4.67826 15.8772 4.63148 15.9825C4.59639 16.076 4.72504 16.2222 5.01744 16.4211C5.20458 16.5146 5.39756 16.6901 5.59639 16.9474C5.80692 17.193 5.9882 17.5029 6.14025 17.8772C6.33908 18.3684 6.7192 18.7368 7.2806 18.9825C7.8537 19.2281 8.59639 19.2515 9.50867 19.0526L9.52621 20.8947C9.52621 21.0468 9.46774 21.1754 9.35078 21.2807C9.23382 21.386 9.06423 21.4211 8.842 21.386C7.7075 21.0117 6.67826 20.4561 5.75428 19.7193C4.83031 18.9708 4.05838 18.0936 3.4385 17.0877C2.83031 16.0819 2.40926 15 2.17534 13.8421C1.95311 12.6842 1.93557 11.5205 2.12271 10.3509C2.30984 9.18129 2.6958 8.08187 3.2806 7.05263C3.87709 6.02339 4.62563 5.12866 5.52621 4.36842C6.4268 3.60819 7.43265 3.02339 8.54376 2.61404C9.65487 2.20468 10.8069 2 11.9999 2Z" fill="#333333"/>
</svg>
