<svg width="24" height="24" viewBox="0 0 24 24" fill="none" xmlns="http://www.w3.org/2000/svg">
<path d="M22 12C22 10.1871 21.5497 8.51462 20.6491 6.98246C19.7602 5.45029 18.5497 4.23977 17.0175 3.35088C15.4854 2.45029 13.8129 2 12 2C10.1871 2 8.51462 2.45029 6.98246 3.35088C5.45029 4.23977 4.23392 5.45029 3.33333 6.98246C2.44444 8.51462 2 10.1871 2 12C2 13.8129 2.44444 15.4854 3.33333 17.0175C4.23392 18.5497 5.45029 19.7661 6.98246 20.6667C8.51462 21.5556 10.1871 22 12 22C13.8129 22 15.4854 21.5556 17.0175 20.6667C18.5497 19.7661 19.7602 18.5497 20.6491 17.0175C21.5497 15.4854 22 13.8129 22 12ZM17.2105 10.5439C17.6199 10.5439 17.9649 10.6842 18.2456 10.9649C18.5263 11.2456 18.6667 11.5906 18.6667 12C18.6667 12.2924 18.5848 12.5614 18.4211 12.807C18.269 13.0409 18.0702 13.2222 17.8246 13.3509C17.848 13.538 17.8596 13.6784 17.8596 13.7719C17.8596 14.5088 17.5965 15.193 17.0702 15.8246C16.5439 16.4444 15.8304 16.9357 14.9298 17.2982C14.0409 17.6608 13.0702 17.8421 12.0175 17.8421C10.9649 17.8421 9.9883 17.6608 9.08772 17.2982C8.19883 16.9357 7.49123 16.4444 6.96491 15.8246C6.45029 15.193 6.19298 14.5088 6.19298 13.7719C6.19298 13.5731 6.20468 13.4269 6.22807 13.3333C5.95906 13.2164 5.74269 13.0409 5.57895 12.807C5.4269 12.5614 5.35088 12.2924 5.35088 12C5.35088 11.6023 5.49123 11.2632 5.77193 10.9825C6.06433 10.6901 6.4152 10.5439 6.82456 10.5439C7.19883 10.5439 7.53216 10.6784 7.82456 10.9474C8.32749 10.5731 8.91813 10.2807 9.59649 10.0702C10.2749 9.84795 11 9.72515 11.7719 9.70175L12.5088 6.22807C12.5556 6.1345 12.5965 6.07602 12.6316 6.05263C12.6667 6.02924 12.731 6.01754 12.8246 6.01754L15.2456 6.54386C15.3392 6.36842 15.4678 6.22807 15.6316 6.12281C15.7953 6.00585 15.9766 5.94737 16.1754 5.94737C16.4678 5.94737 16.7134 6.05263 16.9123 6.26316C17.1111 6.46199 17.2105 6.7076 17.2105 7C17.2105 7.2807 17.1111 7.52632 16.9123 7.73684C16.7134 7.93567 16.4678 8.03509 16.1754 8.03509C15.8947 8.03509 15.655 7.94152 15.4561 7.75439C15.2573 7.55556 15.152 7.31579 15.1404 7.03509L12.9649 6.57895L12.2982 9.70175C13.0585 9.73684 13.7719 9.8655 14.4386 10.0877C15.117 10.2982 15.7018 10.5848 16.193 10.9474C16.462 10.6784 16.8012 10.5439 17.2105 10.5439ZM9.70175 12C9.99415 12 10.2398 12.1053 10.4386 12.3158C10.6491 12.5146 10.7544 12.7544 10.7544 13.0351C10.7544 13.3275 10.6491 13.5789 10.4386 13.7895C10.2398 13.9883 9.99415 14.0877 9.70175 14.0877C9.42105 14.0877 9.17544 13.9883 8.96491 13.7895C8.76608 13.5789 8.66667 13.3275 8.66667 13.0351C8.66667 12.7544 8.76608 12.5146 8.96491 12.3158C9.17544 12.1053 9.42105 12 9.70175 12ZM12.0175 16.5439C11.6316 16.5439 11.1988 16.4971 10.7193 16.4035C10.2398 16.2982 9.84795 16.0936 9.54386 15.7895C9.49708 15.731 9.47368 15.6667 9.47368 15.5965C9.47368 15.5146 9.49708 15.4503 9.54386 15.4035C9.60234 15.345 9.66667 15.3158 9.73684 15.3158C9.81871 15.3158 9.88304 15.345 9.92982 15.4035C10.1287 15.6023 10.4269 15.7544 10.8246 15.8596C11.2339 15.9649 11.6316 16.0175 12.0175 16.0175C12.4152 16.0175 12.8129 15.9649 13.2105 15.8596C13.6082 15.7544 13.9123 15.6023 14.1228 15.4035C14.1813 15.345 14.2456 15.3158 14.3158 15.3158C14.3977 15.3158 14.462 15.345 14.5088 15.4035C14.5439 15.462 14.5556 15.5322 14.5439 15.614C14.5439 15.6842 14.5205 15.7427 14.4737 15.7895C14.1696 16.0936 13.7836 16.2982 13.3158 16.4035C12.848 16.4971 12.4152 16.5439 12.0175 16.5439ZM13.2456 13.0351C13.2456 12.7544 13.345 12.5146 13.5439 12.3158C13.7544 12.1053 14.0058 12 14.2982 12C14.5789 12 14.8187 12.1053 15.0175 12.3158C15.2281 12.5146 15.3333 12.7544 15.3333 13.0351C15.3333 13.3275 15.2281 13.5789 15.0175 13.7895C14.8187 13.9883 14.5789 14.0877 14.2982 14.0877C14.0058 14.0877 13.7544 13.9883 13.5439 13.7895C13.345 13.5789 13.2456 13.3275 13.2456 13.0351Z" fill="#333333"/>
</svg>
