<svg width="24" height="24" viewBox="0 0 24 24" fill="none" xmlns="http://www.w3.org/2000/svg">
<path d="M14.7018 3.80711C14.3042 4.26325 13.8188 4.63752 13.2457 4.92991C12.6843 5.21062 12.1287 5.32758 11.579 5.28079C11.4971 4.70769 11.5673 4.12875 11.7895 3.54395C12.0118 2.95915 12.3159 2.45038 12.7018 2.01763C13.0527 1.58489 13.5205 1.21646 14.1053 0.91237C14.6901 0.608277 15.2398 0.444534 15.7545 0.421143C15.8246 1.00594 15.7603 1.59658 15.5615 2.19307C15.3626 2.78956 15.0761 3.32758 14.7018 3.80711ZM11.7018 6.47377C11.8422 6.47377 12.0176 6.43869 12.2281 6.36851C12.4504 6.29834 12.6784 6.21646 12.9123 6.1229C13.4738 5.90067 13.965 5.73693 14.386 5.63167C14.8188 5.51471 15.2749 5.47962 15.7545 5.52641C16.3509 5.5381 17.0059 5.69015 17.7194 5.98255C18.4328 6.26325 19.0585 6.80126 19.5966 7.59658C19.4445 7.66676 19.1872 7.85974 18.8246 8.17553C18.4621 8.49132 18.117 8.94161 17.7895 9.52641C17.4738 10.1112 17.3217 10.8013 17.3334 11.5966C17.3334 12.5323 17.5381 13.3159 17.9474 13.9475C18.3685 14.579 18.8129 15.0527 19.2808 15.3685C19.7486 15.6843 20.0293 15.8422 20.1229 15.8422C20.1229 15.889 20.0644 16.0703 19.9474 16.3861C19.8305 16.7018 19.6609 17.082 19.4387 17.5264C19.2281 17.9592 18.965 18.3978 18.6492 18.8422C18.1229 19.6492 17.62 20.2808 17.1404 20.7369C16.6726 21.1814 16.117 21.4094 15.4738 21.4211C15.158 21.4328 14.8831 21.4094 14.6492 21.351C14.4153 21.2808 14.1404 21.1755 13.8246 21.0352C13.4854 20.8948 13.1872 20.7896 12.9299 20.7194C12.6726 20.6375 12.3626 20.5966 12.0001 20.5966C11.6024 20.5966 11.2632 20.6375 10.9825 20.7194C10.7135 20.7896 10.3977 20.9065 10.0352 21.0703C9.75445 21.1872 9.50884 21.2808 9.29832 21.351C9.08779 21.4211 8.84802 21.4621 8.57902 21.4738C7.93574 21.4855 7.35095 21.2516 6.82463 20.772C6.31001 20.2808 5.77785 19.6141 5.22814 18.772C4.59656 17.848 4.07024 16.7603 3.64919 15.5089C3.23983 14.2457 3.03516 12.965 3.03516 11.6668C3.03516 10.3568 3.32171 9.19307 3.89481 8.17553C4.36264 7.38021 4.98252 6.74863 5.75445 6.28079C6.52638 5.81296 7.35679 5.56734 8.24568 5.54395C8.58486 5.53225 8.9182 5.57904 9.24568 5.6843C9.57317 5.77787 9.95913 5.91237 10.4036 6.08781C11.0001 6.34512 11.4328 6.47377 11.7018 6.47377Z" fill="#333333"/>
</svg>
