<svg width="24" height="24" viewBox="0 0 24 24" fill="none" xmlns="http://www.w3.org/2000/svg">
<path d="M4.66675 4.66667C4.66675 4 4.83049 3.38596 5.15798 2.82456C5.48546 2.26316 5.92991 1.81871 6.49131 1.49123C7.05271 1.16374 7.66675 1 8.33342 1H15.6667C16.3334 1 16.9474 1.16374 17.5089 1.49123C18.0703 1.81871 18.5147 2.26316 18.8422 2.82456C19.1697 3.38596 19.3334 4 19.3334 4.66667C19.3334 5.33333 19.1697 5.94737 18.8422 6.50877C18.5147 7.07018 18.0703 7.51462 17.5089 7.8421C16.9474 8.16959 16.3334 8.33333 15.6667 8.33333C16.3334 8.33333 16.9474 8.49707 17.5089 8.82456C18.0703 9.15205 18.5147 9.59649 18.8422 10.1579C19.1697 10.7193 19.3334 11.3333 19.3334 12C19.3334 12.6667 19.1697 13.2807 18.8422 13.8421C18.5147 14.4035 18.0703 14.848 17.5089 15.1754C16.9474 15.5029 16.3334 15.6667 15.6667 15.6667C15.0001 15.6667 14.386 15.5029 13.8246 15.1754C13.2632 14.848 12.8188 14.4035 12.4913 13.8421C12.1638 13.2807 12.0001 12.6667 12.0001 12V19.3333C12.0001 20 11.8363 20.614 11.5089 21.1754C11.1814 21.7368 10.7369 22.1813 10.1755 22.5088C9.61412 22.8363 9.00008 23 8.33342 23C7.66675 23 7.05271 22.8363 6.49131 22.5088C5.92991 22.1813 5.48546 21.7368 5.15798 21.1754C4.83049 20.614 4.66675 20 4.66675 19.3333C4.66675 18.6667 4.83049 18.0526 5.15798 17.4912C5.48546 16.9298 5.92991 16.4854 6.49131 16.1579C7.05271 15.8304 7.66675 15.6667 8.33342 15.6667C7.66675 15.6667 7.05271 15.5029 6.49131 15.1754C5.92991 14.848 5.48546 14.4035 5.15798 13.8421C4.83049 13.2807 4.66675 12.6667 4.66675 12C4.66675 11.3333 4.83049 10.7193 5.15798 10.1579C5.48546 9.59649 5.92991 9.15205 6.49131 8.82456C7.05271 8.49707 7.66675 8.33333 8.33342 8.33333C7.66675 8.33333 7.05271 8.16959 6.49131 7.8421C5.92991 7.51462 5.48546 7.07018 5.15798 6.50877C4.83049 5.94737 4.66675 5.33333 4.66675 4.66667ZM12.0001 8.33333V12C12.0001 11.3333 12.1638 10.7193 12.4913 10.1579C12.8188 9.59649 13.2632 9.15205 13.8246 8.82456C14.386 8.49707 15.0001 8.33333 15.6667 8.33333H12.0001Z" fill="#333333"/>
</svg>
