<svg width="24" height="24" viewBox="0 0 24 24" fill="none" xmlns="http://www.w3.org/2000/svg">
<path d="M8.12281 10.7895C8.55556 10.1813 9.12281 9.73099 9.82456 9.4386C10.4561 9.16959 11.2573 8.97076 12.2281 8.84211L13.8421 8.68421V8.38596C13.8421 7.60234 13.7544 7.08187 13.5789 6.82456C13.4503 6.63743 13.2807 6.50292 13.0702 6.42105C12.8596 6.32749 12.5848 6.2807 12.2456 6.2807C11.8596 6.2807 11.5088 6.40351 11.193 6.64912C10.8889 6.88304 10.7018 7.18713 10.6316 7.5614C10.5731 7.8538 10.4561 7.99415 10.2807 7.98246L8.17544 7.73684C8.08187 7.72515 8.00585 7.69006 7.94737 7.63158C7.90058 7.5731 7.87719 7.49708 7.87719 7.40351C7.92398 6.94737 8.07018 6.49123 8.31579 6.03509C8.5731 5.56725 8.93567 5.18129 9.40351 4.87719C10.2222 4.33918 11.1696 4.04678 12.2456 4H12.6842C14.0877 4 15.1696 4.35673 15.9298 5.07017C16.2339 5.35088 16.462 5.74854 16.614 6.26316C16.7778 6.76608 16.8596 7.24561 16.8596 7.70175V12.1053C16.8596 12.7134 17.1287 13.3743 17.6667 14.0877C17.7485 14.2047 17.7895 14.3041 17.7895 14.386C17.7895 14.4678 17.7368 14.5497 17.6316 14.6316L16 16.0526C15.8363 16.193 15.6608 16.2047 15.4737 16.0877C15.3567 16.0058 15.1579 15.8012 14.8772 15.4737C14.5965 15.1462 14.3801 14.8772 14.2281 14.6667C13.5731 15.4152 12.9064 15.8772 12.2281 16.0526C11.807 16.1813 11.2982 16.2456 10.7018 16.2456C9.77778 16.2456 9.0117 15.9532 8.40351 15.3684C7.80702 14.807 7.50877 13.9942 7.50877 12.9298C7.50877 12.1111 7.71345 11.3977 8.12281 10.7895ZM10.9825 13.7018C11.2281 13.9825 11.5497 14.1228 11.9474 14.1228C12.3801 14.0643 12.7368 13.8947 13.0175 13.614C13.2982 13.3216 13.5029 13 13.6316 12.6491C13.7602 12.2865 13.8246 11.9708 13.8246 11.7018V11.4912C13.8363 11.3626 13.8421 11 13.8421 10.4035C13.1637 10.4035 12.6257 10.4503 12.2281 10.5439C11.1637 10.8596 10.6316 11.5322 10.6316 12.5614C10.6316 13.0292 10.7485 13.4094 10.9825 13.7018ZM18.2807 16.5439C18.3041 16.5673 18.3509 16.5789 18.4211 16.5789C18.5029 16.5789 18.5848 16.5731 18.6667 16.5614C18.7485 16.5497 18.8304 16.538 18.9123 16.5263L19.2632 16.4737C19.5906 16.4386 19.9298 16.4269 20.2807 16.4386C20.6433 16.4503 20.883 16.5263 21 16.6667C21.0468 16.7135 21.0702 16.807 21.0702 16.9474C21.0702 17.3333 20.848 18.0702 20.4035 19.1579C20.3684 19.2515 20.386 19.3158 20.4561 19.3509C20.4912 19.3626 20.5263 19.3626 20.5614 19.3509C20.6082 19.3392 20.6491 19.3216 20.6842 19.2982C21.1404 18.8421 21.462 18.3743 21.6491 17.8947C21.7661 17.614 21.8655 17.2515 21.9474 16.807C22.0409 16.3626 22.0351 16.076 21.9298 15.9474C21.848 15.8538 21.6374 15.7778 21.2982 15.7193C20.9591 15.6608 20.7251 15.6374 20.5965 15.6491C20.1637 15.6608 19.7193 15.731 19.2632 15.8596C18.9708 15.9298 18.6784 16.0702 18.386 16.2807C18.269 16.3977 18.2339 16.4854 18.2807 16.5439ZM2.03509 16.1053C1.97661 16.2105 2 16.3099 2.10526 16.4035C3.4386 17.5965 4.95322 18.5263 6.64912 19.193C8.33333 19.8596 10.117 20.193 12 20.193C13.2164 20.193 14.4737 20.0234 15.7719 19.6842C17.117 19.3216 18.2807 18.8421 19.2632 18.2456L19.4035 18.1579C19.6842 18.0058 19.9064 17.8596 20.0702 17.7193C20.2339 17.5673 20.2749 17.4269 20.193 17.2982C20.1228 17.193 20.0468 17.1462 19.9649 17.1579C19.883 17.1579 19.7836 17.1871 19.6667 17.2456L19.5263 17.2982L19.2632 17.4035C17.0292 18.2924 14.6842 18.7368 12.2281 18.7368C8.63743 18.7368 5.33918 17.8538 2.33333 16.0877C2.20468 16.0058 2.10526 16.0117 2.03509 16.1053Z" fill="#333333"/>
</svg>
