<svg width="24" height="24" viewBox="0 0 24 24" fill="none" xmlns="http://www.w3.org/2000/svg">
<path d="M11.4211 3.63158C11.2456 3.32749 10.9883 3.1345 10.6491 3.05263C10.3216 2.95906 10.0058 3 9.70175 3.17544C9.39766 3.33918 9.19883 3.59064 9.10526 3.92982C9.02339 4.26901 9.07018 4.5848 9.24561 4.87719L10.5263 7.08772L6.4386 14.1579H3.24561C2.90643 14.1579 2.61404 14.2807 2.36842 14.5263C2.12281 14.7719 2 15.0702 2 15.4211C2 15.7602 2.12281 16.0526 2.36842 16.2982C2.61404 16.5439 2.90643 16.6667 3.24561 16.6667H14.6316C14.807 16.3275 14.8538 15.9649 14.7719 15.5789C14.7018 15.1813 14.5263 14.848 14.2456 14.5789C13.9649 14.2982 13.6199 14.1579 13.2105 14.1579H9.33333L14.6842 4.87719C14.8596 4.5848 14.9006 4.26901 14.807 3.92982C14.7251 3.59064 14.5322 3.33918 14.2281 3.17544C13.9357 3 13.6199 2.95906 13.2807 3.05263C12.9415 3.1345 12.6901 3.32749 12.5263 3.63158L11.9649 4.59649L11.4211 3.63158ZM7.14035 17.9474C6.48538 17.1637 5.66082 16.9298 4.66667 17.2456L3.77193 18.7895C3.59649 19.0819 3.54971 19.3977 3.63158 19.7368C3.72515 20.076 3.92398 20.3333 4.22807 20.5088C4.53216 20.6725 4.84795 20.7135 5.17544 20.6316C5.51462 20.538 5.76608 20.3392 5.92982 20.0351L7.14035 17.9474ZM17.4912 14.1754C15.8655 11.3333 14.6374 9.21053 13.807 7.80702C13.538 8.02924 13.3041 8.36842 13.1053 8.82456C12.9181 9.26901 12.8304 9.77778 12.8421 10.3509C12.8655 10.9123 13.0409 11.4737 13.3684 12.0351L17.9825 20.0351C18.1579 20.3392 18.4094 20.538 18.7368 20.6316C19.076 20.7135 19.3977 20.6725 19.7018 20.5088C20.0058 20.3333 20.1988 20.076 20.2807 19.7368C20.3743 19.3977 20.3333 19.0819 20.1579 18.7895L18.9474 16.6667H20.7544C21.0936 16.6667 21.386 16.5497 21.6316 16.3158C21.8772 16.0702 22 15.7719 22 15.4211C22 15.0819 21.8772 14.7895 21.6316 14.5439C21.386 14.2982 21.0936 14.1754 20.7544 14.1754H17.4912Z" fill="#333333"/>
</svg>
