<svg width="24" height="24" viewBox="0 0 24 24" fill="none" xmlns="http://www.w3.org/2000/svg">
<path d="M17 12.4912C17.8187 12.4912 18.5731 12.6959 19.2632 13.1053C19.9532 13.5029 20.4971 14.0526 20.8947 14.7544C21.3041 15.4444 21.5088 16.193 21.5088 17C21.5088 17.807 21.3041 18.5556 20.8947 19.2456C20.4971 19.9357 19.9474 20.4854 19.2456 20.8947C18.5556 21.2924 17.807 21.4912 17 21.4912C16.1813 21.4912 15.4269 21.2924 14.7368 20.8947C14.0585 20.4854 13.5146 19.9415 13.1053 19.2632C12.7076 18.5731 12.5088 17.8187 12.5088 17C12.5088 16.1813 12.7076 15.4269 13.1053 14.7368C13.5146 14.0468 14.0585 13.5029 14.7368 13.1053C15.4269 12.6959 16.1813 12.4912 17 12.4912ZM11 13V21H3V13H11ZM18.0702 11.4912H5.92982L12 1L18.0702 11.4912Z" fill="#333333"/>
</svg>
