<svg width="24" height="24" viewBox="0 0 24 24" fill="none" xmlns="http://www.w3.org/2000/svg">
<path d="M2 5H4H6H18H20H22V7H20V20C20 20.3626 19.9123 20.7018 19.7368 21.0175C19.5614 21.3216 19.3158 21.5614 19 21.7368C18.6959 21.9123 18.3626 22 18 22H6C5.63743 22 5.29825 21.9123 4.98246 21.7368C4.67836 21.5614 4.4386 21.3216 4.26316 21.0175C4.08772 20.7018 4 20.3626 4 20V7H2V5ZM9 17.4211L12 14.4211L15 17.4211L16.4211 16L13.4211 13L16.4211 10L15 8.57895L12 11.5789L9 8.57895L7.57895 10L10.5789 13L7.57895 16L9 17.4211ZM8 2H16V4H8V2Z" fill="#333333"/>
</svg>
