<svg width="24" height="24" viewBox="0 0 24 24" fill="none" xmlns="http://www.w3.org/2000/svg">
<path d="M2.96491 5.87246C2.36842 6.20579 2 6.85491 2 7.52158V19.9777C2 21.1181 2.87719 21.9953 4.01754 21.9953H19.9825C21.1228 21.9953 22 21.1181 22 19.9777V7.52158C22 6.85491 21.6316 6.20579 21.0351 5.87246L12.8947 1.36368C12.3333 1.06544 11.6667 1.06544 11.1053 1.36368L2.96491 5.87246ZM3.94737 7.62684L12.0526 3.11807C12.1053 3.10053 11.8947 3.10053 11.9474 3.11807L20.0526 7.62684C20.1053 7.64438 20 7.4514 20 7.52158V19.9777C20 19.9953 20 19.9953 19.9825 19.9953H4.01754C4 19.9953 4 19.9953 4 19.9777V7.52158C4 7.4514 3.89474 7.64438 3.94737 7.62684ZM2.38596 7.78474L10.807 14.3286C11.5088 14.89 12.4912 14.89 13.193 14.3286L21.614 7.78474L20.386 6.20579L11.9649 12.7496C11.8772 12.8198 12.1228 12.8198 12.0351 12.7496L3.61404 6.20579L2.38596 7.78474ZM20.8772 7.08298L12.5789 13.5391C12.2281 13.8198 11.7719 13.8198 11.4211 13.5391L3.12281 7.08298C3.03509 7.22333 3 7.36368 3 7.52158V19.9777C3 20.5567 3.4386 20.9953 4.01754 20.9953H19.9825C20.5614 20.9953 21 20.5567 21 19.9777V7.52158C21 7.36368 20.9474 7.20579 20.8772 7.08298Z" fill="#333333"/>
</svg>
