<svg width="24" height="24" viewBox="0 0 24 24" fill="none" xmlns="http://www.w3.org/2000/svg">
<path d="M2.98246 5.8772C2.40351 6.17544 2 6.8772 2 7.52632V20C2 21.1228 2.87719 22 4 22H20C21.1228 22 22 21.1228 22 20V7.52632C22 6.8772 21.5965 6.17544 21.0175 5.8772L12.8947 1.36842C12.3684 1.08772 11.6316 1.08772 11.1053 1.36842L2.98246 5.8772ZM3.92982 7.63158L12.0526 3.12281H11.9474L20.0702 7.63158C20.0702 7.63158 20 7.50877 20 7.52632V20H4V7.52632C4 7.50877 3.92982 7.63158 3.92982 7.63158ZM22 20V9.31579C22 8.40351 21.0351 7.84211 20.2456 8.2807L11.9474 12.9123H12.0526L3.75439 8.2807C2.96491 7.84211 2 8.40351 2 9.31579V20C2 21.1228 2.87719 22 4 22H20C21.1228 22 22 21.1228 22 20Z" fill="#333333"/>
</svg>
