<svg width="24" height="24" viewBox="0 0 24 24" fill="none" xmlns="http://www.w3.org/2000/svg">
<path d="M1.99991 11.9999C1.99991 10.4677 2.3274 9.02915 2.98237 7.68412C3.63734 6.3274 4.53792 5.18704 5.68412 4.26307L10.6139 9.17535L9.54377 9.54377L7.08763 16.9122L14.4561 14.4561L14.8245 13.3859L19.7368 18.3157C18.8128 19.4619 17.6724 20.3625 16.3157 21.0175C14.9707 21.6724 13.5321 21.9999 11.9999 21.9999C10.1987 21.9999 8.52623 21.5555 6.98237 20.6666C5.4502 19.766 4.23383 18.5496 3.33324 17.0175C2.44435 15.4736 1.99991 13.8011 1.99991 11.9999ZM7.42096 3.17535C8.11102 2.80108 8.84202 2.51453 9.61395 2.3157C10.3859 2.10517 11.1812 1.99991 11.9999 1.99991C13.8128 1.99991 15.4853 2.4502 17.0175 3.35079C18.5496 4.23968 19.7601 5.4502 20.649 6.98237C21.5496 8.51453 21.9999 10.187 21.9999 11.9999C21.9999 12.8186 21.8946 13.6139 21.6841 14.3859C21.4853 15.1578 21.1987 15.8888 20.8245 16.5789L15.5262 11.2631L16.9122 7.08763L12.7368 8.47359L7.42096 3.17535ZM20.9999 22.421L1.57886 2.99991L2.99991 1.57886L22.421 20.9999L20.9999 22.421Z" fill="#333333"/>
</svg>
