<svg width="24" height="24" viewBox="0 0 24 24" fill="none" xmlns="http://www.w3.org/2000/svg">
<path d="M2 12C2 10.1871 2.44444 8.51462 3.33333 6.98246C4.23392 5.45029 5.45029 4.23977 6.98246 3.35088C8.52632 2.45029 10.1988 2 12 2C13.8129 2 15.4854 2.45029 17.0175 3.35088C18.5497 4.23977 19.7602 5.45614 20.6491 7C21.5497 8.53216 22 10.1988 22 12C22 13.8012 21.5497 15.4737 20.6491 17.0175C19.7602 18.5497 18.5439 19.7661 17 20.6667C15.4678 21.5556 13.8012 22 12 22C10.1988 22 8.52632 21.5556 6.98246 20.6667C5.45029 19.7661 4.23392 18.5497 3.33333 17.0175C2.44444 15.4737 2 13.8012 2 12ZM14.4561 14.4561L16.9123 7.08772L9.54386 9.54386L7.08772 16.9123L14.4561 14.4561ZM11.9825 10.6667C12.3567 10.6667 12.6725 10.7953 12.9298 11.0526C13.1988 11.3099 13.3333 11.6199 13.3333 11.9825C13.3333 12.3567 13.2047 12.6784 12.9474 12.9474C12.6901 13.2047 12.3684 13.3333 11.9825 13.3333C11.6199 13.3333 11.3099 13.2047 11.0526 12.9474C10.7953 12.6784 10.6667 12.3567 10.6667 11.9825C10.6667 11.6199 10.7953 11.3099 11.0526 11.0526C11.3099 10.7953 11.6199 10.6667 11.9825 10.6667Z" fill="#333333"/>
</svg>
