<svg width="24" height="24" viewBox="0 0 24 24" fill="none" xmlns="http://www.w3.org/2000/svg">
<path d="M7 8.49123C7 8.66667 7.01754 8.84211 7.03509 9H9.05263C9.01754 8.84211 9 8.66667 9 8.49123C9 7.01754 10.1579 6 12 6H13V4H12C9.2807 4 7 5.96491 7 8.49123ZM11 20H12C14.7193 20 17 18.0351 17 15.4912C17 15.3333 16.9825 15.1579 16.9649 15H14.9474C14.9825 15.1579 15 15.3158 15 15.4912C15 16.9825 13.8421 18 12 18H11V20ZM16.7719 6.36842C15.5789 4.92982 13.8772 4 12 4H11V6H12C13.3158 6 14.3333 6.5614 15.2281 7.63158L15.8596 8.40351L17.4035 7.14035L16.7719 6.36842ZM7.22807 17.6316C8.42105 19.0702 10.1228 20 12 20H13V18H12C10.6842 18 9.66667 17.4386 8.77193 16.3684L8.14035 15.5965L6.59649 16.8596L7.22807 17.6316ZM20 11H4V13H20V11Z" fill="#333333"/>
</svg>
