<svg width="24" height="24" viewBox="0 0 24 24" fill="none" xmlns="http://www.w3.org/2000/svg">
<path d="M5 21.0001C4.63743 21.0001 4.29825 20.9124 3.98246 20.7369C3.67836 20.5615 3.4386 20.3217 3.26316 20.0176C3.08772 19.7018 3 19.3627 3 19.0001V10.7194C3 10.3802 3.07602 10.0352 3.22807 9.6843C3.38012 9.32173 3.5731 9.02348 3.80702 8.78956L10.5965 2.00009C10.8538 1.74278 11.152 1.57319 11.4912 1.49132C11.8304 1.39775 12.1696 1.39775 12.5088 1.49132C12.8596 1.57319 13.1579 1.74278 13.4035 2.00009L20.193 8.78956C20.4269 9.02348 20.6199 9.32173 20.7719 9.6843C20.924 10.0352 21 10.3802 21 10.7194V19.0001C21 19.3627 20.9123 19.7018 20.7368 20.0176C20.5614 20.3217 20.3158 20.5615 20 20.7369C19.6959 20.9124 19.3626 21.0001 19 21.0001H5Z" fill="#333333"/>
</svg>
