<svg width="24" height="24" viewBox="0 0 24 24" fill="none" xmlns="http://www.w3.org/2000/svg">
<path d="M3 19C3 20.1228 3.87719 21 5 21H19C20.1228 21 21 20.1228 21 19V5C21 3.87719 20.1228 3 19 3H5C3.87719 3 3 3.87719 3 5V19ZM5 19V15L7 13L10 16L15 11L19 15V19H5ZM6.50877 8.47368C6.50877 7.36842 7.38596 6.49123 8.52632 6.49123C9.63158 6.49123 10.5088 7.36842 10.5088 8.47368C10.5088 9.61404 9.63158 10.4912 8.52632 10.4912C7.38596 10.4912 6.50877 9.61404 6.50877 8.47368ZM15 9.57895L8.57895 16L10 17.4211L16.4211 11L15 9.57895ZM20.7018 15.2982L15.7018 10.2982C15.5263 10.1053 15.2807 10 15 10C14.4561 10 14 10.4561 14 11C14 11.2807 14.1053 11.5263 14.2982 11.7018L19.2982 16.7018C19.4737 16.8947 19.7193 17 20 17C20.5439 17 21 16.5439 21 16C21 15.7193 20.8947 15.4737 20.7018 15.2982ZM11.4211 16L7 11.5789L5.57895 13L10 17.4211L11.4211 16ZM6.29825 12.2982L3.29825 15.2982C3.10526 15.4737 3 15.7193 3 16C3 16.5439 3.45614 17 4 17C4.2807 17 4.52632 16.8947 4.70175 16.7018L7.70175 13.7018C7.89474 13.5263 8 13.2807 8 13C8 12.4561 7.54386 12 7 12C6.7193 12 6.47368 12.1053 6.29825 12.2982Z" fill="#333333"/>
</svg>
