<svg width="24" height="24" viewBox="0 0 24 24" fill="none" xmlns="http://www.w3.org/2000/svg">
<path d="M3 18.4211L7 14.4211L10 17.4211L15 12.4211L21 18.4211V5C21 3.87719 20.1228 3 19 3H5C3.87719 3 3 3.87719 3 5V18.4211ZM6.50877 8.47368C6.50877 7.36842 7.38596 6.49123 8.52632 6.49123C9.63158 6.49123 10.5088 7.36842 10.5088 8.47368C10.5088 9.61404 9.63158 10.4912 8.52632 10.4912C7.38596 10.4912 6.50877 9.61404 6.50877 8.47368ZM3 19C3 20.1228 3.87719 21 5 21H19C20.1228 21 21 20.1228 21 19V5C21 3.87719 20.1228 3 19 3H5C3.87719 3 3 3.87719 3 5V19ZM5 19V5H19V19H5Z" fill="#333333"/>
</svg>
