<svg width="24" height="24" viewBox="0 0 24 24" fill="none" xmlns="http://www.w3.org/2000/svg">
<path d="M3 8.14035C3 7.82456 3.11111 7.55555 3.33333 7.33333C3.56725 7.11111 3.83626 7 4.14035 7H19.8596C20.1754 7 20.4444 7.11111 20.6667 7.33333C20.8889 7.55555 21 7.82456 21 8.14035V18.9825C21 19.5439 20.8012 20.0234 20.4035 20.4211C20.0175 20.807 19.5439 21 18.9825 21H5.01754C4.45614 21 3.97661 20.807 3.57895 20.4211C3.19298 20.0234 3 19.5439 3 18.9825V8.14035ZM20.8947 7.5614C20.9649 7.69006 21 7.83626 21 8C21 8.26901 20.9006 8.50292 20.7018 8.70175C20.5146 8.90058 20.2807 9 20 9C19.8129 9 19.6374 8.94737 19.4737 8.84211C19.3099 8.73684 19.1871 8.60234 19.1053 8.4386L17.3509 4.94737C17.3509 4.93567 17.3567 4.92982 17.3684 4.92982C17.4386 4.97661 17.462 5 17.4386 5H6.5614C6.53801 5 6.5614 4.97661 6.63158 4.92982C6.64327 4.92982 6.64912 4.93567 6.64912 4.94737L4.89474 8.4386C4.81287 8.60234 4.69006 8.73684 4.52632 8.84211C4.36257 8.94737 4.18713 9 4 9C3.73099 9 3.49708 8.90058 3.29825 8.70175C3.09942 8.50292 3 8.26901 3 8C3 7.83626 3.03509 7.69006 3.10526 7.5614L4.85965 4.03509C5.03509 3.7193 5.27485 3.46784 5.57895 3.2807C5.88304 3.09357 6.21053 3 6.5614 3H17.4386C17.8012 3 18.1345 3.09357 18.4386 3.2807C18.7427 3.46784 18.9766 3.7193 19.1404 4.03509L20.8947 7.5614Z" fill="#333333"/>
</svg>
