<svg width="24" height="24" viewBox="0 0 24 24" fill="none" xmlns="http://www.w3.org/2000/svg">
<path d="M14 6.49123C14 5.85965 14.1579 5.27485 14.4737 4.73684C14.7895 4.19883 15.2164 3.77778 15.7544 3.47368C16.2924 3.15789 16.8772 3 17.5088 3C18.1404 3 18.7251 3.15789 19.2632 3.47368C19.8012 3.77778 20.2222 4.19883 20.5263 4.73684C20.8421 5.27485 21 5.85965 21 6.49123C21 7.12281 20.8421 7.7076 20.5263 8.24561C20.2222 8.78363 19.8012 9.21053 19.2632 9.52632C18.7251 9.84211 18.1404 10 17.5088 10H14V6.49123ZM16 8H17.5088C17.9883 8 18.3567 7.87134 18.614 7.61403C18.8713 7.34503 19 6.97076 19 6.49123C19 6.0117 18.8713 5.64327 18.614 5.38596C18.3567 5.12865 17.9883 5 17.5088 5C17.0292 5 16.655 5.12865 16.386 5.38596C16.1287 5.64327 16 6.0117 16 6.49123V8ZM17.5088 14C18.1404 14 18.7251 14.1579 19.2632 14.4737C19.8012 14.7778 20.2222 15.1988 20.5263 15.7368C20.8421 16.2749 21 16.8596 21 17.4912C21 18.1228 20.8421 18.7076 20.5263 19.2456C20.2222 19.7836 19.8012 20.2105 19.2632 20.5263C18.7251 20.8421 18.1404 21 17.5088 21C16.8772 21 16.2924 20.8421 15.7544 20.5263C15.2164 20.2105 14.7895 19.7836 14.4737 19.2456C14.1579 18.7076 14 18.1228 14 17.4912V14H17.5088ZM16 17.4912C16 17.9708 16.1287 18.345 16.386 18.614C16.655 18.8713 17.0292 19 17.5088 19C17.9883 19 18.3567 18.8713 18.614 18.614C18.8713 18.345 19 17.9708 19 17.4912C19 17.0117 18.8713 16.6433 18.614 16.386C18.3567 16.1287 17.9883 16 17.5088 16H16V17.4912ZM3 17.4912C3 16.8596 3.15789 16.2749 3.47368 15.7368C3.78947 15.1988 4.21637 14.7778 4.75439 14.4737C5.2924 14.1579 5.87719 14 6.50877 14H10V17.4912C10 18.1228 9.8421 18.7076 9.52632 19.2456C9.22222 19.7836 8.80117 20.2105 8.26316 20.5263C7.72515 20.8421 7.14035 21 6.50877 21C5.87719 21 5.2924 20.8421 4.75439 20.5263C4.21637 20.2105 3.78947 19.7836 3.47368 19.2456C3.15789 18.7076 3 18.1228 3 17.4912ZM5 17.4912C5 17.9708 5.12866 18.345 5.38597 18.614C5.65497 18.8713 6.02924 19 6.50877 19C6.9883 19 7.35673 18.8713 7.61404 18.614C7.87135 18.345 8 17.9708 8 17.4912V16H6.50877C6.02924 16 5.65497 16.1287 5.38597 16.386C5.12866 16.6433 5 17.0117 5 17.4912ZM3 6.49123C3 5.85965 3.15789 5.27485 3.47368 4.73684C3.78947 4.19883 4.21637 3.77778 4.75439 3.47368C5.2924 3.15789 5.87719 3 6.50877 3C7.14035 3 7.72515 3.15789 8.26316 3.47368C8.80117 3.77778 9.22222 4.19883 9.52632 4.73684C9.8421 5.27485 10 5.85965 10 6.49123V10H6.50877C5.87719 10 5.2924 9.84211 4.75439 9.52632C4.21637 9.21053 3.78947 8.78363 3.47368 8.24561C3.15789 7.7076 3 7.12281 3 6.49123ZM5 6.49123C5 6.97076 5.12866 7.34503 5.38597 7.61403C5.65497 7.87134 6.02924 8 6.50877 8H8V6.49123C8 6.0117 7.87135 5.64327 7.61404 5.38596C7.35673 5.12865 6.9883 5 6.50877 5C6.02924 5 5.65497 5.12865 5.38597 5.38596C5.12866 5.64327 5 6.0117 5 6.49123ZM16 8V16H8V8H16ZM10 14H14V10H10V14Z" fill="#333333"/>
</svg>
