<svg width="24" height="24" viewBox="0 0 24 24" fill="none" xmlns="http://www.w3.org/2000/svg">
<path d="M3 11C3 9.36257 3.40351 7.8538 4.21053 6.47368C5.01754 5.09357 6.10526 4.00585 7.47368 3.21053C8.8538 2.40351 10.3626 2 12 2C13.6374 2 15.1462 2.40351 16.5263 3.21053C17.9064 4.00585 18.9942 5.09357 19.7895 6.47368C20.5965 7.8538 21 9.36257 21 11C21 12.2164 20.7661 13.3743 20.2982 14.4737C19.8304 15.5614 19.1813 16.5263 18.3509 17.3684L12 23.7368L5.64912 17.3509C4.81871 16.5322 4.16959 15.5789 3.70175 14.4912C3.23392 13.3918 3 12.2281 3 11ZM10 11C10 11.3509 10.0877 11.6842 10.2632 12C10.4503 12.3041 10.6959 12.5497 11 12.7368C11.3158 12.9123 11.6491 13 12 13C12.3626 13 12.6959 12.9123 13 12.7368C13.3041 12.5497 13.5439 12.3041 13.7193 12C13.9064 11.6842 14 11.3509 14 11C14 10.6374 13.9064 10.3041 13.7193 10C13.5439 9.69591 13.3041 9.45614 13 9.2807C12.6959 9.09357 12.3626 9 12 9C11.6491 9 11.3158 9.09357 11 9.2807C10.6959 9.45614 10.4503 9.69591 10.2632 10C10.0877 10.3041 10 10.6374 10 11Z" fill="#333333"/>
</svg>
