<svg width="24" height="24" viewBox="0 0 24 24" fill="none" xmlns="http://www.w3.org/2000/svg">
<path d="M3.00003 1.57886L3.01758 1.5964L5.85968 4.43851L18.5614 17.1403L22.4211 20.9999L21 22.421L17.1579 18.5789L12 23.7368L5.64915 17.3508C4.81875 16.5321 4.16962 15.573 3.70179 14.4736C3.23395 13.3742 3.00003 12.2163 3.00003 10.9999C3.00003 10.0876 3.12869 9.20459 3.386 8.35079C3.655 7.48529 4.04097 6.68997 4.54389 5.96482L1.57898 2.99991L3.00003 1.57886ZM7.5088 3.26307C8.17547 2.85371 8.88892 2.54377 9.64916 2.33324C10.4094 2.11102 11.193 1.99991 12 1.99991C13.6375 1.99991 15.1462 2.40342 16.5263 3.21044C17.9065 4.00576 18.9942 5.09348 19.7895 6.47359C20.5965 7.85371 21 9.36248 21 10.9999C21 11.8069 20.8889 12.5906 20.6667 13.3508C20.4562 14.111 20.1404 14.8186 19.7193 15.4736L7.5088 3.26307Z" fill="#333333"/>
</svg>
