<svg width="24" height="24" viewBox="0 0 24 24" fill="none" xmlns="http://www.w3.org/2000/svg">
<path d="M4 18H16V6C16 4.89474 15.1053 4 14 4H4C2.89474 4 2 4.89474 2 6V16C2 17.1053 2.89474 18 4 18ZM17.5789 9C17.5789 9 17.5789 9 17.5965 9L20 11.4035C20 11.4211 20 11.4211 20 11.4211V16H16V9H17.5789ZM17.5789 7H14V18H20C21.1053 18 22 17.1053 22 16V11.4211C22 10.8772 21.7895 10.3684 21.4035 10L19 7.59649C18.6316 7.21053 18.1228 7 17.5789 7ZM4 17V18C4 19.6667 5.33333 21 7 21C8.66667 21 10 19.6667 10 18V17H8V18C8 18.6842 7.68421 19 7 19C6.31579 19 6 18.6842 6 18V17H4ZM14 17V18C14 19.6667 15.3333 21 17 21C18.6667 21 20 19.6667 20 18V17H18V18C18 18.6842 17.6842 19 17 19C16.3158 19 16 18.6842 16 18V17H14Z" fill="#333333"/>
</svg>
