<svg width="24" height="24" viewBox="0 0 24 24" fill="none" xmlns="http://www.w3.org/2000/svg">
<path d="M3 19.9997C3 21.1049 3.89474 21.9997 5 21.9997H19C20.1053 21.9997 21 21.1049 21 19.9997V9.99967C21 8.89441 20.1053 7.99967 19 7.99967H5C3.89474 7.99967 3 8.89441 3 9.99967V19.9997ZM10 14.9997C10 13.8944 10.8947 12.9997 12 12.9997C13.1053 12.9997 14 13.8944 14 14.9997C14 16.1049 13.1053 16.9997 12 16.9997C10.8947 16.9997 10 16.1049 10 14.9997ZM16 9.99967V5.99967C16 5.21019 15.7544 4.42072 15.3158 3.7716C14.8772 3.14002 14.2632 2.6137 13.5263 2.29791C12.807 1.99967 11.9825 1.92949 11.2281 2.06984C10.4386 2.22774 9.73684 2.6137 9.17544 3.17511L8.45614 3.87686L9.87719 5.29791L10.5789 4.57862C10.8947 4.26283 11.1579 4.12248 11.614 4.03476C12.0526 3.94704 12.3509 3.98213 12.7544 4.15756C13.1754 4.31546 13.4035 4.50844 13.6667 4.89441C13.9123 5.26283 14 5.54353 14 5.99967V9.99967H16Z" fill="#333333"/>
</svg>
