<svg width="24" height="24" viewBox="0 0 24 24" fill="none" xmlns="http://www.w3.org/2000/svg">
<path d="M3 19.9997C3 21.1049 3.89474 21.9997 5 21.9997H19C20.1053 21.9997 21 21.1049 21 19.9997V9.99968C21 8.89442 20.1053 7.99968 19 7.99968H5C3.89474 7.99968 3 8.89442 3 9.99968V19.9997ZM10 14.9997C10 13.8944 10.8947 12.9997 12 12.9997C13.1053 12.9997 14 13.8944 14 14.9997C14 16.1049 13.1053 16.9997 12 16.9997C10.8947 16.9997 10 16.1049 10 14.9997ZM16 9.99968V5.99968C16 5.21021 15.7544 4.42074 15.3158 3.77161C14.8772 3.14004 14.2632 2.61372 13.5263 2.29793C12.807 1.99968 11.9825 1.92951 11.2281 2.06986C10.4386 2.22775 9.73684 2.61372 9.17544 3.17512L8.45614 3.87688L9.87719 5.29793L10.5789 4.57863C10.8947 4.26284 11.1579 4.12249 11.614 4.03477C12.0526 3.94705 12.3509 3.98214 12.7544 4.15758C13.1754 4.31547 13.4035 4.50846 13.6667 4.89442C13.9123 5.26284 14 5.54354 14 5.99968V9.99968H16Z" fill="#333333"/>
</svg>
