<svg width="24" height="24" viewBox="0 0 24 24" fill="none" xmlns="http://www.w3.org/2000/svg">
<path d="M9 5H5C4.94152 5 4.91228 4.9883 4.91228 4.96491C4.92398 4.94152 4.94152 4.92982 4.96491 4.92982C4.9883 4.91813 5 4.94152 5 5V19C5 19.0585 4.9883 19.0877 4.96491 19.0877C4.94152 19.076 4.92398 19.0585 4.91228 19.0351C4.91228 19.0117 4.94152 19 5 19H9V21H5C4.64912 21 4.31579 20.9123 4 20.7368C3.69591 20.5497 3.45029 20.3041 3.26316 20C3.08772 19.6842 3 19.3509 3 19V5C3 4.63743 3.08772 4.30409 3.26316 4C3.45029 3.69591 3.69591 3.45614 4 3.2807C4.31579 3.09357 4.64912 3 5 3H9V5ZM14.5789 16L20 10.5789L21.4211 12L16 17.4211L14.5789 16ZM20 13.4211L14.5789 8L16 6.57895L21.4211 12L20 13.4211ZM20 13H7V11H20V13Z" fill="#333333"/>
</svg>
