<svg width="24" height="24" viewBox="0 0 24 24" fill="none" xmlns="http://www.w3.org/2000/svg">
<path d="M2 17.9825C2 19.1228 2.87719 20 4.01754 20H19.9825C21.1228 20 22 19.1228 22 17.9825V6.01754C22 5.8421 21.9825 5.68421 21.9474 5.52632L13.193 12.3333C12.4912 12.8947 11.5088 12.8947 10.807 12.3333L2.05263 5.52632C2.01754 5.68421 2 5.8421 2 6.01754V17.9825ZM3.4386 4.08772L12 10.7193L20.5614 4.08772C20.3684 4.03509 20.1754 4 19.9825 4H4.01754C3.82456 4 3.63158 4.03509 3.4386 4.08772Z" fill="#333333"/>
</svg>
