<svg width="24" height="24" viewBox="0 0 24 24" fill="none" xmlns="http://www.w3.org/2000/svg">
<path d="M3.82456 20.7718C3.53216 20.8654 3.23977 20.8712 2.94737 20.7894C2.66667 20.6958 2.4386 20.5321 2.26316 20.2981C2.08772 20.0642 2 19.7894 2 19.4736V6.22797C2 5.95896 2.07602 5.7075 2.22807 5.47358C2.39181 5.23966 2.60819 5.07592 2.87719 4.98235L8.57895 3.08762C8.80117 3.00574 9.02339 3.00574 9.24561 3.08762C9.46784 3.15779 9.64912 3.28645 9.78947 3.47358C9.92982 3.64902 10 3.85955 10 4.10516V18.7192L3.82456 20.7718ZM20.1754 3.22797C20.4678 3.1227 20.7544 3.11686 21.0351 3.21042C21.3275 3.30399 21.5614 3.46773 21.7368 3.70165C21.9123 3.93557 22 4.21042 22 4.52621V17.7718C22 18.0408 21.9181 18.2923 21.7544 18.5262C21.6023 18.7484 21.3918 18.9122 21.1228 19.0174L15.4211 20.9122C15.1988 20.9824 14.9766 20.9824 14.7544 20.9122C14.5322 20.842 14.3509 20.7192 14.2105 20.5438C14.0702 20.3566 14 20.1402 14 19.8946V5.2806L20.1754 3.22797ZM20.6842 19.1578L15 21.0525L8.68421 18.9473L9.31579 17.0525L15 18.9473L20.0526 17.2631L20.6842 19.1578ZM3.31579 4.842L9 2.94727L15.3158 5.05253L14.6842 6.94726L9 5.05253L3.94737 6.73674L3.31579 4.842Z" fill="#333333"/>
</svg>
