<svg width="24" height="24" viewBox="0 0 24 24" fill="none" xmlns="http://www.w3.org/2000/svg">
<path d="M3 1.57895L3.01754 1.59649L6.38596 4.96491L7.78947 6.35088L17.6491 16.2105L19.0351 17.614L22.4211 21L21 22.4211L17.614 19.0351C16.8304 19.6667 15.9591 20.152 15 20.4912C14.0526 20.8304 13.0526 21 12 21C10.3743 21 8.87135 20.5965 7.49123 19.7895C6.11111 18.9825 5.01754 17.8889 4.21053 16.5088C3.40351 15.1287 3 13.6257 3 12C3 10.9474 3.16959 9.94737 3.50877 9C3.84795 8.04094 4.33333 7.16959 4.96491 6.38596L1.57895 3L3 1.57895ZM5 12C5 13.3099 5.30409 14.5029 5.91228 15.5789C6.52047 16.6433 7.35673 17.4795 8.42105 18.0877C9.49708 18.6959 10.6901 19 12 19C12.807 19 13.5673 18.883 14.2807 18.6491C14.9942 18.4152 15.6433 18.076 16.2281 17.6316L6.36842 7.77193C5.92398 8.35672 5.5848 9.00585 5.35088 9.7193C5.11696 10.4327 5 11.193 5 12ZM8.17544 3.92982C8.74854 3.62573 9.35673 3.39766 10 3.24561C10.655 3.08187 11.3216 3 12 3C13.6374 3 15.1462 3.40351 16.5263 4.21053C17.9064 5.00585 18.9942 6.09357 19.7895 7.47368C20.5965 8.8538 21 10.3626 21 12C21 12.6784 20.9181 13.345 20.7544 14C20.6023 14.6433 20.3743 15.2515 20.0702 15.8246L18.5088 14.2632C18.6725 13.924 18.7953 13.5614 18.8772 13.1754C18.9591 12.7895 19 12.3977 19 12C19 10.6784 18.6959 9.48538 18.0877 8.42105C17.4795 7.35672 16.6433 6.52047 15.5789 5.91228C14.5146 5.30409 13.3216 5 12 5C11.6023 5 11.2105 5.04094 10.8246 5.12281C10.4386 5.20468 10.076 5.32749 9.73684 5.49123L8.17544 3.92982ZM11 5V1H13V5H11ZM11 23V19H13V23H11ZM23 13H19V11H23V13ZM5 13H1V11H5V13Z" fill="#333333"/>
</svg>
