<svg width="24" height="24" viewBox="0 0 24 24" fill="none" xmlns="http://www.w3.org/2000/svg">
<path d="M3 9V5C3 4.63743 3.08772 4.30409 3.26316 4C3.45029 3.69591 3.69591 3.45614 4 3.2807C4.31579 3.09357 4.64912 3 5 3H19C19.3626 3 19.6959 3.09357 20 3.2807C20.3041 3.45614 20.5439 3.69591 20.7193 4C20.9064 4.30409 21 4.63743 21 5V9H19V5C19 4.94152 19.0117 4.91813 19.0351 4.92982C19.0585 4.92982 19.0702 4.94152 19.0702 4.96491C19.0819 4.9883 19.0585 5 19 5H5C4.94152 5 4.91228 4.9883 4.91228 4.96491C4.92398 4.94152 4.94152 4.92982 4.96491 4.92982C4.9883 4.91813 5 4.94152 5 5V9H3ZM13.4211 8L8 13.4211L6.57895 12L12 6.57895L13.4211 8ZM16 13.4211L10.5789 8L12 6.57895L17.4211 12L16 13.4211ZM11 21V8H13V21H11Z" fill="#333333"/>
</svg>
