<svg width="24" height="24" viewBox="0 0 24 24" fill="none" xmlns="http://www.w3.org/2000/svg">
<path d="M20.6842 9.2807L17.614 6.33333C16.1754 4.92982 14.2281 4 12 4C7.5614 4 4 7.5614 4 12C4 16.4386 7.5614 20 12 20C14.2632 20 16.193 19.1053 17.6491 17.6667L18.3684 16.9649L16.9649 15.5263L16.2456 16.2281C15.0702 17.386 13.7544 18 12 18C8.54386 18 6 15.4561 6 12C6 8.54386 8.54386 6 12 6C13.7193 6 15.0526 6.63158 16.2456 7.77193L19.3158 10.7193L20.6842 9.2807ZM15 11H21V5H19V9H15V11Z" fill="#333333"/>
</svg>
