<svg width="24" height="24" viewBox="0 0 24 24" fill="none" xmlns="http://www.w3.org/2000/svg">
<path d="M2 12C2 10.1871 2.44444 8.51462 3.33333 6.98246C4.23392 5.45029 5.45029 4.23977 6.98246 3.35088C8.52632 2.45029 10.1988 2 12 2C13.8129 2 15.4854 2.45029 17.0175 3.35088C18.5497 4.23977 19.7602 5.45614 20.6491 7C21.5497 8.53216 22 10.1988 22 12C22 13.8012 21.5497 15.4737 20.6491 17.0175C19.7602 18.5497 18.5439 19.7661 17 20.6667C15.4678 21.5556 13.8012 22 12 22C10.1988 22 8.52632 21.5556 6.98246 20.6667C5.45029 19.7661 4.23392 18.5497 3.33333 17.0175C2.44444 15.4737 2 13.8012 2 12ZM10 12V9H8V12H10ZM16 12V9H14V12H16ZM7.77193 14.9298C8.67251 15.7018 9.44444 16.2398 10.0877 16.5439C10.7427 16.848 11.3801 17 12 17C12.6199 17 13.2573 16.848 13.9123 16.5439C14.5673 16.2398 15.3392 15.7018 16.2281 14.9298L14.9298 13.4211C14.4152 13.8538 13.9883 14.1871 13.6491 14.4211C13.3216 14.6433 13.0292 14.7953 12.7719 14.8772C12.5263 14.9591 12.269 15 12 15C11.731 15 11.4737 14.9591 11.2281 14.8772C10.9825 14.7953 10.6901 14.6433 10.3509 14.4211C10.0234 14.1871 9.59649 13.8538 9.07018 13.4211L7.77193 14.9298Z" fill="#333333"/>
</svg>
