<svg width="24" height="24" viewBox="0 0 24 24" fill="none" xmlns="http://www.w3.org/2000/svg">
<path d="M1.94727 14.5789L4.73674 19.4211L7.43849 18.5789C7.80691 18.8246 8.19288 19.0526 8.59639 19.2456L9.19288 22H14.8069L15.4034 19.2456C15.8069 19.0526 16.1929 18.8246 16.5613 18.5789L19.2631 19.4211L22.0525 14.5789L19.9648 12.6491C19.9999 12.2281 19.9999 11.7719 19.9648 11.3509L22.0525 9.42105L19.2631 4.57895L16.5613 5.42105C16.1929 5.17544 15.8069 4.94737 15.4034 4.75439L14.8069 2H9.19288L8.59639 4.75439C8.19288 4.94737 7.80691 5.17544 7.43849 5.42105L4.73674 4.57895L1.94727 9.42105L4.03498 11.3509C3.9999 11.7719 3.9999 12.2281 4.03498 12.6491L1.94727 14.5789ZM8.9999 12C8.9999 10.3333 10.3332 9 11.9999 9C13.6666 9 14.9999 10.3333 14.9999 12C14.9999 13.6667 13.6666 15 11.9999 15C10.3332 15 8.9999 13.6667 8.9999 12Z" fill="#333333"/>
</svg>
