<svg width="24" height="24" viewBox="0 0 24 24" fill="none" xmlns="http://www.w3.org/2000/svg">
<path d="M4 4.38604L12 0.912354L20 4.33341V12.0001C20 13.041 19.8012 14.0527 19.4035 15.0352C19.0058 16.0176 18.4211 16.889 17.6491 17.6492L13.4211 21.8773C13.0234 22.2749 12.5497 22.4738 12 22.4738C11.4503 22.4738 10.9766 22.2749 10.5789 21.8773L6.35088 17.6492C5.57895 16.889 4.99415 16.0176 4.59649 15.0352C4.19883 14.0527 4 13.041 4 12.0001V4.38604ZM11 14.4036L16.4386 9.00007L15.0175 7.57902L11 11.5966L9 9.57902L7.57895 11.0001L11 14.4036Z" fill="#333333"/>
</svg>
