<svg width="24" height="24" viewBox="0 0 24 24" fill="none" xmlns="http://www.w3.org/2000/svg">
<path d="M3 1.57902L3.01755 1.59656L5.26316 3.84218L18.3158 16.8948L22.4211 21.0001L21 22.4211L16.9474 18.3685L13.4211 21.8773C13.0234 22.2749 12.5497 22.4738 12 22.4738C11.4503 22.4738 10.9766 22.2749 10.5789 21.8773L6.35088 17.6492C5.57895 16.889 4.99415 16.0176 4.59649 15.0352C4.19883 14.0527 4 13.041 4 12.0001V5.42113L1.57895 3.00007L3 1.57902ZM12 0.912354L20 4.33341V12.0001C20 12.5264 19.9415 13.0469 19.8246 13.5615C19.7193 14.0761 19.5439 14.5732 19.2982 15.0527L7.22807 2.98253L12 0.912354Z" fill="#333333"/>
</svg>
