<svg width="24" height="24" viewBox="0 0 24 24" fill="none" xmlns="http://www.w3.org/2000/svg">
<path d="M15 11H21V5H19V9H15V11ZM5 19V15H9V13H3V19H5ZM3.2807 14.7018L6.22807 17.7544C7.70175 19.2456 9.75439 20.1404 12 20.1404C15.7018 20.1404 18.8421 17.6491 19.8246 14.2807L20.1053 13.3158L18.1754 12.7544L17.8947 13.7193C17.1228 16.386 14.8947 18.1404 12 18.1404C10.2281 18.1404 8.80702 17.5263 7.66667 16.3509L4.7193 13.2982L3.2807 14.7018ZM20.7193 9.29825L17.7719 6.24562C16.2807 4.77193 14.2632 3.85965 12 3.85965C8.29825 3.85965 5.15789 6.35088 4.17544 9.7193L3.89474 10.6842L5.82456 11.2456L6.10526 10.2807C6.87719 7.61404 9.10526 5.85965 12 5.85965C13.7719 5.85965 15.1754 6.49123 16.3333 7.64912L19.2807 10.7018L20.7193 9.29825Z" fill="#333333"/>
</svg>
