<svg width="24" height="24" viewBox="0 0 24 24" fill="none" xmlns="http://www.w3.org/2000/svg">
<path d="M15 11H21V4.99997H19V8.99997H15V11ZM5 19V15H9V13H3V19H5ZM3.42105 14.8421L6.22807 17.7544C7.66667 19.2456 9.75439 20.1403 12 20.1403C15.2632 20.1403 18.1053 18.193 19.4035 15.421L19.8246 14.5263L18.0175 13.6666L17.5789 14.5789C16.5614 16.7719 14.5439 18.1403 12 18.1403C10.2281 18.1403 8.78947 17.5263 7.66667 16.3508L4.85965 13.4386L3.42105 14.8421ZM20.5789 9.15786L17.7719 6.24558C16.3333 4.75436 14.2456 3.85962 12 3.85962C8.73684 3.85962 5.89474 5.80699 4.59649 8.57892L4.17544 9.47365L5.98246 10.3333L6.42105 9.42102C7.4386 7.22804 9.45614 5.85962 12 5.85962C13.7719 5.85962 15.2105 6.47365 16.3333 7.64909L19.1404 10.5614L20.5789 9.15786Z" fill="#333333"/>
</svg>
