<svg width="24" height="24" viewBox="0 0 24 24" fill="none" xmlns="http://www.w3.org/2000/svg">
<path d="M5 18.9825C5 19.0409 4.9883 19.0702 4.96491 19.0702C4.94152 19.0702 4.92982 19.0585 4.92982 19.0351C4.92982 19.0117 4.95906 19 5.01754 19H18.9825C19.0409 19 19.0702 19.0117 19.0702 19.0351C19.0702 19.0585 19.0585 19.0702 19.0351 19.0702C19.0117 19.0702 19 19.0409 19 18.9825V5.01754C19 4.95906 19.0117 4.92982 19.0351 4.92982C19.0585 4.92982 19.0702 4.94152 19.0702 4.96491C19.0702 4.9883 19.0409 5 18.9825 5H5.01754C4.95906 5 4.92982 4.9883 4.92982 4.96491C4.92982 4.94152 4.94152 4.92982 4.96491 4.92982C4.9883 4.92982 5 4.95906 5 5.01754V18.9825ZM3 5.01754C3 4.45614 3.19298 3.98246 3.57895 3.59649C3.97661 3.19883 4.45614 3 5.01754 3H18.9825C19.5439 3 20.0175 3.19883 20.4035 3.59649C20.8012 3.98246 21 4.45614 21 5.01754V18.9825C21 19.5439 20.8012 20.0234 20.4035 20.4211C20.0175 20.807 19.5439 21 18.9825 21H5.01754C4.45614 21 3.97661 20.807 3.57895 20.4211C3.19298 20.0234 3 19.5439 3 18.9825V5.01754ZM4 8.33333H20V10.3333H4V8.33333ZM20 15.6667H4V13.6667H20V15.6667ZM13.6667 20V9.33333H15.6667V20H13.6667ZM8.33333 20V9.33333H10.3333V20H8.33333Z" fill="#333333"/>
</svg>
