<svg width="24" height="24" viewBox="0 0 24 24" fill="none" xmlns="http://www.w3.org/2000/svg">
<path d="M1.96494 12C2.29243 10.5848 2.87722 9.30997 3.71933 8.17547C4.57313 7.04097 5.60822 6.11699 6.82459 5.40354L9.98249 8.56144C9.69009 8.72518 9.42108 8.92986 9.17547 9.17547C8.67255 9.67839 8.32752 10.2749 8.14038 10.9649C7.95325 11.655 7.95325 12.3451 8.14038 13.0351C8.32752 13.7135 8.67255 14.31 9.17547 14.8246C9.69009 15.3275 10.2866 15.6725 10.9649 15.8597C11.655 16.0468 12.3451 16.0468 13.0351 15.8597C13.7252 15.6725 14.3217 15.3275 14.8246 14.8246C15.0702 14.579 15.2749 14.31 15.4386 14.0176L18.8071 17.386C17.8831 18.2164 16.8363 18.8597 15.6667 19.3158C14.4971 19.772 13.2749 20 12 20C10.4328 20 8.9474 19.6609 7.54389 18.9825C6.14038 18.2924 4.9474 17.3392 3.96494 16.1228C2.99418 14.9065 2.32752 13.5322 1.96494 12ZM8.80705 4.56144C9.83629 4.18717 10.9006 4.00003 12 4.00003C13.579 4.00003 15.0644 4.33921 16.4562 5.01758C17.8597 5.69594 19.0468 6.64331 20.0176 7.85968C21 9.07606 21.6725 10.4562 22.0351 12C21.8597 12.7252 21.6082 13.4152 21.2807 14.0702C20.9649 14.7135 20.5848 15.3217 20.1404 15.8948L15.7895 11.5439C15.8012 11.1228 15.7252 10.7018 15.5614 10.2807C15.3977 9.85968 15.1521 9.49126 14.8246 9.17547C14.5088 8.84799 14.1404 8.60237 13.7193 8.43863C13.2983 8.27489 12.8772 8.19886 12.4562 8.21056L8.80705 4.56144ZM21 22.4211L1.57898 3.00003L3.00003 1.57898L22.4211 21L21 22.4211Z" fill="#333333"/>
</svg>
