<svg width="24" height="24" viewBox="0 0 24 24" fill="none" xmlns="http://www.w3.org/2000/svg">
<path d="M0.385965 10.4211C0.71345 9.00585 1.29825 7.73099 2.14035 6.59649C2.99415 5.46199 4.02924 4.53801 5.24561 3.82456L8.40351 6.98246C8.11111 7.1462 7.84211 7.35088 7.59649 7.59649C7.09357 8.09941 6.74854 8.69591 6.5614 9.38597C6.37427 10.076 6.37427 10.7661 6.5614 11.4561C6.74854 12.1345 7.09357 12.731 7.59649 13.2456C8.11111 13.7485 8.7076 14.0936 9.38597 14.2807C10.076 14.4678 10.7661 14.4678 11.4561 14.2807C12.1462 14.0936 12.7427 13.7485 13.2456 13.2456C13.4912 13 13.6959 12.731 13.8596 12.4386L17.2281 15.807C16.3041 16.6374 15.2573 17.2807 14.0877 17.7368C12.9181 18.193 11.6959 18.4211 10.4211 18.4211C8.8538 18.4211 7.36842 18.0819 5.96491 17.4035C4.5614 16.7135 3.36842 15.7602 2.38596 14.5439C1.4152 13.3275 0.748538 11.9532 0.385965 10.4211ZM7.22807 2.98246C8.25731 2.60819 9.32164 2.42105 10.4211 2.42105C12 2.42105 13.4854 2.76023 14.8772 3.4386C16.2807 4.11696 17.4678 5.06433 18.4386 6.2807C19.4211 7.49708 20.0936 8.87719 20.4561 10.4211C20.2807 11.1462 20.0292 11.8363 19.7018 12.4912C19.386 13.1345 19.0058 13.7427 18.5614 14.3158L14.2105 9.96491C14.2222 9.54386 14.1462 9.12281 13.9825 8.70175C13.8187 8.2807 13.5731 7.91228 13.2456 7.59649C12.9298 7.26901 12.5614 7.02339 12.1404 6.85965C11.7193 6.69591 11.2982 6.61988 10.8772 6.63158L7.22807 2.98246ZM19.4211 20.8421L0 1.42105L1.42105 0L20.8421 19.4211L19.4211 20.8421Z" fill="#333333"/>
</svg>
