<svg width="24" height="24" viewBox="0 0 24 24" fill="none" xmlns="http://www.w3.org/2000/svg">
<path d="M5.61406 13.0526L4.21055 11.614L4.92985 10.9123C5.90061 9.97661 6.98248 9.25731 8.17546 8.75438C9.38014 8.25146 10.655 8 12 8C13.345 8 14.6199 8.25146 15.8246 8.75438C17.0176 9.25731 18.0994 9.97661 19.0702 10.9123L19.7895 11.614L18.386 13.0526L17.6667 12.3509C16.9181 11.6023 16.0468 11.0175 15.0527 10.5965C14.1053 10.1988 13.0877 10 12 10C10.924 10 9.90645 10.1988 8.94739 10.5965C7.96493 11.0175 7.09359 11.6023 6.33335 12.3509L5.61406 13.0526ZM2.80704 10.2281L1.38599 8.80702L2.10528 8.10526C3.39183 6.81871 4.90061 5.80117 6.6316 5.05263C8.3509 4.35088 10.1404 4 12 4C13.8714 4 15.6608 4.35088 17.3684 5.05263C19.0994 5.80117 20.6082 6.81871 21.8948 8.10526L22.6141 8.80702L21.193 10.2281L20.4912 9.50877C19.4035 8.42105 18.1053 7.54971 16.5965 6.89474C15.1462 6.29824 13.6141 6 12 6C10.386 6 8.85382 6.29824 7.40353 6.89474C5.90645 7.54971 4.60821 8.42105 3.50879 9.50877L2.80704 10.2281ZM8.42107 15.8772L7.03511 14.4211L7.77195 13.7368C8.35675 13.1637 9.00002 12.7368 9.70178 12.4561C10.4386 12.152 11.2047 12 12 12C12.807 12 13.5731 12.152 14.2983 12.4561C15 12.7368 15.6433 13.1637 16.2281 13.7368L16.9649 14.4211L15.579 15.8772L14.8597 15.1754C14.462 14.8012 14.0176 14.5088 13.5263 14.2982C13.0585 14.0994 12.5497 14 12 14C11.4503 14 10.9415 14.0994 10.4737 14.2982C9.98248 14.5088 9.53803 14.8012 9.14037 15.1754L8.42107 15.8772ZM9.96493 17.3684C10.2924 16.9474 10.5439 16.655 10.7193 16.4912C10.8948 16.3275 11.0643 16.2164 11.2281 16.1579C11.4503 16.0526 11.7076 16 12 16C12.3041 16 12.5614 16.0526 12.772 16.1579C12.9357 16.2164 13.1053 16.3275 13.2807 16.4912C13.4679 16.655 13.7193 16.9474 14.0351 17.3684L12 19.4211L9.96493 17.3684Z" fill="#333333"/>
</svg>
