<svg width="24" height="24" viewBox="0 0 24 24" fill="none" xmlns="http://www.w3.org/2000/svg">
<path d="M12 4C10.6901 4 9.49708 4.30409 8.42105 4.91228C7.35673 5.52047 6.52047 6.35673 5.91228 7.42105C5.30409 8.48538 5 9.67836 5 11C5 11.9825 5.17544 12.8889 5.52632 13.7193C5.87719 14.538 6.38596 15.2807 7.05263 15.9474L10.5439 19.4386C11.0234 19.9064 11.5088 20.1404 12 20.1404C12.5029 20.1404 12.9942 19.9064 13.4737 19.4386L16.9474 15.9649C17.614 15.2866 18.1228 14.538 18.4737 13.7193C18.8246 12.8889 19 11.9825 19 11C19 9.67836 18.6959 8.48538 18.0877 7.42105C17.4795 6.35673 16.6433 5.52047 15.5789 4.91228C14.5146 4.30409 13.3216 4 12 4ZM12 2C13.6374 2 15.1462 2.40351 16.5263 3.21053C17.9064 4.00585 18.9942 5.09357 19.7895 6.47368C20.5965 7.8538 21 9.36257 21 11C21 12.2164 20.7661 13.3743 20.2982 14.4737C19.8304 15.5731 19.1813 16.538 18.3509 17.3684L14.8772 20.8421C14.3509 21.3918 13.7368 21.7602 13.0351 21.9474C12.345 22.1345 11.655 22.1345 10.9649 21.9474C10.2865 21.7602 9.67836 21.3918 9.14035 20.8421L5.64912 17.3509C4.81871 16.5322 4.16959 15.5789 3.70175 14.4912C3.23392 13.3918 3 12.2281 3 11C3 9.36257 3.40351 7.8538 4.21053 6.47368C5.01754 5.09357 6.10526 4.00585 7.47368 3.21053C8.8538 2.40351 10.3626 2 12 2ZM15 10C15.2807 10 15.5146 10.0994 15.7018 10.2982C15.9006 10.4854 16 10.7193 16 11C16 11.269 15.9006 11.5029 15.7018 11.7018C15.5146 11.9006 15.2807 12 15 12H11V8C11 7.7193 11.0994 7.48538 11.2982 7.29825C11.4971 7.09942 11.731 7 12 7C12.2807 7 12.5146 7.09942 12.7018 7.29825C12.9006 7.48538 13 7.7193 13 8V10H15ZM9 12C8.73099 12 8.49708 11.9006 8.29825 11.7018C8.09942 11.5029 8 11.269 8 11C8 10.7193 8.09942 10.4854 8.29825 10.2982C8.49708 10.0994 8.73099 10 9 10H13V14C13 14.269 12.9006 14.5029 12.7018 14.7018C12.5146 14.9006 12.2807 15 12 15C11.731 15 11.4971 14.9006 11.2982 14.7018C11.0994 14.5029 11 14.269 11 14V12H9Z" fill="#333333"/>
</svg>
