<svg width="24" height="24" viewBox="0 0 24 24" fill="none" xmlns="http://www.w3.org/2000/svg">
<path d="M3.70175 5.70175L5.70175 3.70176C5.89474 3.52632 6 3.2807 6 3C6 2.45614 5.54386 2 5 2C4.7193 2 4.47368 2.10526 4.29825 2.29825L2.29825 4.29825C2.10526 4.47368 2 4.7193 2 5C2 5.54386 2.45614 6 3 6C3.2807 6 3.52632 5.89474 3.70175 5.70175ZM21.7018 4.29825L19.7018 2.29825C19.5263 2.10526 19.2807 2 19 2C18.4561 2 18 2.45614 18 3C18 3.2807 18.1053 3.52632 18.2982 3.70176L20.2982 5.70175C20.4737 5.89474 20.7193 6 21 6C21.5439 6 22 5.54386 22 5C22 4.7193 21.8947 4.47368 21.7018 4.29825ZM12 19C7.98246 19 5 16.0175 5 12C5 7.98246 7.98246 5 12 5C16.0175 5 19 7.98246 19 12C19 16.0175 16.0175 19 12 19ZM12 21C17 21 21 17 21 12C21 7 17 3 12 3C7 3 3 7 3 12C3 17 7 21 12 21ZM15 11H13V9C13 8.45614 12.5439 8 12 8C11.4561 8 11 8.45614 11 9V13H15C15.5439 13 16 12.5439 16 12C16 11.4561 15.5439 11 15 11ZM9 13H11V15C11 15.5439 11.4561 16 12 16C12.5439 16 13 15.5439 13 15V11H9C8.45614 11 8 11.4561 8 12C8 12.5439 8.45614 13 9 13Z" fill="#333333"/>
</svg>
