<svg width="24" height="24" viewBox="0 0 24 24" fill="none" xmlns="http://www.w3.org/2000/svg">
<path d="M3.70175 5.70175L5.70175 3.70176C5.89474 3.52632 6 3.2807 6 3C6 2.45614 5.54386 2 5 2C4.7193 2 4.47368 2.10526 4.29825 2.29825L2.29825 4.29825C2.10526 4.47368 2 4.7193 2 5C2 5.54386 2.45614 6 3 6C3.2807 6 3.52632 5.89474 3.70175 5.70175ZM21.7018 4.29825L19.7018 2.29825C19.5263 2.10526 19.2807 2 19 2C18.4561 2 18 2.45614 18 3C18 3.2807 18.1053 3.52632 18.2982 3.70176L20.2982 5.70175C20.4737 5.89474 20.7193 6 21 6C21.5439 6 22 5.54386 22 5C22 4.7193 21.8947 4.47368 21.7018 4.29825ZM12 19C7.98246 19 5 16.0175 5 12C5 7.98246 7.98246 5 12 5C16.0175 5 19 7.98246 19 12C19 16.0175 16.0175 19 12 19ZM12 21C17 21 21 17 21 12C21 7 17 3 12 3C7 3 3 7 3 12C3 17 7 21 12 21ZM11.7018 13.2982L9.70175 11.2982C9.52632 11.1053 9.2807 11 9 11C8.45614 11 8 11.4561 8 12C8 12.2807 8.10526 12.5263 8.29825 12.7018L10.2982 14.7018C10.4737 14.8947 10.7193 15 11 15C11.5439 15 12 14.5439 12 14C12 13.7193 11.8947 13.4737 11.7018 13.2982ZM14.2982 9.29825L10.2982 13.2982C10.1053 13.4737 10 13.7193 10 14C10 14.5439 10.4561 15 11 15C11.2807 15 11.5263 14.8947 11.7018 14.7018L15.7018 10.7018C15.8947 10.5263 16 10.2807 16 10C16 9.45614 15.5439 9 15 9C14.7193 9 14.4737 9.10526 14.2982 9.29825Z" fill="#333333"/>
</svg>
