<svg width="24" height="24" viewBox="0 0 24 24" fill="none" xmlns="http://www.w3.org/2000/svg">
<path d="M3.70175 5.70175L5.70175 3.70176C5.89474 3.52632 6 3.2807 6 3C6 2.45614 5.54386 2 5 2C4.7193 2 4.47368 2.10526 4.29825 2.29825L2.29825 4.29825C2.10526 4.47368 2 4.7193 2 5C2 5.54386 2.45614 6 3 6C3.2807 6 3.52632 5.89474 3.70175 5.70175ZM21.7018 4.29825L19.7018 2.29825C19.5263 2.10526 19.2807 2 19 2C18.4561 2 18 2.45614 18 3C18 3.2807 18.1053 3.52632 18.2982 3.70176L20.2982 5.70175C20.4737 5.89474 20.7193 6 21 6C21.5439 6 22 5.54386 22 5C22 4.7193 21.8947 4.47368 21.7018 4.29825ZM12 19C7.98246 19 5 16.0175 5 12C5 7.98246 7.98246 5 12 5C16.0175 5 19 7.98246 19 12C19 16.0175 16.0175 19 12 19ZM12 21C17 21 21 17 21 12C21 7 17 3 12 3C7 3 3 7 3 12C3 17 7 21 12 21ZM11 8V12C11 12.5439 11.4561 13 12 13C12.5439 13 13 12.5439 13 12V8C13 7.45614 12.5439 7 12 7C11.4561 7 11 7.45614 11 8ZM11.2982 12.7018L14.2982 15.7018C14.4737 15.8947 14.7193 16 15 16C15.5439 16 16 15.5439 16 15C16 14.7193 15.8947 14.4737 15.7018 14.2982L12.7018 11.2982C12.5263 11.1053 12.2807 11 12 11C11.4561 11 11 11.4561 11 12C11 12.2807 11.1053 12.5263 11.2982 12.7018Z" fill="#333333"/>
</svg>
