<svg width="24" height="24" viewBox="0 0 24 24" fill="none" xmlns="http://www.w3.org/2000/svg">
<path d="M8.70175 9.70175C8.52632 9.90058 8.2924 10 8 10C7.73099 10 7.49708 9.90058 7.29825 9.70175C7.09941 9.50292 7 9.26901 7 9C7 8.7076 7.09941 8.47368 7.29825 8.29824L11.2982 4.29824C11.4854 4.09941 11.7193 4 12 4C12.2807 4 12.5146 4.09941 12.7018 4.29824C12.9006 4.48538 13 4.7193 13 5C13 5.2807 12.9006 5.51462 12.7018 5.70175L8.70175 9.70175ZM16.7018 8.29824C16.9006 8.47368 17 8.7076 17 9C17 9.26901 16.9006 9.50292 16.7018 9.70175C16.5146 9.90058 16.2807 10 16 10C15.7193 10 15.4854 9.90058 15.2982 9.70175L11.2982 5.70175C11.0994 5.51462 11 5.2807 11 5C11 4.7193 11.0994 4.48538 11.2982 4.29824C11.4971 4.09941 11.731 4 12 4C12.2924 4 12.5263 4.09941 12.7018 4.29824L16.7018 8.29824ZM13 19C13 19.269 12.9006 19.5029 12.7018 19.7018C12.5146 19.9006 12.2807 20 12 20C11.731 20 11.4971 19.9006 11.2982 19.7018C11.0994 19.5029 11 19.269 11 19V5C11 4.7193 11.0994 4.48538 11.2982 4.29824C11.4971 4.09941 11.731 4 12 4C12.2807 4 12.5146 4.09941 12.7018 4.29824C12.9006 4.48538 13 4.7193 13 5V19Z" fill="#333333"/>
</svg>
