<svg width="24" height="24" viewBox="0 0 24 24" fill="none" xmlns="http://www.w3.org/2000/svg">
<path d="M17 8C17 7.7193 17.0994 7.48538 17.2982 7.29825C17.4971 7.09942 17.731 7 18 7C18.2807 7 18.5146 7.09942 18.7018 7.29825C18.9006 7.48538 19 7.7193 19 8V18C19 18.269 18.9006 18.5029 18.7018 18.7018C18.5146 18.9006 18.2807 19 18 19C17.731 19 17.4971 18.9006 17.2982 18.7018C17.0994 18.5029 17 18.269 17 18V8ZM8 19C7.73099 19 7.49708 18.9006 7.29825 18.7018C7.09941 18.5029 7 18.269 7 18C7 17.7193 7.09941 17.4854 7.29825 17.2982C7.49708 17.0994 7.73099 17 8 17H18C18.2807 17 18.5146 17.0994 18.7018 17.2982C18.9006 17.4854 19 17.7193 19 18C19 18.269 18.9006 18.5029 18.7018 18.7018C18.5146 18.9006 18.2807 19 18 19H8ZM18.7018 17.2982C18.9006 17.4737 19 17.7076 19 18C19 18.269 18.9006 18.5029 18.7018 18.7018C18.5146 18.9006 18.2807 19 18 19C17.7193 19 17.4854 18.9006 17.2982 18.7018L5.29825 6.70176C5.09942 6.51462 5 6.2807 5 6C5 5.7193 5.09942 5.48538 5.29825 5.29825C5.49708 5.09942 5.73099 5 6 5C6.2924 5 6.52632 5.09942 6.70175 5.29825L18.7018 17.2982Z" fill="#333333"/>
</svg>
