<svg width="12" height="24" viewBox="0 0 12 24" fill="none" xmlns="http://www.w3.org/2000/svg">
<path d="M6.70175 13.2982L3.70175 10.2982C3.52632 10.1053 3.2807 10 3 10C2.45614 10 2 10.4561 2 11C2 11.2807 2.10526 11.5263 2.29825 11.7018L5.29825 14.7018C5.47368 14.8947 5.7193 15 6 15C6.54386 15 7 14.5439 7 14C7 13.7193 6.89474 13.4737 6.70175 13.2982ZM8.29825 10.2982L5.29825 13.2982C5.10526 13.4737 5 13.7193 5 14C5 14.5439 5.45614 15 6 15C6.2807 15 6.52632 14.8947 6.70175 14.7018L9.70175 11.7018C9.89474 11.5263 10 11.2807 10 11C10 10.4561 9.54386 10 9 10C8.7193 10 8.47368 10.1053 8.29825 10.2982ZM3 12H9C9.54386 12 10 11.5439 10 11C10 10.4561 9.54386 10 9 10H3C2.45614 10 2 10.4561 2 11C2 11.5439 2.45614 12 3 12ZM3 11L6 14L9 11H3Z" fill="#333333"/>
</svg>
