<svg width="24" height="24" viewBox="0 0 24 24" fill="none" xmlns="http://www.w3.org/2000/svg">
<path d="M5 8C5 7.7193 5.09942 7.48538 5.29825 7.29825C5.49708 7.09942 5.73099 7 6 7C6.2807 7 6.51462 7.09942 6.70175 7.29825C6.90058 7.48538 7 7.7193 7 8V18C7 18.269 6.90058 18.5029 6.70175 18.7018C6.51462 18.9006 6.2807 19 6 19C5.73099 19 5.49708 18.9006 5.29825 18.7018C5.09942 18.5029 5 18.269 5 18V8ZM16 17C16.2807 17 16.5146 17.0994 16.7018 17.2982C16.9006 17.4854 17 17.7193 17 18C17 18.269 16.9006 18.5029 16.7018 18.7018C16.5146 18.9006 16.2807 19 16 19H6C5.73099 19 5.49708 18.9006 5.29825 18.7018C5.09942 18.5029 5 18.269 5 18C5 17.7193 5.09942 17.4854 5.29825 17.2982C5.49708 17.0994 5.73099 17 6 17H16ZM6.70175 18.7018C6.52632 18.9006 6.2924 19 6 19C5.73099 19 5.49708 18.9006 5.29825 18.7018C5.09942 18.5029 5 18.269 5 18C5 17.7076 5.09942 17.4737 5.29825 17.2982L17.2982 5.29825C17.4854 5.09942 17.7193 5 18 5C18.2807 5 18.5146 5.09942 18.7018 5.29825C18.9006 5.48538 19 5.7193 19 6C19 6.2807 18.9006 6.51462 18.7018 6.70176L6.70175 18.7018Z" fill="#333333"/>
</svg>
