<svg width="24" height="24" viewBox="0 0 24 24" fill="none" xmlns="http://www.w3.org/2000/svg">
<path d="M17 6C17 5.7193 17.0994 5.48538 17.2982 5.29825C17.4971 5.09942 17.731 5 18 5C18.2807 5 18.5146 5.09942 18.7018 5.29825C18.9006 5.48538 19 5.7193 19 6V16C19 16.269 18.9006 16.5029 18.7018 16.7018C18.5146 16.9006 18.2807 17 18 17C17.731 17 17.4971 16.9006 17.2982 16.7018C17.0994 16.5029 17 16.269 17 16V6ZM8 7C7.73099 7 7.49708 6.90059 7.29825 6.70176C7.09941 6.50292 7 6.26901 7 6C7 5.7193 7.09941 5.48538 7.29825 5.29825C7.49708 5.09942 7.73099 5 8 5H18C18.2807 5 18.5146 5.09942 18.7018 5.29825C18.9006 5.48538 19 5.7193 19 6C19 6.26901 18.9006 6.50292 18.7018 6.70176C18.5146 6.90059 18.2807 7 18 7H8ZM6.70175 18.7018C6.52632 18.9006 6.2924 19 6 19C5.73099 19 5.49708 18.9006 5.29825 18.7018C5.09942 18.5029 5 18.269 5 18C5 17.7076 5.09942 17.4737 5.29825 17.2982L17.2982 5.29825C17.4854 5.09942 17.7193 5 18 5C18.2807 5 18.5146 5.09942 18.7018 5.29825C18.9006 5.48538 19 5.7193 19 6C19 6.2807 18.9006 6.51462 18.7018 6.70176L6.70175 18.7018Z" fill="#333333"/>
</svg>
