<svg width="24" height="24" viewBox="0 0 24 24" fill="none" xmlns="http://www.w3.org/2000/svg">
<path d="M4.85964 10.5439C4.4035 11.0117 4.17543 11.4971 4.17543 12C4.17543 12.5029 4.4035 12.9883 4.85964 13.4561L8.9649 17.5614C9.10525 17.6901 9.269 17.7953 9.45613 17.8772C9.64327 17.9591 9.83625 18 10.0351 18H17.9474C18.3801 18 18.7485 17.9181 19.0526 17.7544C19.3567 17.5906 19.5906 17.3567 19.7544 17.0526C19.9181 16.7368 20 16.3684 20 15.9474V8.05263C20 7.61988 19.9181 7.25146 19.7544 6.94737C19.5906 6.64327 19.3567 6.40936 19.0526 6.24561C18.7485 6.08187 18.3801 6 17.9474 6H10.0351C9.83625 6 9.64327 6.04094 9.45613 6.12281C9.269 6.19298 9.10525 6.29825 8.9649 6.4386L4.85964 10.5439ZM7.56139 5.03509C7.87718 4.7076 8.269 4.45614 8.73683 4.2807C9.20467 4.09357 9.63742 4 10.0351 4H17.9474C18.6959 4 19.3801 4.18129 20 4.54386C20.6199 4.89474 21.1053 5.38012 21.4561 6C21.8187 6.61988 22 7.30409 22 8.05263V15.9474C22 16.6842 21.8187 17.3626 21.4561 17.9825C21.1053 18.6023 20.6199 19.0936 20 19.4561C19.3801 19.8187 18.6959 20 17.9474 20H10.0351C9.63742 20 9.20467 19.9123 8.73683 19.7368C8.269 19.5497 7.87718 19.2924 7.56139 18.9649L3.45613 14.8596C2.92982 14.3333 2.57309 13.7251 2.38596 13.0351C2.19882 12.345 2.19882 11.655 2.38596 10.9649C2.57309 10.2632 2.92982 9.65497 3.45613 9.14035L7.56139 5.03509ZM16.2982 8.29824C16.4854 8.09941 16.7193 8 17 8C17.2807 8 17.5146 8.09941 17.7017 8.29824C17.9006 8.48538 18 8.7193 18 9C18 9.2807 17.9006 9.51462 17.7017 9.70175L11.7017 15.7018C11.5263 15.9006 11.2924 16 11 16C10.731 16 10.4971 15.9006 10.2982 15.7018C10.0994 15.5029 9.99999 15.269 9.99999 15C9.99999 14.7076 10.0994 14.4737 10.2982 14.2982L16.2982 8.29824ZM17.7017 14.2982C17.9006 14.4737 18 14.7076 18 15C18 15.269 17.9006 15.5029 17.7017 15.7018C17.5146 15.9006 17.2807 16 17 16C16.7193 16 16.4854 15.9006 16.2982 15.7018L10.2982 9.70175C10.0994 9.51462 9.99999 9.2807 9.99999 9C9.99999 8.7193 10.0994 8.48538 10.2982 8.29824C10.4971 8.09941 10.731 8 11 8C11.2924 8 11.5263 8.09941 11.7017 8.29824L17.7017 14.2982Z" fill="#333333"/>
</svg>
