<svg width="24" height="24" viewBox="0 0 24 24" fill="none" xmlns="http://www.w3.org/2000/svg">
<path d="M17.0702 13.8596C17.3158 13.8596 17.5263 13.7719 17.7018 13.5965C17.8889 13.4211 17.9825 13.2047 17.9825 12.9474C17.9825 12.6901 17.8889 12.4737 17.7018 12.2982C17.5263 12.1228 17.3158 12.0351 17.0702 12.0351C16.8129 12.0351 16.5906 12.1228 16.4035 12.2982C16.2281 12.4737 16.1404 12.6901 16.1404 12.9474C16.1404 13.2047 16.2281 13.4211 16.4035 13.5965C16.5906 13.7719 16.8129 13.8596 17.0702 13.8596ZM6.92982 13.8596C7.18713 13.8596 7.40351 13.7719 7.57895 13.5965C7.76608 13.4211 7.85965 13.2047 7.85965 12.9474C7.85965 12.6901 7.76608 12.4737 7.57895 12.2982C7.40351 12.1228 7.18713 12.0351 6.92982 12.0351C6.68421 12.0351 6.46784 12.1228 6.2807 12.2982C6.10526 12.4737 6.01754 12.6901 6.01754 12.9474C6.01754 13.2047 6.10526 13.4211 6.2807 13.5965C6.46784 13.7719 6.68421 13.8596 6.92982 13.8596ZM17.386 8.35088C18.9766 9.21637 20.269 10.4094 21.2632 11.9298C22.269 13.4503 22.848 15.1404 23 17H1C1.15205 15.1287 1.72515 13.4327 2.7193 11.9123C3.72515 10.3918 5.02339 9.20468 6.61403 8.35088L4.77193 5.17544C4.72515 5.08187 4.71345 4.9883 4.73684 4.89474C4.76023 4.78947 4.81871 4.7076 4.91228 4.64912C5.00585 4.60234 5.09942 4.59064 5.19298 4.61403C5.29825 4.63743 5.38012 4.69591 5.4386 4.78947L7.29825 8C8.73684 7.33333 10.3041 7 12 7C13.6959 7 15.2632 7.33333 16.7018 8L18.5614 4.78947C18.6199 4.69591 18.6959 4.63743 18.7895 4.61403C18.8947 4.59064 18.9942 4.60234 19.0877 4.64912C19.1813 4.7076 19.2398 4.78947 19.2632 4.89474C19.2866 4.9883 19.2749 5.08187 19.2281 5.17544L17.386 8.35088Z" fill="#333333"/>
</svg>
