<svg width="24" height="24" viewBox="0 0 24 24" fill="none" xmlns="http://www.w3.org/2000/svg">
<path d="M19.2105 19.3157C19.9357 19.3157 20.5497 19.1578 21.0526 18.842C21.5556 18.5262 21.9415 18.1286 22.2105 17.649C22.7368 16.7251 23 15.5789 23 14.2104C23 12.9473 22.8363 11.7309 22.5088 10.5613C22.193 9.39172 21.7193 8.33324 21.0877 7.38587C20.5029 6.50868 19.8363 5.84201 19.0877 5.38587C18.3509 4.92973 17.5789 4.70166 16.7719 4.70166C15.8246 4.70166 14.8889 5.09932 13.9649 5.89464C13.4854 6.3157 13.0292 6.80692 12.5965 7.36833C12.1754 7.92973 11.6842 8.63733 11.1228 9.49113L9.94737 11.2982L9.42105 12.1403C8.53216 13.5555 7.8421 14.6022 7.35088 15.2806C6.85965 15.9707 6.44444 16.421 6.10526 16.6315C5.77778 16.842 5.43275 16.9473 5.07018 16.9473C4.82456 16.9473 4.59064 16.8888 4.36842 16.7718C4.1462 16.6432 3.95906 16.456 3.80702 16.2104C3.51462 15.7543 3.36842 15.1286 3.36842 14.3332C3.36842 13.3157 3.50292 12.3098 3.77193 11.3157C4.05263 10.3215 4.4269 9.46774 4.89474 8.75429C5.63158 7.64318 6.43275 7.08763 7.29825 7.08763C7.81287 7.08763 8.25731 7.21043 8.63158 7.45605C9.00585 7.68997 9.38012 8.0116 9.75439 8.42096C10.0351 8.71336 10.3918 9.16365 10.8246 9.77184C11.2573 10.38 11.7076 11.0759 12.1754 11.8596L14.1404 15.1578C14.9942 16.573 15.7485 17.5847 16.4035 18.1929C16.8596 18.6256 17.3099 18.9239 17.7544 19.0876C18.1988 19.2397 18.6842 19.3157 19.2105 19.3157ZM20.9123 14.2806C20.9123 16.0584 20.345 16.9473 19.2105 16.9473C18.9415 16.9473 18.6901 16.8829 18.4561 16.7543C18.2339 16.6139 17.9766 16.3683 17.6842 16.0175C17.1579 15.3625 16.2982 14.0291 15.1053 12.0175L14.5263 11.0876C13.7544 9.78938 13.0409 8.72505 12.386 7.89464C11.731 7.05254 11.1053 6.38587 10.5088 5.89464C9.52632 5.09932 8.46784 4.70166 7.33333 4.70166C6.46784 4.70166 5.64912 4.95897 4.87719 5.47359C4.10526 5.98821 3.4386 6.68412 2.87719 7.56131C2.26901 8.48529 1.80117 9.53207 1.47368 10.7017C1.15789 11.8713 1 13.0525 1 14.2455C1 15.5789 1.25731 16.6783 1.77193 17.5438C2.48538 18.7251 3.5848 19.3157 5.07018 19.3157C5.76023 19.3157 6.38597 19.1461 6.94737 18.8069C7.52047 18.456 8.10526 17.8771 8.70175 17.0701C9.05263 16.6022 9.37427 16.1344 9.66667 15.6666C9.95906 15.187 10.4503 14.3332 11.1404 13.1052L11.8421 11.8771L12.0351 11.5613C12.6901 10.38 13.2047 9.51453 13.5789 8.96482C14.117 8.1578 14.6257 7.56131 15.1053 7.17534C15.5848 6.77768 16.0994 6.57885 16.6491 6.57885C17.1637 6.57885 17.655 6.7426 18.1228 7.07008C18.5906 7.38587 19.0117 7.83616 19.386 8.42096C19.8889 9.18119 20.269 10.0818 20.5263 11.1227C20.7836 12.1636 20.9123 13.2163 20.9123 14.2806Z" fill="#333333"/>
</svg>
