<svg width="24" height="24" viewBox="0 0 24 24" fill="none" xmlns="http://www.w3.org/2000/svg">
<path d="M12 7.38597C12.8421 7.38597 13.614 7.59649 14.3158 8.01754C15.0292 8.4269 15.5906 8.9883 16 9.70175C16.4211 10.4035 16.6316 11.1696 16.6316 12C16.6316 12.8421 16.4211 13.6199 16 14.3333C15.5906 15.0351 15.0292 15.5965 14.3158 16.0175C13.614 16.4269 12.8421 16.6316 12 16.6316C11.1696 16.6316 10.3977 16.4269 9.68421 16.0175C8.98246 15.5965 8.42105 15.0351 8 14.3333C7.59064 13.6199 7.38596 12.8421 7.38596 12C7.38596 11.1696 7.59064 10.4035 8 9.70175C8.42105 8.9883 8.98246 8.4269 9.68421 8.01754C10.3977 7.59649 11.1696 7.38597 12 7.38597ZM12 15C12.5497 15 13.0526 14.8655 13.5088 14.5965C13.9649 14.3275 14.3275 13.9649 14.5965 13.5088C14.8655 13.0526 15 12.5497 15 12C15 11.462 14.8655 10.9649 14.5965 10.5088C14.3275 10.0409 13.9649 9.67251 13.5088 9.40351C13.0526 9.1345 12.5497 9 12 9C11.462 9 10.9591 9.1345 10.4912 9.40351C10.0351 9.67251 9.67251 10.0409 9.40351 10.5088C9.1345 10.9649 9 11.462 9 12C9 12.5497 9.1345 13.0526 9.40351 13.5088C9.67251 13.9649 10.0351 14.3275 10.4912 14.5965C10.9591 14.8655 11.462 15 12 15ZM16.807 8.2807C16.5146 8.2807 16.2632 8.17544 16.0526 7.96491C15.8421 7.75439 15.7368 7.49708 15.7368 7.19298C15.7368 6.90058 15.8421 6.64912 16.0526 6.4386C16.2632 6.22807 16.5146 6.12281 16.807 6.12281C17.1111 6.12281 17.3684 6.22807 17.5789 6.4386C17.7895 6.64912 17.8947 6.90058 17.8947 7.19298C17.8947 7.48538 17.7895 7.74269 17.5789 7.96491C17.3684 8.17544 17.1111 8.2807 16.807 8.2807ZM12 3C13.5205 3 14.7602 3.01754 15.7193 3.05263C16.5848 3.09941 17.3158 3.23977 17.9123 3.47368C18.5088 3.7076 19.0351 4.05263 19.4912 4.50877C19.9474 4.96491 20.2924 5.49708 20.5263 6.10526C20.7719 6.73684 20.9123 7.46784 20.9474 8.29825C20.9825 9.25731 21 10.4912 21 12C21 13.5088 20.9825 14.7485 20.9474 15.7193C20.9123 16.5497 20.7719 17.2749 20.5263 17.8947C20.2924 18.5029 19.9474 19.0351 19.4912 19.4912C19.0351 19.9474 18.5029 20.2924 17.8947 20.5263C17.2749 20.7719 16.5497 20.9123 15.7193 20.9474C14.7602 20.9825 13.5205 21 12 21C10.4795 21 9.24561 20.9825 8.29825 20.9474C7.46784 20.9123 6.73684 20.7719 6.10526 20.5263C5.53216 20.3041 5 19.9591 4.50877 19.4912C4.05263 19.0351 3.7076 18.5029 3.47368 17.8947C3.22807 17.2749 3.08772 16.5497 3.05263 15.7193C3.01754 14.7485 3 13.5088 3 12C3 10.4795 3.01754 9.23977 3.05263 8.2807C3.08772 7.46199 3.22807 6.73684 3.47368 6.10526C3.69591 5.53216 4.04094 5 4.50877 4.50877C5 4.04094 5.53216 3.69591 6.10526 3.47368C6.73684 3.22807 7.46784 3.08772 8.29825 3.05263C9.26901 3.01754 10.5029 3 12 3ZM12 4.61403C10.5263 4.61403 9.31579 4.63158 8.36842 4.66667C7.69006 4.70175 7.1345 4.80702 6.70175 4.98246C6.30409 5.1345 5.95906 5.35673 5.66667 5.64912C5.37427 5.94152 5.1462 6.28655 4.98246 6.68421C4.80702 7.12866 4.7076 7.68421 4.68421 8.35088C4.66082 8.80702 4.64328 9.28655 4.63158 9.78947C4.63158 10.2924 4.63158 11.0292 4.63158 12C4.63158 12.9708 4.63158 13.7076 4.63158 14.2105C4.64328 14.7018 4.66082 15.1754 4.68421 15.6316C4.7076 16.2982 4.80702 16.8538 4.98246 17.2982C5.1462 17.6959 5.37427 18.0409 5.66667 18.3333C5.95906 18.6257 6.30409 18.848 6.70175 19C7.18129 19.1871 7.73684 19.2924 8.36842 19.3158C9.31579 19.3509 10.5263 19.3684 12 19.3684C13.4737 19.3684 14.6901 19.3509 15.6491 19.3158C16.2807 19.2924 16.8363 19.1871 17.3158 19C17.7134 18.848 18.0585 18.6257 18.3509 18.3333C18.6433 18.0409 18.8655 17.6959 19.0175 17.2982C19.2047 16.8187 19.3099 16.2632 19.3333 15.6316C19.3684 14.6842 19.386 13.4737 19.386 12C19.386 10.5263 19.3684 9.30994 19.3333 8.35088C19.3099 7.7193 19.2047 7.16374 19.0175 6.68421C18.8655 6.28655 18.6433 5.94152 18.3509 5.64912C18.0585 5.35673 17.7134 5.1345 17.3158 4.98246C16.883 4.80702 16.3275 4.70175 15.6491 4.66667C14.7018 4.63158 13.4854 4.61403 12 4.61403Z" fill="#333333"/>
</svg>
