<svg width="24" height="24" viewBox="0 0 24 24" fill="none" xmlns="http://www.w3.org/2000/svg">
<path d="M11.7368 8.66667C11.7368 9.4152 11.5497 10.0117 11.1754 10.4561C10.9532 10.7251 10.6374 10.9591 10.2281 11.1579C10.848 11.3684 11.3216 11.7251 11.6491 12.2281C11.9766 12.7076 12.1404 13.3041 12.1404 14.0175C12.1404 14.731 11.9532 15.3801 11.5789 15.9649C11.345 16.3392 11.0585 16.655 10.7193 16.9123C10.2982 17.2164 9.83041 17.4211 9.31579 17.5263C8.77778 17.6316 8.19298 17.6842 7.5614 17.6842H2V5.49123H7.96491C9.48538 5.52632 10.5556 5.96491 11.1754 6.80702C11.5497 7.29825 11.7368 7.91813 11.7368 8.66667ZM20.0702 6.07018H14.7719V7.57895H20.0702V6.07018ZM15.4035 12.2982C15.4854 11.7134 15.6959 11.2456 16.0351 10.8947C16.3743 10.5556 16.848 10.386 17.4561 10.386C18.0175 10.386 18.4912 10.5439 18.8772 10.8596C19.2632 11.1988 19.4737 11.6784 19.5088 12.2982H15.4035ZM19.614 8.85965C18.9708 8.57895 18.2515 8.4386 17.4561 8.4386C16.1345 8.4386 15.0468 8.8538 14.193 9.68421C13.3509 10.5263 12.9298 11.7251 12.9298 13.2807C12.9298 14.9532 13.3977 16.1579 14.3333 16.8947C15.269 17.6316 16.3392 18 17.5439 18C19.0292 18 20.1754 17.5614 20.9825 16.6842C21.5088 16.1345 21.807 15.5906 21.8772 15.0526H19.4386C19.3099 15.2982 19.1462 15.5088 18.9474 15.6842C18.5848 15.9532 18.1404 16.0877 17.614 16.0877C17.0994 16.0877 16.6608 15.9766 16.2982 15.7544C15.7018 15.3918 15.3801 14.7544 15.3333 13.8421H22C22 13 21.9708 12.4035 21.9123 12.0526C21.807 11.3743 21.5673 10.7544 21.193 10.193C20.7719 9.5848 20.2456 9.14035 19.614 8.85965ZM7.45614 15.5789C8.00585 15.5789 8.4269 15.5088 8.7193 15.3684C9.25731 15.0877 9.52632 14.5789 9.52632 13.8421C9.52632 13.2105 9.26316 12.7719 8.73684 12.5263C8.44444 12.3977 8.03509 12.3333 7.50877 12.3333H4.45614V15.5789H7.45614ZM4.45614 10.3158H7.47368C8.0117 10.3158 8.44444 10.2105 8.77193 10C9.11111 9.80117 9.2807 9.44444 9.2807 8.92982C9.2807 8.35672 9.05848 7.98246 8.61404 7.80702C8.20468 7.67836 7.7193 7.61403 7.15789 7.61403H4.45614V10.3158Z" fill="#333333"/>
</svg>
