<svg width="24" height="24" viewBox="0 0 24 24" fill="none" xmlns="http://www.w3.org/2000/svg">
<path d="M18.9649 5.66667C21.3275 9.16374 22.3099 12.9591 21.9123 17.0526L21.8947 17.1053C20.3041 18.2515 18.6316 19.0877 16.8772 19.614C16.8655 19.6257 16.8421 19.6199 16.807 19.5965C16.3743 18.9766 16.0351 18.4211 15.7895 17.9298C15.7661 17.8947 15.7778 17.8655 15.8246 17.8421C16.386 17.6433 16.9064 17.3977 17.386 17.1053C17.4094 17.0936 17.4211 17.076 17.4211 17.0526C17.4211 17.0292 17.4152 17.0117 17.4035 17L17.0877 16.7544C17.0643 16.731 17.0409 16.731 17.0175 16.7544C15.4035 17.5029 13.731 17.8772 12 17.8772C10.2807 17.8772 8.60234 17.5029 6.96491 16.7544C6.95322 16.7427 6.92982 16.7427 6.89474 16.7544L6.59649 17C6.5848 17.0117 6.57895 17.0292 6.57895 17.0526C6.57895 17.076 6.5848 17.0936 6.59649 17.1053C7.21637 17.4444 7.73684 17.6901 8.1579 17.8421C8.20468 17.8655 8.21637 17.8947 8.19298 17.9298C7.90058 18.5146 7.5614 19.0702 7.17544 19.5965C7.15205 19.6199 7.12865 19.6257 7.10526 19.614C5.35088 19.0877 3.68421 18.2515 2.10526 17.1053C2.09357 17.0936 2.08772 17.076 2.08772 17.0526C1.90058 15.076 2.03509 13.152 2.49123 11.2807C2.94737 9.39766 3.79532 7.52632 5.03509 5.66667C5.03509 5.65497 5.04678 5.64912 5.07018 5.64912C6.32164 5.05263 7.67836 4.63158 9.14035 4.38597C9.15205 4.37427 9.16374 4.37427 9.17544 4.38597C9.18713 4.38597 9.19298 4.39181 9.19298 4.40351C9.4269 4.81287 9.60234 5.16374 9.7193 5.45614C11.2281 5.22222 12.7485 5.22222 14.2807 5.45614C14.4795 5 14.6491 4.64912 14.7895 4.40351C14.8246 4.36842 14.848 4.36257 14.8596 4.38597C16.2982 4.63158 17.655 5.05263 18.9298 5.64912L18.9649 5.66667ZM8.68421 14.7719C9.18713 14.7719 9.60819 14.5789 9.94737 14.193C10.2982 13.7953 10.4737 13.3158 10.4737 12.7544C10.4854 12.2047 10.3158 11.7368 9.96491 11.3509C9.61403 10.9532 9.18713 10.7544 8.68421 10.7544C8.18129 10.7544 7.75439 10.9532 7.40351 11.3509C7.05263 11.7368 6.87719 12.2047 6.87719 12.7544C6.87719 13.3158 7.05263 13.7953 7.40351 14.193C7.76608 14.5789 8.19298 14.7719 8.68421 14.7719ZM15.3333 14.7719C15.8363 14.7719 16.2573 14.5789 16.5965 14.193C16.9474 13.7953 17.1228 13.3158 17.1228 12.7544C17.1345 12.2047 16.9649 11.7368 16.614 11.3509C16.2632 10.9532 15.8363 10.7544 15.3333 10.7544C14.8304 10.7544 14.4035 10.9532 14.0526 11.3509C13.7018 11.7368 13.5263 12.2047 13.5263 12.7544C13.5263 13.3158 13.7018 13.7953 14.0526 14.193C14.4152 14.5789 14.8421 14.7719 15.3333 14.7719Z" fill="#333333"/>
</svg>
