<svg width="24" height="24" viewBox="0 0 24 24" fill="none" xmlns="http://www.w3.org/2000/svg">
<path d="M12 2C13.8129 2 15.4854 2.45029 17.0175 3.35088C18.5497 4.23977 19.7602 5.45029 20.6491 6.98246C21.5497 8.51462 22 10.1871 22 12C22 13.8129 21.5497 15.4854 20.6491 17.0175C19.7602 18.5497 18.5497 19.7661 17.0175 20.6667C15.4854 21.5556 13.8129 22 12 22C11.0058 22 10.0175 21.8538 9.03509 21.5614C9.69006 20.4737 10.1053 19.5965 10.2807 18.9298L10.8947 16.5614C11.0702 16.8772 11.3743 17.1462 11.807 17.3684C12.2398 17.5906 12.7018 17.7018 13.193 17.7018C14.1754 17.7018 15.0585 17.4269 15.8421 16.8772C16.6374 16.3158 17.2573 15.5614 17.7018 14.614C18.1579 13.6667 18.386 12.6257 18.386 11.4912C18.386 10.4035 18.1111 9.42105 17.5614 8.54386C17.0234 7.65497 16.2807 6.95906 15.3333 6.45614C14.3977 5.95322 13.3567 5.70175 12.2105 5.70175C10.8304 5.70175 9.64327 5.98246 8.64912 6.54386C7.65497 7.09357 6.90058 7.83041 6.38596 8.75439C5.87135 9.67836 5.61404 10.6784 5.61404 11.7544C5.61404 12.538 5.80117 13.3099 6.17544 14.0702C6.54971 14.8304 7.04094 15.3509 7.64912 15.6316C7.74269 15.6784 7.81287 15.6901 7.85965 15.6667C7.91813 15.6433 7.95906 15.5848 7.98246 15.4912L8.26316 14.3684C8.28655 14.2632 8.26316 14.1696 8.19298 14.0877C7.97076 13.8304 7.78947 13.4912 7.64912 13.0702C7.50877 12.6491 7.4386 12.2281 7.4386 11.807C7.4386 11.0585 7.61988 10.3509 7.98246 9.68421C8.34503 9.01754 8.87135 8.47953 9.5614 8.07018C10.2515 7.66082 11.0526 7.45614 11.9649 7.45614C12.7719 7.45614 13.4912 7.63158 14.1228 7.98246C14.7544 8.32164 15.2456 8.80117 15.5965 9.42105C15.9591 10.0409 16.1404 10.7427 16.1404 11.5263C16.1404 12.4152 16 13.2105 15.7193 13.9123C15.4503 14.6023 15.076 15.1404 14.5965 15.5263C14.117 15.9123 13.5789 16.1053 12.9825 16.1053C12.655 16.1053 12.3626 16.0234 12.1053 15.8596C11.8596 15.6959 11.6784 15.4795 11.5614 15.2105C11.4561 14.9298 11.4386 14.6257 11.5088 14.2982C11.5673 14.076 11.6257 13.8597 11.6842 13.6491C11.7544 13.4269 11.8187 13.2047 11.8772 12.9825C12.0409 12.4561 12.1579 12.0468 12.2281 11.7544C12.2982 11.462 12.3333 11.1988 12.3333 10.9649C12.3333 10.5673 12.2222 10.2339 12 9.96491C11.7895 9.69591 11.4795 9.5614 11.0702 9.5614C10.5673 9.5614 10.1404 9.79532 9.78947 10.2632C9.4386 10.731 9.26316 11.3099 9.26316 12C9.26316 12.5614 9.36257 13.0526 9.5614 13.4737L8.38597 18.4386C8.23392 19.152 8.22222 20.1111 8.35088 21.3158C7.11111 20.8363 6.0117 20.1345 5.05263 19.2105C4.09357 18.2749 3.34503 17.1871 2.80702 15.9474C2.26901 14.7076 2 13.3918 2 12C2 10.1871 2.44444 8.51462 3.33333 6.98246C4.23392 5.45029 5.45029 4.23977 6.98246 3.35088C8.51462 2.45029 10.1871 2 12 2Z" fill="#333333"/>
</svg>
