<svg width="24" height="24" viewBox="0 0 24 24" fill="none" xmlns="http://www.w3.org/2000/svg">
<path d="M8.29825 20.2455C7.17544 20.2455 6.07602 20.0935 5 19.7894C3.93567 19.4736 2.93567 19.0116 2 18.4034C2.44444 18.4502 2.77193 18.4736 2.98246 18.4736C3.90643 18.4736 4.80702 18.3215 5.68421 18.0174C6.5614 17.7133 7.35672 17.2747 8.07018 16.7016C7.64912 16.6899 7.23392 16.6198 6.82456 16.4911C6.4152 16.3508 6.04094 16.1519 5.70175 15.8946C5 15.38 4.51462 14.7016 4.24561 13.8595C4.84211 13.9765 5.46199 13.9531 6.10526 13.7894C5.63743 13.6958 5.19883 13.5262 4.78947 13.2806C4.38012 13.035 4.02924 12.7309 3.73684 12.3683C3.43275 11.994 3.19883 11.5847 3.03509 11.1402C2.88304 10.6958 2.80702 10.2397 2.80702 9.77182V9.71919C3.38012 10.035 4 10.2046 4.66667 10.228C4.23392 9.93556 3.8655 9.57884 3.5614 9.15778C3.26901 8.72504 3.06433 8.25135 2.94737 7.73673C2.83041 7.23381 2.80702 6.72503 2.87719 6.21041C2.95906 5.69579 3.12865 5.21041 3.38596 4.75428C4.4386 6.04082 5.69591 7.05252 7.15789 7.78936C8.64327 8.5262 10.2047 8.94141 11.8421 9.03498C11.7485 8.59053 11.7193 8.14609 11.7544 7.70164C11.8012 7.2455 11.9181 6.81275 12.1053 6.4034C12.3041 5.99404 12.5556 5.62562 12.8596 5.29813C13.1754 4.97065 13.5263 4.70164 13.9123 4.49112C14.7193 4.04667 15.5848 3.90047 16.5088 4.05252C16.9532 4.1227 17.3743 4.26889 17.7719 4.49112C18.1813 4.70164 18.538 4.97065 18.8421 5.29813C19.7895 5.0993 20.6608 4.76597 21.4561 4.29813C21.2924 4.77767 21.0526 5.21041 20.7368 5.59638C20.4327 5.98234 20.0702 6.30398 19.6491 6.56129C20.4678 6.46772 21.2515 6.2572 22 5.92971C21.462 6.74843 20.7778 7.45603 19.9474 8.05252C19.9591 8.16948 19.9649 8.34492 19.9649 8.57884C19.9649 10.4619 19.5029 12.304 18.5789 14.1052C17.655 15.8946 16.3041 17.3683 14.5263 18.5262C12.7602 19.6724 10.6842 20.2455 8.29825 20.2455Z" fill="#333333"/>
</svg>
