<svg width="24" height="24" viewBox="0 0 24 24" fill="none" xmlns="http://www.w3.org/2000/svg">
<path d="M6.21053 12.5439H4.10526C3.52047 12.5439 3.02339 12.7485 2.61404 13.1579C2.20468 13.5556 2 14.0468 2 14.6316C2 15.2164 2.20468 15.7135 2.61404 16.1228C3.02339 16.5322 3.52047 16.7368 4.10526 16.7368C4.69006 16.7368 5.18713 16.5322 5.59649 16.1228C6.00585 15.7135 6.21053 15.2164 6.21053 14.6316V12.5439ZM7.26316 19.8947C7.26316 20.4795 7.46784 20.9766 7.87719 21.386C8.28655 21.7953 8.78363 22 9.36842 22C9.95322 22 10.4444 21.7953 10.8421 21.386C11.2515 20.9766 11.4561 20.4795 11.4561 19.8947V14.6316C11.4561 14.0468 11.2515 13.5556 10.8421 13.1579C10.4444 12.7485 9.95322 12.5439 9.36842 12.5439C8.78363 12.5439 8.28655 12.7485 7.87719 13.1579C7.46784 13.5556 7.26316 14.0468 7.26316 14.6316V19.8947ZM11.4561 6.21053V4.10526C11.4561 3.52047 11.2515 3.02339 10.8421 2.61404C10.4444 2.20468 9.95322 2 9.36842 2C8.78363 2 8.28655 2.20468 7.87719 2.61404C7.46784 3.02339 7.26316 3.52047 7.26316 4.10526C7.26316 4.69006 7.46784 5.18713 7.87719 5.59649C8.28655 6.00585 8.78363 6.21053 9.36842 6.21053H11.4561ZM4.10526 7.26316C3.52047 7.26316 3.02339 7.46784 2.61404 7.87719C2.20468 8.28655 2 8.78363 2 9.36842C2 9.95322 2.20468 10.4503 2.61404 10.8596C3.02339 11.2573 3.52047 11.4561 4.10526 11.4561H9.36842C9.95322 11.4561 10.4444 11.2515 10.8421 10.8421C11.2515 10.4327 11.4561 9.94152 11.4561 9.36842C11.4561 8.78363 11.2515 8.28655 10.8421 7.87719C10.4444 7.46784 9.95322 7.26316 9.36842 7.26316H4.10526ZM17.7895 11.4561H19.8947C20.4795 11.4561 20.9766 11.2573 21.386 10.8596C21.7953 10.4503 22 9.95322 22 9.36842C22 8.78363 21.7953 8.28655 21.386 7.87719C20.9766 7.46784 20.4795 7.26316 19.8947 7.26316C19.3099 7.26316 18.8129 7.46784 18.4035 7.87719C17.9942 8.28655 17.7895 8.78363 17.7895 9.36842V11.4561ZM16.7368 4.10526C16.7368 3.52047 16.5322 3.02339 16.1228 2.61404C15.7134 2.20468 15.2164 2 14.6316 2C14.0468 2 13.5497 2.20468 13.1404 2.61404C12.7427 3.02339 12.5439 3.52047 12.5439 4.10526V9.36842C12.5439 9.94152 12.7485 10.4327 13.1579 10.8421C13.5673 11.2515 14.0585 11.4561 14.6316 11.4561C15.2164 11.4561 15.7134 11.2573 16.1228 10.8596C16.5322 10.4503 16.7368 9.95322 16.7368 9.36842V4.10526ZM12.5439 17.7895V19.8947C12.5439 20.4795 12.7427 20.9766 13.1404 21.386C13.5497 21.7953 14.0468 22 14.6316 22C15.2164 22 15.7134 21.7953 16.1228 21.386C16.5322 20.9766 16.7368 20.4795 16.7368 19.8947C16.7368 19.3099 16.5322 18.8129 16.1228 18.4035C15.7134 17.9942 15.2164 17.7895 14.6316 17.7895H12.5439ZM19.8947 16.7368C20.4795 16.7368 20.9766 16.5322 21.386 16.1228C21.7953 15.7135 22 15.2164 22 14.6316C22 14.0468 21.7953 13.5556 21.386 13.1579C20.9766 12.7485 20.4795 12.5439 19.8947 12.5439H14.6316C14.0585 12.5439 13.5673 12.7485 13.1579 13.1579C12.7485 13.5556 12.5439 14.0468 12.5439 14.6316C12.5439 15.2164 12.7427 15.7135 13.1404 16.1228C13.5497 16.5322 14.0468 16.7368 14.6316 16.7368H19.8947Z" fill="#333333"/>
</svg>
