<svg width="24" height="24" viewBox="0 0 24 24" fill="none" xmlns="http://www.w3.org/2000/svg">
<path d="M14.7017 3.80711C14.304 4.26325 13.8187 4.63752 13.2456 4.92991C12.6842 5.21062 12.1286 5.32758 11.5789 5.28079C11.497 4.70769 11.5672 4.12875 11.7894 3.54395C12.0116 2.95915 12.3157 2.45038 12.7017 2.01763C13.0526 1.58489 13.5204 1.21646 14.1052 0.91237C14.69 0.608277 15.2397 0.444534 15.7543 0.421143C15.8245 1.00594 15.7602 1.59658 15.5614 2.19307C15.3625 2.78956 15.076 3.32758 14.7017 3.80711ZM11.7017 6.47377C11.8421 6.47377 12.0175 6.43869 12.228 6.36851C12.4502 6.29834 12.6783 6.21646 12.9122 6.1229C13.4736 5.90067 13.9649 5.73693 14.3859 5.63167C14.8187 5.51471 15.2748 5.47962 15.7543 5.52641C16.3508 5.5381 17.0058 5.69015 17.7192 5.98255C18.4327 6.26325 19.0584 6.80126 19.5964 7.59658C19.4444 7.66676 19.1871 7.85974 18.8245 8.17553C18.4619 8.49132 18.1169 8.94161 17.7894 9.52641C17.4736 10.1112 17.3216 10.8013 17.3333 11.5966C17.3333 12.5323 17.538 13.3159 17.9473 13.9475C18.3684 14.579 18.8128 15.0527 19.2806 15.3685C19.7485 15.6843 20.0292 15.8422 20.1228 15.8422C20.1228 15.889 20.0643 16.0703 19.9473 16.3861C19.8304 16.7018 19.6608 17.082 19.4385 17.5264C19.228 17.9592 18.9649 18.3978 18.6491 18.8422C18.1228 19.6492 17.6198 20.2808 17.1403 20.7369C16.6725 21.1814 16.1169 21.4094 15.4736 21.4211C15.1578 21.4328 14.883 21.4094 14.6491 21.351C14.4152 21.2808 14.1403 21.1755 13.8245 21.0352C13.4853 20.8948 13.1871 20.7896 12.9298 20.7194C12.6725 20.6375 12.3625 20.5966 11.9999 20.5966C11.6023 20.5966 11.2631 20.6375 10.9824 20.7194C10.7134 20.7896 10.3976 20.9065 10.035 21.0703C9.75433 21.1872 9.50872 21.2808 9.29819 21.351C9.08767 21.4211 8.8479 21.4621 8.57889 21.4738C7.93562 21.4855 7.35082 21.2516 6.82451 20.772C6.30989 20.2808 5.77772 19.6141 5.22802 18.772C4.59644 17.848 4.07012 16.7603 3.64907 15.5089C3.23971 14.2457 3.03503 12.965 3.03503 11.6668C3.03503 10.3568 3.32158 9.19307 3.89468 8.17553C4.36252 7.38021 4.9824 6.74863 5.75433 6.28079C6.52626 5.81296 7.35667 5.56734 8.24556 5.54395C8.58474 5.53225 8.91808 5.57904 9.24556 5.6843C9.57305 5.77787 9.95901 5.91237 10.4035 6.08781C10.9999 6.34512 11.4327 6.47377 11.7017 6.47377Z" fill="#333333"/>
</svg>
