<svg width="24" height="24" viewBox="0 0 24 24" fill="none" xmlns="http://www.w3.org/2000/svg">
<path d="M4.4386 5.12281C4.4386 4.37427 4.61989 3.68421 4.98246 3.05263C5.35673 2.42105 5.85965 1.92398 6.49123 1.5614C7.12281 1.18713 7.81287 1 8.56141 1H11.3158H12H12.6842H15.4386C16.1871 1 16.8772 1.18713 17.5088 1.5614C18.1404 1.92398 18.6374 2.42105 19 3.05263C19.3743 3.68421 19.5614 4.37427 19.5614 5.12281C19.5614 5.82456 19.3918 6.47953 19.0526 7.08772C18.7251 7.69591 18.2807 8.18713 17.7193 8.5614C18.2807 8.93567 18.7251 9.4269 19.0526 10.0351C19.3918 10.6433 19.5614 11.2982 19.5614 12C19.5614 12.7485 19.3743 13.4386 19 14.0702C18.6374 14.7018 18.1404 15.2047 17.5088 15.5789C16.8772 15.9415 16.1871 16.1228 15.4386 16.1228C14.924 16.1228 14.4269 16.0292 13.9474 15.8421C13.4795 15.655 13.0585 15.3977 12.6842 15.0702V15.4386V16.1228V18.8772C12.6842 19.6257 12.4971 20.3158 12.1228 20.9474C11.7602 21.5789 11.2632 22.0819 10.6316 22.4561C10 22.8187 9.30994 23 8.56141 23C7.81287 23 7.12281 22.8187 6.49123 22.4561C5.85965 22.0819 5.35673 21.5789 4.98246 20.9474C4.61989 20.3158 4.4386 19.6257 4.4386 18.8772C4.4386 18.1754 4.60234 17.5205 4.92983 16.9123C5.26901 16.3041 5.7193 15.8129 6.2807 15.4386C5.7193 15.0643 5.26901 14.5731 4.92983 13.9649C4.60234 13.3567 4.4386 12.7018 4.4386 12C4.4386 11.2982 4.60234 10.6433 4.92983 10.0351C5.26901 9.4269 5.7193 8.93567 6.2807 8.5614C5.7193 8.18713 5.26901 7.69591 4.92983 7.08772C4.60234 6.47953 4.4386 5.82456 4.4386 5.12281ZM11.3158 12V9.24562H8.56141C8.07018 9.24562 7.60819 9.36842 7.17544 9.61403C6.75439 9.85965 6.42106 10.193 6.17544 10.614C5.92983 11.0351 5.80702 11.4971 5.80702 12C5.80702 12.5029 5.92983 12.9649 6.17544 13.386C6.42106 13.807 6.75439 14.1404 7.17544 14.386C7.60819 14.6316 8.07018 14.7544 8.56141 14.7544H11.3158V12ZM8.56141 16.1228C8.07018 16.1228 7.60819 16.2456 7.17544 16.4912C6.75439 16.7368 6.42106 17.0702 6.17544 17.4912C5.92983 17.9123 5.80702 18.3743 5.80702 18.8772C5.80702 19.3684 5.92983 19.8246 6.17544 20.2456C6.43275 20.6667 6.77193 21.0058 7.19298 21.2632C7.61404 21.5088 8.07018 21.6316 8.56141 21.6316C9.06433 21.6316 9.52632 21.5088 9.94737 21.2632C10.3684 21.0175 10.7018 20.6842 10.9474 20.2632C11.193 19.8304 11.3158 19.3684 11.3158 18.8772V16.1228H8.56141ZM11.3158 2.36842H8.56141C8.07018 2.36842 7.61404 2.49708 7.19298 2.75438C6.77193 3 6.43275 3.33333 6.17544 3.75439C5.92983 4.17544 5.80702 4.63158 5.80702 5.12281C5.80702 5.62573 5.92983 6.08772 6.17544 6.50877C6.42106 6.92982 6.75439 7.26316 7.17544 7.50877C7.60819 7.75439 8.07018 7.87719 8.56141 7.87719H11.3158V2.36842ZM15.4386 7.87719C15.9415 7.87719 16.4035 7.75439 16.8246 7.50877C17.2456 7.26316 17.5789 6.92982 17.8246 6.50877C18.0702 6.08772 18.193 5.62573 18.193 5.12281C18.193 4.63158 18.0702 4.17544 17.8246 3.75439C17.5789 3.32164 17.2456 2.98246 16.8246 2.73684C16.4035 2.49123 15.9415 2.36842 15.4386 2.36842H12.6842V7.87719H15.4386ZM12.6842 12C12.6842 12.5029 12.807 12.9649 13.0526 13.386C13.2982 13.807 13.6316 14.1404 14.0526 14.386C14.4854 14.6316 14.9474 14.7544 15.4386 14.7544C15.9415 14.7544 16.4035 14.6316 16.8246 14.386C17.2456 14.1404 17.5789 13.807 17.8246 13.386C18.0702 12.9649 18.193 12.5029 18.193 12C18.193 11.4971 18.0702 11.0351 17.8246 10.614C17.5789 10.193 17.2456 9.85965 16.8246 9.61403C16.4035 9.36842 15.9415 9.24562 15.4386 9.24562C14.9474 9.24562 14.4854 9.36842 14.0526 9.61403C13.6316 9.85965 13.2982 10.193 13.0526 10.614C12.807 11.0351 12.6842 11.4971 12.6842 12Z" fill="#333333"/>
</svg>
