<svg width="24" height="24" viewBox="0 0 24 24" fill="none" xmlns="http://www.w3.org/2000/svg">
<path d="M12 2C13.1813 2 14.3275 2.20468 15.4386 2.61404C16.5614 3.02339 17.5731 3.60819 18.4737 4.36842C19.3743 5.12866 20.117 6.02339 20.7018 7.05263C21.2983 8.08187 21.6901 9.18129 21.8772 10.3509C22.0643 11.5205 22.041 12.6842 21.807 13.8421C21.5848 15 21.1696 16.0819 20.5614 17.0877C19.9415 18.0936 19.1696 18.9708 18.2456 19.7193C17.3217 20.4561 16.2924 21.0117 15.1579 21.386C14.9357 21.4211 14.7661 21.386 14.6491 21.2807C14.5322 21.1754 14.4737 21.0468 14.4737 20.8947L14.4912 18.1754C14.4912 17.7427 14.4269 17.3684 14.2983 17.0526C14.1696 16.7368 14.0059 16.4971 13.807 16.3333C15.1755 16.1813 16.2807 15.7602 17.1228 15.0702C17.9649 14.3684 18.386 13.152 18.386 11.4211C18.386 10.9298 18.2924 10.4561 18.1053 10C17.9298 9.53216 17.6784 9.11696 17.3509 8.75439C17.4562 8.48538 17.5205 8.12865 17.5439 7.68421C17.579 7.22807 17.4796 6.7076 17.2456 6.12281C16.9883 6.06433 16.6199 6.11696 16.1404 6.2807C15.6725 6.43275 15.1287 6.7193 14.5088 7.14035C12.8363 6.67251 11.1638 6.67251 9.49125 7.14035C8.87137 6.7193 8.32166 6.43275 7.84213 6.2807C7.36259 6.11696 6.99417 6.06433 6.73686 6.12281C6.50294 6.7076 6.40353 7.22807 6.43862 7.68421C6.4737 8.14035 6.54388 8.49708 6.64914 8.75439C6.30996 9.11696 6.0468 9.53216 5.85967 10C5.68423 10.4561 5.60236 10.9298 5.61406 11.4211C5.61406 13.1404 6.02926 14.3509 6.85967 15.0526C7.70178 15.7544 8.80704 16.1813 10.1755 16.3333C9.83628 16.614 9.62575 17.0585 9.54388 17.6667C9.07604 17.8772 8.56727 17.9591 8.01756 17.9123C7.47955 17.8655 7.01756 17.5088 6.6316 16.8421C6.46786 16.5731 6.25148 16.345 5.98248 16.1579C5.71347 15.9591 5.41523 15.848 5.08774 15.8246C4.83043 15.8246 4.67838 15.8772 4.6316 15.9825C4.59651 16.076 4.72517 16.2222 5.01756 16.4211C5.2047 16.5146 5.39768 16.6901 5.59651 16.9474C5.80704 17.193 5.98832 17.5029 6.14037 17.8772C6.3392 18.3684 6.71932 18.7368 7.28072 18.9825C7.85382 19.2281 8.59651 19.2515 9.50879 19.0526L9.52634 20.8947C9.52634 21.0468 9.46786 21.1754 9.3509 21.2807C9.23394 21.386 9.06435 21.4211 8.84213 21.386C7.70762 21.0117 6.67838 20.4561 5.75441 19.7193C4.83043 18.9708 4.0585 18.0936 3.43862 17.0877C2.83043 16.0819 2.40938 15 2.17546 13.8421C1.95324 12.6842 1.93569 11.5205 2.12283 10.3509C2.30996 9.18129 2.69593 8.08187 3.28072 7.05263C3.87721 6.02339 4.62575 5.12866 5.52634 4.36842C6.42692 3.60819 7.43277 3.02339 8.54388 2.61404C9.65499 2.20468 10.807 2 12 2Z" fill="#333333"/>
</svg>
