<svg width="24" height="24" viewBox="0 0 24 24" fill="none" xmlns="http://www.w3.org/2000/svg">
<path d="M12 3C13.8129 3 15.4854 3.36257 17.0175 4.08772C18.5497 4.80117 19.7602 5.77778 20.6491 7.01754C21.5497 8.25731 22 9.60819 22 11.0702C22 12.5205 21.5497 13.8596 20.6491 15.0877C19.7602 16.3158 18.5497 17.2924 17.0175 18.0175C15.4854 18.7427 13.8129 19.1053 12 19.1053C11.4971 19.1053 10.8889 19.0643 10.1754 18.9825L6.1579 21.7719C6.05263 21.807 5.98246 21.8246 5.94737 21.8246C5.91228 21.8246 5.85965 21.807 5.78947 21.7719C5.68421 21.655 5.64912 21.538 5.68421 21.4211L6.63158 17.8421C5.21637 17.117 4.08772 16.1579 3.24561 14.9649C2.4152 13.7602 2 12.462 2 11.0702C2 9.60819 2.44444 8.25731 3.33333 7.01754C4.23392 5.77778 5.45029 4.80117 6.98246 4.08772C8.51462 3.36257 10.1871 3 12 3Z" fill="#333333"/>
</svg>
