<svg width="24" height="24" viewBox="0 0 24 24" fill="none" xmlns="http://www.w3.org/2000/svg">
<path d="M13.8596 11.9825L5.36842 20.2807C5.12281 20.0351 5 19.7076 5 19.2982V4.70175C5 4.2924 5.12281 3.96491 5.36842 3.7193L13.8596 11.9825ZM20.9474 12.9474C21.2632 12.7719 21.4737 12.5731 21.5789 12.3509C21.6842 12.117 21.6842 11.883 21.5789 11.6491C21.4737 11.4152 21.2632 11.2164 20.9474 11.0526L17.5965 9.14035L14.6667 11.9825L17.5965 14.8596L20.9474 12.9474ZM7.22807 20.7719C6.94737 20.9357 6.68421 21.0117 6.4386 21C6.19298 20.9883 5.9883 20.9006 5.82456 20.7368L14.2632 12.5088L17.0175 15.193L7.22807 20.7719ZM14.2632 11.4912L5.82456 3.26316C5.9883 3.09942 6.19298 3.0117 6.4386 3C6.68421 2.9883 6.94737 3.06433 7.22807 3.22807L17.0175 8.80702L14.2632 11.4912Z" fill="#333333"/>
</svg>
