<svg width="24" height="24" viewBox="0 0 24 24" fill="none" xmlns="http://www.w3.org/2000/svg">
<path d="M21 20C19.0702 20 17.2807 19.7018 15.5614 19.1228L16.2632 17.7193C16.5088 17.2456 16.7544 17.1053 17.2807 17.1754L19.1404 17.4386C19.7544 17.5088 20 17.7719 20 18.4211V21C20 21.5439 20.4561 22 21 22C21.5439 22 22 21.5439 22 21V18.4211C22 16.9123 20.8947 15.6316 19.386 15.4386L17.5614 15.2105C16.2632 15.0175 15.0526 15.6842 14.4737 16.8421L12.807 20.1579C15.2632 21.3333 18.0702 22 21 22C21.5439 22 22 21.5439 22 21C22 20.4561 21.5439 20 21 20ZM3 4H5.57895C6.21053 4 6.49123 4.24561 6.57895 4.87719L6.82456 6.7193C6.89474 7.26316 6.75439 7.50877 6.2807 7.75439L4.87719 8.45614C4.29825 6.73684 4 4.92982 4 3C4 2.45614 3.54386 2 3 2C2.45614 2 2 2.45614 2 3C2 5.92983 2.66667 8.75439 3.84211 11.2105L7.15789 9.54386C8.31579 8.96491 8.98246 7.7193 8.78947 6.4386L8.54386 4.59649C8.35088 3.10526 7.07018 2 5.57895 2H3C2.45614 2 2 2.45614 2 3C2 3.54386 2.45614 4 3 4ZM14.5614 18.7368C10.2807 17 7 13.7368 5.26316 9.45614C5.10526 9.10526 4.75439 8.84211 4.33333 8.84211C3.78947 8.84211 3.33333 9.29825 3.33333 9.84211C3.33333 9.98246 3.36842 10.1053 3.40351 10.2281C5.33333 14.9298 9.10526 18.6667 13.7895 20.5965C13.9123 20.6316 14.0351 20.6667 14.1754 20.6667C14.7193 20.6667 15.1754 20.2105 15.1754 19.6667C15.1754 19.2456 14.9123 18.8947 14.5614 18.7368Z" fill="#333333"/>
</svg>
