<svg width="24" height="24" viewBox="0 0 24 24" fill="none" xmlns="http://www.w3.org/2000/svg">
<path d="M12.5088 16.9999C12.5088 16.1812 12.7076 15.4268 13.1053 14.7367C13.5146 14.0467 14.0643 13.5028 14.7544 13.1052C15.4444 12.6958 16.193 12.4911 17 12.4911C17.8187 12.4911 18.5731 12.6958 19.2632 13.1052C19.9532 13.5028 20.4971 14.0467 20.8947 14.7367C21.3041 15.4268 21.5088 16.1812 21.5088 16.9999C21.5088 17.8069 21.3041 18.5554 20.8947 19.2455C20.4971 19.9356 19.9532 20.4853 19.2632 20.8946C18.5731 21.2923 17.8187 21.4911 17 21.4911C16.193 21.4911 15.4444 21.2923 14.7544 20.8946C14.0643 20.4853 13.5146 19.9356 13.1053 19.2455C12.7076 18.5554 12.5088 17.8069 12.5088 16.9999ZM14.5088 16.9999C14.5088 17.4911 14.6082 17.9297 14.807 18.3157C15.0175 18.6899 15.3099 18.9823 15.6842 19.1929C16.0702 19.3917 16.5088 19.4911 17 19.4911C17.5029 19.4911 17.9415 19.3917 18.3158 19.1929C18.7018 18.9823 18.9942 18.6899 19.193 18.3157C19.4035 17.9297 19.5088 17.4911 19.5088 16.9999C19.5088 16.497 19.4035 16.0584 19.193 15.6841C18.9942 15.2981 18.7018 15.0057 18.3158 14.8069C17.9415 14.5964 17.5029 14.4911 17 14.4911C16.5088 14.4911 16.0702 14.5964 15.6842 14.8069C15.3099 15.0057 15.0175 15.2981 14.807 15.6841C14.6082 16.0584 14.5088 16.497 14.5088 16.9999ZM8.98246 12.9999C9.54386 12.9999 10.0175 13.1987 10.4035 13.5964C10.8012 13.9823 11 14.456 11 15.0174V18.9823C11 19.5437 10.8012 20.0233 10.4035 20.4209C10.0175 20.8069 9.54386 20.9999 8.98246 20.9999H5.01754C4.45614 20.9999 3.97661 20.8069 3.57895 20.4209C3.19298 20.0233 3 19.5437 3 18.9823V15.0174C3 14.456 3.19298 13.9823 3.57895 13.5964C3.97661 13.1987 4.45614 12.9999 5.01754 12.9999H8.98246ZM5.01754 14.9999C4.95906 14.9999 4.92982 14.9882 4.92982 14.9648C4.92982 14.9414 4.94152 14.9297 4.96491 14.9297C4.9883 14.9297 5 14.959 5 15.0174V18.9823C5 19.0408 4.9883 19.0701 4.96491 19.0701C4.94152 19.0701 4.92982 19.0584 4.92982 19.035C4.92982 19.0116 4.95906 18.9999 5.01754 18.9999H8.98246C9.04094 18.9999 9.07018 19.0116 9.07018 19.035C9.07018 19.0584 9.05848 19.0701 9.03509 19.0701C9.0117 19.0701 9 19.0408 9 18.9823V15.0174C9 14.959 9.0117 14.9297 9.03509 14.9297C9.05848 14.9297 9.07018 14.9414 9.07018 14.9648C9.07018 14.9882 9.04094 14.9999 8.98246 14.9999H5.01754ZM16.1053 8.10515C16.4094 8.60808 16.5146 9.12854 16.4211 9.66656C16.3275 10.1929 16.076 10.6315 15.6667 10.9823C15.2573 11.3215 14.7602 11.4911 14.1754 11.4911H9.82456C9.23977 11.4911 8.74269 11.3215 8.33333 10.9823C7.92398 10.6315 7.67251 10.1929 7.57895 9.66656C7.48538 9.12854 7.59064 8.60808 7.89474 8.10515L10.0526 4.35077C10.3567 3.84784 10.7544 3.50866 11.2456 3.33322C11.7485 3.14609 12.2515 3.14609 12.7544 3.33322C13.2573 3.50866 13.655 3.84784 13.9474 4.35077L16.1053 8.10515ZM12.2281 5.36831C12.1696 5.25135 12.0936 5.19287 12 5.19287C11.9181 5.19287 11.8421 5.25135 11.7719 5.36831L9.61403 9.12269C9.55556 9.21626 9.54386 9.30398 9.57895 9.38585C9.62573 9.45603 9.7076 9.49112 9.82456 9.49112H14.1754C14.2924 9.49112 14.3684 9.45603 14.4035 9.38585C14.4503 9.30398 14.4444 9.21626 14.386 9.12269L12.2281 5.36831Z" fill="#333333"/>
</svg>
