<svg width="24" height="24" viewBox="0 0 24 24" fill="none" xmlns="http://www.w3.org/2000/svg">
<path d="M11.2105 14.2982L8.21053 11.2982C8.03509 11.1053 7.78947 11 7.50877 11C6.96491 11 6.50877 11.4561 6.50877 12C6.50877 12.2807 6.61403 12.5263 6.80702 12.7018L9.80702 15.7018C9.98246 15.8947 10.2281 16 10.5088 16C11.0526 16 11.5088 15.5439 11.5088 15C11.5088 14.7193 11.4035 14.4737 11.2105 14.2982ZM15.807 8.29825L9.80702 14.2982C9.61403 14.4737 9.50877 14.7193 9.50877 15C9.50877 15.5439 9.96491 16 10.5088 16C10.7895 16 11.0351 15.8947 11.2105 15.7018L17.2105 9.70176C17.4035 9.52632 17.5088 9.2807 17.5088 9C17.5088 8.45614 17.0526 8 16.5088 8C16.2281 8 15.9825 8.10526 15.807 8.29825ZM12 20C7.45614 20 4 16.5439 4 12C4 7.45614 7.45614 4 12 4C16.5439 4 20 7.45614 20 12C20 16.5439 16.5439 20 12 20ZM12 22C17.5263 22 22 17.5263 22 12C22 6.47368 17.5263 2 12 2C6.47368 2 2 6.47368 2 12C2 17.5263 6.47368 22 12 22Z" fill="#333333"/>
</svg>
