<svg width="24" height="24" viewBox="0 0 24 24" fill="none" xmlns="http://www.w3.org/2000/svg">
<path d="M12 4C10.6901 4 9.49708 4.30409 8.42105 4.91228C7.35673 5.52047 6.52047 6.35673 5.91228 7.42105C5.30409 8.48538 5 9.67836 5 11C5 11.9825 5.17544 12.8889 5.52632 13.7193C5.87719 14.538 6.38596 15.2807 7.05263 15.9474L10.5439 19.4386C11.0234 19.9064 11.5088 20.1404 12 20.1404C12.5029 20.1404 12.9942 19.9064 13.4737 19.4386L16.9474 15.9649C17.614 15.2866 18.1228 14.538 18.4737 13.7193C18.8246 12.8889 19 11.9825 19 11C19 9.67836 18.6959 8.48538 18.0877 7.42105C17.4795 6.35673 16.6433 5.52047 15.5789 4.91228C14.5146 4.30409 13.3216 4 12 4ZM12 2C13.6374 2 15.1462 2.40351 16.5263 3.21053C17.9064 4.00585 18.9942 5.09357 19.7895 6.47368C20.5965 7.8538 21 9.36257 21 11C21 12.2164 20.7661 13.3743 20.2982 14.4737C19.8304 15.5731 19.1813 16.538 18.3509 17.3684L14.8772 20.8421C14.3509 21.3801 13.7368 21.7485 13.0351 21.9474C12.345 22.1345 11.655 22.1345 10.9649 21.9474C10.2865 21.7485 9.67836 21.3801 9.14035 20.8421L5.64912 17.3509C4.81871 16.5322 4.16959 15.5731 3.70175 14.4737C3.23392 13.3743 3 12.2164 3 11C3 9.36257 3.40351 7.8538 4.21053 6.47368C5.01754 5.09357 6.11111 4.00585 7.49123 3.21053C8.87135 2.40351 10.3743 2 12 2ZM14.2982 8.29825C14.4854 8.09942 14.7193 8 15 8C15.2807 8 15.5146 8.09942 15.7018 8.29825C15.9006 8.48538 16 8.7193 16 9C16 9.2807 15.9006 9.51462 15.7018 9.70176L11.807 13.5965C11.5965 13.807 11.3275 13.9123 11 13.9123C10.6842 13.9123 10.4152 13.807 10.193 13.5965L8.29825 11.7018C8.09942 11.5146 8 11.2807 8 11C8 10.7193 8.09942 10.4854 8.29825 10.2982C8.49708 10.0994 8.73099 10 9 10C9.2924 10 9.52632 10.0994 9.70175 10.2982L11.5965 12.193C11.655 12.2515 11.5673 12.2924 11.3333 12.3158C11.1111 12.3392 10.883 12.3392 10.6491 12.3158C10.4269 12.2924 10.345 12.2515 10.4035 12.193L14.2982 8.29825Z" fill="#333333"/>
</svg>
