<svg width="24" height="24" viewBox="0 0 24 24" fill="none" xmlns="http://www.w3.org/2000/svg">
<path d="M11.2105 14.2982L8.21053 11.2982C8.03509 11.1053 7.78947 11 7.50877 11C6.96491 11 6.50877 11.4561 6.50877 12C6.50877 12.2807 6.61403 12.5263 6.80702 12.7018L9.80702 15.7018C9.98246 15.8947 10.2281 16 10.5088 16C11.0526 16 11.5088 15.5439 11.5088 15C11.5088 14.7193 11.4035 14.4737 11.2105 14.2982ZM15.807 8.29825L9.80702 14.2982C9.61403 14.4737 9.50877 14.7193 9.50877 15C9.50877 15.5439 9.96491 16 10.5088 16C10.7895 16 11.0351 15.8947 11.2105 15.7018L17.2105 9.70175C17.4035 9.52632 17.5088 9.2807 17.5088 9C17.5088 8.45614 17.0526 8 16.5088 8C16.2281 8 15.9825 8.10526 15.807 8.29825ZM5 7C5 5.73684 5.73684 5 7 5H17C18.2632 5 19 5.73684 19 7V17C19 18.2632 18.2632 19 17 19H7C5.73684 19 5 18.2632 5 17V7ZM3 7V17C3 19.2456 4.75439 21 7 21H17C19.2456 21 21 19.2456 21 17V7C21 4.75439 19.2456 3 17 3H7C4.75439 3 3 4.75439 3 7Z" fill="#333333"/>
</svg>
