<svg width="24" height="24" viewBox="0 0 24 24" fill="none" xmlns="http://www.w3.org/2000/svg">
<path d="M6 7V18C6 18.6316 6.17544 19.1228 6.52632 19.4737C6.87719 19.8246 7.36842 20 8 20H16C16.6316 20 17.1228 19.8246 17.4737 19.4737C17.8246 19.1228 18 18.6316 18 18V7H6ZM20 18C20 18.7251 19.8246 19.3977 19.4737 20.0175C19.1228 20.6257 18.6374 21.1111 18.0175 21.4737C17.4094 21.8246 16.7368 22 16 22H8C7.27485 22 6.60234 21.8246 5.98246 21.4737C5.37427 21.1111 4.88889 20.6257 4.52632 20.0175C4.17544 19.3977 4 18.7251 4 18V5H20V18ZM3 7C2.73099 7 2.49708 6.90059 2.29825 6.70176C2.09942 6.50292 2 6.26901 2 6C2 5.7193 2.09942 5.48538 2.29825 5.29825C2.49708 5.09942 2.73099 5 3 5H5C5.2807 5 5.51462 5.09942 5.70175 5.29825C5.90058 5.48538 6 5.7193 6 6C6 6.26901 5.90058 6.50292 5.70175 6.70176C5.51462 6.90059 5.2807 7 5 7H3ZM21 5C21.2807 5 21.5146 5.09942 21.7018 5.29825C21.9006 5.48538 22 5.7193 22 6C22 6.26901 21.9006 6.50292 21.7018 6.70176C21.5146 6.90059 21.2807 7 21 7H19C18.731 7 18.4971 6.90059 18.2982 6.70176C18.0994 6.50292 18 6.26901 18 6C18 5.7193 18.0994 5.48538 18.2982 5.29825C18.4971 5.09942 18.731 5 19 5H21ZM15 2C15.2807 2 15.5146 2.09942 15.7018 2.29825C15.9006 2.48538 16 2.7193 16 3C16 3.26901 15.9006 3.50292 15.7018 3.70176C15.5146 3.90059 15.2807 4 15 4H9C8.73099 4 8.49708 3.90059 8.29825 3.70176C8.09942 3.50292 8 3.26901 8 3C8 2.7193 8.09942 2.48538 8.29825 2.29825C8.49708 2.09942 8.73099 2 9 2H15ZM8.29825 10.7018C8.09942 10.5146 8 10.2807 8 10C8 9.7193 8.09942 9.48538 8.29825 9.29825C8.49708 9.09942 8.73099 9 9 9C9.2924 9 9.52632 9.09942 9.70175 9.29825L15.7018 15.2982C15.9006 15.4737 16 15.7076 16 16C16 16.269 15.9006 16.5029 15.7018 16.7018C15.5146 16.9006 15.2807 17 15 17C14.7193 17 14.4854 16.9006 14.2982 16.7018L8.29825 10.7018ZM14.2982 9.29825C14.4854 9.09942 14.7193 9 15 9C15.2807 9 15.5146 9.09942 15.7018 9.29825C15.9006 9.48538 16 9.7193 16 10C16 10.2807 15.9006 10.5146 15.7018 10.7018L9.70175 16.7018C9.52632 16.9006 9.2924 17 9 17C8.73099 17 8.49708 16.9006 8.29825 16.7018C8.09942 16.5029 8 16.269 8 16C8 15.7076 8.09942 15.4737 8.29825 15.2982L14.2982 9.29825Z" fill="#333333"/>
</svg>
