<svg width="24" height="24" viewBox="0 0 24 24" fill="none" xmlns="http://www.w3.org/2000/svg">
<path d="M17.2983 8.29822L6.49124 19.0877L3.50878 19.8421C3.92983 20.5087 4.05264 20.8596 4.0351 21.0351L4.91229 17.5087L15.7018 6.70173C15.8947 6.52629 16 6.28068 16 5.99997C16 5.45611 15.5439 4.99997 15 4.99997C14.7193 4.99997 14.4737 5.10524 14.2983 5.29822L3.08773 16.4912L2.07018 20.614C1.91229 21.4386 2.56141 22.0877 3.38597 21.9298L7.50878 20.9123L18.7018 9.70173C18.8947 9.52629 19 9.28068 19 8.99997C19 8.45611 18.5439 7.99997 18 7.99997C17.7193 7.99997 17.4737 8.10524 17.2983 8.29822ZM18.7018 9.70173L20.193 8.2105C21.4211 6.98243 21.4561 5.01752 20.2105 3.78945C18.9825 2.54383 17.0176 2.57892 15.7895 3.80699L14.2983 5.29822C14.1053 5.47366 14 5.71927 14 5.99997C14 6.54383 14.4562 6.99997 15 6.99997C15.2807 6.99997 15.5263 6.89471 15.7018 6.70173L17.193 5.2105C17.7544 4.66664 18.2632 4.6491 18.807 5.19296C19.3509 5.73682 19.3333 6.24559 18.7895 6.80699L17.2983 8.29822C17.1053 8.47366 17 8.71927 17 8.99997C17 9.54383 17.4562 9.99997 18 9.99997C18.2807 9.99997 18.5263 9.89471 18.7018 9.70173ZM18.7018 8.29822L15.7018 5.29822C15.5263 5.10524 15.2807 4.99997 15 4.99997C14.4562 4.99997 14 5.45611 14 5.99997C14 6.28068 14.1053 6.52629 14.2983 6.70173L17.2983 9.70173C17.4737 9.89471 17.7193 9.99997 18 9.99997C18.5439 9.99997 19 9.54383 19 8.99997C19 8.71927 18.8947 8.47366 18.7018 8.29822Z" fill="#333333"/>
</svg>
