<svg width="24" height="24" viewBox="0 0 24 24" fill="none" xmlns="http://www.w3.org/2000/svg">
<path d="M12 20C7.45614 20 4 16.5439 4 12C4 7.45614 7.45614 4 12 4C16.5439 4 20 7.45614 20 12C20 16.5439 16.5439 20 12 20ZM12 22C17.5263 22 22 17.5263 22 12C22 6.47368 17.5263 2 12 2C6.47368 2 2 6.47368 2 12C2 17.5263 6.47368 22 12 22ZM12.7018 13.2982L9.70175 10.2982C9.52632 10.1053 9.2807 10 9 10C8.45614 10 8 10.4561 8 11C8 11.2807 8.10526 11.5263 8.29825 11.7018L11.2982 14.7018C11.4737 14.8947 11.7193 15 12 15C12.5439 15 13 14.5439 13 14C13 13.7193 12.8947 13.4737 12.7018 13.2982ZM14.2982 10.2982L11.2982 13.2982C11.1053 13.4737 11 13.7193 11 14C11 14.5439 11.4561 15 12 15C12.2807 15 12.5263 14.8947 12.7018 14.7018L15.7018 11.7018C15.8947 11.5263 16 11.2807 16 11C16 10.4561 15.5439 10 15 10C14.7193 10 14.4737 10.1053 14.2982 10.2982Z" fill="#333333"/>
</svg>
