<svg width="24" height="24" viewBox="0 0 24 24" fill="none" xmlns="http://www.w3.org/2000/svg">
<path d="M9.38597 10.0351C9.43275 9.88304 9.51462 9.74854 9.63158 9.63158C9.74854 9.51462 9.88304 9.43275 10.0351 9.38597L14.6667 7.84211C14.9708 7.73684 15.2573 7.74854 15.5263 7.87719C15.807 7.99415 16.0058 8.18713 16.1228 8.45614C16.2515 8.72515 16.2632 9.0117 16.1579 9.31579L14.614 13.9649C14.5673 14.117 14.4854 14.2515 14.3684 14.3684C14.2515 14.4854 14.117 14.5673 13.9649 14.614L9.33333 16.1579C9.02924 16.2515 8.74269 16.2398 8.47368 16.1228C8.20468 16.0058 8.00585 15.8129 7.87719 15.5439C7.76023 15.2749 7.74854 14.9883 7.84211 14.6842L9.38597 10.0351ZM10.6667 11.9825C10.6667 12.3567 10.7953 12.6784 11.0526 12.9474C11.3099 13.2047 11.6199 13.3333 11.9825 13.3333C12.3684 13.3333 12.6901 13.2047 12.9474 12.9474C13.2047 12.6784 13.3333 12.3567 13.3333 11.9825C13.3333 11.6199 13.1988 11.3099 12.9298 11.0526C12.6725 10.7953 12.3567 10.6667 11.9825 10.6667C11.6199 10.6667 11.3099 10.7953 11.0526 11.0526C10.7953 11.3099 10.6667 11.6199 10.6667 11.9825ZM12 20C13.4971 20 14.8538 19.6491 16.0702 18.9474C17.2982 18.2456 18.2573 17.2865 18.9474 16.0702C19.6491 14.8421 20 13.4854 20 12C20 10.5029 19.6491 9.1462 18.9474 7.92982C18.2573 6.70175 17.2982 5.74269 16.0702 5.05263C14.8538 4.35088 13.4971 4 12 4C10.5146 4 9.15789 4.35088 7.92982 5.05263C6.71345 5.74269 5.75439 6.70175 5.05263 7.92982C4.35088 9.1462 4 10.5029 4 12C4 13.4854 4.35088 14.8421 5.05263 16.0702C5.75439 17.2865 6.71345 18.2456 7.92982 18.9474C9.15789 19.6491 10.5146 20 12 20ZM12 22C10.1988 22 8.52632 21.5556 6.98246 20.6667C5.45029 19.7661 4.23392 18.5497 3.33333 17.0175C2.44444 15.4737 2 13.8012 2 12C2 10.1871 2.44444 8.51462 3.33333 6.98246C4.23392 5.45029 5.45029 4.23977 6.98246 3.35088C8.52632 2.45029 10.1988 2 12 2C13.8129 2 15.4854 2.45029 17.0175 3.35088C18.5497 4.23977 19.7602 5.45614 20.6491 7C21.5497 8.53216 22 10.1988 22 12C22 13.8012 21.5497 15.4737 20.6491 17.0175C19.7602 18.5497 18.5439 19.7661 17 20.6667C15.4678 21.5556 13.8012 22 12 22Z" fill="#333333"/>
</svg>
