<svg width="24" height="24" viewBox="0 0 24 24" fill="none" xmlns="http://www.w3.org/2000/svg">
<path d="M2 12C2 10.8187 2.19298 9.69005 2.57895 8.61402C2.97661 7.5263 3.53801 6.54385 4.26316 5.66665L2.29825 3.70174C2.01754 3.40935 1.93567 3.09356 2.05263 2.75437C2.16959 2.4035 2.40351 2.16958 2.75439 2.05262C3.10526 1.92396 3.42105 2.00584 3.70175 2.29823L5.66667 4.26315L7.05263 5.64911L10.5965 9.17543L14.8246 13.4035L18.3509 16.9474L19.7368 18.3333L21.7018 20.2982C21.9942 20.5789 22.076 20.8947 21.9474 21.2456C21.8304 21.5965 21.5965 21.8304 21.2456 21.9474C20.9064 22.0643 20.5906 21.9824 20.2982 21.7017L18.3333 19.7368C17.4561 20.462 16.4737 21.0234 15.386 21.421C14.3099 21.807 13.1813 22 12 22C10.1988 22 8.52632 21.5555 6.98246 20.6667C5.45029 19.7661 4.23392 18.5497 3.33333 17.0175C2.44444 15.4737 2 13.8012 2 12ZM4 12C4 13.4854 4.35088 14.8421 5.05263 16.0702C5.75439 17.2865 6.71345 18.2456 7.92982 18.9474C9.15789 19.6491 10.5146 20 12 20C12.9357 20 13.8246 19.8596 14.6667 19.5789C15.5088 19.2865 16.269 18.8772 16.9474 18.3509L13.4211 14.807L9.33333 16.1579C9.02924 16.2514 8.74269 16.2398 8.47368 16.1228C8.20468 16.0058 8.00585 15.8129 7.87719 15.5438C7.76023 15.2748 7.74854 14.9883 7.84211 14.6842L9.19298 10.5789L5.64912 7.05262C5.12281 7.73098 4.71345 8.49122 4.42105 9.33332C4.14035 10.1754 4 11.0643 4 12ZM7.42105 3.17543C8.11111 2.80116 8.8421 2.51461 9.61403 2.31578C10.386 2.10525 11.1813 1.99999 12 1.99999C13.8129 1.99999 15.4854 2.45028 17.0175 3.35087C18.5497 4.23975 19.7602 5.45028 20.6491 6.98244C21.5497 8.51461 22 10.1871 22 12C22 12.8187 21.8947 13.614 21.6842 14.386C21.4854 15.1579 21.1988 15.8889 20.8246 16.5789L19.3158 15.0526C19.5263 14.5965 19.6901 14.1111 19.807 13.5965C19.9357 13.0819 20 12.5497 20 12C20 10.5029 19.6491 9.14619 18.9474 7.92981C18.2573 6.70174 17.2982 5.74268 16.0702 5.05262C14.8538 4.35087 13.4971 3.99999 12 3.99999C11.4503 3.99999 10.9181 4.06432 10.4035 4.19297C9.88889 4.30993 9.40351 4.47367 8.94737 4.6842L7.42105 3.17543ZM14.6667 7.84209C14.9708 7.73683 15.2573 7.74853 15.5263 7.87718C15.807 7.99414 16.0058 8.18712 16.1228 8.45613C16.2515 8.72513 16.2632 9.01168 16.1579 9.31578L15.5263 11.2631L12.7368 8.47367L14.6667 7.84209Z" fill="#333333"/>
</svg>
