<svg width="24" height="24" viewBox="0 0 24 24" fill="none" xmlns="http://www.w3.org/2000/svg">
<path d="M21 8V7C21 4.75439 19.2456 3 17 3H16C15.4561 3 15 3.45614 15 4C15 4.54386 15.4561 5 16 5H17C18.2632 5 19 5.73684 19 7V8C19 8.54386 19.4561 9 20 9C20.5439 9 21 8.54386 21 8ZM5 8V7C5 5.73684 5.73684 5 7 5H8C8.54386 5 9 4.54386 9 4C9 3.45614 8.54386 3 8 3H7C4.75439 3 3 4.75439 3 7V8C3 8.54386 3.45614 9 4 9C4.54386 9 5 8.54386 5 8ZM19 16V17C19 18.2632 18.2632 19 17 19H16C15.4561 19 15 19.4561 15 20C15 20.5439 15.4561 21 16 21H17C19.2456 21 21 19.2456 21 17V16C21 15.4561 20.5439 15 20 15C19.4561 15 19 15.4561 19 16ZM3 16V17C3 19.2456 4.75439 21 7 21H8C8.54386 21 9 20.5439 9 20C9 19.4561 8.54386 19 8 19H7C5.73684 19 5 18.2632 5 17V16C5 15.4561 4.54386 15 4 15C3.45614 15 3 15.4561 3 16ZM16 11V10C16 9.45614 15.5439 9 15 9C14.4561 9 14 9.45614 14 10V11C14 11.5439 14.4561 12 15 12C15.5439 12 16 11.5439 16 11ZM11 14C12.1053 14 13 13.1053 13 12V10C13 9.45614 12.5439 9 12 9C11.4561 9 11 9.45614 11 10V12C10.4561 12 10 12.4561 10 13C10 13.5439 10.4561 14 11 14ZM10 11V10C10 9.45614 9.54386 9 9 9C8.45614 9 8 9.45614 8 10V11C8 11.5439 8.45614 12 9 12C9.54386 12 10 11.5439 10 11ZM8.47368 15.5263C9.40351 16.4737 10.6842 17 12 17C13.3158 17 14.5965 16.4737 15.5263 15.5263C15.7193 15.3509 15.8246 15.1053 15.8246 14.8246C15.8246 14.2807 15.3684 13.8246 14.8246 13.8246C14.5439 13.8246 14.2982 13.9298 14.1228 14.1228C13.5088 14.7368 12.8596 15 12 15C11.1404 15 10.4912 14.7368 9.87719 14.1228C9.70175 13.9298 9.45614 13.8246 9.17544 13.8246C8.63158 13.8246 8.17544 14.2807 8.17544 14.8246C8.17544 15.1053 8.2807 15.3509 8.47368 15.5263Z" fill="#333333"/>
</svg>
