<svg width="24" height="24" viewBox="0 0 24 24" fill="none" xmlns="http://www.w3.org/2000/svg">
<path d="M19.511 8.24566C19.283 8.36847 19.0023 8.21057 19.0023 7.94741V16.0527C19.0023 15.7895 19.283 15.6316 19.511 15.7544L12.4935 11.7193C12.704 11.8422 12.704 12.1579 12.4935 12.2807L19.511 8.24566ZM18.5286 6.49127L11.4759 10.5615C10.3882 11.2106 10.3882 12.7895 11.4759 13.4386L18.5286 17.5088C19.6338 18.1229 21.0023 17.3334 21.0023 16.0527V7.94741C21.0023 6.66671 19.6338 5.87724 18.5286 6.49127ZM10.511 8.24566C10.283 8.36847 10.0023 8.21057 10.0023 7.94741V16.0527C10.0023 15.7895 10.283 15.6316 10.511 15.7544L3.49349 11.7193C3.70402 11.8422 3.70402 12.1579 3.49349 12.2807L10.511 8.24566ZM9.52858 6.49127L2.47595 10.5615C1.38823 11.2106 1.38823 12.7895 2.47595 13.4386L9.52858 17.5088C10.6338 18.1229 12.0023 17.3334 12.0023 16.0527V7.94741C12.0023 6.66671 10.6338 5.87724 9.52858 6.49127Z" fill="#333333"/>
</svg>
