<svg width="24" height="24" viewBox="0 0 24 24" fill="none" xmlns="http://www.w3.org/2000/svg">
<path d="M19.5108 8.24566C19.2827 8.36847 19.002 8.21057 19.002 7.94741V16.0527C19.002 15.7895 19.2827 15.6316 19.5108 15.7544L12.4932 11.7193C12.7038 11.8422 12.7038 12.1579 12.4932 12.2807L19.5108 8.24566ZM18.5283 6.49127L11.4757 10.5615C10.388 11.2106 10.388 12.7895 11.4757 13.4386L18.5283 17.5088C19.6336 18.1229 21.002 17.3334 21.002 16.0527V7.94741C21.002 6.66671 19.6336 5.87724 18.5283 6.49127ZM10.5108 8.24566C10.2827 8.36847 10.002 8.21057 10.002 7.94741V16.0527C10.002 15.7895 10.2827 15.6316 10.5108 15.7544L3.49325 11.7193C3.70377 11.8422 3.70377 12.1579 3.49325 12.2807L10.5108 8.24566ZM9.52833 6.49127L2.4757 10.5615C1.38798 11.2106 1.38798 12.7895 2.4757 13.4386L9.52833 17.5088C10.6336 18.1229 12.002 17.3334 12.002 16.0527V7.94741C12.002 6.66671 10.6336 5.87724 9.52833 6.49127Z" fill="#333333"/>
</svg>
