<svg width="24" height="24" viewBox="0 0 24 24" fill="none" xmlns="http://www.w3.org/2000/svg">
<path d="M11.5088 12.2807C11.2982 12.1579 11.2982 11.8422 11.5088 11.7193L4.49123 15.7544C4.7193 15.6316 5 15.7895 5 16.0527V7.94741C5 8.21057 4.7193 8.36847 4.49123 8.24566L11.5088 12.2807ZM12.5263 10.5615L5.47368 6.49127C4.36842 5.87724 3 6.66671 3 7.94741V16.0527C3 17.3334 4.36842 18.1229 5.47368 17.5088L12.5263 13.4386C13.614 12.7895 13.614 11.2106 12.5263 10.5615ZM20.5088 12.2807C20.2982 12.1579 20.2982 11.8422 20.5088 11.7193L13.4912 15.7544C13.7193 15.6316 14 15.7895 14 16.0527V7.94741C14 8.21057 13.7193 8.36847 13.4912 8.24566L20.5088 12.2807ZM21.5263 10.5615L14.4737 6.49127C13.3684 5.87724 12 6.66671 12 7.94741V16.0527C12 17.3334 13.3684 18.1229 14.4737 17.5088L21.5263 13.4386C22.614 12.7895 22.614 11.2106 21.5263 10.5615Z" fill="#333333"/>
</svg>
