<svg width="24" height="24" viewBox="0 0 24 24" fill="none" xmlns="http://www.w3.org/2000/svg">
<path d="M4.15791 5C4.28657 5 4.39768 4.94737 4.49125 4.84211C4.58482 4.72515 4.63745 4.59649 4.64914 4.45614C4.66084 4.31579 4.6199 4.20468 4.52634 4.12281L11.5088 11.0702V19.6667C11.5088 19.7134 11.4445 19.6784 11.3158 19.5614C11.1872 19.4444 11.0643 19.3216 10.9474 19.193C10.8304 19.0643 10.7953 19 10.8421 19H13.1755C13.2222 19 13.1872 19.0643 13.0702 19.193C12.9532 19.3216 12.8304 19.4444 12.7018 19.5614C12.5731 19.6784 12.5088 19.7134 12.5088 19.6667V11.0702L19.4737 4.12281C19.3801 4.21637 19.3334 4.33333 19.3334 4.47368C19.3451 4.61403 19.3977 4.73684 19.4912 4.84211C19.5965 4.94737 19.7135 5 19.8421 5H4.15791ZM19.8421 3C20.2866 3 20.6433 3.1462 20.9123 3.4386C21.193 3.7193 21.3334 4.06433 21.3334 4.47368C21.3334 4.87134 21.1813 5.22222 20.8772 5.52632L14.5088 11.9123V19.6667C14.5088 20.0409 14.3801 20.3567 14.1228 20.614C13.8655 20.8713 13.5497 21 13.1755 21H10.8421C10.4679 21 10.1521 20.8713 9.89476 20.614C9.63745 20.3567 9.50879 20.0409 9.50879 19.6667V11.9123L3.12283 5.52632C2.81873 5.22222 2.66669 4.87134 2.66669 4.47368C2.66669 4.06433 2.80704 3.7193 3.08774 3.4386C3.36844 3.1462 3.72517 3 4.15791 3H19.8421Z" fill="#333333"/>
</svg>
