<svg width="24" height="24" viewBox="0 0 24 24" fill="none" xmlns="http://www.w3.org/2000/svg">
<path d="M6 10V19C6 19.5439 6.45614 20 7 20C7.54386 20 8 19.5439 8 19V10C8 9.45614 7.54386 9 7 9C6.45614 9 6 9.45614 6 10ZM4 11H10C10.5439 11 11 10.5439 11 10C11 9.45614 10.5439 9 10 9H4C3.45614 9 3 9.45614 3 10C3 10.5439 3.45614 11 4 11ZM14 5V19C14 19.5439 14.4561 20 15 20C15.5439 20 16 19.5439 16 19V5C16 4.45614 15.5439 4 15 4C14.4561 4 14 4.45614 14 5ZM10 6H20C20.5439 6 21 5.54386 21 5C21 4.45614 20.5439 4 20 4H10C9.45614 4 9 4.45614 9 5C9 5.54386 9.45614 6 10 6Z" fill="#333333"/>
</svg>
