<svg width="24" height="24" viewBox="0 0 24 24" fill="none" xmlns="http://www.w3.org/2000/svg">
<path d="M17 19C17.4094 19 17.7661 18.9181 18.0702 18.7544C18.3743 18.5906 18.6023 18.3567 18.7544 18.0526C18.9181 17.7485 19 17.3976 19 17V11.2456C19 10.9415 18.9532 10.6842 18.8596 10.4737C18.7778 10.2514 18.6316 10.0351 18.4211 9.82454L13.4211 4.82454C12.9766 4.38009 12.5029 4.15787 12 4.15787C11.4971 4.15787 11.0234 4.38009 10.5789 4.82454L5.57895 9.82454C5.36842 10.0351 5.21637 10.2514 5.12281 10.4737C5.04094 10.6842 5 10.9415 5 11.2456V17C5 17.3976 5.08187 17.7485 5.24561 18.0526C5.40936 18.3567 5.64328 18.5906 5.94737 18.7544C6.25146 18.9181 6.60234 19 7 19H17ZM7 21C6.28655 21 5.61988 20.8187 5 20.4561C4.39181 20.0935 3.90643 19.6082 3.54386 19C3.18129 18.3801 3 17.7134 3 17V11.2456C3 10.7076 3.09942 10.1988 3.29825 9.71927C3.50877 9.22804 3.80117 8.7953 4.17544 8.42103L9.17544 3.42103C9.69006 2.89471 10.2865 2.54383 10.9649 2.36839C11.655 2.19296 12.345 2.19296 13.0351 2.36839C13.7251 2.54383 14.3216 2.89471 14.8246 3.42103L19.8246 8.42103C20.1988 8.7953 20.4854 9.22804 20.6842 9.71927C20.8947 10.1988 21 10.7076 21 11.2456V17C21 17.7134 20.8187 18.3801 20.4561 19C20.1053 19.6082 19.6199 20.0935 19 20.4561C18.3918 20.8187 17.7251 21 17 21H7Z" fill="#333333"/>
</svg>
