<svg width="24" height="24" viewBox="0 0 24 24" fill="none" xmlns="http://www.w3.org/2000/svg">
<path d="M5 7C5 5.73684 5.73684 5 7 5H17C18.2632 5 19 5.73684 19 7V17C19 18.2632 18.2632 19 17 19H7C5.73684 19 5 18.2632 5 17V7ZM3 7V17C3 19.2456 4.75439 21 7 21H17C19.2456 21 21 19.2456 21 17V7C21 4.75439 19.2456 3 17 3H7C4.75439 3 3 4.75439 3 7ZM8.52632 10.4912C9.63158 10.4912 10.5088 9.61404 10.5088 8.47368C10.5088 7.36842 9.63158 6.49123 8.52632 6.49123C7.38596 6.49123 6.50877 7.36842 6.50877 8.47368C6.50877 9.61404 7.38596 10.4912 8.52632 10.4912ZM20.7018 15.2982L15.9474 10.5439C15.4211 10 14.5789 10 14.0526 10.5439L9.54386 15.0526C9.78947 14.7895 10.2105 14.7895 10.4561 15.0526L7.94737 12.5439C7.42105 12 6.57895 12 6.05263 12.5439L3.29825 15.2982C3.10526 15.4737 3 15.7193 3 16C3 16.5439 3.45614 17 4 17C4.2807 17 4.52632 16.8947 4.70175 16.7018L7.45614 13.9474C7.21053 14.2105 6.78947 14.2105 6.54386 13.9474L9.05263 16.4561C9.57895 17 10.4211 17 10.9474 16.4561L15.4561 11.9474C15.2105 12.2105 14.7895 12.2105 14.5439 11.9474L19.2982 16.7018C19.4737 16.8947 19.7193 17 20 17C20.5439 17 21 16.5439 21 16C21 15.7193 20.8947 15.4737 20.7018 15.2982Z" fill="#333333"/>
</svg>
