<svg width="24" height="24" viewBox="0 0 24 24" fill="none" xmlns="http://www.w3.org/2000/svg">
<path d="M8.52632 10.4912C9.63158 10.4912 10.5088 9.61404 10.5088 8.47368C10.5088 7.36842 9.63158 6.49123 8.52632 6.49123C7.38596 6.49123 6.50877 7.36842 6.50877 8.47368C6.50877 9.61404 7.38596 10.4912 8.52632 10.4912ZM14.2982 10.2982L9.29825 15.2982C9.10526 15.4737 9 15.7193 9 16C9 16.5439 9.45614 17 10 17C10.2807 17 10.5263 16.8947 10.7018 16.7018L15.7018 11.7018C15.8947 11.5263 16 11.2807 16 11C16 10.4561 15.5439 10 15 10C14.7193 10 14.4737 10.1053 14.2982 10.2982ZM20.7018 15.2982L15.7018 10.2982C15.5263 10.1053 15.2807 10 15 10C14.4561 10 14 10.4561 14 11C14 11.2807 14.1053 11.5263 14.2982 11.7018L19.2982 16.7018C19.4737 16.8947 19.7193 17 20 17C20.5439 17 21 16.5439 21 16C21 15.7193 20.8947 15.4737 20.7018 15.2982ZM10.7018 15.2982L7.70175 12.2982C7.52632 12.1053 7.2807 12 7 12C6.45614 12 6 12.4561 6 13C6 13.2807 6.10526 13.5263 6.29825 13.7018L9.29825 16.7018C9.47369 16.8947 9.7193 17 10 17C10.5439 17 11 16.5439 11 16C11 15.7193 10.8947 15.4737 10.7018 15.2982ZM6.29825 12.2982L3.29825 15.2982C3.10526 15.4737 3 15.7193 3 16C3 16.5439 3.45614 17 4 17C4.2807 17 4.52632 16.8947 4.70175 16.7018L7.70175 13.7018C7.89474 13.5263 8 13.2807 8 13C8 12.4561 7.54386 12 7 12C6.7193 12 6.47368 12.1053 6.29825 12.2982ZM5 7C5 5.73684 5.73684 5 7 5H17C18.2632 5 19 5.73684 19 7V17C19 18.2632 18.2632 19 17 19H7C5.73684 19 5 18.2632 5 17V7ZM3 7V17C3 19.2456 4.75439 21 7 21H17C19.2456 21 21 19.2456 21 17V7C21 4.75439 19.2456 3 17 3H7C4.75439 3 3 4.75439 3 7Z" fill="#333333"/>
</svg>
