<svg width="24" height="24" viewBox="0 0 24 24" fill="none" xmlns="http://www.w3.org/2000/svg">
<path d="M21 16.9474C21 17.7076 20.8246 18.3977 20.4737 19.0175C20.1345 19.6374 19.655 20.1228 19.0351 20.4737C18.4152 20.8246 17.7193 21 16.9474 21H7.05263C6.2924 21 5.60234 20.8246 4.98246 20.4737C4.36257 20.1228 3.87719 19.6374 3.52632 19.0175C3.17544 18.3977 3 17.7076 3 16.9474V8.5614C3 8.04678 3.11696 7.54386 3.35088 7.05263L4.36842 5.03509C4.69591 4.40351 5.15205 3.90643 5.73684 3.54386C6.32164 3.18129 6.96491 3 7.66667 3H16.3333C17.0468 3 17.6959 3.18129 18.2807 3.54386C18.8655 3.90643 19.3158 4.40351 19.6316 5.03509L20.6491 7.05263C20.883 7.54386 21 8.04678 21 8.5614V16.9474ZM19 8.5614C19 8.43275 18.9883 8.32749 18.9649 8.24561C18.9532 8.16374 18.9181 8.06433 18.8596 7.94737L17.8421 5.92982C17.6784 5.59064 17.4795 5.35088 17.2456 5.21053C17.0234 5.07018 16.7193 5 16.3333 5H7.66667C7.2807 5 6.97076 5.07018 6.73684 5.21053C6.51462 5.35088 6.32164 5.59064 6.1579 5.92982L5.14035 7.94737C5.08187 8.06433 5.04094 8.16374 5.01754 8.24561C5.00585 8.32749 5 8.43275 5 8.5614V16.9474C5 17.6257 5.16959 18.1404 5.50877 18.4912C5.85965 18.8304 6.37427 19 7.05263 19H16.9474C17.6257 19 18.1345 18.8304 18.4737 18.4912C18.8246 18.1404 19 17.6257 19 16.9474V8.5614ZM20 9H4V7H20V9Z" fill="#333333"/>
</svg>
