<svg width="24" height="24" viewBox="0 0 24 24" fill="none" xmlns="http://www.w3.org/2000/svg">
<path d="M5.70175 12.7016C5.52632 12.9005 5.2924 12.9999 5 12.9999C4.73099 12.9999 4.49708 12.9005 4.29825 12.7016C4.09942 12.5028 4 12.2689 4 11.9999C4 11.7075 4.09942 11.4736 4.29825 11.2981L11.193 4.4034C11.4152 4.18118 11.6842 4.07007 12 4.07007C12.3275 4.07007 12.5965 4.18118 12.807 4.4034L19.7018 11.2981C19.9006 11.4736 20 11.7075 20 11.9999C20 12.2689 19.9006 12.5028 19.7018 12.7016C19.5146 12.9005 19.2807 12.9999 19 12.9999C18.7193 12.9999 18.4854 12.9005 18.2982 12.7016L11.4035 5.80691C11.345 5.74843 11.4269 5.70749 11.6491 5.6841C11.883 5.66071 12.1111 5.66071 12.3333 5.6841C12.5673 5.70749 12.655 5.74843 12.5965 5.80691L5.70175 12.7016Z" fill="#333333"/>
</svg>
