<svg width="24" height="24" viewBox="0 0 24 24" fill="none" xmlns="http://www.w3.org/2000/svg">
<path d="M19 5C19 4.7193 19.0994 4.48538 19.2982 4.29824C19.4971 4.09941 19.731 4 20 4C20.2807 4 20.5146 4.09941 20.7018 4.29824C20.9006 4.48538 21 4.7193 21 5V19C21 19.269 20.9006 19.5029 20.7018 19.7018C20.5146 19.9006 20.2807 20 20 20C19.731 20 19.4971 19.9006 19.2982 19.7018C19.0994 19.5029 19 19.269 19 19V5ZM11.7018 17.7018C11.5263 17.9006 11.2924 18 11 18C10.731 18 10.4971 17.9006 10.2982 17.7018C10.0994 17.5029 10 17.269 10 17C10 16.7076 10.0994 16.4737 10.2982 16.2982L15.193 11.4035C15.2515 11.345 15.2924 11.4327 15.3158 11.6667C15.3392 11.8889 15.3392 12.117 15.3158 12.3509C15.2924 12.5731 15.2515 12.655 15.193 12.5965L10.2982 7.70175C10.0994 7.51462 10 7.2807 10 7C10 6.7193 10.0994 6.48538 10.2982 6.29825C10.4971 6.09941 10.731 6 11 6C11.2924 6 11.5263 6.09941 11.7018 6.29825L16.5965 11.193C16.8187 11.4035 16.9298 11.6725 16.9298 12C16.9298 12.3158 16.8187 12.5848 16.5965 12.807L11.7018 17.7018ZM16 11C16.2807 11 16.5146 11.0994 16.7018 11.2982C16.9006 11.4854 17 11.7193 17 12C17 12.269 16.9006 12.5029 16.7018 12.7018C16.5146 12.9006 16.2807 13 16 13H4C3.73099 13 3.49708 12.9006 3.29825 12.7018C3.09942 12.5029 3 12.269 3 12C3 11.7193 3.09942 11.4854 3.29825 11.2982C3.49708 11.0994 3.73099 11 4 11H16Z" fill="#333333"/>
</svg>
