<svg width="24" height="24" viewBox="0 0 24 24" fill="none" xmlns="http://www.w3.org/2000/svg">
<path d="M12.7018 14.2982L7.70175 9.29825C7.52632 9.10526 7.2807 9 7 9C6.45614 9 6 9.45614 6 10C6 10.2807 6.10526 10.5263 6.29825 10.7018L11.2982 15.7018C11.4737 15.8947 11.7193 16 12 16C12.5439 16 13 15.5439 13 15C13 14.7193 12.8947 14.4737 12.7018 14.2982ZM16.2982 9.29825L11.2982 14.2982C11.1053 14.4737 11 14.7193 11 15C11 15.5439 11.4561 16 12 16C12.2807 16 12.5263 15.8947 12.7018 15.7018L17.7018 10.7018C17.8947 10.5263 18 10.2807 18 10C18 9.45614 17.5439 9 17 9C16.7193 9 16.4737 9.10526 16.2982 9.29825Z" fill="#333333"/>
</svg>
