<svg width="24" height="24" viewBox="0 0 24 24" fill="none" xmlns="http://www.w3.org/2000/svg">
<path d="M7 19.9997C5.73684 19.9997 5 19.2628 5 17.9997V11.9997C5 10.7365 5.73684 9.99967 7 9.99967H17C18.2632 9.99967 19 10.7365 19 11.9997V17.9997C19 19.2628 18.2632 19.9997 17 19.9997H7ZM7 21.9997H17C19.2456 21.9997 21 20.2453 21 17.9997V11.9997C21 9.75406 19.2456 7.99967 17 7.99967H7C4.75439 7.99967 3 9.75406 3 11.9997V17.9997C3 20.2453 4.75439 21.9997 7 21.9997ZM12 12.9997C10.8947 12.9997 10 13.8944 10 14.9997C10 16.1049 10.8947 16.9997 12 16.9997C13.1053 16.9997 14 16.1049 14 14.9997C14 13.8944 13.1053 12.9997 12 12.9997ZM16 8.99967V5.99967C16 5.21019 15.7544 4.42072 15.3158 3.7716C14.8772 3.14002 14.2632 2.6137 13.5263 2.29791C12.807 1.99967 11.9825 1.92949 11.2281 2.06984C10.4386 2.22774 9.73684 2.6137 9.17544 3.17511C8.98246 3.35055 8.87719 3.59616 8.87719 3.87686C8.87719 4.42072 9.33333 4.87686 9.87719 4.87686C10.1579 4.87686 10.4035 4.7716 10.5789 4.57862C10.8947 4.26283 11.1579 4.12248 11.614 4.03476C12.0526 3.94704 12.3509 3.98213 12.7544 4.15756C13.1754 4.31546 13.4035 4.50844 13.6667 4.89441C13.9123 5.26283 14 5.54353 14 5.99967V8.99967C14 9.54353 14.4561 9.99967 15 9.99967C15.5439 9.99967 16 9.54353 16 8.99967Z" fill="#333333"/>
</svg>
