<svg width="24" height="24" viewBox="0 0 24 24" fill="none" xmlns="http://www.w3.org/2000/svg">
<path d="M8 3H7C4.78947 3 3 4.78947 3 7V17C3 19.2105 4.78947 21 7 21H8C8.54386 21 9 20.5439 9 20C9 19.4561 8.54386 19 8 19H7C5.77193 19 5 18.2281 5 17V7C5 5.77193 5.77193 5 7 5H8C8.54386 5 9 4.54386 9 4C9 3.45614 8.54386 3 8 3ZM16.7018 16.7018L20.5965 12.807C21.0526 12.3684 21.0526 11.6316 20.5965 11.193L16.7018 7.29824C16.5263 7.10526 16.2807 7 16 7C15.4561 7 15 7.45614 15 8C15 8.2807 15.1053 8.52632 15.2982 8.70175L19.193 12.5965C19.4211 12.8246 19.4211 11.1754 19.193 11.4035L15.2982 15.2982C15.1053 15.4737 15 15.7193 15 16C15 16.5439 15.4561 17 16 17C16.2807 17 16.5263 16.8947 16.7018 16.7018ZM20 11H8C7.45614 11 7 11.4561 7 12C7 12.5439 7.45614 13 8 13H20C20.5439 13 21 12.5439 21 12C21 11.4561 20.5439 11 20 11Z" fill="#333333"/>
</svg>
