<svg width="24" height="24" viewBox="0 0 24 24" fill="none" xmlns="http://www.w3.org/2000/svg">
<path d="M14.9298 18.9122C14.9766 18.9239 15.0234 18.9239 15.0702 18.9122L18.7719 17.6841C19.2047 17.5438 19.5146 17.3391 19.7018 17.0701C19.9006 16.8011 20 16.4385 20 15.9823V8.75428C20 8.09931 19.8655 7.5613 19.5965 7.14024C19.3275 6.71919 18.9532 6.45019 18.4737 6.33323C17.9942 6.20457 17.4386 6.24551 16.807 6.45603L15.7018 6.82445C15.2456 6.9882 14.7836 6.9882 14.3158 6.82445L9.07018 5.07007C9.02339 5.05837 8.97661 5.05837 8.92982 5.07007L5.22807 6.31568C4.79532 6.45603 4.47953 6.66071 4.2807 6.92972C4.09357 7.19872 4 7.5613 4 8.01744V15.2455C4 15.9005 4.1345 16.4385 4.40351 16.8595C4.67251 17.2806 5.04678 17.5554 5.52632 17.6841C6.00585 17.8011 6.5614 17.7543 7.19298 17.5438L8.29825 17.1753C8.76608 17.0116 9.22807 17.0116 9.68421 17.1753L14.9298 18.9122ZM9.05263 19.0701C9.01754 19.0584 8.97661 19.0584 8.92982 19.0701L7.82456 19.4385C6.83041 19.766 5.88304 19.7952 4.98246 19.5262C4.08187 19.2455 3.35673 18.725 2.80702 17.9648C2.26901 17.2046 2 16.2981 2 15.2455V8.01744C2 7.18703 2.23392 6.44434 2.70175 5.78937C3.16959 5.1344 3.80117 4.67826 4.59649 4.42095L8.29825 3.17533C8.52047 3.10516 8.75439 3.07007 9 3.07007C9.25731 3.07007 9.49123 3.10516 9.70175 3.17533L14.9474 4.92972C14.9942 4.94141 15.0351 4.94141 15.0702 4.92972L16.1754 4.5613C17.1696 4.23381 18.117 4.21042 19.0175 4.49112C19.9181 4.76013 20.6374 5.27475 21.1754 6.03498C21.7251 6.79521 22 7.70165 22 8.75428V15.9823C22 16.8128 21.7661 17.5554 21.2982 18.2104C20.8304 18.8654 20.1988 19.3215 19.4035 19.5788L15.7018 20.8069C15.4912 20.8888 15.2573 20.9297 15 20.9297C14.7544 20.9297 14.5205 20.8888 14.2982 20.8069L9.05263 19.0701ZM10 4.07007V18.0701H8V4.07007H10ZM16 5.91217V19.9122H14V5.91217H16Z" fill="#333333"/>
</svg>
