<svg width="24" height="24" viewBox="0 0 24 24" fill="none" xmlns="http://www.w3.org/2000/svg">
<path d="M1 12C1 11.7193 1.09942 11.4854 1.29825 11.2982C1.49708 11.0994 1.73099 11 2 11H3.07018C3.15205 10.1462 3.35672 9.32748 3.68421 8.54386C4.02339 7.76023 4.45029 7.03509 4.96491 6.36842L2.29825 3.70175C2.09942 3.51462 2 3.2807 2 3C2 2.7193 2.09942 2.48538 2.29825 2.29824C2.49708 2.09941 2.73099 2 3 2C3.2924 2 3.52632 2.09941 3.70175 2.29824L6.38596 4.96491L7.77193 6.35088L17.6491 16.2281L19.0351 17.614L21.7018 20.2982C21.9006 20.4737 22 20.7076 22 21C22 21.269 21.9006 21.5029 21.7018 21.7018C21.5146 21.9006 21.2807 22 21 22C20.7193 22 20.4854 21.9006 20.2982 21.7018L17.6316 19.0351C16.9649 19.5497 16.2398 19.9766 15.4561 20.3158C14.6725 20.6433 13.8538 20.848 13 20.9298V22C13 22.269 12.9006 22.5029 12.7018 22.7018C12.5146 22.9006 12.2807 23 12 23C11.731 23 11.4971 22.9006 11.2982 22.7018C11.0994 22.5029 11 22.269 11 22V20.9298C9.61988 20.7895 8.35088 20.3567 7.19298 19.6316C6.04678 18.8947 5.10526 17.9532 4.36842 16.807C3.64327 15.6491 3.21053 14.3801 3.07018 13H2C1.73099 13 1.49708 12.9006 1.29825 12.7018C1.09942 12.5029 1 12.269 1 12ZM5 12C5 13.3099 5.30409 14.5029 5.91228 15.5789C6.52047 16.6433 7.35673 17.4795 8.42105 18.0877C9.49708 18.6959 10.6901 19 12 19C12.807 19 13.5673 18.883 14.2807 18.6491C14.9942 18.4152 15.6433 18.076 16.2281 17.6316L6.36842 7.77193C5.92398 8.35672 5.5848 9.00585 5.35088 9.7193C5.11696 10.4327 5 11.193 5 12ZM8.17544 3.92982C8.59649 3.68421 9.04094 3.49123 9.50877 3.35088C9.9883 3.21053 10.4854 3.11111 11 3.05263V2C11 1.7193 11.0994 1.48538 11.2982 1.29824C11.4971 1.09941 11.731 1 12 1C12.2807 1 12.5146 1.09941 12.7018 1.29824C12.9006 1.48538 13 1.7193 13 2V3.05263C14.3801 3.20468 15.6433 3.64912 16.7895 4.38596C17.9474 5.11111 18.8889 6.05263 19.614 7.21053C20.3509 8.35672 20.7953 9.61988 20.9474 11H22C22.2807 11 22.5146 11.0994 22.7018 11.2982C22.9006 11.4854 23 11.7193 23 12C23 12.269 22.9006 12.5029 22.7018 12.7018C22.5146 12.9006 22.2807 13 22 13H20.9474C20.8889 13.5146 20.7895 14.0117 20.6491 14.4912C20.5088 14.9591 20.3158 15.4035 20.0702 15.8246L18.5088 14.2632C18.6725 13.924 18.7953 13.5614 18.8772 13.1754C18.9591 12.7895 19 12.3977 19 12C19 10.6784 18.6959 9.48538 18.0877 8.42105C17.4795 7.35672 16.6433 6.52047 15.5789 5.91228C14.5146 5.30409 13.3216 5 12 5C11.6023 5 11.2105 5.04094 10.8246 5.12281C10.4386 5.20468 10.076 5.32749 9.73684 5.49123L8.17544 3.92982Z" fill="#333333"/>
</svg>
