<svg width="24" height="24" viewBox="0 0 24 24" fill="none" xmlns="http://www.w3.org/2000/svg">
<path d="M13 4C13 4.26901 12.9006 4.50292 12.7018 4.70175C12.5146 4.90058 12.2807 5 12 5C11.731 5 11.4971 4.90058 11.2982 4.70175C11.0994 4.50292 11 4.26901 11 4V2C11 1.7193 11.0994 1.48538 11.2982 1.29824C11.4971 1.09941 11.731 1 12 1C12.2807 1 12.5146 1.09941 12.7018 1.29824C12.9006 1.48538 13 1.7193 13 2V4ZM13 22C13 22.269 12.9006 22.5029 12.7018 22.7018C12.5146 22.9006 12.2807 23 12 23C11.731 23 11.4971 22.9006 11.2982 22.7018C11.0994 22.5029 11 22.269 11 22V20C11 19.7193 11.0994 19.4854 11.2982 19.2982C11.4971 19.0994 11.731 19 12 19C12.2807 19 12.5146 19.0994 12.7018 19.2982C12.9006 19.4854 13 19.7193 13 20V22ZM22 11C22.2807 11 22.5146 11.0994 22.7018 11.2982C22.9006 11.4854 23 11.7193 23 12C23 12.269 22.9006 12.5029 22.7018 12.7018C22.5146 12.9006 22.2807 13 22 13H20C19.731 13 19.4971 12.9006 19.2982 12.7018C19.0994 12.5029 19 12.269 19 12C19 11.7193 19.0994 11.4854 19.2982 11.2982C19.4971 11.0994 19.731 11 20 11H22ZM4 11C4.2807 11 4.51462 11.0994 4.70175 11.2982C4.90058 11.4854 5 11.7193 5 12C5 12.269 4.90058 12.5029 4.70175 12.7018C4.51462 12.9006 4.2807 13 4 13H2C1.73099 13 1.49708 12.9006 1.29825 12.7018C1.09942 12.5029 1 12.269 1 12C1 11.7193 1.09942 11.4854 1.29825 11.2982C1.49708 11.0994 1.73099 11 2 11H4ZM8 12C8 11.2749 8.18129 10.6082 8.54386 10C8.90643 9.38012 9.39181 8.89474 10 8.54386C10.6082 8.18129 11.2749 8 12 8C12.7251 8 13.3918 8.18129 14 8.54386C14.6199 8.89474 15.1053 9.38012 15.4561 10C15.8187 10.6082 16 11.2749 16 12C16 12.7135 15.8187 13.3801 15.4561 14C15.1053 14.6082 14.6199 15.0936 14 15.4561C13.3918 15.8187 12.7251 16 12 16C11.2865 16 10.6199 15.8187 10 15.4561C9.39181 15.0936 8.90643 14.6082 8.54386 14C8.18129 13.3918 8 12.7251 8 12ZM10 12C10 12.3977 10.0819 12.7485 10.2456 13.0526C10.4094 13.3567 10.6433 13.5906 10.9474 13.7544C11.2515 13.9181 11.6023 14 12 14C12.4094 14 12.7661 13.9181 13.0702 13.7544C13.3743 13.5906 13.6023 13.3567 13.7544 13.0526C13.9181 12.7485 14 12.3977 14 12C14 11.5906 13.9181 11.2339 13.7544 10.9298C13.6023 10.6257 13.3743 10.3977 13.0702 10.2456C12.7661 10.0819 12.4094 10 12 10C11.6023 10 11.2515 10.0819 10.9474 10.2456C10.6433 10.3977 10.4094 10.6257 10.2456 10.9298C10.0819 11.2339 10 11.5906 10 12ZM12 19C13.3216 19 14.5146 18.6959 15.5789 18.0877C16.6433 17.4795 17.4795 16.6433 18.0877 15.5789C18.6959 14.5029 19 13.3099 19 12C19 10.6784 18.6959 9.48538 18.0877 8.42105C17.4795 7.35672 16.6433 6.52047 15.5789 5.91228C14.5146 5.30409 13.3216 5 12 5C10.6901 5 9.49708 5.30409 8.42105 5.91228C7.35673 6.52047 6.52047 7.35672 5.91228 8.42105C5.30409 9.48538 5 10.6784 5 12C5 13.3099 5.30409 14.5029 5.91228 15.5789C6.52047 16.6433 7.35673 17.4795 8.42105 18.0877C9.49708 18.6959 10.6901 19 12 19ZM12 21C10.3743 21 8.87135 20.5965 7.49123 19.7895C6.11111 18.9825 5.01754 17.8947 4.21053 16.5263C3.40351 15.1462 3 13.6374 3 12C3 10.3626 3.40351 8.8538 4.21053 7.47368C5.01754 6.09357 6.10526 5.00585 7.47368 4.21053C8.8538 3.40351 10.3626 3 12 3C13.6374 3 15.1462 3.40351 16.5263 4.21053C17.9064 5.00585 18.9942 6.09357 19.7895 7.47368C20.5965 8.8538 21 10.3626 21 12C21 13.6257 20.5965 15.1287 19.7895 16.5088C18.9942 17.8889 17.9064 18.9825 16.5263 19.7895C15.1462 20.5965 13.6374 21 12 21Z" fill="#333333"/>
</svg>
