<svg width="24" height="24" viewBox="0 0 24 24" fill="none" xmlns="http://www.w3.org/2000/svg">
<path d="M12.035 16.2806L18.1052 18.3157C18.1754 18.3274 18.2105 18.3508 18.2105 18.3858C18.2222 18.4092 18.2105 18.4209 18.1754 18.4209C18.152 18.4092 18.1286 18.3742 18.1052 18.3157L12.035 5.40339C12.0584 5.34491 12.0701 5.30398 12.0701 5.28059C12.0701 5.25719 12.0584 5.25135 12.035 5.26304C12.0234 5.26304 12.0117 5.28059 12 5.31567L5.87715 17.9823C5.83037 18.0642 5.78359 18.111 5.7368 18.1227C5.70172 18.1344 5.69002 18.1227 5.70172 18.0876C5.71341 18.0525 5.76604 18.0233 5.85961 17.9999L12.035 16.2806ZM6.40347 19.9297C5.86546 20.0701 5.36838 20.0116 4.91224 19.7543C4.4561 19.497 4.14031 19.1227 3.96487 18.6315C3.78944 18.1285 3.82452 17.6256 4.07014 17.1227L10.1929 4.45603C10.4269 3.9648 10.7836 3.63146 11.2631 3.45602C11.7427 3.26889 12.228 3.26889 12.7193 3.45602C13.2105 3.63146 13.5731 3.9648 13.807 4.45603L19.9122 17.456C20.1462 17.9706 20.1696 18.4794 19.9824 18.9823C19.7953 19.4853 19.4619 19.8595 18.9824 20.1051C18.5146 20.3508 18.0117 20.3858 17.4736 20.2104L11.9649 18.3858L6.40347 19.9297Z" fill="#333333"/>
</svg>
