<svg width="24" height="24" viewBox="0 0 24 24" fill="none" xmlns="http://www.w3.org/2000/svg">
<path d="M3.71933 11.9825C3.20471 11.7135 2.86553 11.3216 2.70178 10.807C2.54974 10.2924 2.58483 9.78948 2.80705 9.29825C3.04097 8.80702 3.43278 8.46784 3.98249 8.28071L17.7895 3.68421C18.2924 3.50878 18.772 3.53217 19.2281 3.75439C19.6959 3.96492 20.0351 4.3041 20.2456 4.77193C20.4679 5.23977 20.4913 5.72515 20.3158 6.22807L15.7193 20.0175C15.5322 20.5673 15.193 20.9591 14.7018 21.193C14.2106 21.4152 13.7076 21.4503 13.193 21.2983C12.6784 21.1345 12.2866 20.7953 12.0176 20.2807L9.26319 14.7368L3.71933 11.9825ZM10.7544 13.2456L13.807 19.386C13.8421 19.4561 13.8538 19.5029 13.8421 19.5263C13.8304 19.5497 13.8187 19.5497 13.807 19.5263C13.7954 19.5029 13.8012 19.4561 13.8246 19.386L18.4211 5.5965C18.4328 5.52632 18.4503 5.49123 18.4737 5.49123C18.5088 5.47954 18.5205 5.49123 18.5088 5.52632C18.5088 5.54971 18.4796 5.56726 18.4211 5.57895L4.61406 10.1754C4.54389 10.1988 4.49711 10.2047 4.47371 10.193C4.45032 10.1813 4.45032 10.1696 4.47371 10.1579C4.49711 10.1462 4.54389 10.1579 4.61406 10.193L10.7544 13.2456Z" fill="#333333"/>
</svg>
