<svg width="24" height="24" viewBox="0 0 24 24" fill="none" xmlns="http://www.w3.org/2000/svg">
<path d="M2.29819 3.70174C2.01749 3.40935 1.93562 3.09356 2.05258 2.75437C2.16954 2.4035 2.40345 2.16958 2.75433 2.05262C3.10521 1.92396 3.421 2.00584 3.7017 2.29823L21.7017 20.2982C21.9941 20.5789 22.076 20.8947 21.9473 21.2456C21.8304 21.5965 21.5964 21.8304 21.2456 21.9474C20.9064 22.0643 20.5906 21.9824 20.2982 21.7017L16.4561 17.8421L15.7192 20.0175C15.5438 20.5672 15.2105 20.9591 14.7192 21.193C14.228 21.4152 13.7192 21.4503 13.1929 21.2982C12.6783 21.1345 12.2865 20.7953 12.0175 20.2807L9.2631 14.7368L3.71924 11.9824C3.20462 11.7134 2.86544 11.3216 2.7017 10.807C2.54965 10.2807 2.58474 9.77192 2.80696 9.28069C3.04088 8.78946 3.43269 8.45613 3.9824 8.28069L6.15784 7.54385L2.29819 3.70174ZM17.7894 3.6842C18.2923 3.50876 18.7719 3.53215 19.228 3.75437C19.6959 3.9649 20.035 4.30408 20.2456 4.77192C20.4678 5.22806 20.4912 5.70759 20.3157 6.21051L17.8596 13.5965L10.4035 6.14034L17.7894 3.6842ZM10.7543 13.2456L13.807 19.386C13.8421 19.4561 13.8537 19.5029 13.8421 19.5263C13.8304 19.5497 13.8187 19.5497 13.807 19.5263C13.7953 19.5029 13.8011 19.4561 13.8245 19.386L15.5789 14.1579L9.84205 8.42104L4.61398 10.1754C4.5438 10.1988 4.49702 10.2047 4.47363 10.193C4.45024 10.1813 4.45024 10.1696 4.47363 10.1579C4.49702 10.1462 4.5438 10.1579 4.61398 10.193L10.7543 13.2456ZM16.2806 12.0175L18.421 5.57894C18.4327 5.52046 18.4502 5.49122 18.4736 5.49122C18.5087 5.47952 18.5204 5.49122 18.5087 5.5263C18.5087 5.5497 18.4795 5.56724 18.421 5.57894L11.9824 7.71929L16.2806 12.0175ZM21.7017 20.2982C21.9941 20.5789 22.076 20.8947 21.9473 21.2456C21.8304 21.5965 21.5964 21.8304 21.2456 21.9474C20.9064 22.0643 20.5906 21.9824 20.2982 21.7017L2.29819 3.70174C2.01749 3.40935 1.93562 3.09356 2.05258 2.75437C2.16954 2.4035 2.40345 2.16958 2.75433 2.05262C3.10521 1.92396 3.421 2.00584 3.7017 2.29823L21.7017 20.2982Z" fill="#333333"/>
</svg>
