<svg width="24" height="24" viewBox="0 0 24 24" fill="none" xmlns="http://www.w3.org/2000/svg">
<path d="M7 8C7 7.29825 7.29825 7 8 7C8.70175 7 9 7.29825 9 8V16C9 16.7018 8.70175 17 8 17C7.29825 17 7 16.7018 7 16V8ZM5 8V16C5 17.6842 6.31579 19 8 19C9.68421 19 11 17.6842 11 16V8C11 6.31579 9.68421 5 8 5C6.31579 5 5 6.31579 5 8ZM15 8C15 7.29825 15.2982 7 16 7C16.7018 7 17 7.29825 17 8V16C17 16.7018 16.7018 17 16 17C15.2982 17 15 16.7018 15 16V8ZM13 8V16C13 17.6842 14.3158 19 16 19C17.6842 19 19 17.6842 19 16V8C19 6.31579 17.6842 5 16 5C14.3158 5 13 6.31579 13 8Z" fill="#333333"/>
</svg>
