<svg width="24" height="24" viewBox="0 0 24 24" fill="none" xmlns="http://www.w3.org/2000/svg">
<path d="M8.96498 7.00001C8.96498 5.19299 10.1931 3.96492 12.0001 3.96492C13.8071 3.96492 15.0352 5.19299 15.0352 7.00001C15.0352 8.80702 13.8071 10.0351 12.0001 10.0351C10.1931 10.0351 8.96498 8.80702 8.96498 7.00001ZM7.03516 7.00001C7.03516 9.73685 9.26323 11.9649 12.0001 11.9649C14.7369 11.9649 16.965 9.73685 16.965 7.00001C16.965 4.26317 14.7369 2.0351 12.0001 2.0351C9.26323 2.0351 7.03516 4.26317 7.03516 7.00001ZM3.96498 18C3.96498 16.4211 7.24568 14.9649 12.0001 14.9649C16.7545 14.9649 20.0352 16.4211 20.0352 18C20.0352 19.2456 19.2457 20.0351 18.0001 20.0351H6.00007C4.75445 20.0351 3.96498 19.2456 3.96498 18ZM2.03516 18C2.03516 20.1754 3.82463 21.9649 6.00007 21.9649H18.0001C20.1755 21.9649 21.965 20.1754 21.965 18C21.965 15.0176 17.3159 13.0351 12.0001 13.0351C6.68428 13.0351 2.03516 15.0176 2.03516 18Z" fill="#333333"/>
</svg>
