<svg width="24" height="24" viewBox="0 0 24 24" fill="none" xmlns="http://www.w3.org/2000/svg">
<path d="M8.96498 6.99995C8.96498 5.19293 10.1931 3.96486 12.0001 3.96486C13.8071 3.96486 15.0352 5.19293 15.0352 6.99995C15.0352 8.80696 13.8071 10.035 12.0001 10.035C10.1931 10.035 8.96498 8.80696 8.96498 6.99995ZM7.03516 6.99995C7.03516 9.73679 9.26323 11.9649 12.0001 11.9649C14.7369 11.9649 16.965 9.73679 16.965 6.99995C16.965 4.2631 14.7369 2.03503 12.0001 2.03503C9.26323 2.03503 7.03516 4.2631 7.03516 6.99995ZM3.96498 17.9999C3.96498 16.421 7.24568 14.9649 12.0001 14.9649C16.7545 14.9649 20.0352 16.421 20.0352 17.9999C20.0352 19.2456 19.2457 20.035 18.0001 20.035H6.00007C4.75445 20.035 3.96498 19.2456 3.96498 17.9999ZM2.03516 17.9999C2.03516 20.1754 3.82463 21.9649 6.00007 21.9649H18.0001C20.1755 21.9649 21.965 20.1754 21.965 17.9999C21.965 15.0175 17.3159 13.035 12.0001 13.035C6.68428 13.035 2.03516 15.0175 2.03516 17.9999Z" fill="#333333"/>
</svg>
