<svg width="24" height="24" viewBox="0 0 24 24" fill="none" xmlns="http://www.w3.org/2000/svg">
<path d="M12 20C7.45614 20 4 16.5439 4 12C4 7.45614 7.45614 4 12 4C16.5439 4 20 7.45614 20 12C20 16.5439 16.5439 20 12 20ZM12 22C17.5263 22 22 17.5263 22 12C22 6.47368 17.5263 2 12 2C6.47368 2 2 6.47368 2 12C2 17.5263 6.47368 22 12 22ZM16.0877 10.8947L10.8947 7.89474C10 7.40351 9 7.98246 9 9V15C9 16.0175 10 16.5965 10.8947 16.1053L16.0877 13.1053C17 12.5965 17 11.4035 16.0877 10.8947Z" fill="#333333"/>
</svg>
