<svg width="24" height="24" viewBox="0 0 24 24" fill="none" xmlns="http://www.w3.org/2000/svg">
<path d="M6 16C6.36257 16 6.69591 16.0936 7 16.2807C7.30409 16.4561 7.54386 16.6959 7.7193 17C7.90643 17.3041 8 17.6374 8 18C8 18.3509 7.90643 18.6842 7.7193 19C7.54386 19.3041 7.30409 19.5497 7 19.7368C6.69591 19.9123 6.36257 20 6 20C5.64912 20 5.31579 19.9123 5 19.7368C4.69591 19.5497 4.45029 19.3041 4.26316 19C4.08772 18.6842 4 18.3509 4 18C4 17.6374 4.08772 17.3041 4.26316 17C4.45029 16.6959 4.69591 16.4561 5 16.2807C5.31579 16.0936 5.64912 16 6 16ZM6 14C5.73099 14 5.49708 13.9006 5.29825 13.7018C5.09942 13.5029 5 13.269 5 13C5 12.7193 5.09942 12.4854 5.29825 12.2982C5.49708 12.0994 5.73099 12 6 12C6.80702 12 7.5731 12.152 8.29825 12.4561C9.03509 12.7485 9.68421 13.1813 10.2456 13.7544C10.8187 14.3158 11.2515 14.9649 11.5439 15.7018C11.848 16.4269 12 17.193 12 18C12 18.269 11.9006 18.5029 11.7018 18.7018C11.5146 18.9006 11.2807 19 11 19C10.731 19 10.4971 18.9006 10.2982 18.7018C10.0994 18.5029 10 18.269 10 18C10 17.4503 9.90058 16.9415 9.70175 16.4737C9.52632 16.0175 9.23977 15.5789 8.8421 15.1579C8.42105 14.7602 7.98246 14.4737 7.52632 14.2982C7.05848 14.0994 6.54971 14 6 14ZM6 10C5.73099 10 5.49708 9.90058 5.29825 9.70175C5.09942 9.50292 5 9.26901 5 9C5 8.7193 5.09942 8.48538 5.29825 8.29824C5.49708 8.09941 5.73099 8 6 8C7.34503 8 8.61988 8.25146 9.82456 8.75438C11.0526 9.25731 12.1345 9.98246 13.0702 10.9298C14.0175 11.8655 14.7427 12.9474 15.2456 14.1754C15.7485 15.3801 16 16.655 16 18C16 18.269 15.9006 18.5029 15.7018 18.7018C15.5146 18.9006 15.2807 19 15 19C14.731 19 14.4971 18.9006 14.2982 18.7018C14.0994 18.5029 14 18.269 14 18C14 16.9123 13.8012 15.8947 13.4035 14.9474C13.0058 14 12.4269 13.1287 11.6667 12.3333C10.8713 11.5731 10 10.9942 9.05263 10.5965C8.10526 10.1988 7.08772 10 6 10ZM6 6C5.73099 6 5.49708 5.90058 5.29825 5.70175C5.09942 5.50292 5 5.269 5 5C5 4.7193 5.09942 4.48538 5.29825 4.29824C5.49708 4.09941 5.73099 4 6 4C7.87135 4 9.66082 4.35088 11.3684 5.05263C13.0994 5.80117 14.6082 6.81871 15.8947 8.10526C17.1813 9.39181 18.1988 10.9006 18.9474 12.6316C19.6491 14.3392 20 16.1287 20 18C20 18.269 19.9006 18.5029 19.7018 18.7018C19.5146 18.9006 19.2807 19 19 19C18.731 19 18.4971 18.9006 18.2982 18.7018C18.0994 18.5029 18 18.269 18 18C18 16.386 17.7018 14.8538 17.1053 13.4035C16.4503 11.8947 15.5789 10.5965 14.4912 9.50877C13.4035 8.42105 12.1053 7.54971 10.5965 6.89474C9.1462 6.29824 7.61404 6 6 6Z" fill="#333333"/>
</svg>
