<svg width="24" height="24" viewBox="0 0 24 24" fill="none" xmlns="http://www.w3.org/2000/svg">
<path d="M12 20C7.45614 20 4 16.5439 4 12C4 7.45614 7.45614 4 12 4C16.5439 4 20 7.45614 20 12C20 16.5439 16.5439 20 12 20ZM12 22C17.5263 22 22 17.5263 22 12C22 6.47368 17.5263 2 12 2C6.47368 2 2 6.47368 2 12C2 17.5263 6.47368 22 12 22ZM11 7V12C11 12.5439 11.4561 13 12 13C12.5439 13 13 12.5439 13 12V7C13 6.45614 12.5439 6 12 6C11.4561 6 11 6.45614 11 7ZM11.2982 12.7018L14.9649 16.3684C15.1404 16.5614 15.386 16.6667 15.6667 16.6667C16.2105 16.6667 16.6667 16.2105 16.6667 15.6667C16.6667 15.386 16.5614 15.1404 16.3684 14.9649L12.7018 11.2982C12.5263 11.1053 12.2807 11 12 11C11.4561 11 11 11.4561 11 12C11 12.2807 11.1053 12.5263 11.2982 12.7018Z" fill="#333333"/>
</svg>
