<svg width="24" height="24" viewBox="0 0 24 24" fill="none" xmlns="http://www.w3.org/2000/svg">
<path d="M5.11537 9.50978C4.85221 9.22908 4.85221 9.22908 5.22063 9.12381L17.975 5.36943C18.4662 5.21153 18.4662 5.21153 18.3083 5.70276L14.554 18.4571C14.4487 18.8431 14.4487 18.8431 14.168 18.5624L5.11537 9.50978ZM3.71186 10.9133L12.7645 19.9659C14.0101 21.2291 15.9926 20.7203 16.4838 19.0186L20.2382 6.26416C20.782 4.45715 19.2206 2.89574 17.4136 3.4396L4.65923 7.19399C2.95747 7.7203 2.43116 9.65013 3.71186 10.9133ZM12.2382 10.0361L8.23817 14.0361C8.04519 14.2115 7.93993 14.4571 7.93993 14.7378C7.93993 15.2817 8.39607 15.7378 8.93993 15.7378C9.22063 15.7378 9.46624 15.6326 9.64168 15.4396L13.6417 11.4396C13.8347 11.2642 13.9399 11.0186 13.9399 10.7378C13.9399 10.194 13.4838 9.73785 12.9399 9.73785C12.6592 9.73785 12.4136 9.84311 12.2382 10.0361Z" fill="#333333"/>
</svg>
