<svg width="24" height="24" viewBox="0 0 24 24" fill="none" xmlns="http://www.w3.org/2000/svg">
<path d="M5.11537 9.50984C4.85221 9.22914 4.85221 9.22914 5.22063 9.12387L17.975 5.36949C18.4662 5.21159 18.4662 5.21159 18.3083 5.70282L14.554 18.4572C14.4487 18.8432 14.4487 18.8432 14.168 18.5625L5.11537 9.50984ZM3.71186 10.9133L12.7645 19.966C14.0101 21.2291 15.9926 20.7204 16.4838 19.0186L20.2382 6.26422C20.782 4.45721 19.2206 2.8958 17.4136 3.43966L4.65923 7.19405C2.95747 7.72037 2.43116 9.65019 3.71186 10.9133ZM12.2382 10.0362L8.23817 14.0362C8.04519 14.2116 7.93993 14.4572 7.93993 14.7379C7.93993 15.2818 8.39607 15.7379 8.93993 15.7379C9.22063 15.7379 9.46624 15.6326 9.64168 15.4397L13.6417 11.4397C13.8347 11.2642 13.9399 11.0186 13.9399 10.7379C13.9399 10.1941 13.4838 9.73791 12.9399 9.73791C12.6592 9.73791 12.4136 9.84317 12.2382 10.0362Z" fill="#333333"/>
</svg>
