<svg width="24" height="24" viewBox="0 0 24 24" fill="none" xmlns="http://www.w3.org/2000/svg">
<path d="M12.4561 4C13.0877 4 13.228 4.10526 13.2982 4.4386L13.3859 4.84211C13.5438 5.59649 14.0175 6.26316 14.8245 6.70176C14.9649 6.77193 15.035 6.82456 15.1227 6.87719C15.9122 7.38597 16.7368 7.45614 17.4561 7.24561L17.6315 7.17544C18.1754 7 18.421 7.08772 18.6842 7.57895L19.1754 8.40351C19.4736 8.92983 19.4561 9.10526 19.1754 9.35088L18.842 9.68421C18.3157 10.1754 17.9824 10.8772 17.9999 11.7719C17.9999 11.9123 17.9999 12.0702 17.9999 12.2105C17.9649 13.0175 18.2456 13.7719 18.842 14.3333L18.9999 14.4737C19.421 14.8596 19.4561 15.0877 19.1578 15.5965L18.7017 16.4211C18.4034 16.9298 18.2456 17 17.8596 16.8772L17.4385 16.7544C16.7368 16.5439 15.9298 16.614 15.1403 17.1228C15.0701 17.1754 14.9999 17.2105 14.8245 17.2982C14.0175 17.7368 13.5613 18.386 13.3859 19.1228L13.3508 19.3158C13.2456 19.8596 13.0526 20 12.4561 20H11.5438C10.9298 20 10.7894 19.8947 10.7192 19.5263L10.5964 19.0877C10.4385 18.4035 9.96485 17.7368 9.15783 17.2807C9.03503 17.2281 8.96485 17.1754 8.8245 17.1053C8.07011 16.614 7.24555 16.5439 6.5438 16.7544L6.36836 16.8246C5.8245 17 5.57889 16.9123 5.31573 16.4211L4.8245 15.5965C4.52625 15.0702 4.5438 14.8947 4.8245 14.6491L5.15783 14.3158C5.68415 13.8246 6.01748 13.1228 5.99994 12.2281C5.99994 12.0877 5.99994 11.9298 5.99994 11.7895C6.03503 10.9825 5.75433 10.2281 5.15783 9.66667L4.99994 9.52632C4.57889 9.14035 4.5438 8.91228 4.84204 8.40351L5.29819 7.57895C5.61397 7.07018 5.77187 6.98246 6.12275 7.08772L6.52625 7.22807C7.24555 7.45614 8.08766 7.38597 8.87713 6.87719C8.92976 6.84211 9.03503 6.78947 9.19292 6.70176C9.9824 6.26316 10.4561 5.59649 10.614 4.85965L10.6491 4.68421C10.7543 4.14035 10.9473 4 11.5438 4H12.4561ZM12.4561 2H11.5438C10.1578 2 8.9824 2.89474 8.68415 4.29825L8.64906 4.47368C8.59643 4.70175 8.5438 4.77193 8.21047 4.94737C8.1052 5.01754 7.91222 5.12281 7.77187 5.21053C7.49117 5.38596 7.40345 5.40351 7.14029 5.33333L6.73678 5.19298C5.61397 4.84211 4.31573 5.31579 3.57889 6.59649L3.08766 7.42105C2.40345 8.63158 2.63152 10.0526 3.64906 11L3.78941 11.1404C4.01748 11.3509 4.01748 11.386 3.99994 11.7193C3.99994 11.8947 3.99994 12.0877 3.99994 12.2632C4.01748 12.614 3.99994 12.6667 3.78941 12.8772L3.45608 13.1754C2.61397 13.9649 2.36836 15.3158 3.1052 16.5789L3.56134 17.4035C4.2631 18.6316 5.64906 19.1404 6.96485 18.7193L7.14029 18.6842C7.40345 18.5965 7.47362 18.614 7.77187 18.7895C7.91222 18.8947 8.07012 18.9825 8.22801 19.0526C8.5438 19.2281 8.59643 19.2982 8.66661 19.5789L8.75433 19.9825C9.01748 21.0877 10.0526 22 11.5438 22H12.4561C13.842 22 15.0175 21.1053 15.3157 19.7018L15.3508 19.5439C15.4034 19.2807 15.4561 19.2281 15.7719 19.0526C15.9122 18.9825 16.1052 18.8772 16.2456 18.7895C16.5438 18.614 16.614 18.5965 16.8771 18.6842L17.2982 18.807C18.3859 19.1404 19.6842 18.6842 20.421 17.4035L20.9122 16.5789C21.5964 15.3684 21.3684 13.9474 20.3508 13L20.2105 12.8596C19.9824 12.6491 19.9824 12.614 19.9999 12.2807C19.9999 12.1053 19.9999 11.9123 19.9999 11.7368C19.9824 11.386 19.9999 11.3333 20.2105 11.1228L20.5438 10.8246C21.3859 10.0351 21.6315 8.68421 20.8947 7.42105L20.4385 6.59649C19.7368 5.36842 18.3508 4.85965 17.035 5.2807L16.8596 5.31579C16.614 5.40351 16.5263 5.38596 16.228 5.21053C16.0701 5.10526 15.9122 5.01754 15.807 4.94737C15.4561 4.75439 15.4034 4.7193 15.3508 4.45614L15.2631 4.01754C15.0175 2.89474 13.9473 2 12.4561 2ZM7.99994 12C7.99994 14.2105 9.78941 16 11.9999 16C14.2105 16 15.9999 14.2105 15.9999 12C15.9999 9.78947 14.2105 8 11.9999 8C9.78941 8 7.99994 9.78947 7.99994 12ZM9.99994 12C9.99994 10.7719 10.7719 10 11.9999 10C13.228 10 13.9999 10.7719 13.9999 12C13.9999 13.2281 13.228 14 11.9999 14C10.7719 14 9.99994 13.2281 9.99994 12Z" fill="#333333"/>
</svg>
