<svg width="24" height="24" viewBox="0 0 24 24" fill="none" xmlns="http://www.w3.org/2000/svg">
<path d="M16.2456 16.2455C16.8421 15.6373 17.2807 14.9823 17.5614 14.2806C17.8538 13.5788 18 12.8186 18 11.9999V5.59638C18.0117 5.60808 18.0117 5.61393 18 5.61393C18 5.60223 17.9942 5.61393 17.9825 5.64902L11.9474 3.05252C11.9357 3.05252 11.9298 3.05252 11.9298 3.05252C11.9532 3.06422 11.9708 3.07592 11.9825 3.08761L5.94737 5.71919C5.90058 5.74258 5.89474 5.72504 5.92982 5.66656C5.97661 5.59638 6 5.59054 6 5.64902V11.9999C6 12.8186 6.14035 13.5788 6.42105 14.2806C6.71345 14.9823 7.1579 15.6373 7.75439 16.2455L10.5439 19.035C11.0234 19.5028 11.5088 19.7367 12 19.7367C12.4912 19.7367 12.9766 19.5028 13.4561 19.035L16.2456 16.2455ZM14.8596 20.4385C14.3333 20.9765 13.7251 21.3449 13.0351 21.5438C12.345 21.7309 11.655 21.7309 10.9649 21.5438C10.2865 21.3449 9.67836 20.9765 9.14035 20.4385L6.35088 17.649C5.57895 16.8888 4.99415 16.0174 4.59649 15.035C4.19883 14.0525 4 13.0408 4 11.9999V5.64902C4 5.27475 4.09942 4.92972 4.29825 4.61393C4.50877 4.29814 4.78947 4.05837 5.14035 3.89463L11.2632 1.22796C11.5088 1.1227 11.7544 1.07007 12 1.07007C12.2573 1.07007 12.4971 1.1227 12.7193 1.22796L18.8596 3.85954C19.2222 4.01159 19.5029 4.24551 19.7018 4.5613C19.9006 4.86539 20 5.21042 20 5.59638V11.9999C20 13.0408 19.8012 14.0525 19.4035 15.035C19.0058 16.0174 18.4211 16.8888 17.6491 17.649L14.8596 20.4385ZM15 9.99989C15.2807 9.99989 15.5146 10.0993 15.7018 10.2981C15.9006 10.4853 16 10.7192 16 10.9999C16 11.2689 15.9006 11.5028 15.7018 11.7016C15.5146 11.9005 15.2807 11.9999 15 11.9999H11V7.99989C11 7.71919 11.0994 7.48527 11.2982 7.29814C11.4971 7.09931 11.731 6.99989 12 6.99989C12.2807 6.99989 12.5146 7.09931 12.7018 7.29814C12.9006 7.48527 13 7.71919 13 7.99989V9.99989H15ZM9 11.9999C8.73099 11.9999 8.49708 11.9005 8.29825 11.7016C8.09942 11.5028 8 11.2689 8 10.9999C8 10.7192 8.09942 10.4853 8.29825 10.2981C8.49708 10.0993 8.73099 9.99989 9 9.99989H13V13.9999C13 14.2689 12.9006 14.5028 12.7018 14.7016C12.5146 14.9005 12.2807 14.9999 12 14.9999C11.731 14.9999 11.4971 14.9005 11.2982 14.7016C11.0994 14.5028 11 14.2689 11 13.9999V11.9999H9Z" fill="#333333"/>
</svg>
