<svg width="24" height="24" viewBox="0 0 24 24" fill="none" xmlns="http://www.w3.org/2000/svg">
<path d="M4 5.64902C4 5.55545 4.00585 5.47942 4.01754 5.42094L2.29825 3.70165C2.01754 3.40925 1.93567 3.09346 2.05263 2.75428C2.16959 2.4034 2.40351 2.16948 2.75439 2.05252C3.10526 1.92387 3.42105 2.00574 3.70175 2.29814L21.7018 20.2981C21.9942 20.5788 22.076 20.8946 21.9474 21.2455C21.8304 21.5964 21.5965 21.8303 21.2456 21.9473C20.9064 22.0642 20.5906 21.9823 20.2982 21.7016L16.9474 18.3508L14.8596 20.4385C14.3333 20.9765 13.7251 21.3449 13.0351 21.5438C12.345 21.7309 11.655 21.7309 10.9649 21.5438C10.2865 21.3449 9.67836 20.9765 9.14035 20.4385L6.35088 17.649C5.57895 16.8888 4.99415 16.0174 4.59649 15.035C4.19883 14.0525 4 13.0408 4 11.9999V5.64902ZM6 11.9999C6 12.8186 6.14035 13.5788 6.42105 14.2806C6.71345 14.9823 7.1579 15.6373 7.75439 16.2455L10.5439 19.035C11.0234 19.5028 11.5088 19.7367 12 19.7367C12.4912 19.7367 12.9766 19.5028 13.4561 19.035L15.5439 16.9473L6 7.4034V11.9999ZM11.2632 1.22796C11.5088 1.1227 11.7544 1.07007 12 1.07007C12.2573 1.07007 12.4971 1.1227 12.7193 1.22796L18.8596 3.85954C19.2222 4.01159 19.5029 4.24551 19.7018 4.5613C19.9006 4.86539 20 5.21042 20 5.59638V11.9999C20 12.5262 19.9415 13.0467 19.8246 13.5613C19.7193 14.0759 19.5439 14.573 19.2982 15.0525L17.6667 13.4034C17.8889 13.0291 18 12.5613 18 11.9999V5.15779C18.117 5.30983 18.1988 5.42095 18.2456 5.49112C18.2924 5.5613 18.3626 5.6841 18.4561 5.85954L11.5088 2.87709C11.8363 2.85369 12.1637 2.85369 12.4912 2.87709L8.75439 4.50866L7.22807 2.98235L11.2632 1.22796Z" fill="#333333"/>
</svg>
