<svg width="24" height="24" viewBox="0 0 24 24" fill="none" xmlns="http://www.w3.org/2000/svg">
<path d="M16.2456 16.2455C16.8421 15.6373 17.2807 14.9823 17.5614 14.2806C17.8538 13.5788 18 12.8186 18 11.9999V5.59638C18.0117 5.60808 18.0117 5.61393 18 5.61393C18 5.60223 17.9942 5.61393 17.9825 5.64902L11.9474 3.05252C11.9357 3.05252 11.9298 3.05252 11.9298 3.05252C11.9532 3.06422 11.9708 3.07592 11.9825 3.08761L5.94737 5.71919C5.90058 5.74258 5.89474 5.72504 5.92982 5.66656C5.97661 5.59638 6 5.59054 6 5.64902V11.9999C6 12.8186 6.14035 13.5788 6.42105 14.2806C6.71345 14.9823 7.1579 15.6373 7.75439 16.2455L10.5439 19.035C11.0234 19.5028 11.5088 19.7367 12 19.7367C12.4912 19.7367 12.9766 19.5028 13.4561 19.035L16.2456 16.2455ZM14.8596 20.4385C14.3333 20.9765 13.7251 21.3449 13.0351 21.5438C12.345 21.7309 11.655 21.7309 10.9649 21.5438C10.2865 21.3449 9.67836 20.9765 9.14035 20.4385L6.35088 17.649C5.57895 16.8888 4.99415 16.0174 4.59649 15.035C4.19883 14.0525 4 13.0408 4 11.9999V5.64902C4 5.27475 4.09942 4.92972 4.29825 4.61393C4.50877 4.29814 4.78947 4.05837 5.14035 3.89463L11.2632 1.22796C11.5088 1.1227 11.7544 1.07007 12 1.07007C12.2573 1.07007 12.4971 1.1227 12.7193 1.22796L18.8596 3.85954C19.2222 4.01159 19.5029 4.24551 19.7018 4.5613C19.9006 4.86539 20 5.21042 20 5.59638V11.9999C20 13.0408 19.8012 14.0525 19.4035 15.035C19.0058 16.0174 18.4211 16.8888 17.6491 17.649L14.8596 20.4385ZM9.29825 9.70165C9.09942 9.51451 9 9.28059 9 8.99989C9 8.71919 9.09942 8.48527 9.29825 8.29814C9.49708 8.09931 9.73099 7.99989 10 7.99989C10.2924 7.99989 10.5263 8.09931 10.7018 8.29814L14.7018 12.2981C14.9006 12.4736 15 12.7075 15 12.9999C15 13.2689 14.9006 13.5028 14.7018 13.7016C14.5146 13.9005 14.2807 13.9999 14 13.9999C13.7193 13.9999 13.4854 13.9005 13.2982 13.7016L9.29825 9.70165ZM13.2982 8.29814C13.4854 8.09931 13.7193 7.99989 14 7.99989C14.2807 7.99989 14.5146 8.09931 14.7018 8.29814C14.9006 8.48527 15 8.71919 15 8.99989C15 9.28059 14.9006 9.51451 14.7018 9.70165L10.7018 13.7016C10.5263 13.9005 10.2924 13.9999 10 13.9999C9.73099 13.9999 9.49708 13.9005 9.29825 13.7016C9.09942 13.5028 9 13.2689 9 12.9999C9 12.7075 9.09942 12.4736 9.29825 12.2981L13.2982 8.29814Z" fill="#333333"/>
</svg>
