<svg width="24" height="24" viewBox="0 0 24 24" fill="none" xmlns="http://www.w3.org/2000/svg">
<path d="M16.2456 16.2455C16.8421 15.6373 17.2807 14.9823 17.5614 14.2806C17.8538 13.5788 18 12.8186 18 11.9999V5.59638C18.0117 5.60808 18.0117 5.61393 18 5.61393C18 5.60223 17.9942 5.61393 17.9825 5.64902L11.9474 3.05252C11.9357 3.05252 11.9298 3.05252 11.9298 3.05252C11.9532 3.06422 11.9708 3.07592 11.9825 3.08761L5.94737 5.71919C5.90058 5.74258 5.89474 5.72504 5.92982 5.66656C5.97661 5.59638 6 5.59054 6 5.64902V11.9999C6 12.8186 6.14035 13.5788 6.42105 14.2806C6.71345 14.9823 7.1579 15.6373 7.75439 16.2455L10.5439 19.035C11.0234 19.5028 11.5088 19.7367 12 19.7367C12.4912 19.7367 12.9766 19.5028 13.4561 19.035L16.2456 16.2455ZM14.8596 20.4385C14.3333 20.9765 13.7251 21.3449 13.0351 21.5438C12.345 21.7309 11.655 21.7309 10.9649 21.5438C10.2865 21.3449 9.67836 20.9765 9.14035 20.4385L6.35088 17.649C5.57895 16.8888 4.99415 16.0174 4.59649 15.035C4.19883 14.0525 4 13.0408 4 11.9999V5.64902C4 5.27475 4.09942 4.92972 4.29825 4.61393C4.50877 4.29814 4.78947 4.05837 5.14035 3.89463L11.2632 1.22796C11.5088 1.1227 11.7544 1.07007 12 1.07007C12.2573 1.07007 12.4971 1.1227 12.7193 1.22796L18.8596 3.85954C19.2222 4.01159 19.5029 4.24551 19.7018 4.5613C19.9006 4.86539 20 5.21042 20 5.59638V11.9999C20 13.0408 19.8012 14.0525 19.4035 15.035C19.0058 16.0174 18.4211 16.8888 17.6491 17.649L14.8596 20.4385ZM14.2982 8.29814C14.4854 8.09931 14.7193 7.99989 15 7.99989C15.2807 7.99989 15.5146 8.09931 15.7018 8.29814C15.9006 8.48527 16 8.71919 16 8.99989C16 9.28059 15.9006 9.51451 15.7018 9.70165L11.807 13.5964C11.5965 13.8069 11.3275 13.9122 11 13.9122C10.6842 13.9122 10.4152 13.8069 10.193 13.5964L8.29825 11.7016C8.09942 11.5145 8 11.2806 8 10.9999C8 10.7192 8.09942 10.4853 8.29825 10.2981C8.49708 10.0993 8.73099 9.99989 9 9.99989C9.2924 9.99989 9.52632 10.0993 9.70175 10.2981L11.5965 12.1929C11.655 12.2514 11.5673 12.2923 11.3333 12.3157C11.1111 12.3391 10.883 12.3391 10.6491 12.3157C10.4269 12.2923 10.345 12.2514 10.4035 12.1929L14.2982 8.29814Z" fill="#333333"/>
</svg>
