<svg width="24" height="24" viewBox="0 0 24 24" fill="none" xmlns="http://www.w3.org/2000/svg">
<path d="M13.5088 12.2807C13.2982 12.1579 13.2982 11.8421 13.5088 11.7193L6.49123 15.7544C6.7193 15.6316 7 15.7895 7 16.0526V7.94737C7 8.21053 6.7193 8.36842 6.49123 8.24561L13.5088 12.2807ZM14.5263 10.5614L7.47368 6.49123C6.36842 5.87719 5 6.66667 5 7.94737V16.0526C5 17.3333 6.36842 18.1228 7.47368 17.5088L14.5263 13.4386C15.614 12.7895 15.614 11.2105 14.5263 10.5614ZM17 7V17C17 17.5439 17.4561 18 18 18C18.5439 18 19 17.5439 19 17V7C19 6.45614 18.5439 6 18 6C17.4561 6 17 6.45614 17 7Z" fill="#333333"/>
</svg>
