<svg width="24" height="24" viewBox="0 0 24 24" fill="none" xmlns="http://www.w3.org/2000/svg">
<path d="M17.5088 8.24561C17.2807 8.36842 17 8.21053 17 7.94737V16.0526C17 15.7895 17.2807 15.6316 17.5088 15.7544L10.4912 11.7193C10.7018 11.8421 10.7018 12.1579 10.4912 12.2807L17.5088 8.24561ZM16.5263 6.49123L9.47368 10.5614C8.38596 11.2105 8.38596 12.7895 9.47368 13.4386L16.5263 17.5088C17.6316 18.1228 19 17.3333 19 16.0526V7.94737C19 6.66667 17.6316 5.87719 16.5263 6.49123ZM5 7V17C5 17.5439 5.45614 18 6 18C6.54386 18 7 17.5439 7 17V7C7 6.45614 6.54386 6 6 6C5.45614 6 5 6.45614 5 7Z" fill="#333333"/>
</svg>
