<svg width="24" height="24" viewBox="0 0 24 24" fill="none" xmlns="http://www.w3.org/2000/svg">
<path d="M12 4C16.5439 4 20 7.45614 20 12C20 16.5439 16.5439 20 12 20C10.4035 20 9.03509 19.5789 7.75439 18.7895L4.38596 19.6316C4.36842 19.6316 4.36842 19.6316 4.36842 19.614L5.21053 16.2456C4.42105 14.9649 4 13.5965 4 12C4 7.45614 7.45614 4 12 4ZM12 2C6.47368 2 2 6.47368 2 12C2 13.614 2.40351 15.1754 3.07018 16.5263L2.4386 19.1579C2.08772 20.614 3.38596 21.9123 4.84211 21.5614L7.47368 20.9298C8.82456 21.5965 10.386 22 12 22C17.5263 22 22 17.5263 22 12C22 6.47368 17.5263 2 12 2ZM8 10.6667C7.26316 10.6667 6.66667 11.2632 6.66667 12C6.66667 12.7368 7.26316 13.3333 8 13.3333C8.73684 13.3333 9.33333 12.7368 9.33333 12C9.33333 11.2632 8.73684 10.6667 8 10.6667ZM12 10.6667C11.2632 10.6667 10.6667 11.2632 10.6667 12C10.6667 12.7368 11.2632 13.3333 12 13.3333C12.7368 13.3333 13.3333 12.7368 13.3333 12C13.3333 11.2632 12.7368 10.6667 12 10.6667ZM16 10.6667C15.2632 10.6667 14.6667 11.2632 14.6667 12C14.6667 12.7368 15.2632 13.3333 16 13.3333C16.7368 13.3333 17.3333 12.7368 17.3333 12C17.3333 11.2632 16.7368 10.6667 16 10.6667Z" fill="#333333"/>
</svg>
