<svg width="24" height="24" viewBox="0 0 24 24" fill="none" xmlns="http://www.w3.org/2000/svg">
<path d="M12 4C16.5439 4 20 7.45614 20 12C20 13.5965 19.5789 14.9649 18.7895 16.2456L19.6316 19.614C19.6316 19.6316 19.6316 19.6316 19.614 19.6316L16.2456 18.7895C14.9649 19.5789 13.5965 20 12 20C7.45614 20 4 16.5439 4 12C4 7.45614 7.45614 4 12 4ZM12 2C6.47368 2 2 6.47368 2 12C2 17.5263 6.47368 22 12 22C13.614 22 15.1754 21.5965 16.5263 20.9298L19.1579 21.5614C20.614 21.9123 21.9123 20.614 21.5614 19.1579L20.9298 16.5263C21.5965 15.1754 22 13.614 22 12C22 6.47368 17.5263 2 12 2ZM8 10.6667C7.26316 10.6667 6.66667 11.2632 6.66667 12C6.66667 12.7368 7.26316 13.3333 8 13.3333C8.73684 13.3333 9.33333 12.7368 9.33333 12C9.33333 11.2632 8.73684 10.6667 8 10.6667ZM12 10.6667C11.2632 10.6667 10.6667 11.2632 10.6667 12C10.6667 12.7368 11.2632 13.3333 12 13.3333C12.7368 13.3333 13.3333 12.7368 13.3333 12C13.3333 11.2632 12.7368 10.6667 12 10.6667ZM16 10.6667C15.2632 10.6667 14.6667 11.2632 14.6667 12C14.6667 12.7368 15.2632 13.3333 16 13.3333C16.7368 13.3333 17.3333 12.7368 17.3333 12C17.3333 11.2632 16.7368 10.6667 16 10.6667Z" fill="#333333"/>
</svg>
