<svg width="24" height="24" viewBox="0 0 24 24" fill="none" xmlns="http://www.w3.org/2000/svg">
<path d="M19 10C19 9.7193 19.0994 9.48538 19.2982 9.29825C19.4971 9.09942 19.731 9 20 9C20.2807 9 20.5146 9.09942 20.7018 9.29825C20.9006 9.48538 21 9.7193 21 10V11C21 11.7135 20.8187 12.3801 20.4561 13C20.1053 13.6082 19.6199 14.0936 19 14.4561C18.3918 14.8187 17.7251 15 17 15H7C6.28655 15 5.61988 14.8187 5 14.4561C4.39181 14.0936 3.90643 13.6082 3.54386 13C3.18129 12.3801 3 11.7135 3 11V10C3 9.7193 3.09942 9.48538 3.29825 9.29825C3.49708 9.09942 3.73099 9 4 9C4.2807 9 4.51462 9.09942 4.70175 9.29825C4.90058 9.48538 5 9.7193 5 10V11C5 11.3977 5.08187 11.7485 5.24561 12.0526C5.40936 12.3567 5.64328 12.5906 5.94737 12.7544C6.25146 12.9181 6.60234 13 7 13H17C17.4094 13 17.7661 12.9181 18.0702 12.7544C18.3743 12.5906 18.6023 12.3567 18.7544 12.0526C18.9181 11.7485 19 11.3977 19 11V10Z" fill="#333333"/>
</svg>
