<svg width="24" height="24" viewBox="0 0 24 24" fill="none" xmlns="http://www.w3.org/2000/svg">
<path d="M12.2107 4.33328H11.7897L13.7195 8.21047C14.0879 8.9824 14.7371 9.43855 15.5792 9.54381L19.8423 10.1578C19.8248 10.1578 19.702 9.77188 19.702 9.75433L16.5967 12.7894C15.9827 13.3859 15.7546 14.1052 15.8949 14.9649L16.6318 19.2456C16.6493 19.3157 16.8423 18.9298 16.9827 18.9999L13.1581 16.9824C12.3686 16.5614 11.6318 16.5614 10.8423 16.9824L7.01775 18.9999C7.1581 18.9298 7.35109 19.3157 7.36863 19.2456L8.10547 14.9649C8.24582 14.1052 8.01775 13.4035 7.40372 12.7894L4.29846 9.75433C4.29846 9.77188 4.17565 10.1578 4.1581 10.1578L8.42126 9.54381C9.26337 9.43855 9.91249 8.9824 10.2809 8.21047L12.2107 4.33328ZM10.4213 3.421L8.49144 7.33328C8.38618 7.54381 8.38617 7.54381 8.14056 7.5789L3.8774 8.19293C2.45635 8.38591 1.8774 10.1578 2.89495 11.1929L6.00021 14.228C6.17565 14.4035 6.17565 14.4035 6.14056 14.6491L5.40372 18.8947C5.1581 20.3333 6.70196 21.4561 7.96512 20.7543L11.7897 18.7368C12.0002 18.6315 12.0002 18.6315 12.2107 18.7368L16.0353 20.7543C17.2985 21.4561 18.8423 20.3333 18.5967 18.8947L17.8599 14.6491C17.8248 14.3859 17.8248 14.3859 18.0002 14.228L21.1055 11.1929C22.123 10.1578 21.5441 8.38591 20.123 8.19293L15.8599 7.5789C15.6142 7.54381 15.6142 7.54381 15.509 7.33328L13.5792 3.421C12.9125 2.15784 11.0879 2.15784 10.4213 3.421Z" fill="#333333"/>
</svg>
