<svg width="24" height="24" viewBox="0 0 24 24" fill="none" xmlns="http://www.w3.org/2000/svg">
<path d="M12.2105 4.33334H11.7894L13.7193 8.21054C14.0877 8.98247 14.7368 9.43861 15.5789 9.54387L19.8421 10.1579C19.8245 10.1579 19.7017 9.77194 19.7017 9.7544L16.5965 12.7895C15.9824 13.386 15.7544 14.1053 15.8947 14.9649L16.6315 19.2456C16.6491 19.3158 16.8421 18.9298 16.9824 19L13.1579 16.9825C12.3684 16.5614 11.6315 16.5614 10.8421 16.9825L7.01751 19C7.15786 18.9298 7.35084 19.3158 7.36839 19.2456L8.10523 14.9649C8.24558 14.1053 8.01751 13.4035 7.40347 12.7895L4.29821 9.7544C4.29821 9.77194 4.1754 10.1579 4.15786 10.1579L8.42102 9.54387C9.26312 9.43861 9.91225 8.98247 10.2807 8.21054L12.2105 4.33334ZM10.421 3.42106L8.49119 7.33334C8.38593 7.54387 8.38593 7.54387 8.14032 7.57896L3.87716 8.19299C2.45611 8.38597 1.87716 10.1579 2.8947 11.193L5.99997 14.2281C6.1754 14.4035 6.1754 14.4035 6.14032 14.6491L5.40347 18.8947C5.15786 20.3333 6.70172 21.4562 7.96488 20.7544L11.7894 18.7369C12 18.6316 12 18.6316 12.2105 18.7369L16.0351 20.7544C17.2982 21.4562 18.8421 20.3333 18.5965 18.8947L17.8596 14.6491C17.8245 14.386 17.8245 14.386 18 14.2281L21.1052 11.193C22.1228 10.1579 21.5438 8.38597 20.1228 8.19299L15.8596 7.57896C15.614 7.54387 15.614 7.54387 15.5087 7.33334L13.5789 3.42106C12.9122 2.1579 11.0877 2.1579 10.421 3.42106Z" fill="#333333"/>
</svg>
