<svg width="24" height="24" viewBox="0 0 24 24" fill="none" xmlns="http://www.w3.org/2000/svg">
<path d="M12.2105 4.33328H11.7894L13.7193 8.21047C14.0877 8.9824 14.7368 9.43855 15.5789 9.54381L19.8421 10.1578C19.8245 10.1578 19.7017 9.77188 19.7017 9.75433L16.5965 12.7894C15.9824 13.3859 15.7544 14.1052 15.8947 14.9649L16.6315 19.2456C16.6491 19.3157 16.8421 18.9298 16.9824 18.9999L13.1579 16.9824C12.3684 16.5614 11.6315 16.5614 10.8421 16.9824L7.01751 18.9999C7.15786 18.9298 7.35084 19.3157 7.36839 19.2456L8.10523 14.9649C8.24558 14.1052 8.01751 13.4035 7.40347 12.7894L4.29821 9.75433C4.29821 9.77188 4.1754 10.1578 4.15786 10.1578L8.42102 9.54381C9.26312 9.43855 9.91225 8.9824 10.2807 8.21047L12.2105 4.33328ZM10.421 3.421L8.49119 7.33328C8.38593 7.54381 8.38593 7.54381 8.14032 7.5789L3.87716 8.19293C2.45611 8.38591 1.87716 10.1578 2.8947 11.1929L5.99997 14.228C6.1754 14.4035 6.1754 14.4035 6.14032 14.6491L5.40347 18.8947C5.15786 20.3333 6.70172 21.4561 7.96488 20.7543L11.7894 18.7368C12 18.6315 12 18.6315 12.2105 18.7368L16.0351 20.7543C17.2982 21.4561 18.8421 20.3333 18.5965 18.8947L17.8596 14.6491C17.8245 14.3859 17.8245 14.3859 18 14.228L21.1052 11.1929C22.1228 10.1578 21.5438 8.38591 20.1228 8.19293L15.8596 7.5789C15.614 7.54381 15.614 7.54381 15.5087 7.33328L13.5789 3.421C12.9122 2.15784 11.0877 2.15784 10.421 3.421ZM3.59646 10.4736L6.70172 13.5087C7.08769 13.8947 7.21049 14.2631 7.12277 14.807L6.38593 19.0701C6.28067 19.6842 6.94733 20.1578 7.49119 19.8771L11.3158 17.8596C11.5614 17.7192 11.7894 17.6666 12 17.6666V3.47363C11.7193 3.47363 11.4561 3.59644 11.3158 3.87714L9.38593 7.77188C9.15786 8.24556 8.80698 8.49118 8.28067 8.56135L4.01751 9.17539C3.42102 9.26311 3.15786 10.035 3.59646 10.4736Z" fill="#333333"/>
</svg>
