<svg width="24" height="24" viewBox="0 0 24 24" fill="none" xmlns="http://www.w3.org/2000/svg">
<path d="M12 20C7.45614 20 4 16.5439 4 12C4 7.45614 7.45614 4 12 4C16.5439 4 20 7.45614 20 12C20 16.5439 16.5439 20 12 20ZM12 22C17.5263 22 22 17.5263 22 12C22 6.47368 17.5263 2 12 2C6.47368 2 2 6.47368 2 12C2 17.5263 6.47368 22 12 22ZM7.77193 10V14C7.77193 15.2281 8.77193 16.2281 10 16.2281H14C15.2281 16.2281 16.2281 15.2281 16.2281 14V10C16.2281 8.77193 15.2281 7.77193 14 7.77193H10C8.77193 7.77193 7.77193 8.77193 7.77193 10Z" fill="#333333"/>
</svg>
