<svg width="24" height="24" viewBox="0 0 24 24" fill="none" xmlns="http://www.w3.org/2000/svg">
<path d="M16.7018 20.7018C16.5263 20.9006 16.2924 21 16 21C15.731 21 15.4971 20.9006 15.2982 20.7018C15.0994 20.5029 15 20.269 15 20C15 19.7076 15.0994 19.4737 15.2982 19.2982L19.2982 15.2982C19.4854 15.0994 19.7193 15 20 15C20.2807 15 20.5146 15.0994 20.7018 15.2982C20.9006 15.4854 21 15.7193 21 16C21 16.2807 20.9006 16.5146 20.7018 16.7018L16.7018 20.7018ZM11.2982 16.7018C11.0994 16.5146 11 16.2807 11 16C11 15.7193 11.0994 15.4854 11.2982 15.2982C11.4971 15.0994 11.731 15 12 15C12.2924 15 12.5263 15.0994 12.7018 15.2982L16.7018 19.2982C16.9006 19.4737 17 19.7076 17 20C17 20.269 16.9006 20.5029 16.7018 20.7018C16.5146 20.9006 16.2807 21 16 21C15.7193 21 15.4854 20.9006 15.2982 20.7018L11.2982 16.7018ZM15 10C15 9.7193 15.0994 9.48538 15.2982 9.29825C15.4971 9.09942 15.731 9 16 9C16.2807 9 16.5146 9.09942 16.7018 9.29825C16.9006 9.48538 17 9.7193 17 10V20C17 20.269 16.9006 20.5029 16.7018 20.7018C16.5146 20.9006 16.2807 21 16 21C15.731 21 15.4971 20.9006 15.2982 20.7018C15.0994 20.5029 15 20.269 15 20V10ZM7.29825 3.29825C7.48538 3.09942 7.7193 3 8 3C8.2807 3 8.51462 3.09942 8.70175 3.29825C8.90058 3.48538 9 3.7193 9 4C9 4.2807 8.90058 4.51462 8.70175 4.70175L4.70175 8.70175C4.52632 8.90058 4.2924 9 4 9C3.73099 9 3.49708 8.90058 3.29825 8.70175C3.09942 8.50292 3 8.26901 3 8C3 7.7076 3.09942 7.47368 3.29825 7.29824L7.29825 3.29825ZM12.7018 7.29824C12.9006 7.47368 13 7.7076 13 8C13 8.26901 12.9006 8.50292 12.7018 8.70175C12.5146 8.90058 12.2807 9 12 9C11.7193 9 11.4854 8.90058 11.2982 8.70175L7.29825 4.70175C7.09941 4.51462 7 4.2807 7 4C7 3.7193 7.09941 3.48538 7.29825 3.29825C7.49708 3.09942 7.73099 3 8 3C8.2924 3 8.52632 3.09942 8.70175 3.29825L12.7018 7.29824ZM9 14C9 14.269 8.90058 14.5029 8.70175 14.7018C8.51462 14.9006 8.2807 15 8 15C7.73099 15 7.49708 14.9006 7.29825 14.7018C7.09941 14.5029 7 14.269 7 14V4C7 3.7193 7.09941 3.48538 7.29825 3.29825C7.49708 3.09942 7.73099 3 8 3C8.2807 3 8.51462 3.09942 8.70175 3.29825C8.90058 3.48538 9 3.7193 9 4V14Z" fill="#333333"/>
</svg>
