<svg width="24" height="24" viewBox="0 0 24 24" fill="none" xmlns="http://www.w3.org/2000/svg">
<path d="M3.29825 16.7018C3.09942 16.5146 3 16.2807 3 16C3 15.7193 3.09942 15.4854 3.29825 15.2982C3.49708 15.0994 3.73099 15 4 15C4.2924 15 4.52632 15.0994 4.70175 15.2982L8.70175 19.2982C8.90058 19.4737 9 19.7076 9 20C9 20.269 8.90058 20.5029 8.70175 20.7018C8.51462 20.9006 8.2807 21 8 21C7.7193 21 7.48538 20.9006 7.29825 20.7018L3.29825 16.7018ZM7.29825 11.2982C7.48538 11.0994 7.7193 11 8 11C8.2807 11 8.51462 11.0994 8.70175 11.2982C8.90058 11.4854 9 11.7193 9 12C9 12.2807 8.90058 12.5146 8.70175 12.7018L4.70175 16.7018C4.52632 16.9006 4.2924 17 4 17C3.73099 17 3.49708 16.9006 3.29825 16.7018C3.09942 16.5029 3 16.269 3 16C3 15.7076 3.09942 15.4737 3.29825 15.2982L7.29825 11.2982ZM14 15C14.2807 15 14.5146 15.0994 14.7018 15.2982C14.9006 15.4854 15 15.7193 15 16C15 16.269 14.9006 16.5029 14.7018 16.7018C14.5146 16.9006 14.2807 17 14 17H4C3.73099 17 3.49708 16.9006 3.29825 16.7018C3.09942 16.5029 3 16.269 3 16C3 15.7193 3.09942 15.4854 3.29825 15.2982C3.49708 15.0994 3.73099 15 4 15H14ZM20.7018 7.29824C20.9006 7.47368 21 7.7076 21 8C21 8.26901 20.9006 8.50292 20.7018 8.70175C20.5146 8.90058 20.2807 9 20 9C19.7193 9 19.4854 8.90058 19.2982 8.70175L15.2982 4.70175C15.0994 4.51462 15 4.2807 15 4C15 3.7193 15.0994 3.48538 15.2982 3.29825C15.4971 3.09942 15.731 3 16 3C16.2924 3 16.5263 3.09942 16.7018 3.29825L20.7018 7.29824ZM16.7018 12.7018C16.5263 12.9006 16.2924 13 16 13C15.731 13 15.4971 12.9006 15.2982 12.7018C15.0994 12.5029 15 12.269 15 12C15 11.7076 15.0994 11.4737 15.2982 11.2982L19.2982 7.29824C19.4854 7.09942 19.7193 7 20 7C20.2807 7 20.5146 7.09942 20.7018 7.29824C20.9006 7.48538 21 7.7193 21 8C21 8.2807 20.9006 8.51462 20.7018 8.70175L16.7018 12.7018ZM10 9C9.73099 9 9.49708 8.90058 9.29825 8.70175C9.09942 8.50292 9 8.26901 9 8C9 7.7193 9.09942 7.48538 9.29825 7.29824C9.49708 7.09942 9.73099 7 10 7H20C20.2807 7 20.5146 7.09942 20.7018 7.29824C20.9006 7.48538 21 7.7193 21 8C21 8.26901 20.9006 8.50292 20.7018 8.70175C20.5146 8.90058 20.2807 9 20 9H10Z" fill="#333333"/>
</svg>
