<svg width="24" height="24" viewBox="0 0 24 24" fill="none" xmlns="http://www.w3.org/2000/svg">
<path d="M3.80703 12.5966C3.76025 12.6433 3.72516 12.5556 3.70177 12.3334C3.69007 12.1112 3.69592 11.8889 3.71931 11.6667C3.74271 11.4445 3.77194 11.3568 3.80703 11.4036L12.3509 19.9474C12.5029 20.0878 12.462 20.2515 12.2281 20.4387C11.9942 20.6141 11.731 20.7194 11.4386 20.7544C11.1462 20.7895 11 20.7077 11 20.5088V16.1404C11 15.8246 11.1111 15.5556 11.3333 15.3334C11.5673 15.1112 11.8363 15.0001 12.1404 15.0001H19.8597C19.9415 15.0001 19.9064 15.0878 19.7544 15.2632C19.6141 15.4387 19.4503 15.6024 19.2632 15.7544C19.0877 15.9065 19 15.9416 19 15.8597V8.14041C19 8.05854 19.0877 8.09363 19.2632 8.24567C19.4503 8.38602 19.6141 8.54977 19.7544 8.7369C19.9064 8.91234 19.9415 9.00006 19.8597 9.00006H12.1404C11.8363 9.00006 11.5673 8.88895 11.3333 8.66673C11.1111 8.43281 11 8.1638 11 7.85971V3.49129C11 3.29246 11.1462 3.21059 11.4386 3.24567C11.731 3.28076 11.9942 3.39187 12.2281 3.57901C12.462 3.75445 12.5029 3.91234 12.3509 4.05269L3.80703 12.5966ZM10.9474 2.64918C11.193 2.40357 11.4795 2.28076 11.807 2.28076C12.1345 2.28076 12.4152 2.39772 12.6491 2.63164C12.8831 2.85386 13 3.14041 13 3.49129V7.85971C13 7.94158 12.9123 7.90649 12.7369 7.75445C12.5614 7.6024 12.3977 7.43866 12.2456 7.26322C12.0936 7.08778 12.0585 7.00006 12.1404 7.00006H19.8597C20.1755 7.00006 20.4445 7.11117 20.6667 7.33339C20.8889 7.55561 21 7.82462 21 8.14041V15.8597C21 16.1638 20.8889 16.4328 20.6667 16.6667C20.4445 16.8889 20.1755 17.0001 19.8597 17.0001H12.1404C12.0585 17.0001 12.0936 16.9123 12.2456 16.7369C12.3977 16.5498 12.5614 16.386 12.7369 16.2457C12.9123 16.0936 13 16.0585 13 16.1404V20.5088C13 20.8597 12.8831 21.1463 12.6491 21.3685C12.4152 21.5907 12.1345 21.7077 11.807 21.7194C11.4795 21.7194 11.193 21.5966 10.9474 21.3509L2.40352 12.8071C2.1813 12.5849 2.07019 12.3158 2.07019 12.0001C2.07019 11.6843 2.1813 11.4153 2.40352 11.193L10.9474 2.64918Z" fill="#333333"/>
</svg>
