<svg width="24" height="24" viewBox="0 0 24 24" fill="none" xmlns="http://www.w3.org/2000/svg">
<path d="M13.7368 16.1403C13.5146 15.9181 13.4035 15.6491 13.4035 15.3333C13.4035 15.0175 13.5146 14.7485 13.7368 14.5263L19.193 9.07017C19.2515 9.01169 19.2924 9.09941 19.3158 9.33333C19.3392 9.55555 19.3392 9.78362 19.3158 10.0175C19.2924 10.2398 19.2515 10.3216 19.193 10.2632L13.7368 4.80701C13.6901 4.76023 13.7778 4.73099 14 4.71929C14.2222 4.6959 14.4444 4.6959 14.6667 4.71929C14.8889 4.74269 14.9766 4.77193 14.9298 4.80701L9.47368 10.2632C9.26316 10.4737 8.99415 10.5789 8.66667 10.5789C8.35088 10.5789 8.08187 10.4737 7.85965 10.2632L4.64912 7.05263C4.50877 6.91228 4.54971 6.75438 4.77193 6.57894C5.00585 6.39181 5.26901 6.2807 5.5614 6.24561C5.8538 6.21052 6 6.29239 6 6.49122V18.8596C6 18.9415 5.91228 18.9064 5.73684 18.7544C5.5614 18.6023 5.39766 18.4386 5.24561 18.2632C5.09357 18.0877 5.05848 18 5.14035 18H17.5088C17.7076 18 17.7895 18.1462 17.7544 18.4386C17.7193 18.731 17.6082 18.9941 17.4211 19.2281C17.2456 19.4503 17.0877 19.4912 16.9474 19.3509L13.7368 16.1403ZM18.3509 17.9474C18.5965 18.193 18.7193 18.4795 18.7193 18.807C18.7193 19.1345 18.6023 19.4152 18.3684 19.6491C18.1462 19.883 17.8596 20 17.5088 20H5.14035C4.83626 20 4.56725 19.8889 4.33333 19.6667C4.11111 19.4327 4 19.1637 4 18.8596V6.49122C4 6.14035 4.11696 5.8538 4.35088 5.63158C4.58479 5.39766 4.8655 5.2807 5.19298 5.2807C5.52047 5.2807 5.80702 5.4035 6.05263 5.64912L9.26316 8.85965C9.32164 8.91813 9.23392 8.95906 9 8.98245C8.77778 9.00584 8.54971 9.00584 8.31579 8.98245C8.09357 8.95906 8.0117 8.91813 8.07018 8.85965L13.5263 3.4035C13.7485 3.18128 14.0175 3.07017 14.3333 3.07017C14.6491 3.05848 14.9181 3.16959 15.1404 3.4035L20.5965 8.85965C20.8187 9.07017 20.9298 9.33918 20.9298 9.66666C20.9298 9.98245 20.8187 10.2515 20.5965 10.4737L15.1404 15.9298C15.1053 15.9766 15.076 15.8889 15.0526 15.6667C15.0292 15.4327 15.0234 15.2105 15.0351 15C15.0585 14.7778 15.0936 14.6901 15.1404 14.7368L18.3509 17.9474Z" fill="#333333"/>
</svg>
