<svg width="24" height="24" viewBox="0 0 24 24" fill="none" xmlns="http://www.w3.org/2000/svg">
<path d="M13 7.85971C13 8.1638 12.8889 8.43281 12.6667 8.66673C12.4444 8.88895 12.1754 9.00006 11.8596 9.00006H4.14035C4.05848 9.00006 4.09357 8.91234 4.24561 8.7369C4.39766 8.54977 4.5614 8.38602 4.73684 8.24567C4.91228 8.09363 5 8.05854 5 8.14041V15.8597C5 15.9416 4.91228 15.9065 4.73684 15.7544C4.5614 15.6024 4.39766 15.4387 4.24561 15.2632C4.09357 15.0878 4.05848 15.0001 4.14035 15.0001H11.8596C12.1754 15.0001 12.4444 15.1112 12.6667 15.3334C12.8889 15.5556 13 15.8246 13 16.1404V20.5088C13 20.7077 12.8538 20.7895 12.5614 20.7544C12.269 20.7194 12.0058 20.6141 11.7719 20.4387C11.5497 20.2515 11.5088 20.0878 11.6491 19.9474L20.193 11.4036C20.2515 11.3451 20.2924 11.4328 20.3158 11.6667C20.3392 11.8889 20.3392 12.117 20.3158 12.3509C20.2924 12.5732 20.2515 12.655 20.193 12.5966L11.6491 4.05269C11.5088 3.91234 11.5497 3.75445 11.7719 3.57901C12.0058 3.39187 12.269 3.28076 12.5614 3.24567C12.8538 3.21059 13 3.29246 13 3.49129V7.85971ZM11 3.49129C11 3.14041 11.117 2.85386 11.3509 2.63164C11.5848 2.39772 11.8655 2.28076 12.193 2.28076C12.5205 2.28076 12.807 2.40357 13.0526 2.64918L21.5965 11.193C21.8187 11.4036 21.9298 11.6726 21.9298 12.0001C21.9298 12.3158 21.8187 12.5849 21.5965 12.8071L13.0526 21.3509C12.807 21.5966 12.5205 21.7194 12.193 21.7194C11.8655 21.7077 11.5848 21.5907 11.3509 21.3685C11.117 21.1463 11 20.8597 11 20.5088V16.1404C11 16.0585 11.0877 16.0936 11.2632 16.2457C11.4503 16.386 11.614 16.5498 11.7544 16.7369C11.9064 16.9123 11.9415 17.0001 11.8596 17.0001H4.14035C3.83626 17.0001 3.56725 16.8889 3.33333 16.6667C3.11111 16.4328 3 16.1638 3 15.8597V8.14041C3 7.82462 3.11111 7.55561 3.33333 7.33339C3.56725 7.11117 3.83626 7.00006 4.14035 7.00006H11.8596C11.9415 7.00006 11.9064 7.08778 11.7544 7.26322C11.614 7.43866 11.4503 7.6024 11.2632 7.75445C11.0877 7.90649 11 7.94158 11 7.85971V3.49129Z" fill="#333333"/>
</svg>
