<svg width="24" height="24" viewBox="0 0 24 24" fill="none" xmlns="http://www.w3.org/2000/svg">
<path d="M5.14035 6C5.05848 6 5.09357 5.91228 5.24561 5.73684C5.39766 5.54971 5.5614 5.38596 5.73684 5.24561C5.91228 5.09357 6 5.05848 6 5.14035V17.5088C6 17.7076 5.8538 17.7895 5.5614 17.7544C5.26901 17.7193 5.00585 17.614 4.77193 17.4386C4.54971 17.2515 4.50877 17.0877 4.64912 16.9474L7.85965 13.7368C8.08187 13.5029 8.35088 13.386 8.66667 13.386C8.98246 13.386 9.25146 13.5029 9.47368 13.7368L14.9298 19.193C14.9766 19.2398 14.8889 19.2749 14.6667 19.2982C14.4561 19.3099 14.2339 19.3041 14 19.2807C13.7778 19.2573 13.6901 19.2281 13.7368 19.193L19.193 13.7368C19.2515 13.6784 19.2924 13.7661 19.3158 14C19.3392 14.2222 19.3392 14.4503 19.3158 14.6842C19.2924 14.9064 19.2515 14.9883 19.193 14.9298L13.7368 9.47368C13.5263 9.25146 13.4211 8.98245 13.4211 8.66667C13.4211 8.33918 13.5263 8.07018 13.7368 7.85965L16.9474 4.64912C17.0877 4.49708 17.2456 4.53801 17.4211 4.77193C17.6082 5.00585 17.7193 5.26901 17.7544 5.5614C17.7895 5.8538 17.7076 6 17.5088 6H5.14035ZM17.5088 4C17.8596 4 18.1462 4.11696 18.3684 4.35088C18.6023 4.58479 18.7193 4.8655 18.7193 5.19298C18.7193 5.52047 18.5965 5.80702 18.3509 6.05263L15.1404 9.26316C15.0819 9.32164 15.0409 9.23977 15.0175 9.01754C14.9942 8.78363 14.9942 8.55555 15.0175 8.33333C15.0409 8.09941 15.0819 8.0117 15.1404 8.07017L20.5965 13.5263C20.8187 13.7368 20.9298 14.0058 20.9298 14.3333C20.9298 14.6491 20.8187 14.9181 20.5965 15.1404L15.1404 20.5965C14.9181 20.8187 14.6491 20.9298 14.3333 20.9298C14.0175 20.9298 13.7485 20.8187 13.5263 20.5965L8.07018 15.1404C8.03509 15.1053 8.12281 15.0819 8.33333 15.0702C8.55556 15.0468 8.77778 15.0468 9 15.0702C9.22222 15.0819 9.30994 15.1053 9.26316 15.1404L6.05263 18.3509C5.80702 18.5965 5.52047 18.7193 5.19298 18.7193C4.8655 18.7076 4.58479 18.5906 4.35088 18.3684C4.11696 18.1462 4 17.8596 4 17.5088V5.14035C4 4.82456 4.11111 4.55555 4.33333 4.33333C4.56725 4.11111 4.83626 4 5.14035 4H17.5088Z" fill="#333333"/>
</svg>
