<svg width="24" height="24" viewBox="0 0 24 24" fill="none" xmlns="http://www.w3.org/2000/svg">
<path d="M10.2632 7.85965C10.4854 8.07018 10.5965 8.33918 10.5965 8.66667C10.5965 8.98245 10.4854 9.25146 10.2632 9.47368L4.80703 14.9298C4.77194 14.9766 4.74271 14.8889 4.71931 14.6667C4.69592 14.4327 4.69007 14.2105 4.70177 14C4.72516 13.7778 4.76025 13.6901 4.80703 13.7368L10.2632 19.193C10.31 19.2398 10.2222 19.2749 10 19.2982C9.78949 19.3099 9.56727 19.3041 9.33335 19.2807C9.11113 19.2573 9.02341 19.2281 9.07019 19.193L14.5263 13.7368C14.7486 13.5146 15.0176 13.4035 15.3333 13.4035C15.6608 13.4035 15.9298 13.5146 16.1404 13.7368L19.3509 16.9474C19.5029 17.0877 19.462 17.2515 19.2281 17.4386C18.9942 17.614 18.731 17.7193 18.4386 17.7544C18.1462 17.7895 18 17.7076 18 17.5088V5.14035C18 5.05848 18.0877 5.09357 18.2632 5.24561C18.4503 5.38596 18.6141 5.54971 18.7544 5.73684C18.9064 5.91228 18.9415 6 18.8597 6H6.49124C6.29241 6 6.21054 5.8538 6.24563 5.5614C6.28072 5.26901 6.38598 5.00585 6.56142 4.77193C6.74855 4.53801 6.9123 4.49708 7.05265 4.64912L10.2632 7.85965ZM5.64914 6.05263C5.40352 5.80702 5.28072 5.52047 5.28072 5.19298C5.29241 4.8655 5.40937 4.58479 5.63159 4.35088C5.85382 4.11696 6.14037 4 6.49124 4H18.8597C19.1755 4 19.4445 4.11111 19.6667 4.33333C19.8889 4.55555 20 4.82456 20 5.14035V17.5088C20 17.8596 19.8831 18.1462 19.6491 18.3684C19.4152 18.5906 19.1345 18.7076 18.807 18.7193C18.4795 18.7193 18.193 18.5965 17.9474 18.3509L14.7369 15.1404C14.6784 15.0819 14.7602 15.0409 14.9825 15.0175C15.2164 14.9942 15.4445 14.9942 15.6667 15.0175C15.9006 15.0409 15.9883 15.0819 15.9298 15.1404L10.4737 20.5965C10.2515 20.8187 9.98247 20.9298 9.66668 20.9298C9.35089 20.9298 9.08189 20.8187 8.85966 20.5965L3.40352 15.1404C3.1813 14.9181 3.07019 14.6491 3.07019 14.3333C3.07019 14.0175 3.1813 13.7485 3.40352 13.5263L8.85966 8.07017C8.91814 8.0117 8.95908 8.09941 8.98247 8.33333C9.00586 8.55555 9.00586 8.78363 8.98247 9.01754C8.95908 9.23977 8.91814 9.32164 8.85966 9.26316L5.64914 6.05263Z" fill="#333333"/>
</svg>
