<svg width="24" height="24" viewBox="0 0 24 24" fill="none" xmlns="http://www.w3.org/2000/svg">
<path d="M12.5966 20.6666C12.6433 20.7017 12.5556 20.7309 12.3334 20.7543C12.1112 20.7777 11.8889 20.7836 11.6667 20.7719C11.4445 20.7485 11.3568 20.7134 11.4036 20.6666L19.9474 12.1228C20.0878 11.9707 20.2457 12.0116 20.4211 12.2456C20.6082 12.4795 20.7194 12.7426 20.7544 13.035C20.7895 13.3274 20.7077 13.4736 20.5088 13.4736H16.1404C15.8363 13.4736 15.5673 13.3625 15.3334 13.1403C15.1112 12.9064 15.0001 12.6374 15.0001 12.3333V4.61398C15.0001 4.53211 15.0878 4.5672 15.2632 4.71925C15.4504 4.8596 15.6141 5.02334 15.7544 5.21048C15.9065 5.38591 15.9416 5.47363 15.8597 5.47363H8.14041C8.05854 5.47363 8.09363 5.38591 8.24567 5.21048C8.39772 5.02334 8.56146 4.8596 8.7369 4.71925C8.91234 4.5672 9.00006 4.53211 9.00006 4.61398V12.3333C9.00006 12.6374 8.88895 12.9064 8.66673 13.1403C8.4445 13.3625 8.1755 13.4736 7.85971 13.4736H3.49129C3.29246 13.4736 3.21059 13.3274 3.24567 13.035C3.28076 12.7426 3.38602 12.4795 3.56146 12.2456C3.7486 12.0116 3.91234 11.9707 4.05269 12.1228L12.5966 20.6666ZM2.64918 13.5263C2.40357 13.2807 2.28076 12.9941 2.28076 12.6666C2.29246 12.3391 2.40942 12.0584 2.63164 11.8245C2.85386 11.5906 3.14041 11.4736 3.49129 11.4736H7.85971C7.94158 11.4736 7.90649 11.5614 7.75445 11.7368C7.6141 11.9122 7.45035 12.076 7.26322 12.228C7.08778 12.3801 7.00006 12.4152 7.00006 12.3333V4.61398C7.00006 4.29819 7.11117 4.02919 7.33339 3.80697C7.56731 3.58474 7.83632 3.47363 8.14041 3.47363H15.8597C16.1755 3.47363 16.4445 3.58474 16.6667 3.80697C16.8889 4.02919 17.0001 4.29819 17.0001 4.61398V12.3333C17.0001 12.4152 16.9123 12.3801 16.7369 12.228C16.5615 12.076 16.3977 11.9122 16.2457 11.7368C16.0936 11.5614 16.0585 11.4736 16.1404 11.4736H20.5088C20.8597 11.4736 21.1463 11.5906 21.3685 11.8245C21.6024 12.0584 21.7194 12.3391 21.7194 12.6666C21.7194 12.9941 21.5966 13.2807 21.3509 13.5263L12.8071 22.0701C12.5849 22.2923 12.3158 22.4035 12.0001 22.4035C11.6843 22.4035 11.4153 22.2923 11.193 22.0701L2.64918 13.5263Z" fill="#333333"/>
</svg>
