<svg width="24" height="24" viewBox="0 0 24 24" fill="none" xmlns="http://www.w3.org/2000/svg">
<path d="M18.8597 18C18.9415 18 18.9064 18.0877 18.7544 18.2632C18.6141 18.4386 18.4503 18.6023 18.2632 18.7544C18.0877 18.9064 18 18.9415 18 18.8596V6.49122C18 6.29239 18.1462 6.21052 18.4386 6.24561C18.731 6.2807 18.9942 6.39181 19.2281 6.57894C19.462 6.75438 19.5029 6.91228 19.3509 7.05263L16.1404 10.2632C15.9298 10.4737 15.6608 10.5789 15.3333 10.5789C15.0176 10.5789 14.7486 10.4737 14.5263 10.2632L9.07019 4.80701C9.02341 4.76023 9.11113 4.73099 9.33335 4.71929C9.55557 4.6959 9.77779 4.6959 10 4.71929C10.2222 4.74269 10.31 4.77193 10.2632 4.80701L4.80703 10.2632C4.77194 10.3099 4.74271 10.2222 4.71931 10C4.69592 9.76608 4.69007 9.54386 4.70177 9.33333C4.72516 9.11111 4.76025 9.02339 4.80703 9.07017L10.2632 14.5263C10.4971 14.7485 10.6082 15.0175 10.5965 15.3333C10.5965 15.6491 10.4854 15.9181 10.2632 16.1403L7.05265 19.3509C6.9123 19.4912 6.74855 19.4503 6.56142 19.2281C6.38598 18.9941 6.28072 18.731 6.24563 18.4386C6.21054 18.1462 6.29241 18 6.49124 18H18.8597ZM6.49124 20C6.14037 20 5.85382 19.883 5.63159 19.6491C5.40937 19.4152 5.29241 19.1345 5.28072 18.807C5.28072 18.4795 5.40352 18.193 5.64914 17.9474L8.85966 14.7368C8.89475 14.6901 8.92399 14.7778 8.94738 15C8.97078 15.2222 8.97078 15.4444 8.94738 15.6667C8.93569 15.8889 8.90645 15.9766 8.85966 15.9298L3.40352 10.4737C3.1813 10.2515 3.07019 9.98245 3.07019 9.66666C3.07019 9.35087 3.1813 9.08187 3.40352 8.85965L8.85966 3.4035C9.08189 3.18128 9.35089 3.07017 9.66668 3.07017C9.98247 3.05848 10.2515 3.16959 10.4737 3.4035L15.9298 8.85965C15.9883 8.91813 15.9006 8.95906 15.6667 8.98245C15.4445 9.00584 15.2164 9.00584 14.9825 8.98245C14.7602 8.95906 14.6784 8.91813 14.7369 8.85965L17.9474 5.64912C18.193 5.4035 18.4795 5.2807 18.807 5.2807C19.1345 5.2807 19.4152 5.39766 19.6491 5.63158C19.8831 5.8538 20 6.14035 20 6.49122V18.8596C20 19.1637 19.8889 19.4327 19.6667 19.6667C19.4445 19.8889 19.1755 20 18.8597 20H6.49124Z" fill="#333333"/>
</svg>
