<svg width="24" height="24" viewBox="0 0 24 24" fill="none" xmlns="http://www.w3.org/2000/svg">
<path d="M12 10H17.7018C19.0702 10 19.6667 10.7018 19.4211 12.0702L18.5088 17.1228C18.2982 18.2632 17.4211 19 16.2456 19H8V9.19298L9.92982 4.36842C9.98246 4.26316 10 4.12281 10 4C10 3.45614 9.54386 3 9 3C8.57895 3 8.21053 3.26316 8.07018 3.63158L6 8.80702V21H16.2456C18.2807 21 20.1053 19.4561 20.4737 17.4737L21.386 12.4211C21.8246 9.98246 20.1579 8 17.7018 8H12C11.4561 8 11 8.45614 11 9C11 9.54386 11.4561 10 12 10ZM6 8C3.75439 8 2 9.75439 2 12V17C2 19.2456 3.75439 21 6 21H8V8H6ZM6 10V19C4.73684 19 4 18.2632 4 17V12C4 10.7368 4.73684 10 6 10ZM9 5C10.2632 5 11 5.73684 11 7V9C11 9.54386 11.4561 10 12 10C12.5439 10 13 9.54386 13 9V7C13 4.75439 11.2456 3 9 3C8.45614 3 8 3.45614 8 4C8 4.54386 8.45614 5 9 5Z" fill="#333333"/>
</svg>
