<svg width="12" height="24" viewBox="0 0 12 24" fill="none" xmlns="http://www.w3.org/2000/svg">
<path d="M6.70175 17.2982C6.90058 17.4737 7 17.7076 7 18C7 18.269 6.90058 18.5029 6.70175 18.7018C6.51462 18.9006 6.2807 19 6 19C5.7193 19 5.48538 18.9006 5.29825 18.7018L2.29825 15.7018C2.09942 15.5146 2 15.2807 2 15C2 14.7193 2.09942 14.4854 2.29825 14.2982C2.49708 14.0994 2.73099 14 3 14C3.2924 14 3.52632 14.0994 3.70175 14.2982L6.70175 17.2982ZM5.29825 6.70176C5.09942 6.51462 5 6.2807 5 6C5 5.7193 5.09942 5.48538 5.29825 5.29825C5.49708 5.09942 5.73099 5 6 5C6.2924 5 6.52632 5.09942 6.70175 5.29825L9.70175 8.29825C9.90058 8.47368 10 8.7076 10 9C10 9.26901 9.90058 9.50292 9.70175 9.70176C9.51462 9.90059 9.2807 10 9 10C8.7193 10 8.48538 9.90059 8.29825 9.70176L5.29825 6.70176ZM8.29825 14.2982C8.48538 14.0994 8.7193 14 9 14C9.2807 14 9.51462 14.0994 9.70175 14.2982C9.90058 14.4854 10 14.7193 10 15C10 15.2807 9.90058 15.5146 9.70175 15.7018L6.70175 18.7018C6.52632 18.9006 6.2924 19 6 19C5.73099 19 5.49708 18.9006 5.29825 18.7018C5.09942 18.5029 5 18.269 5 18C5 17.7076 5.09942 17.4737 5.29825 17.2982L8.29825 14.2982ZM3.70175 9.70176C3.52632 9.90059 3.2924 10 3 10C2.73099 10 2.49708 9.90059 2.29825 9.70176C2.09942 9.50292 2 9.26901 2 9C2 8.7076 2.09942 8.47368 2.29825 8.29825L5.29825 5.29825C5.48538 5.09942 5.7193 5 6 5C6.2807 5 6.51462 5.09942 6.70175 5.29825C6.90058 5.48538 7 5.7193 7 6C7 6.2807 6.90058 6.51462 6.70175 6.70176L3.70175 9.70176Z" fill="#333333"/>
</svg>
