<svg width="24" height="24" viewBox="0 0 24 24" fill="none" xmlns="http://www.w3.org/2000/svg">
<path d="M4 8C4 6.73684 4.73684 6 6 6H14C15.2632 6 16 6.73684 16 8V16C16 17.2632 15.2632 18 14 18H6C4.73684 18 4 17.2632 4 16V8ZM2 8V16C2 18.2456 3.75439 20 6 20H14C16.2456 20 18 18.2456 18 16V8C18 5.75438 16.2456 4 14 4H6C3.75439 4 2 5.75438 2 8ZM21.0877 9.19298C20.6667 9.54386 20 9.21052 20 8.66667V15.3333C20 14.7895 20.6667 14.4561 21.0877 14.807L18 12.4912V11.5088L21.0877 9.19298ZM19.8596 7.61403L16 10.4912V13.5088L19.8596 16.386C20.7193 17.0702 22 16.4561 22 15.3333V8.66667C22 7.54386 20.7193 6.92982 19.8596 7.61403Z" fill="#333333"/>
</svg>
