<svg width="24" height="24" viewBox="0 0 24 24" fill="none" xmlns="http://www.w3.org/2000/svg">
<path d="M8.98246 3C9.54386 3 10.0175 3.19883 10.4035 3.59649C10.8012 3.98246 11 4.45614 11 5.01754V8.98246C11 9.54386 10.8012 10.0234 10.4035 10.4211C10.0175 10.807 9.54386 11 8.98246 11H5.01754C4.45614 11 3.97661 10.807 3.57895 10.4211C3.19298 10.0234 3 9.54386 3 8.98246V5.01754C3 4.45614 3.19298 3.98246 3.57895 3.59649C3.97661 3.19883 4.45614 3 5.01754 3H8.98246ZM5.01754 5C4.95906 5 4.92982 4.9883 4.92982 4.96491C4.92982 4.94152 4.94152 4.92982 4.96491 4.92982C4.9883 4.92982 5 4.95906 5 5.01754V8.98246C5 9.04094 4.9883 9.07018 4.96491 9.07018C4.94152 9.07018 4.92982 9.05848 4.92982 9.03509C4.92982 9.0117 4.95906 9 5.01754 9H8.98246C9.04094 9 9.07018 9.0117 9.07018 9.03509C9.07018 9.05848 9.05848 9.07018 9.03509 9.07018C9.0117 9.07018 9 9.04094 9 8.98246V5.01754C9 4.95906 9.0117 4.92982 9.03509 4.92982C9.05848 4.92982 9.07018 4.94152 9.07018 4.96491C9.07018 4.9883 9.04094 5 8.98246 5H5.01754ZM18.9825 3C19.5439 3 20.0175 3.19883 20.4035 3.59649C20.8012 3.98246 21 4.45614 21 5.01754V8.98246C21 9.54386 20.8012 10.0234 20.4035 10.4211C20.0175 10.807 19.5439 11 18.9825 11H15.0175C14.4561 11 13.9766 10.807 13.5789 10.4211C13.193 10.0234 13 9.54386 13 8.98246V5.01754C13 4.45614 13.193 3.98246 13.5789 3.59649C13.9766 3.19883 14.4561 3 15.0175 3H18.9825ZM15.0175 5C14.9591 5 14.9298 4.9883 14.9298 4.96491C14.9298 4.94152 14.9415 4.92982 14.9649 4.92982C14.9883 4.92982 15 4.95906 15 5.01754V8.98246C15 9.04094 14.9883 9.07018 14.9649 9.07018C14.9415 9.07018 14.9298 9.05848 14.9298 9.03509C14.9298 9.0117 14.9591 9 15.0175 9H18.9825C19.0409 9 19.0702 9.0117 19.0702 9.03509C19.0702 9.05848 19.0585 9.07018 19.0351 9.07018C19.0117 9.07018 19 9.04094 19 8.98246V5.01754C19 4.95906 19.0117 4.92982 19.0351 4.92982C19.0585 4.92982 19.0702 4.94152 19.0702 4.96491C19.0702 4.9883 19.0409 5 18.9825 5H15.0175ZM8.98246 13C9.54386 13 10.0175 13.1988 10.4035 13.5965C10.8012 13.9825 11 14.4561 11 15.0175V18.9825C11 19.5439 10.8012 20.0234 10.4035 20.4211C10.0175 20.807 9.54386 21 8.98246 21H5.01754C4.45614 21 3.97661 20.807 3.57895 20.4211C3.19298 20.0234 3 19.5439 3 18.9825V15.0175C3 14.4561 3.19298 13.9825 3.57895 13.5965C3.97661 13.1988 4.45614 13 5.01754 13H8.98246ZM5.01754 15C4.95906 15 4.92982 14.9883 4.92982 14.9649C4.92982 14.9415 4.94152 14.9298 4.96491 14.9298C4.9883 14.9298 5 14.9591 5 15.0175V18.9825C5 19.0409 4.9883 19.0702 4.96491 19.0702C4.94152 19.0702 4.92982 19.0585 4.92982 19.0351C4.92982 19.0117 4.95906 19 5.01754 19H8.98246C9.04094 19 9.07018 19.0117 9.07018 19.0351C9.07018 19.0585 9.05848 19.0702 9.03509 19.0702C9.0117 19.0702 9 19.0409 9 18.9825V15.0175C9 14.9591 9.0117 14.9298 9.03509 14.9298C9.05848 14.9298 9.07018 14.9415 9.07018 14.9649C9.07018 14.9883 9.04094 15 8.98246 15H5.01754ZM18.9825 13C19.5439 13 20.0175 13.1988 20.4035 13.5965C20.8012 13.9825 21 14.4561 21 15.0175V18.9825C21 19.5439 20.8012 20.0234 20.4035 20.4211C20.0175 20.807 19.5439 21 18.9825 21H15.0175C14.4561 21 13.9766 20.807 13.5789 20.4211C13.193 20.0234 13 19.5439 13 18.9825V15.0175C13 14.4561 13.193 13.9825 13.5789 13.5965C13.9766 13.1988 14.4561 13 15.0175 13H18.9825ZM15.0175 15C14.9591 15 14.9298 14.9883 14.9298 14.9649C14.9298 14.9415 14.9415 14.9298 14.9649 14.9298C14.9883 14.9298 15 14.9591 15 15.0175V18.9825C15 19.0409 14.9883 19.0702 14.9649 19.0702C14.9415 19.0702 14.9298 19.0585 14.9298 19.0351C14.9298 19.0117 14.9591 19 15.0175 19H18.9825C19.0409 19 19.0702 19.0117 19.0702 19.0351C19.0702 19.0585 19.0585 19.0702 19.0351 19.0702C19.0117 19.0702 19 19.0409 19 18.9825V15.0175C19 14.9591 19.0117 14.9298 19.0351 14.9298C19.0585 14.9298 19.0702 14.9415 19.0702 14.9649C19.0702 14.9883 19.0409 15 18.9825 15H15.0175Z" fill="#333333"/>
</svg>
