<svg width="24" height="24" viewBox="0 0 24 24" fill="none" xmlns="http://www.w3.org/2000/svg">
<path d="M1.96497 12C2.29245 10.6082 2.87725 9.33918 3.71935 8.19298C4.57315 7.04678 5.60824 6.11696 6.82461 5.40351L8.28076 6.85965C7.25152 7.35088 6.36847 8.04094 5.63163 8.92983C4.90649 9.81871 4.37432 10.8421 4.03514 12C4.38602 13.2047 4.94157 14.2632 5.70181 15.1754C6.47374 16.076 7.39771 16.7719 8.47374 17.2632C9.56146 17.7544 10.7369 18 12.0001 18C13.041 18 14.0234 17.8304 14.9474 17.4912C15.8831 17.152 16.7135 16.6608 17.4387 16.0175L18.8071 17.386C17.8831 18.2164 16.8363 18.8596 15.6667 19.3158C14.4971 19.7719 13.2749 20 12.0001 20C10.4328 20 8.94742 19.6608 7.54391 18.9825C6.1404 18.2924 4.94742 17.3392 3.96497 16.1228C2.99421 14.9064 2.32754 13.5322 1.96497 12ZM8.80707 4.5614C9.83631 4.18714 10.9006 4 12.0001 4C13.579 4 15.0644 4.33918 16.4562 5.01754C17.8597 5.69591 19.0468 6.64328 20.0176 7.85965C21.0001 9.07602 21.6726 10.4561 22.0351 12C21.8597 12.7251 21.6082 13.4152 21.2808 14.0702C20.965 14.7134 20.5848 15.3216 20.1404 15.8947L18.7018 14.4561C18.9825 14.0936 19.2281 13.7076 19.4387 13.2982C19.6609 12.8772 19.8363 12.4444 19.965 12C19.6141 10.7953 19.0527 9.74269 18.2808 8.84211C17.5205 7.92983 16.5965 7.22807 15.5088 6.73684C14.4328 6.24561 13.2632 6 12.0001 6C11.427 6 10.9357 6.09357 10.5264 6.2807L8.80707 4.5614ZM2.00005 3C2.00005 2.7193 2.09947 2.48538 2.2983 2.29825C2.49713 2.09942 2.73105 2 3.00005 2C3.29245 2 3.52637 2.09942 3.70181 2.29825L21.7018 20.2982C21.9006 20.4737 22.0001 20.7076 22.0001 21C22.0001 21.269 21.9006 21.5029 21.7018 21.7018C21.5147 21.9006 21.2808 22 21.0001 22C20.7194 22 20.4854 21.9006 20.2983 21.7018L14.0351 15.4386C13.5322 15.731 12.9825 15.9123 12.386 15.9825C11.8012 16.0409 11.2281 15.9708 10.6667 15.7719C10.1053 15.5731 9.60824 15.2573 9.17549 14.8246C8.74274 14.3918 8.42695 13.8947 8.22812 13.3333C8.02929 12.7719 7.95912 12.1988 8.0176 11.614C8.08777 11.0175 8.26906 10.4678 8.56146 9.96491L2.2983 3.70176C2.09947 3.51462 2.00005 3.2807 2.00005 3ZM12.4562 8.21053C12.8772 8.19883 13.2983 8.27485 13.7194 8.4386C14.1404 8.60234 14.5088 8.84795 14.8246 9.17544C15.1521 9.49123 15.3977 9.85965 15.5615 10.2807C15.7252 10.7018 15.8012 11.1228 15.7895 11.5439L12.4562 8.21053Z" fill="#333333"/>
</svg>
