<svg width="24" height="24" viewBox="0 0 24 24" fill="none" xmlns="http://www.w3.org/2000/svg">
<path d="M0 10C0.327485 8.60819 0.912281 7.33918 1.75439 6.19298C2.60819 5.04678 3.64327 4.11696 4.85965 3.40351L6.31579 4.85965C5.28655 5.35088 4.40351 6.04094 3.66667 6.92983C2.94152 7.81871 2.40936 8.8421 2.07018 10C2.42105 11.2047 2.97661 12.2632 3.73684 13.1754C4.50877 14.076 5.43275 14.7719 6.50877 15.2632C7.59649 15.7544 8.77193 16 10.0351 16C11.076 16 12.0585 15.8304 12.9825 15.4912C13.9181 15.152 14.7485 14.6608 15.4737 14.0175L16.8421 15.386C15.9181 16.2164 14.8713 16.8596 13.7018 17.3158C12.5322 17.7719 11.3099 18 10.0351 18C8.46784 18 6.98246 17.6608 5.57895 16.9825C4.17544 16.2924 2.98246 15.3392 2 14.1228C1.02924 12.9064 0.362573 11.5322 0 10ZM6.8421 2.5614C7.87134 2.18714 8.93567 2 10.0351 2C11.614 2 13.0994 2.33918 14.4912 3.01754C15.8947 3.69591 17.0819 4.64328 18.0526 5.85965C19.0351 7.07602 19.7076 8.45614 20.0702 10C19.8947 10.7251 19.6433 11.4152 19.3158 12.0702C19 12.7134 18.6199 13.3216 18.1754 13.8947L16.7368 12.4561C17.0175 12.0936 17.2632 11.7076 17.4737 11.2982C17.6959 10.8772 17.8713 10.4444 18 10C17.6491 8.79532 17.0877 7.74269 16.3158 6.84211C15.5556 5.92983 14.6316 5.22807 13.5439 4.73684C12.4678 4.24561 11.2982 4 10.0351 4C9.46199 4 8.97076 4.09357 8.5614 4.2807L6.8421 2.5614ZM0.0350877 1C0.0350877 0.719299 0.134503 0.485381 0.333333 0.298246C0.532164 0.0994153 0.766082 0 1.03509 0C1.32749 0 1.5614 0.0994153 1.73684 0.298246L19.7368 18.2982C19.9357 18.4737 20.0351 18.7076 20.0351 19C20.0351 19.269 19.9357 19.5029 19.7368 19.7018C19.5497 19.9006 19.3158 20 19.0351 20C18.7544 20 18.5205 19.9006 18.3333 19.7018L12.0702 13.4386C11.5673 13.731 11.0175 13.9123 10.4211 13.9825C9.83626 14.0409 9.26316 13.9708 8.70175 13.7719C8.14035 13.5731 7.64327 13.2573 7.21053 12.8246C6.77778 12.3918 6.46199 11.8947 6.26316 11.3333C6.06433 10.7719 5.99415 10.1988 6.05263 9.61403C6.12281 9.01754 6.30409 8.46784 6.59649 7.96491L0.333333 1.70176C0.134503 1.51462 0.0350877 1.2807 0.0350877 1ZM10.4912 6.21053C10.9123 6.19883 11.3333 6.27485 11.7544 6.4386C12.1754 6.60234 12.5439 6.84795 12.8596 7.17544C13.1871 7.49123 13.4327 7.85965 13.5965 8.2807C13.7602 8.70175 13.8363 9.12281 13.8246 9.54386L10.4912 6.21053Z" fill="#333333"/>
</svg>
