<svg width="24" height="24" viewBox="0 0 24 24" fill="none" xmlns="http://www.w3.org/2000/svg">
<path d="M15 13.0011H19V19.0011H5V13.0011H9V11.0011H5C3.87719 11.0011 3 11.8782 3 13.0011V19.0011C3 20.1239 3.87719 21.0011 5 21.0011H19C20.1228 21.0011 21 20.1239 21 19.0011V13.0011C21 11.8782 20.1228 11.0011 19 11.0011H15V13.0011ZM12 2.58L6.57895 8.00105L8 9.42211L13.4211 4.00105L12 2.58ZM17.4211 8.00105L12 2.58L10.5789 4.00105L16 9.42211L17.4211 8.00105ZM13 17.0011V4.00105H11V17.0011H13Z" fill="#333333"/>
</svg>
