<svg width="24" height="24" viewBox="0 0 24 24" fill="none" xmlns="http://www.w3.org/2000/svg">
<path d="M2 12C2 17.5263 6.47368 22 12 22C17.5263 22 22 17.5263 22 12C22 6.47368 17.5263 2 12 2C6.47368 2 2 6.47368 2 12ZM8.50877 10.4912V9.49123C8.50877 7.57895 10.0526 6 12 6C13.9474 6 15.5088 7.5614 15.5088 9.49123C15.5263 11.7018 13 12.0877 13 13.3333V14.3333H11V13.3333C11 11.1228 13.5263 10.6842 13.5088 9.49123C13.5088 8.54386 12.9649 8 12 8C11.0351 8 10.5088 8.52632 10.5088 9.49123V10.4912H8.50877ZM11 18V15.3333H13V18H11Z" fill="#333333"/>
</svg>
