<svg width="24" height="24" viewBox="0 0 24 24" fill="none" xmlns="http://www.w3.org/2000/svg">
<path d="M6 7V4C6 2.87719 5.12281 2 4 2H1V4H4V7H6ZM19.807 5H4V16C4 17.1228 4.87719 18 6 18H18.1579C19.1053 18 19.9649 17.2807 20.1404 16.3509L21.7719 7.35088C21.9825 6.07017 21.0877 5 19.807 5ZM17 19C15.8772 19 15 19.8772 15 21C15 22.1228 15.8772 23 17 23C18.1228 23 19 22.1228 19 21C19 19.8772 18.1228 19 17 19ZM7 19C5.87719 19 5 19.8772 5 21C5 22.1228 5.87719 23 7 23C8.12281 23 9 22.1228 9 21C9 19.8772 8.12281 19 7 19Z" fill="#333333"/>
</svg>
