<svg width="24" height="24" viewBox="0 0 24 24" fill="none" xmlns="http://www.w3.org/2000/svg">
<path d="M11.0016 6.99501V12.4161L15.0016 16.4161L16.4226 14.995L13.0016 11.574V6.99501H11.0016ZM21.0016 14.995V11.995C21.0016 10.0301 20.3525 8.08273 19.1419 6.50378C17.949 4.94238 16.2297 3.81957 14.3349 3.3108C12.4226 2.80203 10.3876 2.92484 8.54545 3.67922C6.73843 4.43361 5.19457 5.78448 4.21212 7.50378C3.21212 9.22308 2.82615 11.2231 3.07177 13.1704C3.33492 15.1354 4.24721 16.9599 5.65071 18.3459C7.03668 19.7494 8.86124 20.6617 10.8262 20.9248C12.7735 21.1705 14.7735 20.7845 16.4928 19.7845L17.37 19.2933L16.37 17.5564L15.5104 18.0652C14.1244 18.8547 12.6683 19.1354 11.0718 18.9248C9.51036 18.7319 8.19457 18.0652 7.05422 16.9424C5.93142 15.802 5.26475 14.4862 5.07177 12.9248C4.86124 11.3283 5.14194 9.8722 5.93142 8.48624C6.73843 7.11782 7.8437 6.13536 9.31738 5.53887C10.7911 4.90729 12.2648 4.81957 13.8086 5.24063C15.3525 5.66168 16.5981 6.4687 17.563 7.73185C18.5279 8.99501 19.0016 10.3985 19.0016 11.995V14.995H21.0016ZM22.0016 11.574L20.0016 13.574L18.0016 11.574L16.5805 12.995L20.0016 16.4161L23.4226 12.995L22.0016 11.574Z" fill="#333333"/>
</svg>
